<svg width="20" height="20" viewBox="0 0 20 20" fill="none" xmlns="http://www.w3.org/2000/svg">
<rect width="20" height="20" fill="white"/>
<path d="M11.2905 14.1105H10.621V14.1072L11.2905 14.1105Z" fill="#292929"/>
<path d="M10.6243 13.441L10.631 10.7763L10.6343 9.58457V8.90166L10.6377 8.08484C10.641 7.72665 10.7816 7.39189 11.0327 7.13747C11.2871 6.8864 11.6118 6.75584 11.9834 6.74915L14.0389 6.75584C14.551 6.75584 15.0097 7.04039 15.2339 7.49901L16.5295 10.1101L17.9991 10.1135C18.2669 10.1168 18.5179 10.2206 18.7088 10.4114C18.8962 10.6022 19 10.8533 19 11.1211L18.9933 13.1297C18.9933 13.682 18.5414 14.1306 17.989 14.1306H17.6208C17.6409 14.0201 17.6509 13.9097 17.6509 13.7959C17.6509 13.682 17.6442 13.5682 17.6241 13.4611C17.6208 13.4477 17.6208 13.4377 17.6174 13.4243C17.6174 13.4142 17.6141 13.4075 17.6107 13.3975C17.6074 13.3774 17.6041 13.3573 17.5974 13.3406C17.594 13.3138 17.5873 13.287 17.5806 13.2636C17.5773 13.2469 17.5739 13.2335 17.5672 13.2167C17.5605 13.1933 17.5538 13.1665 17.5438 13.1431C17.5304 13.0996 17.5137 13.056 17.4936 13.0125V13.0058C17.4701 12.9556 17.4467 12.9054 17.4199 12.8552C17.3998 12.8184 17.3798 12.7815 17.353 12.7447C17.3362 12.7112 17.3162 12.6811 17.2961 12.651C17.2659 12.6041 17.2291 12.5572 17.1923 12.5137C17.1555 12.4669 17.1153 12.4233 17.0751 12.3832L17.0651 12.3731C17.0182 12.3263 16.9714 12.2827 16.9211 12.2426C16.881 12.2091 16.8408 12.1756 16.7939 12.1455C16.7605 12.1221 16.727 12.0986 16.6902 12.0785C16.6801 12.0685 16.6701 12.0618 16.6567 12.0584C16.6199 12.035 16.583 12.0149 16.5429 11.9948C16.4726 11.958 16.3989 11.9279 16.3219 11.9011C16.2784 11.8844 16.2315 11.8676 16.188 11.8576C16.1445 11.8442 16.0976 11.8308 16.0508 11.8241C16.0106 11.8141 15.9671 11.8074 15.9202 11.8007C15.8934 11.7973 15.8633 11.794 15.8332 11.7906C15.7729 11.7839 15.7127 11.7806 15.6491 11.7806H15.6424C15.1101 11.7806 14.6079 11.9882 14.2263 12.3664C14.1795 12.4133 14.1359 12.4602 14.0958 12.5104C14.0891 12.5171 14.0857 12.5204 14.0824 12.5271C14.0489 12.5673 14.0154 12.6108 13.9886 12.6543C13.9786 12.6644 13.9719 12.6744 13.9686 12.6845C13.9317 12.7347 13.9016 12.7882 13.8748 12.8384C13.8447 12.892 13.8179 12.9489 13.7945 13.0058C13.771 13.0594 13.751 13.1163 13.7342 13.1732C13.7275 13.1799 13.7275 13.1899 13.7242 13.2C13.7108 13.2368 13.7007 13.2736 13.6941 13.3138C13.6807 13.354 13.674 13.3941 13.6673 13.4343C13.6639 13.4377 13.6639 13.4444 13.6639 13.4477C13.6438 13.5582 13.6338 13.6686 13.6338 13.7825L13.6639 14.1172L11.2905 14.1105L10.621 14.1072L10.6243 13.441ZM13.4095 10.003C13.4731 10.0666 13.5568 10.1001 13.6472 10.1001L15.7796 10.1068L14.6347 7.79695C14.5209 7.56931 14.2933 7.42536 14.0389 7.42536L13.3191 7.42201L13.3124 9.76534C13.3124 9.85572 13.3459 9.93941 13.4095 10.003Z" fill="#292929"/>
<path d="M3.95588 13.421C4.02618 13.0126 4.22034 12.6343 4.51827 12.3364C4.8999 11.9615 5.40204 11.7539 5.93431 11.7539H5.94101C6.47662 11.7539 6.98211 11.9648 7.36039 12.3464C7.65833 12.6444 7.85249 13.0227 7.91609 13.4311C7.93618 13.5415 7.94287 13.652 7.94287 13.7658C7.94287 13.8796 7.93283 13.9935 7.91274 14.1006C7.84579 14.5123 7.65163 14.8873 7.35035 15.1852C6.97207 15.5635 6.46993 15.771 5.93766 15.771H5.93096C4.93673 15.7677 4.10987 15.0413 3.95588 14.0905C3.93579 13.9801 3.92575 13.8696 3.92575 13.7558C3.92575 13.642 3.93579 13.5315 3.95588 13.421ZM5.93096 15.1015C6.2925 15.0948 6.62726 14.9643 6.87833 14.7098C7.13275 14.4588 7.27335 14.124 7.27335 13.7658C7.2767 13.4076 7.1361 13.0695 6.88503 12.8184C6.63396 12.564 6.29585 12.4234 5.94101 12.4234H5.93431C5.19784 12.4234 4.59862 13.0193 4.59527 13.7558C4.59527 14.4956 5.19449 15.0982 5.93096 15.1015Z" fill="#292929"/>
<path d="M13.6658 13.421C13.7361 13.0126 13.9303 12.6343 14.2282 12.3364C14.6099 11.9615 15.112 11.7539 15.6443 11.7539H15.651C16.1866 11.7539 16.6921 11.9648 17.0703 12.3464C17.3683 12.6444 17.5624 13.0227 17.6261 13.4311C17.6461 13.5415 17.6528 13.652 17.6528 13.7658C17.6528 13.8796 17.6428 13.9935 17.6227 14.1006C17.5558 14.5123 17.3616 14.8873 17.0603 15.1852C16.682 15.5635 16.1799 15.771 15.6476 15.771H15.6409C14.6467 15.7677 13.8198 15.0413 13.6658 14.0905C13.6458 13.9801 13.6357 13.8696 13.6357 13.7558C13.6357 13.642 13.6458 13.5315 13.6658 13.421ZM15.6409 15.1015C16.0025 15.0948 16.3372 14.9643 16.5883 14.7098C16.8427 14.4588 16.9833 14.124 16.9833 13.7658C16.9867 13.4076 16.8461 13.0695 16.595 12.8184C16.3439 12.564 16.0058 12.4234 15.651 12.4234H15.6443C14.9078 12.4234 14.3086 13.0193 14.3052 13.7558C14.3052 14.4956 14.9045 15.0982 15.6409 15.1015Z" fill="#292929"/>
<path d="M3.41369 6.83282C3.48064 7.00689 3.58107 7.16758 3.71832 7.30483L3.80201 7.38852L6.8115 10.4181H7.75887L8.53217 10.4215C8.63595 10.4281 8.75311 10.3779 8.83345 10.2976C8.9138 10.2172 8.96066 10.1101 8.96066 9.9963C8.96066 9.90257 8.97071 9.81553 8.99749 9.7285C9.05105 9.49751 9.18495 9.29331 9.36572 9.14936L5.63649 5.39669C5.23143 4.99163 4.61213 4.88451 4.09325 5.13223C3.69489 5.32305 3.42038 5.68459 3.34674 6.11978C3.30322 6.3675 3.32665 6.61187 3.41369 6.83282Z" fill="#292929"/>
<path d="M2.58999 13.0828C2.58999 13.3506 2.69377 13.6017 2.88123 13.7925C3.07204 13.9833 3.32311 14.0871 3.59092 14.0871L3.95581 14.0905C3.93573 13.98 3.92568 13.8695 3.92568 13.7557C3.92568 13.6419 3.93573 13.5314 3.95581 13.4209C4.02611 13.0125 4.22027 12.6343 4.51821 12.3363C4.89984 11.9614 5.40198 11.7538 5.93424 11.7538H5.94094C6.47656 11.7538 6.98204 11.9647 7.36032 12.3464C7.65826 12.6443 7.85242 13.0226 7.91602 13.431C7.93611 13.5415 7.94281 13.6519 7.94281 13.7657C7.94281 13.8796 7.93276 13.9934 7.91268 14.1005L10.6209 14.1072L10.6242 13.441L10.6309 10.7763L10.6343 9.58458V8.90167H10.0551C9.79403 8.90167 9.553 8.99206 9.36554 9.1494C9.18477 9.29334 9.05086 9.49755 8.9973 9.72853C8.97052 9.81557 8.96048 9.90261 8.96048 9.99634C8.96048 10.1102 8.91361 10.2173 8.83327 10.2976C8.75292 10.378 8.63576 10.4282 8.53198 10.4215L7.75869 10.4181H6.81132L3.6947 10.4081H3.69135C3.40011 10.4081 3.12561 10.5186 2.91806 10.7261C2.7105 10.9303 2.59669 11.2082 2.59334 11.4994L2.58999 13.0828Z" fill="#292929"/>
<path d="M1.0003 7.05047C0.996956 7.39862 1.13086 7.72333 1.37523 7.97106C1.61961 8.21543 1.94768 8.35268 2.29248 8.35268H2.29583C2.64398 8.35268 2.96869 8.21878 3.21307 7.97441L3.80225 7.38857L3.71856 7.30488C3.5813 7.16763 3.48088 7.00695 3.41392 6.83287L2.74106 7.50239C2.62054 7.61956 2.4699 7.68316 2.29583 7.68316C2.12845 7.68316 1.97111 7.61621 1.85059 7.49904C1.73343 7.37853 1.66648 7.22119 1.66982 7.05381C1.66982 6.88643 1.73343 6.7291 1.85394 6.60858L2.34604 6.11983L1.87403 5.64447L1.38193 6.13322C1.13421 6.3776 1.0003 6.70566 1.0003 7.05047Z" fill="#292929"/>
</svg>
