<svg width="20" height="20" viewBox="0 0 20 20" fill="none" xmlns="http://www.w3.org/2000/svg">
<rect width="20" height="20" fill="white"/>
<path d="M10.2721 6.17888C11.7022 6.17888 12.8615 5.01955 12.8615 3.58944C12.8615 2.15933 11.7022 1 10.2721 1C8.84195 1 7.68262 2.15933 7.68262 3.58944C7.68262 5.01955 8.84195 6.17888 10.2721 6.17888Z" fill="#292929"/>
<path d="M6.219 14.0968C5.81905 14.4458 5.6931 15.0097 5.90646 15.4949L7.12534 18.275C7.32409 18.7291 7.76892 18.9999 8.23521 18.9999C8.39711 18.9999 8.56211 18.967 8.72038 18.8978C9.3328 18.6294 9.61211 17.9148 9.34366 17.3023L8.48155 15.3361L9.42823 14.509L7.55284 12.9315L6.219 14.0968Z" fill="#292929"/>
<path d="M12.0611 15.3362L11.1995 17.3024C10.9306 17.915 11.2099 18.629 11.8228 18.898C11.981 18.9673 12.1461 19 12.3085 19C12.7748 19 13.2191 18.7292 13.4184 18.2746L14.6371 15.4954C14.8497 15.0094 14.7239 14.4458 14.325 14.0964L12.991 12.9313L11.115 14.5092L12.0611 15.3362Z" fill="#292929"/>
<path d="M16.2634 10.5388L12.6694 7.23209C12.6249 7.19123 12.5769 7.15592 12.5269 7.12605C12.3901 6.99338 12.2041 6.91101 11.9984 6.91101H8.54569C8.33892 6.91101 8.15207 6.99403 8.01487 7.12761C7.96573 7.15722 7.91879 7.19226 7.87483 7.23261L4.27948 10.5388C3.92776 10.8626 3.90487 11.4095 4.22866 11.7616C4.39884 11.9469 4.63159 12.0409 4.865 12.0409C5.07474 12.0409 5.28474 11.9654 5.4509 11.8124L7.78379 9.66674V11.7153H12.7593V9.66623L15.0919 11.8124C15.2583 11.9652 15.4683 12.0409 15.6774 12.0409C15.9108 12.0409 16.1442 11.9469 16.3147 11.7612C16.6381 11.4093 16.6156 10.8621 16.2634 10.5388Z" fill="#292929"/>
</svg>
