<svg width="20" height="20" viewBox="0 0 20 20" fill="none" xmlns="http://www.w3.org/2000/svg">
<rect width="20" height="20" fill="white"/>
<path fill-rule="evenodd" clip-rule="evenodd" d="M1 5C1 4.44772 1.44772 4 2 4H6.29236C6.68852 4 7.07574 4.11764 7.40494 4.33802L18.1126 11.5059C18.6671 11.8772 19 12.5006 19 13.1679V15C19 15.5523 18.5523 16 18 16H2C1.44772 16 1 15.5523 1 15V5ZM8.74706 12.5721L5.37588 10.2916C5.27014 10.2201 5.2049 10.1024 5.20026 9.97478C5.19564 9.84722 5.25218 9.72508 5.35246 9.64608L8.65244 7.04608L9.14754 7.67448L6.27754 9.9357L9.19442 11.9089L9.32364 11.7173C9.36658 11.6536 9.4623 11.6601 9.49624 11.729L10.0552 12.8631C10.0894 12.9324 10.0352 13.0127 9.95812 13.007L8.69724 12.9136C8.62064 12.9079 8.57878 12.8216 8.62172 12.7579L8.74706 12.5721Z" fill="#292929"/>
</svg>
