<svg width="18" height="11" viewBox="0 0 18 11" fill="none" xmlns="http://www.w3.org/2000/svg">
<path d="M10.29 9.11028H9.62052V9.10693L10.29 9.11028Z" fill="#666666"/>
<path d="M9.6243 8.44089L9.63099 5.7762L9.63434 4.58445V3.90153L9.63769 3.08472C9.64104 2.72652 9.78164 2.39176 10.0327 2.13735C10.2871 1.88628 10.6118 1.75572 10.9834 1.74902L13.0389 1.75572C13.551 1.75572 14.0097 2.04027 14.2339 2.49889L15.5295 5.11002L16.9991 5.11337C17.2669 5.11672 17.5179 5.22049 17.7088 5.41131C17.8962 5.60212 18 5.85319 18 6.121L17.9933 8.12956C17.9933 8.68192 17.5414 9.1305 16.989 9.1305H16.6208C16.6409 9.02003 16.6509 8.90955 16.6509 8.79574C16.6509 8.68192 16.6442 8.5681 16.6241 8.46098C16.6208 8.44759 16.6208 8.43754 16.6174 8.42415C16.6174 8.41411 16.6141 8.40741 16.6107 8.39737C16.6074 8.37729 16.6041 8.3572 16.5974 8.34046C16.594 8.31368 16.5873 8.2869 16.5806 8.26347C16.5773 8.24673 16.5739 8.23334 16.5672 8.2166C16.5605 8.19317 16.5538 8.16639 16.5438 8.14295C16.5304 8.09943 16.5137 8.05592 16.4936 8.0124V8.0057C16.4701 7.95549 16.4467 7.90527 16.4199 7.85506C16.3998 7.81823 16.3798 7.78141 16.353 7.74459C16.3362 7.71111 16.3162 7.68098 16.2961 7.65085C16.2659 7.60399 16.2291 7.55712 16.1923 7.5136C16.1555 7.46674 16.1153 7.42322 16.0751 7.38305L16.0651 7.373C16.0182 7.32614 15.9714 7.28262 15.9211 7.24245C15.881 7.20897 15.8408 7.17549 15.7939 7.14537C15.7605 7.12193 15.727 7.0985 15.6902 7.07841C15.6801 7.06837 15.6701 7.06168 15.6567 7.05833C15.6199 7.03489 15.583 7.01481 15.5429 6.99472C15.4726 6.9579 15.3989 6.92777 15.3219 6.90099C15.2784 6.88425 15.2315 6.86751 15.188 6.85747C15.1445 6.84408 15.0976 6.83069 15.0508 6.824C15.0106 6.81395 14.9671 6.80726 14.9202 6.80056C14.8934 6.79721 14.8633 6.79387 14.8332 6.79052C14.7729 6.78382 14.7127 6.78048 14.6491 6.78048H14.6424C14.1101 6.78048 13.6079 6.98803 13.2263 7.36631C13.1795 7.41317 13.1359 7.46004 13.0958 7.51026C13.0891 7.51695 13.0857 7.5203 13.0824 7.52699C13.0489 7.56716 13.0154 7.61068 12.9886 7.6542C12.9786 7.66425 12.9719 7.67429 12.9686 7.68433C12.9317 7.73455 12.9016 7.78811 12.8748 7.83832C12.8447 7.89188 12.8179 7.94879 12.7945 8.0057C12.771 8.05926 12.751 8.11617 12.7342 8.17308C12.7275 8.17978 12.7275 8.18982 12.7242 8.19986C12.7108 8.23669 12.7007 8.27351 12.6941 8.31368C12.6807 8.35385 12.674 8.39402 12.6673 8.43419C12.6639 8.43754 12.6639 8.44424 12.6639 8.44759C12.6438 8.55806 12.6338 8.66853 12.6338 8.78235L12.6639 9.11711L10.2905 9.11041L9.62095 9.10706L9.6243 8.44089ZM12.4095 5.0029C12.4731 5.0665 12.5568 5.09998 12.6472 5.09998L14.7796 5.10667L13.6347 2.79682C13.5209 2.56919 13.2933 2.42524 13.0389 2.42524L12.3191 2.42189L12.3124 4.76522C12.3124 4.8556 12.3459 4.93929 12.4095 5.0029Z" fill="#666666"/>
<path d="M2.95539 8.42101C3.02569 8.01261 3.21985 7.63433 3.51779 7.33639C3.89941 6.96146 4.40155 6.75391 4.93382 6.75391H4.94052C5.47613 6.75391 5.98162 6.96481 6.3599 7.34643C6.65784 7.64437 6.852 8.02265 6.9156 8.43106C6.93569 8.54153 6.94238 8.652 6.94238 8.76582C6.94238 8.87964 6.93234 8.99346 6.91225 9.10058C6.8453 9.51234 6.65114 9.88727 6.34986 10.1852C5.97158 10.5635 5.46944 10.771 4.93717 10.771H4.93047C3.93624 10.7677 3.10938 10.0413 2.95539 9.09054C2.9353 8.98006 2.92526 8.86959 2.92526 8.75577C2.92526 8.64196 2.9353 8.53149 2.95539 8.42101ZM4.93047 10.1015C5.29202 10.0948 5.62678 9.96426 5.87785 9.70984C6.13226 9.45877 6.27286 9.12401 6.27286 8.76582C6.27621 8.40762 6.13561 8.06952 5.88454 7.81845C5.63347 7.56403 5.29536 7.42343 4.94052 7.42343H4.93382C4.19735 7.42343 3.59813 8.0193 3.59478 8.75577C3.59478 9.4956 4.194 10.0982 4.93047 10.1015Z" fill="#666666"/>
<path d="M12.6654 8.42101C12.7356 8.01261 12.9298 7.63433 13.2277 7.33639C13.6094 6.96146 14.1115 6.75391 14.6438 6.75391H14.6505C15.1861 6.75391 15.6916 6.96481 16.0699 7.34643C16.3678 7.64437 16.562 8.02265 16.6256 8.43106C16.6456 8.54153 16.6523 8.652 16.6523 8.76582C16.6523 8.87964 16.6423 8.99346 16.6222 9.10058C16.5553 9.51234 16.3611 9.88727 16.0598 10.1852C15.6815 10.5635 15.1794 10.771 14.6471 10.771H14.6404C13.6462 10.7677 12.8193 10.0413 12.6654 9.09054C12.6453 8.98006 12.6352 8.86959 12.6352 8.75577C12.6352 8.64196 12.6453 8.53149 12.6654 8.42101ZM14.6404 10.1015C15.002 10.0948 15.3367 9.96426 15.5878 9.70984C15.8422 9.45877 15.9828 9.12401 15.9828 8.76582C15.9862 8.40762 15.8456 8.06952 15.5945 7.81845C15.3434 7.56403 15.0053 7.42343 14.6505 7.42343H14.6438C13.9073 7.42343 13.3081 8.0193 13.3047 8.75577C13.3047 9.4956 13.904 10.0982 14.6404 10.1015Z" fill="#666666"/>
<path d="M2.4132 1.83282C2.48015 2.00689 2.58058 2.16758 2.71783 2.30483L2.80152 2.38852L5.81102 5.4181H6.75839L7.53168 5.42145C7.63546 5.42815 7.75262 5.37793 7.83297 5.29759C7.91331 5.21725 7.96017 5.11012 7.96017 4.9963C7.96017 4.90257 7.97022 4.81553 7.997 4.7285C8.05056 4.49751 8.18446 4.29331 8.36523 4.14936L4.63601 0.396693C4.23095 -0.00836773 3.61164 -0.115491 3.09276 0.132232C2.6944 0.323046 2.41989 0.684587 2.34625 1.11978C2.30273 1.3675 2.32616 1.61187 2.4132 1.83282Z" fill="#666666"/>
<path d="M1.59048 8.08302C1.59048 8.35082 1.69425 8.6019 1.88172 8.79271C2.07253 8.98352 2.3236 9.0873 2.59141 9.0873L2.9563 9.09065C2.93621 8.98017 2.92617 8.8697 2.92617 8.75589C2.92617 8.64207 2.93621 8.5316 2.9563 8.42112C3.0266 8.01272 3.22076 7.63444 3.5187 7.3365C3.90032 6.96157 4.40246 6.75402 4.93473 6.75402H4.94143C5.47704 6.75402 5.98253 6.96492 6.36081 7.34654C6.65875 7.64448 6.85291 8.02276 6.91651 8.43117C6.9366 8.54164 6.94329 8.65211 6.94329 8.76593C6.94329 8.87975 6.93325 8.99357 6.91316 9.10069L9.62138 9.10738L9.62472 8.44121L9.63142 5.77652L9.63477 4.58477V3.90186H9.05563C8.79452 3.90186 8.55349 3.99224 8.36602 4.14958C8.18525 4.29353 8.05135 4.49773 7.99779 4.72871C7.97101 4.81575 7.96096 4.90279 7.96096 4.99652C7.96096 5.11034 7.9141 5.21747 7.83376 5.29781C7.75341 5.37815 7.63625 5.42836 7.53247 5.42167L6.75918 5.41832H5.8118L2.69519 5.40828H2.69184C2.4006 5.40828 2.12609 5.51875 1.91854 5.7263C1.71099 5.9305 1.59717 6.20836 1.59383 6.4996L1.59048 8.08302Z" fill="#666666"/>
<path d="M-0.000184298 2.05053C-0.00353193 2.39868 0.130372 2.7234 0.374747 2.97112C0.619122 3.21549 0.947187 3.35275 1.29199 3.35275H1.29534C1.64349 3.35275 1.96821 3.21884 2.21258 2.97447L2.80176 2.38863L2.71807 2.30494C2.58082 2.16769 2.48039 2.00701 2.41344 1.83293L1.74057 2.50245C1.62006 2.61962 1.46941 2.68322 1.29534 2.68322C1.12796 2.68322 0.970619 2.61627 0.850106 2.49911C0.732939 2.37859 0.665988 2.22125 0.669336 2.05387C0.669336 1.88649 0.73294 1.72916 0.853454 1.60864L1.34555 1.11989L0.87354 0.644531L0.381442 1.13328C0.133719 1.37766 -0.000184298 1.70572 -0.000184298 2.05053Z" fill="#666666"/>
</svg>
