<?xml version="1.0" standalone="no"?>
<!DOCTYPE svg PUBLIC "-//W3C//DTD SVG 20010904//EN"
 "http://www.w3.org/TR/2001/REC-SVG-20010904/DTD/svg10.dtd">
<svg version="1.0" xmlns="http://www.w3.org/2000/svg"
 width="512.000000pt" height="512.000000pt" viewBox="0 0 512.000000 512.000000"
 preserveAspectRatio="xMidYMid meet">

<g transform="translate(0.000000,512.000000) scale(0.100000,-0.100000)"
fill="#000000" stroke="none">
<path d="M1617 5110 c-118 -20 -242 -69 -337 -133 -51 -34 -988 -963 -1085
-1075 -116 -134 -181 -300 -192 -487 -8 -145 30 -321 91 -419 350 -559 872
-1377 908 -1423 126 -160 355 -242 555 -200 148 32 186 58 418 288 l211 209
89 -90 c99 -99 165 -140 229 -140 23 0 82 7 131 15 171 28 201 20 311 -85 85
-80 130 -98 200 -81 103 26 169 7 233 -66 51 -57 59 -102 32 -167 -58 -134 23
-219 173 -180 67 17 106 12 159 -22 85 -56 116 -138 82 -221 -24 -56 -19 -104
14 -149 16 -21 170 -179 342 -351 322 -319 339 -333 414 -333 36 0 319 82 358
103 22 12 49 40 62 62 22 39 105 321 105 359 0 78 7 70 -751 831 -663 666
-728 734 -739 775 -10 37 -9 69 6 183 20 159 14 204 -36 266 -16 20 -101 108
-189 196 l-161 159 209 211 c180 181 213 219 240 278 36 76 61 178 61 252 0
167 -88 346 -220 449 -37 28 -1147 735 -1380 879 -158 97 -362 137 -543 107z
m238 -627 c148 -76 713 -408 744 -436 49 -47 71 -100 71 -179 0 -123 -14 -149
-228 -428 -268 -348 -425 -504 -787 -781 -250 -191 -284 -209 -393 -209 -153
0 -173 21 -408 430 -255 446 -247 428 -252 531 -3 62 0 102 13 145 38 134 57
157 419 520 353 353 383 379 506 422 54 19 81 22 160 19 83 -3 103 -7 155 -34z"/>
</g>
</svg>
