<svg width="20" height="20" viewBox="0 0 20 20" fill="none" xmlns="http://www.w3.org/2000/svg">
<g clip-path="url(#clip0_1483_842)">
<g clip-path="url(#clip1_1483_842)">
<path d="M10.5833 4.75H6.5V15.25H8.83333V11.75H10.5833C12.5142 11.75 14.0833 10.1808 14.0833 8.25C14.0833 6.31917 12.5142 4.75 10.5833 4.75ZM10.7 9.41667H8.83333V7.08333H10.7C11.3417 7.08333 11.8667 7.60833 11.8667 8.25C11.8667 8.89167 11.3417 9.41667 10.7 9.41667Z" fill="#292929"/>
</g>
<path d="M9.99984 1.66669C5.39984 1.66669 1.6665 5.40002 1.6665 10C1.6665 14.6 5.39984 18.3334 9.99984 18.3334C14.5998 18.3334 18.3332 14.6 18.3332 10C18.3332 5.40002 14.5998 1.66669 9.99984 1.66669ZM3.33317 10C3.33317 6.31669 6.3165 3.33335 9.99984 3.33335C11.5415 3.33335 12.9582 3.85835 14.0832 4.74169L4.7415 14.0834C3.85817 12.9584 3.33317 11.5417 3.33317 10ZM9.99984 16.6667C8.45817 16.6667 7.0415 16.1417 5.9165 15.2584L15.2582 5.91669C16.1415 7.04169 16.6665 8.45835 16.6665 10C16.6665 13.6834 13.6832 16.6667 9.99984 16.6667Z" fill="#292929"/>
</g>
<defs>
<clipPath id="clip0_1483_842">
<rect width="20" height="20" fill="white"/>
</clipPath>
<clipPath id="clip1_1483_842">
<rect width="14" height="14" fill="white" transform="translate(3 3)"/>
</clipPath>
</defs>
</svg>
