<svg width="20" height="20" viewBox="0 0 20 20" fill="none" xmlns="http://www.w3.org/2000/svg">
<g clip-path="url(#clip0_488_2065)">
<g clip-path="url(#clip1_488_2065)">
<path d="M10.5833 4.75H6.5V15.25H8.83333V11.75H10.5833C12.5142 11.75 14.0833 10.1808 14.0833 8.25C14.0833 6.31917 12.5142 4.75 10.5833 4.75ZM10.7 9.41667H8.83333V7.08333H10.7C11.3417 7.08333 11.8667 7.60833 11.8667 8.25C11.8667 8.89167 11.3417 9.41667 10.7 9.41667Z" fill="#666666"/>
</g>
<path d="M10.0003 1.6665C5.40033 1.6665 1.66699 5.39984 1.66699 9.99984C1.66699 14.5998 5.40033 18.3332 10.0003 18.3332C14.6003 18.3332 18.3337 14.5998 18.3337 9.99984C18.3337 5.39984 14.6003 1.6665 10.0003 1.6665ZM3.33366 9.99984C3.33366 6.3165 6.31699 3.33317 10.0003 3.33317C11.542 3.33317 12.9587 3.85817 14.0837 4.7415L4.74199 14.0832C3.85866 12.9582 3.33366 11.5415 3.33366 9.99984ZM10.0003 16.6665C8.45866 16.6665 7.04199 16.1415 5.91699 15.2582L15.2587 5.9165C16.142 7.0415 16.667 8.45817 16.667 9.99984C16.667 13.6832 13.6837 16.6665 10.0003 16.6665Z" fill="#666666"/>
</g>
<defs>
<clipPath id="clip0_488_2065">
<rect width="20" height="20" fill="white"/>
</clipPath>
<clipPath id="clip1_488_2065">
<rect width="14" height="14" fill="white" transform="translate(3 3)"/>
</clipPath>
</defs>
</svg>
