<?xml version="1.0" standalone="no"?>
<!DOCTYPE svg PUBLIC "-//W3C//DTD SVG 20010904//EN"
 "http://www.w3.org/TR/2001/REC-SVG-20010904/DTD/svg10.dtd">
<svg version="1.0" xmlns="http://www.w3.org/2000/svg"
 width="512.000000pt" height="512.000000pt" viewBox="0 0 512.000000 512.000000"
 preserveAspectRatio="xMidYMid meet">

<g transform="translate(0.000000,512.000000) scale(0.100000,-0.100000)"
fill="#000000" stroke="none">
<path d="M295 5104 c-56 -19 -111 -68 -137 -117 -21 -43 -158 -727 -158 -792
0 -44 25 -111 56 -152 51 -66 83 -77 454 -147 190 -36 356 -68 369 -72 l24 -5
-29 -18 c-16 -10 -135 -126 -265 -257 -281 -283 -269 -261 -269 -495 l0 -146
-31 -7 c-52 -10 -96 -44 -118 -90 l-21 -43 2 -1254 3 -1254 28 -56 c32 -67
109 -142 175 -172 l47 -22 2135 0 2135 0 47 22 c66 30 143 105 175 172 l28 56
3 1254 2 1254 -21 43 c-22 46 -66 80 -118 90 l-31 7 0 98 0 98 43 13 c51 15
137 97 154 148 6 19 42 193 78 385 70 367 73 410 39 477 -22 45 -72 96 -115
118 -23 12 -630 131 -1675 330 -901 171 -1781 338 -1954 371 -173 33 -385 73
-470 89 -85 16 -227 43 -314 60 -176 33 -212 35 -271 14z m2330 -579 c1232
-234 2251 -429 2264 -433 14 -5 34 -20 45 -35 l20 -27 -63 -332 c-71 -377 -74
-392 -104 -413 -31 -22 -49 -20 -308 29 -129 25 -520 99 -869 166 -349 66
-849 161 -1110 211 -261 49 -698 132 -970 184 -272 52 -675 128 -895 170 -220
42 -408 78 -418 81 -10 3 -25 20 -33 38 -15 30 -12 49 46 356 33 179 65 342
71 362 10 37 41 68 69 68 8 0 1023 -191 2255 -425z m-835 -873 l85 -17 3 -152
3 -153 -273 0 c-314 0 -334 -5 -384 -80 -27 -41 -28 -48 -32 -196 l-4 -154
-339 0 -339 0 0 130 0 130 188 0 c211 0 231 5 287 74 l30 38 3 199 3 199 342
0 c281 -1 357 -4 427 -18z m772 -147 c274 -52 501 -95 503 -95 3 0 5 -115 5
-255 l0 -255 -85 0 -85 0 0 144 c0 80 -5 157 -11 173 -15 42 -68 92 -109 103
-20 6 -185 10 -382 10 l-348 0 0 135 c0 74 3 135 6 135 3 0 231 -43 506 -95z
m-1712 -70 l0 -105 -107 0 -108 0 105 105 c58 58 106 105 107 105 2 0 3 -47 3
-105z m3088 -192 l672 -127 0 -108 0 -108 -685 0 -685 0 0 235 c0 181 3 235
13 235 6 0 315 -57 685 -127z m-1208 -213 l0 -130 -680 0 -680 0 0 130 0 130
680 0 680 0 0 -130z m2048 -1524 l-3 -1224 -31 -39 c-17 -21 -46 -46 -65 -55
-32 -17 -154 -18 -2116 -18 -1444 0 -2090 3 -2110 11 -42 15 -92 68 -103 109
-6 22 -10 479 -10 1238 l0 1202 2220 0 2220 0 -2 -1224z"/>
<path d="M1613 2546 c-151 -48 -243 -171 -243 -326 0 -133 72 -250 188 -307
l57 -28 945 0 945 0 57 28 c202 99 253 373 100 536 -28 30 -71 61 -107 78
l-60 28 -920 2 c-741 1 -928 -1 -962 -11z m1873 -175 c59 -27 87 -72 92 -146
3 -50 0 -65 -20 -94 -12 -19 -36 -44 -51 -55 -28 -21 -31 -21 -947 -21 -916 0
-919 0 -947 21 -15 11 -39 36 -51 55 -20 29 -23 44 -20 94 5 74 33 119 92 146
39 18 84 19 926 19 842 0 887 -1 926 -19z"/>
</g>
</svg>
