<svg width="13" height="18" viewBox="0 0 13 18" fill="none" xmlns="http://www.w3.org/2000/svg">
<path d="M6.27206 5.17888C7.70216 5.17888 8.8615 4.01955 8.8615 2.58944C8.8615 1.15933 7.70216 0 6.27206 0C4.84195 0 3.68262 1.15933 3.68262 2.58944C3.68262 4.01955 4.84195 5.17888 6.27206 5.17888Z" fill="#292929"/>
<path d="M2.219 13.0968C1.81905 13.4458 1.6931 14.0097 1.90646 14.4949L3.12534 17.275C3.32409 17.7291 3.76892 17.9999 4.23521 17.9999C4.39711 17.9999 4.56211 17.967 4.72038 17.8978C5.3328 17.6294 5.61211 16.9148 5.34366 16.3023L4.48155 14.3361L5.42823 13.509L3.55284 11.9315L2.219 13.0968Z" fill="#292929"/>
<path d="M8.06114 14.3362L7.19955 16.3024C6.93058 16.915 7.20989 17.629 7.82282 17.898C7.98097 17.9673 8.1461 18 8.30851 18C8.77481 18 9.21912 17.7292 9.41838 17.2746L10.6371 14.4954C10.8497 14.0094 10.7239 13.4458 10.325 13.0964L8.99101 11.9313L7.11498 13.5092L8.06114 14.3362Z" fill="#292929"/>
<path d="M12.2634 9.53881L8.6694 6.23209C8.62491 6.19123 8.57694 6.15592 8.5269 6.12605C8.39009 5.99338 8.20414 5.91101 7.9984 5.91101H4.54569C4.33892 5.91101 4.15207 5.99403 4.01487 6.12761C3.96573 6.15722 3.91879 6.19226 3.87483 6.23261L0.279482 9.53881C-0.0722421 9.8626 -0.09513 10.4095 0.228663 10.7616C0.398835 10.9469 0.631594 11.0409 0.864999 11.0409C1.07474 11.0409 1.28474 10.9654 1.4509 10.8124L3.78379 8.66674V10.7153H8.75927V8.66623L11.0919 10.8124C11.2583 10.9652 11.4683 11.0409 11.6774 11.0409C11.9108 11.0409 12.1442 10.9469 12.3147 10.7612C12.6381 10.4093 12.6156 9.86209 12.2634 9.53881Z" fill="#292929"/>
</svg>
