<svg width="18" height="12" viewBox="0 0 18 12" fill="none" xmlns="http://www.w3.org/2000/svg">
<path fill-rule="evenodd" clip-rule="evenodd" d="M0 1C0 0.44772 0.447716 0 1 0H5.29236C5.68852 0 6.07574 0.11764 6.40494 0.33802L17.1126 7.50594C17.6671 7.87718 18 8.50056 18 9.16792V11C18 11.5523 17.5523 12 17 12H1C0.447716 12 0 11.5523 0 11V1ZM7.74706 8.5721L4.37588 6.2916C4.27014 6.22006 4.2049 6.10236 4.20026 5.97478C4.19564 5.84722 4.25218 5.72508 4.35246 5.64608L7.65244 3.04608L8.14754 3.67448L5.27754 5.9357L8.19442 7.90886L8.32364 7.71728C8.36658 7.6536 8.4623 7.6601 8.49624 7.72898L9.0552 8.86306C9.0894 8.93244 9.03524 9.0127 8.95812 9.00698L7.69724 8.91356C7.62064 8.90788 7.57878 8.82158 7.62172 8.75792L7.74706 8.5721Z" fill="#292929"/>
</svg>
