<svg width="180" height="50" viewBox="0 0 180 50" fill="none" xmlns="http://www.w3.org/2000/svg">
<g clip-path="url(#clip0_919_837)">
<path d="M80.5312 45.1063C69.7347 45.1063 57.6993 43.1594 47.6108 39.7966C37.1684 36.2568 26.9029 30.4161 20.1772 24.2214C14.8675 19.2656 12.2126 16.2568 6.3719 8.29218C0.531204 0.327576 0.354218 0.150581 0.000228882 1.56651C-0.35376 2.98244 3.54005 9.7081 8.84979 16.7878C13.6285 23.1594 17.6993 27.4072 22.6551 31.478C29.3808 36.9647 40.5312 42.4515 51.5047 45.8143C56.2834 47.2302 68.8498 49.3541 74.1595 49.7081C83.1861 50.2391 93.8055 49.3541 103.717 47.4072C115.575 44.9293 134.16 38.2037 146.549 32.009C156.46 27.0532 168.85 18.9116 173.806 14.4869C175.221 13.0709 173.806 15.0178 171.505 17.3187C169.204 19.7966 168.85 20.3276 169.558 21.0355C170.62 22.0975 172.921 20.6816 175.575 17.1417C177.876 13.4249 180.354 8.29218 180 7.58421C180 7.58421 179.292 7.58421 178.761 8.11518C177.345 9.00014 172.036 11.124 167.08 12.54C164.956 13.2479 163.186 13.7789 163.009 13.7789C162.655 13.9559 162.655 15.1948 163.009 15.5488C163.54 16.2568 164.956 15.9028 168.673 14.4869C172.744 12.8939 172.567 13.0709 166.903 16.6108C149.558 27.5842 128.319 36.6108 109.558 41.3895" fill="#EF4F5F"/>
</g>
<defs>
<clipPath id="clip0_919_837">
<rect width="180" height="48.8496" fill="white" transform="matrix(-1 0 0 -1 180 49.708)"/>
</clipPath>
</defs>
</svg>
