<svg width="456" height="54" viewBox="0 0 456 54" fill="none" xmlns="http://www.w3.org/2000/svg">
<path d="M53.9141 14.4453C56.5052 14.4453 58.6406 14.7578 60.3203 15.3828C62.013 16.0078 63.2695 16.9518 64.0898 18.2148C64.9102 19.4779 65.3203 21.0729 65.3203 23C65.3203 24.3021 65.0729 25.4414 64.5781 26.418C64.0833 27.3945 63.4323 28.2214 62.625 28.8984C61.8177 29.5755 60.9453 30.1289 60.0078 30.5586L68.4062 43H61.6875L54.8711 32.043H51.6484V43H45.5938V14.4453H53.9141ZM53.4844 19.4062H51.6484V27.1211H53.6016C55.6068 27.1211 57.0391 26.7891 57.8984 26.125C58.7708 25.4479 59.207 24.4583 59.207 23.1562C59.207 21.8021 58.7383 20.8385 57.8008 20.2656C56.8763 19.6927 55.4375 19.4062 53.4844 19.4062ZM80.5352 20.7539C82.5534 20.7539 84.2917 21.1445 85.75 21.9258C87.2083 22.694 88.3346 23.8138 89.1289 25.2852C89.9232 26.7565 90.3203 28.5534 90.3203 30.6758V33.5664H76.2383C76.3034 35.2461 76.8047 36.5677 77.7422 37.5312C78.6927 38.4818 80.0078 38.957 81.6875 38.957C83.0807 38.957 84.3568 38.8138 85.5156 38.5273C86.6745 38.2409 87.8659 37.8112 89.0898 37.2383V41.8477C88.0091 42.3815 86.8763 42.7721 85.6914 43.0195C84.5195 43.2669 83.0938 43.3906 81.4141 43.3906C79.2266 43.3906 77.2865 42.987 75.5938 42.1797C73.9141 41.3724 72.5924 40.1419 71.6289 38.4883C70.6784 36.8346 70.2031 34.7513 70.2031 32.2383C70.2031 29.6862 70.6328 27.5638 71.4922 25.8711C72.3646 24.1654 73.5755 22.8893 75.125 22.043C76.6745 21.1836 78.4779 20.7539 80.5352 20.7539ZM80.5742 24.9922C79.4154 24.9922 78.4518 25.3633 77.6836 26.1055C76.9284 26.8477 76.4922 28.013 76.375 29.6016H84.7344C84.7214 28.7161 84.5586 27.9284 84.2461 27.2383C83.9466 26.5482 83.4909 26.0013 82.8789 25.5977C82.2799 25.194 81.5117 24.9922 80.5742 24.9922ZM104.109 20.7148C107.039 20.7148 109.285 21.3529 110.848 22.6289C112.41 23.9049 113.191 25.8451 113.191 28.4492V43H109.031L107.879 40.0312H107.723C107.098 40.8125 106.46 41.4505 105.809 41.9453C105.158 42.4401 104.409 42.8047 103.562 43.0391C102.716 43.2734 101.688 43.3906 100.477 43.3906C99.1875 43.3906 98.0286 43.1432 97 42.6484C95.9844 42.1536 95.1836 41.3984 94.5977 40.3828C94.0117 39.3542 93.7188 38.0521 93.7188 36.4766C93.7188 34.1589 94.5326 32.4531 96.1602 31.3594C97.7878 30.2526 100.229 29.6406 103.484 29.5234L107.273 29.4062V28.4492C107.273 27.3034 106.974 26.4635 106.375 25.9297C105.776 25.3958 104.943 25.1289 103.875 25.1289C102.82 25.1289 101.785 25.2786 100.77 25.5781C99.7539 25.8776 98.7383 26.2552 97.7227 26.7109L95.75 22.6875C96.9089 22.0755 98.2044 21.5938 99.6367 21.2422C101.082 20.8906 102.573 20.7148 104.109 20.7148ZM107.273 32.8828L104.969 32.9609C103.042 33.013 101.701 33.3581 100.945 33.9961C100.203 34.6341 99.832 35.474 99.832 36.5156C99.832 37.4271 100.099 38.0781 100.633 38.4688C101.167 38.8464 101.863 39.0352 102.723 39.0352C103.999 39.0352 105.073 38.6576 105.945 37.9023C106.831 37.1471 107.273 36.0729 107.273 34.6797V32.8828ZM128.211 43.3906C126.049 43.3906 124.207 43 122.684 42.2188C121.16 41.4245 120.001 40.2005 119.207 38.5469C118.413 36.8932 118.016 34.7773 118.016 32.1992C118.016 29.5299 118.465 27.3555 119.363 25.6758C120.275 23.9831 121.531 22.7396 123.133 21.9453C124.747 21.151 126.616 20.7539 128.738 20.7539C130.249 20.7539 131.551 20.9036 132.645 21.2031C133.751 21.4896 134.715 21.8346 135.535 22.2383L133.777 26.8477C132.84 26.4701 131.967 26.1641 131.16 25.9297C130.353 25.6823 129.546 25.5586 128.738 25.5586C127.697 25.5586 126.831 25.806 126.141 26.3008C125.451 26.7826 124.936 27.5117 124.598 28.4883C124.259 29.4648 124.09 30.6888 124.09 32.1602C124.09 33.6055 124.272 34.8034 124.637 35.7539C125.001 36.7044 125.529 37.4141 126.219 37.8828C126.909 38.3385 127.749 38.5664 128.738 38.5664C129.975 38.5664 131.076 38.4036 132.039 38.0781C133.003 37.7396 133.94 37.2708 134.852 36.6719V41.7695C133.94 42.3424 132.983 42.7526 131.98 43C130.991 43.2604 129.734 43.3906 128.211 43.3906ZM145.887 12.6094V18.8008C145.887 19.8815 145.848 20.9102 145.77 21.8867C145.704 22.8633 145.652 23.5534 145.613 23.957H145.926C146.395 23.2018 146.948 22.5898 147.586 22.1211C148.237 21.6523 148.953 21.3073 149.734 21.0859C150.516 20.8646 151.355 20.7539 152.254 20.7539C153.829 20.7539 155.203 21.0339 156.375 21.5938C157.547 22.1406 158.458 23.0065 159.109 24.1914C159.76 25.3633 160.086 26.8867 160.086 28.7617V43H154.129V30.2461C154.129 28.6836 153.842 27.5052 153.27 26.7109C152.697 25.9167 151.811 25.5195 150.613 25.5195C149.415 25.5195 148.471 25.7995 147.781 26.3594C147.091 26.9062 146.603 27.7201 146.316 28.8008C146.03 29.8685 145.887 31.1771 145.887 32.7266V43H139.93V12.6094H145.887ZM193.523 43H177.078V14.4453H193.523V19.4062H183.133V25.6758H192.801V30.6367H183.133V38H193.523V43ZM224.676 20.7539C227.15 20.7539 229.018 21.3919 230.281 22.668C231.557 23.931 232.195 25.9622 232.195 28.7617V43H226.219V30.2461C226.219 28.6836 225.952 27.5052 225.418 26.7109C224.884 25.9167 224.057 25.5195 222.938 25.5195C221.362 25.5195 220.242 26.0859 219.578 27.2188C218.914 28.3385 218.582 29.9466 218.582 32.043V43H212.625V30.2461C212.625 29.2044 212.508 28.332 212.273 27.6289C212.039 26.9258 211.681 26.3984 211.199 26.0469C210.717 25.6953 210.099 25.5195 209.344 25.5195C208.237 25.5195 207.365 25.7995 206.727 26.3594C206.102 26.9062 205.652 27.7201 205.379 28.8008C205.118 29.8685 204.988 31.1771 204.988 32.7266V43H199.031V21.1641H203.582L204.383 23.957H204.715C205.158 23.2018 205.711 22.5898 206.375 22.1211C207.052 21.6523 207.794 21.3073 208.602 21.0859C209.409 20.8646 210.229 20.7539 211.062 20.7539C212.664 20.7539 214.018 21.0143 215.125 21.5352C216.245 22.056 217.104 22.8633 217.703 23.957H218.23C218.882 22.8372 219.799 22.0234 220.984 21.5156C222.182 21.0078 223.413 20.7539 224.676 20.7539ZM247.332 20.7539C249.35 20.7539 251.089 21.1445 252.547 21.9258C254.005 22.694 255.132 23.8138 255.926 25.2852C256.72 26.7565 257.117 28.5534 257.117 30.6758V33.5664H243.035C243.1 35.2461 243.602 36.5677 244.539 37.5312C245.49 38.4818 246.805 38.957 248.484 38.957C249.878 38.957 251.154 38.8138 252.312 38.5273C253.471 38.2409 254.663 37.8112 255.887 37.2383V41.8477C254.806 42.3815 253.673 42.7721 252.488 43.0195C251.316 43.2669 249.891 43.3906 248.211 43.3906C246.023 43.3906 244.083 42.987 242.391 42.1797C240.711 41.3724 239.389 40.1419 238.426 38.4883C237.475 36.8346 237 34.7513 237 32.2383C237 29.6862 237.43 27.5638 238.289 25.8711C239.161 24.1654 240.372 22.8893 241.922 22.043C243.471 21.1836 245.275 20.7539 247.332 20.7539ZM247.371 24.9922C246.212 24.9922 245.249 25.3633 244.48 26.1055C243.725 26.8477 243.289 28.013 243.172 29.6016H251.531C251.518 28.7161 251.355 27.9284 251.043 27.2383C250.743 26.5482 250.288 26.0013 249.676 25.5977C249.077 25.194 248.309 24.9922 247.371 24.9922ZM274.148 20.7539C274.448 20.7539 274.793 20.7734 275.184 20.8125C275.587 20.8385 275.913 20.8776 276.16 20.9297L275.711 26.5156C275.516 26.4505 275.236 26.4049 274.871 26.3789C274.52 26.3398 274.214 26.3203 273.953 26.3203C273.185 26.3203 272.436 26.418 271.707 26.6133C270.991 26.8086 270.346 27.1276 269.773 27.5703C269.201 28 268.745 28.5729 268.406 29.2891C268.081 29.9922 267.918 30.8581 267.918 31.8867V43H261.961V21.1641H266.473L267.352 24.8359H267.645C268.074 24.0938 268.608 23.4167 269.246 22.8047C269.897 22.1797 270.633 21.6849 271.453 21.3203C272.286 20.9427 273.185 20.7539 274.148 20.7539ZM286.512 52.6094C283.465 52.6094 281.134 52.0755 279.52 51.0078C277.918 49.9531 277.117 48.4688 277.117 46.5547C277.117 45.2396 277.527 44.1393 278.348 43.2539C279.168 42.3685 280.372 41.737 281.961 41.3594C281.349 41.099 280.815 40.6758 280.359 40.0898C279.904 39.4909 279.676 38.8594 279.676 38.1953C279.676 37.362 279.917 36.6719 280.398 36.125C280.88 35.5651 281.577 35.0182 282.488 34.4844C281.342 33.9896 280.431 33.1953 279.754 32.1016C279.09 31.0078 278.758 29.7188 278.758 28.2344C278.758 26.6458 279.103 25.2982 279.793 24.1914C280.496 23.0716 281.512 22.2188 282.84 21.6328C284.181 21.0469 285.809 20.7539 287.723 20.7539C288.126 20.7539 288.595 20.7799 289.129 20.832C289.663 20.8841 290.151 20.9427 290.594 21.0078C291.049 21.0729 291.355 21.125 291.512 21.1641H299.129V24.1914L295.711 25.0703C296.023 25.5521 296.258 26.0664 296.414 26.6133C296.57 27.1602 296.648 27.7396 296.648 28.3516C296.648 30.6953 295.828 32.5247 294.188 33.8398C292.56 35.1419 290.294 35.793 287.391 35.793C286.701 35.7539 286.049 35.7018 285.438 35.6367C285.138 35.8711 284.91 36.1185 284.754 36.3789C284.598 36.6393 284.52 36.9128 284.52 37.1992C284.52 37.4857 284.637 37.7266 284.871 37.9219C285.118 38.1042 285.483 38.2474 285.965 38.3516C286.46 38.4427 287.072 38.4883 287.801 38.4883H291.512C293.908 38.4883 295.73 39.0026 296.98 40.0312C298.243 41.0599 298.875 42.5703 298.875 44.5625C298.875 47.1146 297.807 49.0938 295.672 50.5C293.549 51.9062 290.496 52.6094 286.512 52.6094ZM286.766 48.7227C288.185 48.7227 289.402 48.5859 290.418 48.3125C291.447 48.0521 292.234 47.6745 292.781 47.1797C293.328 46.6979 293.602 46.1185 293.602 45.4414C293.602 44.8945 293.439 44.4583 293.113 44.1328C292.801 43.8203 292.319 43.599 291.668 43.4688C291.03 43.3385 290.21 43.2734 289.207 43.2734H286.121C285.392 43.2734 284.734 43.3906 284.148 43.625C283.576 43.8594 283.12 44.1849 282.781 44.6016C282.443 45.0312 282.273 45.526 282.273 46.0859C282.273 46.9062 282.664 47.5508 283.445 48.0195C284.24 48.4883 285.346 48.7227 286.766 48.7227ZM287.723 32.1602C288.842 32.1602 289.663 31.8151 290.184 31.125C290.704 30.4349 290.965 29.4974 290.965 28.3125C290.965 26.9974 290.691 26.0143 290.145 25.3633C289.611 24.6992 288.803 24.3672 287.723 24.3672C286.629 24.3672 285.809 24.6992 285.262 25.3633C284.715 26.0143 284.441 26.9974 284.441 28.3125C284.441 29.4974 284.708 30.4349 285.242 31.125C285.789 31.8151 286.616 32.1602 287.723 32.1602ZM311.746 20.7539C313.764 20.7539 315.503 21.1445 316.961 21.9258C318.419 22.694 319.546 23.8138 320.34 25.2852C321.134 26.7565 321.531 28.5534 321.531 30.6758V33.5664H307.449C307.514 35.2461 308.016 36.5677 308.953 37.5312C309.904 38.4818 311.219 38.957 312.898 38.957C314.292 38.957 315.568 38.8138 316.727 38.5273C317.885 38.2409 319.077 37.8112 320.301 37.2383V41.8477C319.22 42.3815 318.087 42.7721 316.902 43.0195C315.73 43.2669 314.305 43.3906 312.625 43.3906C310.438 43.3906 308.497 42.987 306.805 42.1797C305.125 41.3724 303.803 40.1419 302.84 38.4883C301.889 36.8346 301.414 34.7513 301.414 32.2383C301.414 29.6862 301.844 27.5638 302.703 25.8711C303.576 24.1654 304.786 22.8893 306.336 22.043C307.885 21.1836 309.689 20.7539 311.746 20.7539ZM311.785 24.9922C310.626 24.9922 309.663 25.3633 308.895 26.1055C308.139 26.8477 307.703 28.013 307.586 29.6016H315.945C315.932 28.7161 315.77 27.9284 315.457 27.2383C315.158 26.5482 314.702 26.0013 314.09 25.5977C313.491 25.194 312.723 24.9922 311.785 24.9922ZM338.777 20.7539C341.108 20.7539 342.983 21.3919 344.402 22.668C345.822 23.931 346.531 25.9622 346.531 28.7617V43H340.574V30.2461C340.574 28.6836 340.288 27.5052 339.715 26.7109C339.155 25.9167 338.27 25.5195 337.059 25.5195C335.236 25.5195 333.992 26.138 333.328 27.375C332.664 28.612 332.332 30.3958 332.332 32.7266V43H326.375V21.1641H330.926L331.727 23.957H332.059C332.527 23.2018 333.107 22.5898 333.797 22.1211C334.5 21.6523 335.275 21.3073 336.121 21.0859C336.98 20.8646 337.866 20.7539 338.777 20.7539ZM361.531 43.3906C359.37 43.3906 357.527 43 356.004 42.2188C354.48 41.4245 353.322 40.2005 352.527 38.5469C351.733 36.8932 351.336 34.7773 351.336 32.1992C351.336 29.5299 351.785 27.3555 352.684 25.6758C353.595 23.9831 354.852 22.7396 356.453 21.9453C358.068 21.151 359.936 20.7539 362.059 20.7539C363.569 20.7539 364.871 20.9036 365.965 21.2031C367.072 21.4896 368.035 21.8346 368.855 22.2383L367.098 26.8477C366.16 26.4701 365.288 26.1641 364.48 25.9297C363.673 25.6823 362.866 25.5586 362.059 25.5586C361.017 25.5586 360.151 25.806 359.461 26.3008C358.771 26.7826 358.257 27.5117 357.918 28.4883C357.579 29.4648 357.41 30.6888 357.41 32.1602C357.41 33.6055 357.592 34.8034 357.957 35.7539C358.322 36.7044 358.849 37.4141 359.539 37.8828C360.229 38.3385 361.069 38.5664 362.059 38.5664C363.296 38.5664 364.396 38.4036 365.359 38.0781C366.323 37.7396 367.26 37.2708 368.172 36.6719V41.7695C367.26 42.3424 366.303 42.7526 365.301 43C364.311 43.2604 363.055 43.3906 361.531 43.3906ZM370.125 21.1641H376.648L380.77 33.4492C380.9 33.8398 381.01 34.237 381.102 34.6406C381.193 35.0443 381.271 35.4609 381.336 35.8906C381.401 36.3203 381.453 36.7695 381.492 37.2383H381.609C381.688 36.5352 381.792 35.8776 381.922 35.2656C382.065 34.6536 382.241 34.0482 382.449 33.4492L386.492 21.1641H392.879L383.641 45.793C383.081 47.3034 382.352 48.5599 381.453 49.5625C380.555 50.5781 379.52 51.3398 378.348 51.8477C377.189 52.3555 375.913 52.6094 374.52 52.6094C373.842 52.6094 373.257 52.5703 372.762 52.4922C372.267 52.4271 371.844 52.3555 371.492 52.2773V47.5508C371.766 47.6159 372.111 47.6745 372.527 47.7266C372.944 47.7786 373.38 47.8047 373.836 47.8047C374.669 47.8047 375.385 47.6289 375.984 47.2773C376.583 46.9258 377.085 46.4505 377.488 45.8516C377.892 45.2656 378.211 44.6211 378.445 43.918L378.797 42.8438L370.125 21.1641ZM419.012 19.0742C417.853 19.0742 416.824 19.3021 415.926 19.7578C415.04 20.2005 414.292 20.8451 413.68 21.6914C413.081 22.5378 412.625 23.5599 412.312 24.7578C412 25.9557 411.844 27.3034 411.844 28.8008C411.844 30.819 412.091 32.5443 412.586 33.9766C413.094 35.3958 413.875 36.4831 414.93 37.2383C415.984 37.9805 417.345 38.3516 419.012 38.3516C420.171 38.3516 421.329 38.2214 422.488 37.9609C423.66 37.7005 424.93 37.3294 426.297 36.8477V41.9258C425.034 42.4466 423.79 42.8177 422.566 43.0391C421.342 43.2734 419.969 43.3906 418.445 43.3906C415.503 43.3906 413.081 42.7852 411.18 41.5742C409.292 40.3503 407.892 38.6445 406.98 36.457C406.069 34.2565 405.613 31.6914 405.613 28.7617C405.613 26.6003 405.906 24.6211 406.492 22.8242C407.078 21.0273 407.938 19.4714 409.07 18.1562C410.203 16.8411 411.603 15.8255 413.27 15.1094C414.936 14.3932 416.85 14.0352 419.012 14.0352C420.431 14.0352 421.85 14.2174 423.27 14.582C424.702 14.9336 426.069 15.4219 427.371 16.0469L425.418 20.9688C424.35 20.4609 423.276 20.0182 422.195 19.6406C421.115 19.263 420.053 19.0742 419.012 19.0742ZM451.766 32.043C451.766 33.8659 451.518 35.4805 451.023 36.8867C450.542 38.293 449.832 39.4844 448.895 40.4609C447.97 41.4245 446.85 42.1536 445.535 42.6484C444.233 43.1432 442.762 43.3906 441.121 43.3906C439.585 43.3906 438.172 43.1432 436.883 42.6484C435.607 42.1536 434.493 41.4245 433.543 40.4609C432.605 39.4844 431.876 38.293 431.355 36.8867C430.848 35.4805 430.594 33.8659 430.594 32.043C430.594 29.6211 431.023 27.5703 431.883 25.8906C432.742 24.2109 433.966 22.9349 435.555 22.0625C437.143 21.1901 439.038 20.7539 441.238 20.7539C443.283 20.7539 445.092 21.1901 446.668 22.0625C448.257 22.9349 449.5 24.2109 450.398 25.8906C451.31 27.5703 451.766 29.6211 451.766 32.043ZM436.668 32.043C436.668 33.4753 436.824 34.6797 437.137 35.6562C437.449 36.6328 437.938 37.3685 438.602 37.8633C439.266 38.3581 440.132 38.6055 441.199 38.6055C442.254 38.6055 443.107 38.3581 443.758 37.8633C444.422 37.3685 444.904 36.6328 445.203 35.6562C445.516 34.6797 445.672 33.4753 445.672 32.043C445.672 30.5977 445.516 29.3997 445.203 28.4492C444.904 27.4857 444.422 26.763 443.758 26.2812C443.094 25.7995 442.228 25.5586 441.16 25.5586C439.585 25.5586 438.439 26.099 437.723 27.1797C437.02 28.2604 436.668 29.8815 436.668 32.043ZM469.09 20.7539C471.421 20.7539 473.296 21.3919 474.715 22.668C476.134 23.931 476.844 25.9622 476.844 28.7617V43H470.887V30.2461C470.887 28.6836 470.6 27.5052 470.027 26.7109C469.467 25.9167 468.582 25.5195 467.371 25.5195C465.548 25.5195 464.305 26.138 463.641 27.375C462.977 28.612 462.645 30.3958 462.645 32.7266V43H456.688V21.1641H461.238L462.039 23.957H462.371C462.84 23.2018 463.419 22.5898 464.109 22.1211C464.812 21.6523 465.587 21.3073 466.434 21.0859C467.293 20.8646 468.178 20.7539 469.09 20.7539ZM492.176 38.6445C492.827 38.6445 493.458 38.5794 494.07 38.4492C494.695 38.319 495.314 38.1562 495.926 37.9609V42.3945C495.288 42.681 494.493 42.9154 493.543 43.0977C492.605 43.293 491.577 43.3906 490.457 43.3906C489.155 43.3906 487.983 43.1823 486.941 42.7656C485.913 42.3359 485.099 41.6003 484.5 40.5586C483.914 39.5039 483.621 38.0391 483.621 36.1641V25.6367H480.77V23.1172L484.051 21.125L485.77 16.5156H489.578V21.1641H495.691V25.6367H489.578V36.1641C489.578 36.9974 489.812 37.6224 490.281 38.0391C490.763 38.4427 491.395 38.6445 492.176 38.6445ZM509.305 20.7148C512.234 20.7148 514.48 21.3529 516.043 22.6289C517.605 23.9049 518.387 25.8451 518.387 28.4492V43H514.227L513.074 40.0312H512.918C512.293 40.8125 511.655 41.4505 511.004 41.9453C510.353 42.4401 509.604 42.8047 508.758 43.0391C507.911 43.2734 506.883 43.3906 505.672 43.3906C504.383 43.3906 503.224 43.1432 502.195 42.6484C501.18 42.1536 500.379 41.3984 499.793 40.3828C499.207 39.3542 498.914 38.0521 498.914 36.4766C498.914 34.1589 499.728 32.4531 501.355 31.3594C502.983 30.2526 505.424 29.6406 508.68 29.5234L512.469 29.4062V28.4492C512.469 27.3034 512.169 26.4635 511.57 25.9297C510.971 25.3958 510.138 25.1289 509.07 25.1289C508.016 25.1289 506.98 25.2786 505.965 25.5781C504.949 25.8776 503.934 26.2552 502.918 26.7109L500.945 22.6875C502.104 22.0755 503.4 21.5938 504.832 21.2422C506.277 20.8906 507.768 20.7148 509.305 20.7148ZM512.469 32.8828L510.164 32.9609C508.237 33.013 506.896 33.3581 506.141 33.9961C505.398 34.6341 505.027 35.474 505.027 36.5156C505.027 37.4271 505.294 38.0781 505.828 38.4688C506.362 38.8464 507.059 39.0352 507.918 39.0352C509.194 39.0352 510.268 38.6576 511.141 37.9023C512.026 37.1471 512.469 36.0729 512.469 34.6797V32.8828ZM533.406 43.3906C531.245 43.3906 529.402 43 527.879 42.2188C526.355 41.4245 525.197 40.2005 524.402 38.5469C523.608 36.8932 523.211 34.7773 523.211 32.1992C523.211 29.5299 523.66 27.3555 524.559 25.6758C525.47 23.9831 526.727 22.7396 528.328 21.9453C529.943 21.151 531.811 20.7539 533.934 20.7539C535.444 20.7539 536.746 20.9036 537.84 21.2031C538.947 21.4896 539.91 21.8346 540.73 22.2383L538.973 26.8477C538.035 26.4701 537.163 26.1641 536.355 25.9297C535.548 25.6823 534.741 25.5586 533.934 25.5586C532.892 25.5586 532.026 25.806 531.336 26.3008C530.646 26.7826 530.132 27.5117 529.793 28.4883C529.454 29.4648 529.285 30.6888 529.285 32.1602C529.285 33.6055 529.467 34.8034 529.832 35.7539C530.197 36.7044 530.724 37.4141 531.414 37.8828C532.104 38.3385 532.944 38.5664 533.934 38.5664C535.171 38.5664 536.271 38.4036 537.234 38.0781C538.198 37.7396 539.135 37.2708 540.047 36.6719V41.7695C539.135 42.3424 538.178 42.7526 537.176 43C536.186 43.2604 534.93 43.3906 533.406 43.3906ZM554.324 38.6445C554.975 38.6445 555.607 38.5794 556.219 38.4492C556.844 38.319 557.462 38.1562 558.074 37.9609V42.3945C557.436 42.681 556.642 42.9154 555.691 43.0977C554.754 43.293 553.725 43.3906 552.605 43.3906C551.303 43.3906 550.132 43.1823 549.09 42.7656C548.061 42.3359 547.247 41.6003 546.648 40.5586C546.062 39.5039 545.77 38.0391 545.77 36.1641V25.6367H542.918V23.1172L546.199 21.125L547.918 16.5156H551.727V21.1641H557.84V25.6367H551.727V36.1641C551.727 36.9974 551.961 37.6224 552.43 38.0391C552.911 38.4427 553.543 38.6445 554.324 38.6445ZM577.742 36.5156C577.742 38 577.391 39.2565 576.688 40.2852C575.997 41.3008 574.962 42.0755 573.582 42.6094C572.202 43.1302 570.483 43.3906 568.426 43.3906C566.902 43.3906 565.594 43.293 564.5 43.0977C563.419 42.9023 562.326 42.5768 561.219 42.1211V37.1992C562.404 37.7331 563.673 38.1758 565.027 38.5273C566.395 38.8659 567.592 39.0352 568.621 39.0352C569.78 39.0352 570.607 38.8659 571.102 38.5273C571.609 38.1758 571.863 37.7201 571.863 37.1602C571.863 36.7956 571.759 36.4701 571.551 36.1836C571.355 35.8841 570.926 35.5521 570.262 35.1875C569.598 34.8099 568.556 34.3216 567.137 33.7227C565.77 33.1497 564.643 32.5703 563.758 31.9844C562.885 31.3984 562.234 30.7083 561.805 29.9141C561.388 29.1068 561.18 28.0846 561.18 26.8477C561.18 24.8294 561.961 23.3125 563.523 22.2969C565.099 21.2682 567.202 20.7539 569.832 20.7539C571.186 20.7539 572.475 20.8906 573.699 21.1641C574.936 21.4375 576.206 21.8737 577.508 22.4727L575.711 26.7695C574.63 26.3008 573.608 25.9167 572.645 25.6172C571.694 25.3177 570.724 25.168 569.734 25.168C568.862 25.168 568.204 25.2852 567.762 25.5195C567.319 25.7539 567.098 26.112 567.098 26.5938C567.098 26.9453 567.208 27.2578 567.43 27.5312C567.664 27.8047 568.107 28.1107 568.758 28.4492C569.422 28.7747 570.392 29.1979 571.668 29.7188C572.905 30.2266 573.979 30.7604 574.891 31.3203C575.802 31.8672 576.505 32.5508 577 33.3711C577.495 34.1784 577.742 35.2266 577.742 36.5156ZM581.551 40.207C581.551 38.9831 581.883 38.1237 582.547 37.6289C583.224 37.1341 584.038 36.8867 584.988 36.8867C585.913 36.8867 586.707 37.1341 587.371 37.6289C588.048 38.1237 588.387 38.9831 588.387 40.207C588.387 41.3789 588.048 42.2253 587.371 42.7461C586.707 43.2669 585.913 43.5273 584.988 43.5273C584.038 43.5273 583.224 43.2669 582.547 42.7461C581.883 42.2253 581.551 41.3789 581.551 40.207Z" fill="#EF4F5F"/>
<g clip-path="url(#clip0_919_660)">
<path d="M19.9999 35.7833L26.9165 39.9666C28.1832 40.7333 29.7332 39.5999 29.3999 38.1666L27.5665 30.2999L33.6832 24.9999C34.7999 24.0333 34.1999 22.1999 32.7332 22.0833L24.6832 21.3999L21.5332 13.9666C20.9665 12.6166 19.0332 12.6166 18.4665 13.9666L15.3165 21.3833L7.26654 22.0666C5.79988 22.1833 5.19988 24.0166 6.31654 24.9833L12.4332 30.2833L10.5999 38.1499C10.2665 39.5833 11.8165 40.7166 13.0832 39.9499L19.9999 35.7833Z" fill="#EF4F5F"/>
</g>
<defs>
<clipPath id="clip0_919_660">
<rect width="40" height="40" fill="white" transform="translate(0 7)"/>
</clipPath>
</defs>
</svg>
