<svg width="341" height="55" viewBox="0 0 341 55" fill="none" xmlns="http://www.w3.org/2000/svg">
<g filter="url(#filter0_d_919_652)">
<g filter="url(#filter1_d_919_652)">
<mask id="path-1-inside-1_919_652" fill="white">
<path d="M61.7227 19.0742C60.5638 19.0742 59.5352 19.3021 58.6367 19.7578C57.7513 20.2005 57.0026 20.8451 56.3906 21.6914C55.7917 22.5378 55.3359 23.5599 55.0234 24.7578C54.7109 25.9557 54.5547 27.3034 54.5547 28.8008C54.5547 30.819 54.8021 32.5443 55.2969 33.9766C55.8047 35.3958 56.5859 36.4831 57.6406 37.2383C58.6953 37.9805 60.056 38.3516 61.7227 38.3516C62.8815 38.3516 64.0404 38.2214 65.1992 37.9609C66.3711 37.7005 67.6406 37.3294 69.0078 36.8477V41.9258C67.7448 42.4466 66.5013 42.8177 65.2773 43.0391C64.0534 43.2734 62.6797 43.3906 61.1562 43.3906C58.2135 43.3906 55.7917 42.7852 53.8906 41.5742C52.0026 40.3503 50.6029 38.6445 49.6914 36.457C48.7799 34.2565 48.3242 31.6914 48.3242 28.7617C48.3242 26.6003 48.6172 24.6211 49.2031 22.8242C49.7891 21.0273 50.6484 19.4714 51.7812 18.1562C52.9141 16.8411 54.3138 15.8255 55.9805 15.1094C57.6471 14.3932 59.5612 14.0352 61.7227 14.0352C63.1419 14.0352 64.5612 14.2174 65.9805 14.582C67.4128 14.9336 68.7799 15.4219 70.082 16.0469L68.1289 20.9688C67.0612 20.4609 65.987 20.0182 64.9062 19.6406C63.8255 19.263 62.7643 19.0742 61.7227 19.0742ZM101.02 28.6836C101.02 30.8841 100.746 32.8893 100.199 34.6992C99.6523 36.4961 98.819 38.0456 97.6992 39.3477C96.5924 40.6497 95.1862 41.6523 93.4805 42.3555C91.7747 43.0456 89.7565 43.3906 87.4258 43.3906C85.0951 43.3906 83.0768 43.0456 81.3711 42.3555C79.6654 41.6523 78.2526 40.6497 77.1328 39.3477C76.026 38.0456 75.1992 36.4896 74.6523 34.6797C74.1055 32.8698 73.832 30.8581 73.832 28.6445C73.832 25.6888 74.3138 23.1172 75.2773 20.9297C76.2539 18.7292 77.7513 17.0234 79.7695 15.8125C81.7878 14.6016 84.3529 13.9961 87.4648 13.9961C90.5638 13.9961 93.1094 14.6016 95.1016 15.8125C97.1068 17.0234 98.5911 18.7292 99.5547 20.9297C100.531 23.1302 101.02 25.7148 101.02 28.6836ZM80.1797 28.6836C80.1797 30.6758 80.4271 32.3945 80.9219 33.8398C81.4297 35.2721 82.2174 36.3789 83.2852 37.1602C84.3529 37.9284 85.7331 38.3125 87.4258 38.3125C89.1445 38.3125 90.5378 37.9284 91.6055 37.1602C92.6732 36.3789 93.4479 35.2721 93.9297 33.8398C94.4245 32.3945 94.6719 30.6758 94.6719 28.6836C94.6719 25.6888 94.112 23.332 92.9922 21.6133C91.8724 19.8945 90.0299 19.0352 87.4648 19.0352C85.7591 19.0352 84.3659 19.4258 83.2852 20.207C82.2174 20.9753 81.4297 22.082 80.9219 23.5273C80.4271 24.9596 80.1797 26.6784 80.1797 28.6836ZM130.629 28.4492C130.629 31.6654 130.01 34.3542 128.773 36.5156C127.549 38.6641 125.772 40.2852 123.441 41.3789C121.111 42.4596 118.305 43 115.023 43H106.938V14.4453H115.902C118.897 14.4453 121.495 14.9792 123.695 16.0469C125.896 17.1016 127.602 18.6706 128.812 20.7539C130.023 22.8242 130.629 25.3893 130.629 28.4492ZM124.34 28.6055C124.34 26.4961 124.027 24.7643 123.402 23.4102C122.79 22.043 121.879 21.0339 120.668 20.3828C119.47 19.7318 117.986 19.4062 116.215 19.4062H112.992V38H115.59C118.546 38 120.74 37.2122 122.172 35.6367C123.617 34.0612 124.34 31.7174 124.34 28.6055ZM164.418 43L162.348 36.2031H151.938L149.867 43H143.344L153.422 14.3281H160.824L170.941 43H164.418ZM160.902 31.125L158.832 24.4844C158.702 24.0417 158.526 23.4753 158.305 22.7852C158.096 22.082 157.882 21.3724 157.66 20.6562C157.452 19.9271 157.283 19.2956 157.152 18.7617C157.022 19.2956 156.84 19.9596 156.605 20.7539C156.384 21.5352 156.169 22.2773 155.961 22.9805C155.753 23.6836 155.603 24.1849 155.512 24.4844L153.461 31.125H160.902ZM179.281 43L170.961 21.1641H177.191L181.41 33.6055C181.645 34.3346 181.827 35.1029 181.957 35.9102C182.1 36.7174 182.198 37.4401 182.25 38.0781H182.406C182.445 37.388 182.536 36.6523 182.68 35.8711C182.836 35.0898 183.038 34.3346 183.285 33.6055L187.484 21.1641H193.715L185.395 43H179.281ZM205.805 20.7148C208.734 20.7148 210.98 21.3529 212.543 22.6289C214.105 23.9049 214.887 25.8451 214.887 28.4492V43H210.727L209.574 40.0312H209.418C208.793 40.8125 208.155 41.4505 207.504 41.9453C206.853 42.4401 206.104 42.8047 205.258 43.0391C204.411 43.2734 203.383 43.3906 202.172 43.3906C200.883 43.3906 199.724 43.1432 198.695 42.6484C197.68 42.1536 196.879 41.3984 196.293 40.3828C195.707 39.3542 195.414 38.0521 195.414 36.4766C195.414 34.1589 196.228 32.4531 197.855 31.3594C199.483 30.2526 201.924 29.6406 205.18 29.5234L208.969 29.4062V28.4492C208.969 27.3034 208.669 26.4635 208.07 25.9297C207.471 25.3958 206.638 25.1289 205.57 25.1289C204.516 25.1289 203.48 25.2786 202.465 25.5781C201.449 25.8776 200.434 26.2552 199.418 26.7109L197.445 22.6875C198.604 22.0755 199.9 21.5938 201.332 21.2422C202.777 20.8906 204.268 20.7148 205.805 20.7148ZM208.969 32.8828L206.664 32.9609C204.737 33.013 203.396 33.3581 202.641 33.9961C201.898 34.6341 201.527 35.474 201.527 36.5156C201.527 37.4271 201.794 38.0781 202.328 38.4688C202.862 38.8464 203.559 39.0352 204.418 39.0352C205.694 39.0352 206.768 38.6576 207.641 37.9023C208.526 37.1471 208.969 36.0729 208.969 34.6797V32.8828ZM226.996 21.1641V43H221.039V21.1641H226.996ZM224.027 12.6094C224.913 12.6094 225.674 12.8177 226.312 13.2344C226.951 13.638 227.27 14.3997 227.27 15.5195C227.27 16.6263 226.951 17.3945 226.312 17.8242C225.674 18.2409 224.913 18.4492 224.027 18.4492C223.129 18.4492 222.361 18.2409 221.723 17.8242C221.098 17.3945 220.785 16.6263 220.785 15.5195C220.785 14.3997 221.098 13.638 221.723 13.2344C222.361 12.8177 223.129 12.6094 224.027 12.6094ZM239.223 43H233.266V12.6094H239.223V43ZM254.438 20.7148C257.367 20.7148 259.613 21.3529 261.176 22.6289C262.738 23.9049 263.52 25.8451 263.52 28.4492V43H259.359L258.207 40.0312H258.051C257.426 40.8125 256.788 41.4505 256.137 41.9453C255.486 42.4401 254.737 42.8047 253.891 43.0391C253.044 43.2734 252.016 43.3906 250.805 43.3906C249.516 43.3906 248.357 43.1432 247.328 42.6484C246.312 42.1536 245.512 41.3984 244.926 40.3828C244.34 39.3542 244.047 38.0521 244.047 36.4766C244.047 34.1589 244.861 32.4531 246.488 31.3594C248.116 30.2526 250.557 29.6406 253.812 29.5234L257.602 29.4062V28.4492C257.602 27.3034 257.302 26.4635 256.703 25.9297C256.104 25.3958 255.271 25.1289 254.203 25.1289C253.148 25.1289 252.113 25.2786 251.098 25.5781C250.082 25.8776 249.066 26.2552 248.051 26.7109L246.078 22.6875C247.237 22.0755 248.533 21.5938 249.965 21.2422C251.41 20.8906 252.901 20.7148 254.438 20.7148ZM257.602 32.8828L255.297 32.9609C253.37 33.013 252.029 33.3581 251.273 33.9961C250.531 34.6341 250.16 35.474 250.16 36.5156C250.16 37.4271 250.427 38.0781 250.961 38.4688C251.495 38.8464 252.191 39.0352 253.051 39.0352C254.327 39.0352 255.401 38.6576 256.273 37.9023C257.159 37.1471 257.602 36.0729 257.602 34.6797V32.8828ZM275.629 12.6094V19.6797C275.629 20.5 275.603 21.3138 275.551 22.1211C275.512 22.9284 275.46 23.5534 275.395 23.9961H275.629C276.202 23.0977 276.983 22.3359 277.973 21.7109C278.962 21.0729 280.245 20.7539 281.82 20.7539C284.268 20.7539 286.254 21.7109 287.777 23.625C289.301 25.5391 290.062 28.3451 290.062 32.043C290.062 34.5299 289.711 36.6198 289.008 38.3125C288.305 39.9922 287.322 41.2617 286.059 42.1211C284.796 42.9674 283.331 43.3906 281.664 43.3906C280.062 43.3906 278.799 43.1042 277.875 42.5312C276.951 41.9583 276.202 41.3138 275.629 40.5977H275.219L274.223 43H269.672V12.6094H275.629ZM279.906 25.5195C278.865 25.5195 278.038 25.7344 277.426 26.1641C276.814 26.5938 276.365 27.2383 276.078 28.0977C275.805 28.957 275.655 30.0443 275.629 31.3594V32.0039C275.629 34.1263 275.941 35.7539 276.566 36.8867C277.191 38.0065 278.331 38.5664 279.984 38.5664C281.208 38.5664 282.178 38 282.895 36.8672C283.624 35.7344 283.988 34.1003 283.988 31.9648C283.988 29.8294 283.624 28.2214 282.895 27.1406C282.165 26.0599 281.169 25.5195 279.906 25.5195ZM300.941 43H294.984V12.6094H300.941V43ZM316.215 20.7539C318.233 20.7539 319.971 21.1445 321.43 21.9258C322.888 22.694 324.014 23.8138 324.809 25.2852C325.603 26.7565 326 28.5534 326 30.6758V33.5664H311.918C311.983 35.2461 312.484 36.5677 313.422 37.5312C314.372 38.4818 315.688 38.957 317.367 38.957C318.76 38.957 320.036 38.8138 321.195 38.5273C322.354 38.2409 323.546 37.8112 324.77 37.2383V41.8477C323.689 42.3815 322.556 42.7721 321.371 43.0195C320.199 43.2669 318.773 43.3906 317.094 43.3906C314.906 43.3906 312.966 42.987 311.273 42.1797C309.594 41.3724 308.272 40.1419 307.309 38.4883C306.358 36.8346 305.883 34.7513 305.883 32.2383C305.883 29.6862 306.312 27.5638 307.172 25.8711C308.044 24.1654 309.255 22.8893 310.805 22.043C312.354 21.1836 314.158 20.7539 316.215 20.7539ZM316.254 24.9922C315.095 24.9922 314.132 25.3633 313.363 26.1055C312.608 26.8477 312.172 28.013 312.055 29.6016H320.414C320.401 28.7161 320.238 27.9284 319.926 27.2383C319.626 26.5482 319.171 26.0013 318.559 25.5977C317.96 25.194 317.191 24.9922 316.254 24.9922ZM330.004 40.207C330.004 38.9831 330.336 38.1237 331 37.6289C331.677 37.1341 332.491 36.8867 333.441 36.8867C334.366 36.8867 335.16 37.1341 335.824 37.6289C336.501 38.1237 336.84 38.9831 336.84 40.207C336.84 41.3789 336.501 42.2253 335.824 42.7461C335.16 43.2669 334.366 43.5273 333.441 43.5273C332.491 43.5273 331.677 43.2669 331 42.7461C330.336 42.2253 330.004 41.3789 330.004 40.207Z"/>
</mask>
<path d="M58.6367 19.7578L59.0839 20.6523L59.0891 20.6496L58.6367 19.7578ZM56.3906 21.6914L55.5802 21.1054L55.5744 21.1137L56.3906 21.6914ZM55.2969 33.9766L54.3516 34.3031L54.3553 34.3134L55.2969 33.9766ZM57.6406 37.2383L57.0584 38.0514L57.0651 38.0561L57.6406 37.2383ZM65.1992 37.9609L64.9823 36.9847L64.98 36.9853L65.1992 37.9609ZM69.0078 36.8477H70.0078V35.435L68.6755 35.9045L69.0078 36.8477ZM69.0078 41.9258L69.389 42.8503L70.0078 42.5951V41.9258H69.0078ZM65.2773 43.0391L65.0994 42.055L65.0893 42.0569L65.2773 43.0391ZM53.8906 41.5742L53.3466 42.4133L53.3534 42.4176L53.8906 41.5742ZM49.6914 36.457L48.7675 36.8397L48.7683 36.8416L49.6914 36.457ZM55.9805 15.1094L55.5857 14.1906L55.9805 15.1094ZM65.9805 14.582L65.7317 15.5506L65.7421 15.5532L65.9805 14.582ZM70.082 16.0469L71.0115 16.4157L71.3555 15.5489L70.5148 15.1454L70.082 16.0469ZM68.1289 20.9688L67.6994 21.8718L68.6643 22.3307L69.0584 21.3376L68.1289 20.9688ZM61.7227 18.0742C60.4303 18.0742 59.2427 18.3291 58.1843 18.866L59.0891 20.6496C59.8276 20.275 60.6973 20.0742 61.7227 20.0742V18.0742ZM58.1895 18.8634C57.152 19.3821 56.2813 20.1359 55.5803 21.1055L57.201 22.2774C57.7239 21.5542 58.3506 21.0189 59.0839 20.6522L58.1895 18.8634ZM55.5744 21.1137C54.8937 22.0755 54.393 23.2129 54.0558 24.5054L55.9911 25.0102C56.2789 23.9069 56.6896 23 57.2069 22.2691L55.5744 21.1137ZM54.0558 24.5054C53.7179 25.8008 53.5547 27.2353 53.5547 28.8008H55.5547C55.5547 27.3714 55.704 26.1107 55.9911 25.0102L54.0558 24.5054ZM53.5547 28.8008C53.5547 30.8956 53.8108 32.7374 54.3517 34.3031L56.2421 33.65C55.7934 32.3511 55.5547 30.7425 55.5547 28.8008H53.5547ZM54.3553 34.3134C54.9203 35.8924 55.8127 37.1593 57.0584 38.0513L58.2228 36.4252C57.3592 35.8068 56.6891 34.8993 56.2384 33.6397L54.3553 34.3134ZM57.0651 38.0561C58.3315 38.9472 59.91 39.3516 61.7227 39.3516V37.3516C60.202 37.3516 59.0591 37.0137 58.2161 36.4205L57.0651 38.0561ZM61.7227 39.3516C62.9571 39.3516 64.1895 39.2128 65.4185 38.9366L64.98 36.9853C63.8913 37.2299 62.8059 37.3516 61.7227 37.3516V39.3516ZM65.4161 38.9371C66.6341 38.6665 67.9427 38.2833 69.3402 37.7908L68.6755 35.9045C67.3386 36.3756 66.108 36.7346 64.9823 36.9847L65.4161 38.9371ZM68.0078 36.8477V41.9258H70.0078V36.8477H68.0078ZM68.6266 41.0013C67.4227 41.4978 66.2472 41.8474 65.0994 42.055L65.4553 44.0231C66.7554 43.788 68.0669 43.3955 69.389 42.8503L68.6266 41.0013ZM65.0893 42.0569C63.9392 42.2771 62.6299 42.3906 61.1562 42.3906V44.3906C62.7294 44.3906 64.1676 44.2697 65.4654 44.0212L65.0893 42.0569ZM61.1562 42.3906C58.3467 42.3906 56.1262 41.8126 54.4279 40.7308L53.3534 42.4176C55.4572 43.7577 58.0804 44.3906 61.1562 44.3906V42.3906ZM54.4346 40.7351C52.7252 39.6269 51.4527 38.0841 50.6145 36.0724L48.7683 36.8416C49.753 39.2049 51.28 41.0736 53.3467 42.4133L54.4346 40.7351ZM50.6153 36.0744C49.7642 34.0196 49.3242 31.5894 49.3242 28.7617H47.3242C47.3242 31.7934 47.7957 34.4934 48.7675 36.8397L50.6153 36.0744ZM49.3242 28.7617C49.3242 26.6907 49.6049 24.8178 50.1539 23.1342L48.2524 22.5142C47.6295 24.4244 47.3242 26.5098 47.3242 28.7617H49.3242ZM50.1539 23.1342C50.7024 21.452 51.4999 20.0151 52.5389 18.8089L51.0236 17.5036C49.797 18.9276 48.8757 20.6027 48.2524 22.5142L50.1539 23.1342ZM52.5389 18.8089C53.5681 17.6141 54.8417 16.6871 56.3753 16.0281L55.5857 14.1906C53.7859 14.964 52.2601 16.0682 51.0236 17.5036L52.5389 18.8089ZM56.3753 16.0281C57.8957 15.3748 59.6714 15.0352 61.7227 15.0352V13.0352C59.451 13.0352 57.3986 13.4116 55.5857 14.1906L56.3753 16.0281ZM61.7227 15.0352C63.0553 15.0352 64.391 15.2062 65.7317 15.5506L66.2293 13.6135C64.7314 13.2287 63.2285 13.0352 61.7227 13.0352V15.0352ZM65.7421 15.5532C67.1088 15.8887 68.4107 16.3539 69.6493 16.9484L70.5148 15.1454C69.1492 14.4899 67.7167 13.9785 66.2188 13.6109L65.7421 15.5532ZM69.1525 15.678L67.1994 20.5999L69.0584 21.3376L71.0115 16.4157L69.1525 15.678ZM68.5584 20.0657C67.4593 19.5429 66.3518 19.0864 65.2361 18.6966L64.5764 20.5847C65.6221 20.95 66.6631 21.3789 67.6994 21.8718L68.5584 20.0657ZM65.2361 18.6966C64.0598 18.2856 62.8872 18.0742 61.7227 18.0742V20.0742C62.6414 20.0742 63.5912 20.2404 64.5764 20.5847L65.2361 18.6966ZM100.199 34.6992L101.156 34.9904L101.156 34.9885L100.199 34.6992ZM97.6992 39.3477L96.941 38.6956L96.9373 38.7L97.6992 39.3477ZM93.4805 42.3555L93.8555 43.2825L93.8616 43.28L93.4805 42.3555ZM81.3711 42.3555L80.99 43.28L80.996 43.2825L81.3711 42.3555ZM77.1328 39.3477L76.3709 39.9953L76.3746 39.9997L77.1328 39.3477ZM75.2773 20.9297L74.3633 20.524L74.3622 20.5266L75.2773 20.9297ZM95.1016 15.8125L94.5821 16.667L94.5846 16.6685L95.1016 15.8125ZM99.5547 20.9297L98.6386 21.3308L98.6407 21.3353L99.5547 20.9297ZM80.9219 33.8398L79.9757 34.1637L79.9794 34.174L80.9219 33.8398ZM83.2852 37.1602L82.6946 37.9672L82.7011 37.9719L83.2852 37.1602ZM91.6055 37.1602L92.1895 37.9719L92.196 37.9672L91.6055 37.1602ZM93.9297 33.8398L92.9836 33.5159L92.9819 33.521L93.9297 33.8398ZM83.2852 20.207L83.8692 21.0188L83.871 21.0175L83.2852 20.207ZM80.9219 23.5273L79.9784 23.1959L79.9767 23.2008L80.9219 23.5273ZM100.02 28.6836C100.02 30.8018 99.7563 32.7078 99.242 34.41L101.156 34.9885C101.736 33.0709 102.02 30.9664 102.02 28.6836H100.02ZM99.2425 34.4081C98.7323 36.0847 97.9622 37.5083 96.941 38.6956L98.4574 39.9997C99.6759 38.5829 100.572 36.9075 101.156 34.9904L99.2425 34.4081ZM96.9373 38.7C95.9417 39.8713 94.6699 40.7835 93.0994 41.4309L93.8616 43.28C95.7025 42.5211 97.2432 41.4282 98.4612 39.9953L96.9373 38.7ZM93.1054 41.4285C91.546 42.0594 89.6609 42.3906 87.4258 42.3906V44.3906C89.8521 44.3906 92.0035 44.0318 93.8555 43.2825L93.1054 41.4285ZM87.4258 42.3906C85.1907 42.3906 83.3056 42.0594 81.7461 41.4285L80.996 43.2825C82.8481 44.0318 84.9994 44.3906 87.4258 44.3906V42.3906ZM81.7522 41.4309C80.1808 40.7832 78.9007 39.8697 77.891 38.6956L76.3746 39.9997C77.6045 41.4297 79.1499 42.5215 80.99 43.28L81.7522 41.4309ZM77.8948 38.7C76.8861 37.5133 76.121 36.0828 75.6096 34.3904L73.6951 34.9689C74.2775 36.8964 75.166 38.5778 76.3709 39.9953L77.8948 38.7ZM75.6096 34.3904C75.0954 32.6888 74.832 30.7764 74.832 28.6445H72.832C72.832 30.9398 73.1155 33.0508 73.6951 34.9689L75.6096 34.3904ZM74.832 28.6445C74.832 25.7957 75.2965 23.367 76.1925 21.3328L74.3622 20.5266C73.3311 22.8674 72.832 25.5819 72.832 28.6445H74.832ZM76.1914 21.3353C77.0865 19.3184 78.4466 17.7725 80.284 16.67L79.255 14.955C77.056 16.2744 75.4213 18.14 74.3633 20.5241L76.1914 21.3353ZM80.284 16.67C82.1044 15.5777 84.4773 14.9961 87.4648 14.9961V12.9961C84.2284 12.9961 81.4711 13.6254 79.255 14.955L80.284 16.67ZM87.4648 14.9961C90.4393 14.9961 92.79 15.5777 94.5821 16.667L95.621 14.958C93.4287 13.6254 90.6884 12.9961 87.4648 12.9961V14.9961ZM94.5846 16.6685C96.4082 17.7698 97.7557 19.3143 98.6387 21.3308L100.471 20.5286C99.4266 18.144 97.8053 16.2771 95.6185 14.9565L94.5846 16.6685ZM98.6407 21.3353C99.5489 23.382 100.02 25.8229 100.02 28.6836H102.02C102.02 25.6068 101.514 22.8784 100.469 20.5241L98.6407 21.3353ZM79.1797 28.6836C79.1797 30.7543 79.4363 32.5879 79.9758 34.1637L81.868 33.516C81.4179 32.2011 81.1797 30.5972 81.1797 28.6836H79.1797ZM79.9794 34.174C80.544 35.7667 81.4416 37.0503 82.6946 37.9672L83.8757 36.3531C82.9933 35.7075 82.3153 34.7776 81.8644 33.5057L79.9794 34.174ZM82.7011 37.9719C83.982 38.8935 85.5836 39.3125 87.4258 39.3125V37.3125C85.8825 37.3125 84.7237 36.9633 83.8692 36.3484L82.7011 37.9719ZM87.4258 39.3125C89.2902 39.3125 90.9062 38.8952 92.1895 37.9719L91.0214 36.3484C90.1693 36.9615 88.9989 37.3125 87.4258 37.3125V39.3125ZM92.196 37.9672C93.4533 37.0472 94.3396 35.7578 94.8775 34.1587L92.9819 33.521C92.5562 34.7864 91.893 35.7106 91.015 36.3531L92.196 37.9672ZM94.8758 34.1637C95.4152 32.5879 95.6719 30.7543 95.6719 28.6836H93.6719C93.6719 30.5972 93.4337 32.2011 92.9836 33.516L94.8758 34.1637ZM95.6719 28.6836C95.6719 25.5793 95.0938 23.0071 93.8301 21.0674L92.1543 22.1592C93.1301 23.6569 93.6719 25.7983 93.6719 28.6836H95.6719ZM93.8301 21.0674C92.4786 18.9931 90.2717 18.0352 87.4648 18.0352V20.0352C89.7882 20.0352 91.2662 20.7959 92.1543 22.1592L93.8301 21.0674ZM87.4648 18.0352C85.6076 18.0352 83.9927 18.4616 82.6993 19.3966L83.871 21.0175C84.739 20.39 85.9106 20.0352 87.4648 20.0352V18.0352ZM82.7011 19.3953C81.4412 20.3018 80.5426 21.5902 79.9784 23.1959L81.8653 23.8588C82.3168 22.5739 82.9937 21.6487 83.8692 21.0188L82.7011 19.3953ZM79.9767 23.2008C79.436 24.7659 79.1797 26.601 79.1797 28.6836H81.1797C81.1797 26.7557 81.4182 25.1534 81.8671 23.8539L79.9767 23.2008ZM128.773 36.5156L127.906 36.0189L127.905 36.0206L128.773 36.5156ZM123.441 41.3789L123.862 42.2861L123.866 42.2842L123.441 41.3789ZM106.938 43H105.938V44H106.938V43ZM106.938 14.4453V13.4453H105.938V14.4453H106.938ZM123.695 16.0469L123.259 16.9466L123.263 16.9486L123.695 16.0469ZM128.812 20.7539L127.948 21.2564L127.949 21.2588L128.812 20.7539ZM123.402 23.4102L122.49 23.8187L122.494 23.8292L123.402 23.4102ZM120.668 20.3828L120.19 21.2614L120.194 21.2636L120.668 20.3828ZM112.992 19.4062V18.4062H111.992V19.4062H112.992ZM112.992 38H111.992V39H112.992V38ZM122.172 35.6367L121.435 34.9607L121.432 34.964L122.172 35.6367ZM129.629 28.4492C129.629 31.5407 129.034 34.0466 127.906 36.0189L129.641 37.0123C130.987 34.6617 131.629 31.79 131.629 28.4492H129.629ZM127.905 36.0206C126.787 37.982 125.169 39.4637 123.017 40.4736L123.866 42.2842C126.376 41.1066 128.312 39.3461 129.642 37.0106L127.905 36.0206ZM123.021 40.4717C120.853 41.4768 118.198 42 115.023 42V44C118.411 44 121.368 43.4425 123.862 42.2861L123.021 40.4717ZM115.023 42H106.938V44H115.023V42ZM107.938 43V14.4453H105.938V43H107.938ZM106.938 15.4453H115.902V13.4453H106.938V15.4453ZM115.902 15.4453C118.779 15.4453 121.221 15.958 123.259 16.9466L124.132 15.1472C121.768 14.0003 119.015 13.4453 115.902 13.4453V15.4453ZM123.263 16.9486C125.285 17.9178 126.839 19.3489 127.948 21.2564L129.677 20.2514C128.364 17.9923 126.507 16.2853 124.128 15.1451L123.263 16.9486ZM127.949 21.2588C129.049 23.1392 129.629 25.5187 129.629 28.4492H131.629C131.629 25.26 130.998 22.5093 129.676 20.249L127.949 21.2588ZM125.34 28.6055C125.34 26.4072 125.016 24.5193 124.31 22.9911L122.494 23.8292C123.039 25.0093 123.34 26.585 123.34 28.6055H125.34ZM124.315 23.0016C123.621 21.452 122.565 20.2672 121.142 19.502L120.194 21.2636C121.193 21.8005 121.959 22.634 122.49 23.8187L124.315 23.0016ZM121.145 19.5042C119.764 18.7532 118.104 18.4062 116.215 18.4062V20.4062C117.867 20.4062 119.176 20.7103 120.19 21.2614L121.145 19.5042ZM116.215 18.4062H112.992V20.4062H116.215V18.4062ZM111.992 19.4062V38H113.992V19.4062H111.992ZM112.992 39H115.59V37H112.992V39ZM115.59 39C118.714 39 121.225 38.1645 122.912 36.3094L121.432 34.964C120.254 36.26 118.377 37 115.59 37V39ZM122.909 36.3127C124.587 34.4838 125.34 31.8552 125.34 28.6055H123.34C123.34 31.5797 122.648 33.6386 121.435 34.9607L122.909 36.3127ZM164.418 43L163.461 43.2914L163.677 44H164.418V43ZM162.348 36.2031L163.304 35.9117L163.088 35.2031H162.348V36.2031ZM151.938 36.2031V35.2031H151.197L150.981 35.9117L151.938 36.2031ZM149.867 43V44H150.608L150.824 43.2914L149.867 43ZM143.344 43L142.4 42.6684L141.932 44H143.344V43ZM153.422 14.3281V13.3281H152.713L152.478 13.9965L153.422 14.3281ZM160.824 14.3281L161.767 13.9954L161.532 13.3281H160.824V14.3281ZM170.941 43V44H172.355L171.884 42.6672L170.941 43ZM160.902 31.125V32.125H162.262L161.857 30.8274L160.902 31.125ZM158.832 24.4844L157.873 24.7665L157.875 24.7743L157.877 24.782L158.832 24.4844ZM158.305 22.7852L157.346 23.0692L157.349 23.08L157.352 23.0906L158.305 22.7852ZM157.66 20.6562L156.699 20.931L156.702 20.9413L156.705 20.9516L157.66 20.6562ZM157.152 18.7617L158.124 18.5248H156.181L157.152 18.7617ZM156.605 20.7539L155.646 20.4709L155.643 20.4813L156.605 20.7539ZM155.512 24.4844L156.467 24.7795L156.468 24.7755L155.512 24.4844ZM153.461 31.125L152.505 30.8299L152.106 32.125H153.461V31.125ZM165.375 42.7086L163.304 35.9117L161.391 36.4945L163.461 43.2914L165.375 42.7086ZM162.348 35.2031H151.938V37.2031H162.348V35.2031ZM150.981 35.9117L148.911 42.7086L150.824 43.2914L152.894 36.4945L150.981 35.9117ZM149.867 42H143.344V44H149.867V42ZM144.287 43.3316L154.365 14.6597L152.478 13.9965L142.4 42.6684L144.287 43.3316ZM153.422 15.3281H160.824V13.3281H153.422V15.3281ZM159.881 14.6609L169.998 43.3328L171.884 42.6672L161.767 13.9954L159.881 14.6609ZM170.941 42H164.418V44H170.941V42ZM161.857 30.8274L159.787 24.1867L157.877 24.782L159.948 31.4226L161.857 30.8274ZM159.791 24.2022C159.658 23.7486 159.48 23.1737 159.257 22.4797L157.352 23.0906C157.573 23.7768 157.746 24.3347 157.873 24.7665L159.791 24.2022ZM159.263 22.5011C159.054 21.7941 158.838 21.0807 158.616 20.3609L156.705 20.9516C156.925 21.6641 157.139 22.3699 157.346 23.0692L159.263 22.5011ZM158.622 20.3815C158.416 19.6606 158.25 19.0422 158.124 18.5248L156.181 18.9987C156.315 19.5489 156.488 20.1936 156.699 20.931L158.622 20.3815ZM156.181 18.5248C156.056 19.0375 155.878 19.6851 155.646 20.4709L157.565 21.0369C157.801 20.2342 157.989 19.5536 158.124 18.9987L156.181 18.5248ZM155.643 20.4813C155.423 21.2591 155.209 21.9975 155.002 22.6964L156.92 23.2646C157.129 22.5572 157.345 21.8112 157.568 21.0265L155.643 20.4813ZM155.002 22.6964C154.794 23.3994 154.645 23.8976 154.555 24.1932L156.468 24.7755C156.561 24.4722 156.711 23.9678 156.92 23.2646L155.002 22.6964ZM154.556 24.1893L152.505 30.8299L154.416 31.4201L156.467 24.7794L154.556 24.1893ZM153.461 32.125H160.902V30.125H153.461V32.125ZM179.281 43L178.347 43.3561L178.592 44H179.281V43ZM170.961 21.1641V20.1641H169.51L170.026 21.5201L170.961 21.1641ZM177.191 21.1641L178.138 20.8429L177.908 20.1641H177.191V21.1641ZM181.41 33.6055L182.362 33.2995L182.36 33.2919L182.357 33.2843L181.41 33.6055ZM181.957 35.9102L180.97 36.0694L180.971 36.0771L180.972 36.0848L181.957 35.9102ZM182.25 38.0781L181.253 38.1595L181.328 39.0781H182.25V38.0781ZM182.406 38.0781V39.0781H183.351L183.405 38.1346L182.406 38.0781ZM182.68 35.8711L181.699 35.675L181.698 35.6829L181.696 35.6908L182.68 35.8711ZM183.285 33.6055L184.232 33.9268L184.233 33.9253L183.285 33.6055ZM187.484 21.1641V20.1641H186.766L186.537 20.8443L187.484 21.1641ZM193.715 21.1641L194.649 21.5201L195.166 20.1641H193.715V21.1641ZM185.395 43V44H186.084L186.329 43.3561L185.395 43ZM180.216 42.6439L171.895 20.808L170.026 21.5201L178.347 43.3561L180.216 42.6439ZM170.961 22.1641H177.191V20.1641H170.961V22.1641ZM176.244 21.4852L180.463 33.9266L182.357 33.2843L178.138 20.8429L176.244 21.4852ZM180.458 33.9115C180.676 34.5896 180.847 35.3085 180.97 36.0694L182.944 35.7509C182.807 34.8972 182.613 34.0797 182.362 33.2995L180.458 33.9115ZM180.972 36.0848C181.112 36.8693 181.204 37.56 181.253 38.1595L183.247 37.9968C183.191 37.3202 183.089 36.5656 182.942 35.7355L180.972 36.0848ZM182.25 39.0781H182.406V37.0781H182.25V39.0781ZM183.405 38.1346C183.441 37.4917 183.526 36.7976 183.663 36.0514L181.696 35.6908C181.546 36.507 181.45 37.2844 181.408 38.0216L183.405 38.1346ZM183.66 36.0672C183.808 35.3269 183.999 34.6136 184.232 33.9268L182.338 33.2842C182.076 34.0557 181.864 34.8528 181.699 35.675L183.66 36.0672ZM184.233 33.9253L188.432 21.4839L186.537 20.8443L182.338 33.2857L184.233 33.9253ZM187.484 22.1641H193.715V20.1641H187.484V22.1641ZM192.78 20.808L184.46 42.6439L186.329 43.3561L194.649 21.5201L192.78 20.808ZM185.395 42H179.281V44H185.395V42ZM212.543 22.6289L213.176 21.8544L212.543 22.6289ZM214.887 43V44H215.887V43H214.887ZM210.727 43L209.794 43.3619L210.042 44H210.727V43ZM209.574 40.0312L210.506 39.6694L210.259 39.0312H209.574V40.0312ZM209.418 40.0312V39.0312H208.937L208.637 39.4066L209.418 40.0312ZM207.504 41.9453L206.899 41.1492L207.504 41.9453ZM198.695 42.6484L198.257 43.5474L198.262 43.5496L198.695 42.6484ZM196.293 40.3828L195.424 40.8778L195.427 40.8825L196.293 40.3828ZM197.855 31.3594L198.413 32.1894L198.418 32.1863L197.855 31.3594ZM205.18 29.5234L205.149 28.5239L205.144 28.5241L205.18 29.5234ZM208.969 29.4062L209 30.4058L209.969 30.3758V29.4062H208.969ZM199.418 26.7109L198.52 27.1512L198.946 28.019L199.827 27.6233L199.418 26.7109ZM197.445 22.6875L196.978 21.8032L196.12 22.2564L196.547 23.1277L197.445 22.6875ZM201.332 21.2422L201.096 20.2705L201.094 20.271L201.332 21.2422ZM208.969 32.8828H209.969V31.8483L208.935 31.8834L208.969 32.8828ZM206.664 32.9609L206.691 33.9606L206.698 33.9604L206.664 32.9609ZM202.641 33.9961L201.995 33.2322L201.989 33.2378L202.641 33.9961ZM202.328 38.4688L201.738 39.2758L201.744 39.2805L201.751 39.2852L202.328 38.4688ZM207.641 37.9023L206.992 37.1415L206.986 37.1463L207.641 37.9023ZM205.805 21.7148C208.605 21.7148 210.592 22.3265 211.91 23.4034L213.176 21.8544C211.369 20.3792 208.863 19.7148 205.805 19.7148V21.7148ZM211.91 23.4034C213.176 24.437 213.887 26.0509 213.887 28.4492H215.887C215.887 25.6392 215.035 23.3729 213.176 21.8544L211.91 23.4034ZM213.887 28.4492V43H215.887V28.4492H213.887ZM214.887 42H210.727V44H214.887V42ZM211.659 42.6381L210.506 39.6694L208.642 40.3931L209.794 43.3619L211.659 42.6381ZM209.574 39.0312H209.418V41.0312H209.574V39.0312ZM208.637 39.4066C208.052 40.1373 207.472 40.7137 206.899 41.1492L208.109 42.7415C208.838 42.1874 209.533 41.4877 210.199 40.6559L208.637 39.4066ZM206.899 41.1492C206.356 41.5616 205.724 41.8723 204.991 42.0753L205.525 44.0028C206.484 43.7371 207.35 43.3186 208.109 42.7415L206.899 41.1492ZM204.991 42.0753C204.257 42.2785 203.324 42.3906 202.172 42.3906V44.3906C203.442 44.3906 204.566 44.2684 205.525 44.0028L204.991 42.0753ZM202.172 42.3906C201.013 42.3906 200.006 42.1691 199.129 41.7473L198.262 43.5496C199.442 44.1174 200.752 44.3906 202.172 44.3906V42.3906ZM199.133 41.7494C198.304 41.3455 197.649 40.7328 197.159 39.8831L195.427 40.8825C196.108 42.0641 197.055 42.9618 198.257 43.5474L199.133 41.7494ZM197.162 39.8879C196.686 39.0519 196.414 37.934 196.414 36.4766H194.414C194.414 38.1702 194.728 39.6565 195.424 40.8778L197.162 39.8879ZM196.414 36.4766C196.414 34.4221 197.115 33.0615 198.413 32.1894L197.298 30.5294C195.34 31.8447 194.414 33.8956 194.414 36.4766H196.414ZM198.418 32.1863C199.818 31.2339 202.038 30.6372 205.216 30.5228L205.144 28.5241C201.811 28.6441 199.148 29.2713 197.293 30.5324L198.418 32.1863ZM205.211 30.523L209 30.4058L208.938 28.4067L205.149 28.5239L205.211 30.523ZM209.969 29.4062V28.4492H207.969V29.4062H209.969ZM209.969 28.4492C209.969 27.1435 209.626 25.9766 208.736 25.1832L207.405 26.6762C207.713 26.9505 207.969 27.4633 207.969 28.4492H209.969ZM208.736 25.1832C207.9 24.4384 206.801 24.1289 205.57 24.1289V26.1289C206.475 26.1289 207.043 26.3532 207.405 26.6762L208.736 25.1832ZM205.57 24.1289C204.419 24.1289 203.289 24.2925 202.182 24.619L202.748 26.5373C203.672 26.2648 204.612 26.1289 205.57 26.1289V24.1289ZM202.182 24.619C201.121 24.9318 200.063 25.3254 199.009 25.7986L199.827 27.6233C200.804 27.1851 201.777 26.8234 202.748 26.5373L202.182 24.619ZM200.316 26.2707L198.343 22.2473L196.547 23.1277L198.52 27.1512L200.316 26.2707ZM197.912 23.5718C198.99 23.0024 200.208 22.5478 201.57 22.2134L201.094 20.271C199.592 20.6397 198.218 21.1486 196.978 21.8032L197.912 23.5718ZM201.568 22.2139C202.934 21.8817 204.345 21.7148 205.805 21.7148V19.7148C204.191 19.7148 202.621 19.8995 201.096 20.2705L201.568 22.2139ZM208.935 31.8834L206.63 31.9615L206.698 33.9604L209.003 33.8822L208.935 31.8834ZM206.637 31.9613C204.667 32.0145 203.026 32.3618 201.995 33.2322L203.286 34.76C203.766 34.3543 204.807 34.0115 206.691 33.9606L206.637 31.9613ZM201.989 33.2378C201.01 34.0792 200.527 35.2038 200.527 36.5156H202.527C202.527 35.7441 202.787 35.189 203.293 34.7544L201.989 33.2378ZM200.527 36.5156C200.527 37.6163 200.857 38.6315 201.738 39.2758L202.919 37.6617C202.731 37.5247 202.527 37.2379 202.527 36.5156H200.527ZM201.751 39.2852C202.499 39.8147 203.416 40.0352 204.418 40.0352V38.0352C203.701 38.0352 203.225 37.878 202.906 37.6523L201.751 39.2852ZM204.418 40.0352C205.907 40.0352 207.221 39.588 208.295 38.6584L206.986 37.1463C206.315 37.7271 205.481 38.0352 204.418 38.0352V40.0352ZM208.29 38.6632C209.442 37.6803 209.969 36.3022 209.969 34.6797H207.969C207.969 35.8436 207.61 36.614 206.992 37.1415L208.29 38.6632ZM209.969 34.6797V32.8828H207.969V34.6797H209.969ZM226.996 21.1641H227.996V20.1641H226.996V21.1641ZM226.996 43V44H227.996V43H226.996ZM221.039 43H220.039V44H221.039V43ZM221.039 21.1641V20.1641H220.039V21.1641H221.039ZM226.312 13.2344L225.766 14.0716L225.772 14.0756L225.778 14.0795L226.312 13.2344ZM226.312 17.8242L226.859 18.6615L226.865 18.6576L226.871 18.6537L226.312 17.8242ZM221.723 17.8242L221.156 18.6483L221.166 18.655L221.176 18.6615L221.723 17.8242ZM221.723 13.2344L222.265 14.0744L222.269 14.0716L221.723 13.2344ZM225.996 21.1641V43H227.996V21.1641H225.996ZM226.996 42H221.039V44H226.996V42ZM222.039 43V21.1641H220.039V43H222.039ZM221.039 22.1641H226.996V20.1641H221.039V22.1641ZM224.027 13.6094C224.751 13.6094 225.315 13.7775 225.766 14.0716L226.859 12.3971C226.034 11.8579 225.075 11.6094 224.027 11.6094V13.6094ZM225.778 14.0795C226.002 14.2215 226.27 14.5647 226.27 15.5195H228.27C228.27 14.2348 227.899 13.0545 226.847 12.3893L225.778 14.0795ZM226.27 15.5195C226.27 16.4505 226.007 16.8241 225.754 16.9948L226.871 18.6537C227.894 17.9649 228.27 16.8021 228.27 15.5195H226.27ZM225.766 16.9869C225.315 17.2811 224.751 17.4492 224.027 17.4492V19.4492C225.075 19.4492 226.034 19.2007 226.859 18.6615L225.766 16.9869ZM224.027 17.4492C223.288 17.4492 222.718 17.2796 222.269 16.9869L221.176 18.6615C222.004 19.2022 222.97 19.4492 224.027 19.4492V17.4492ZM222.289 17.0002C222.046 16.8327 221.785 16.458 221.785 15.5195H219.785C219.785 16.7946 220.15 17.9564 221.156 18.6483L222.289 17.0002ZM221.785 15.5195C221.785 14.5569 222.051 14.213 222.265 14.0744L221.18 12.3943C220.145 13.063 219.785 14.2426 219.785 15.5195H221.785ZM222.269 14.0716C222.718 13.779 223.288 13.6094 224.027 13.6094V11.6094C222.97 11.6094 222.004 11.8564 221.176 12.3971L222.269 14.0716ZM239.223 43V44H240.223V43H239.223ZM233.266 43H232.266V44H233.266V43ZM233.266 12.6094V11.6094H232.266V12.6094H233.266ZM239.223 12.6094H240.223V11.6094H239.223V12.6094ZM239.223 42H233.266V44H239.223V42ZM234.266 43V12.6094H232.266V43H234.266ZM233.266 13.6094H239.223V11.6094H233.266V13.6094ZM238.223 12.6094V43H240.223V12.6094H238.223ZM261.176 22.6289L261.808 21.8544L261.176 22.6289ZM263.52 43V44H264.52V43H263.52ZM259.359 43L258.427 43.3619L258.675 44H259.359V43ZM258.207 40.0312L259.139 39.6694L258.892 39.0312H258.207V40.0312ZM258.051 40.0312V39.0312H257.57L257.27 39.4066L258.051 40.0312ZM256.137 41.9453L255.532 41.1492L256.137 41.9453ZM247.328 42.6484L246.89 43.5474L246.895 43.5496L247.328 42.6484ZM244.926 40.3828L244.057 40.8778L244.06 40.8825L244.926 40.3828ZM246.488 31.3594L247.046 32.1894L247.051 32.1863L246.488 31.3594ZM253.812 29.5234L253.782 28.5239L253.777 28.5241L253.812 29.5234ZM257.602 29.4062L257.632 30.4058L258.602 30.3758V29.4062H257.602ZM248.051 26.7109L247.153 27.1512L247.578 28.019L248.46 27.6233L248.051 26.7109ZM246.078 22.6875L245.611 21.8032L244.753 22.2564L245.18 23.1277L246.078 22.6875ZM249.965 21.2422L249.728 20.2705L249.726 20.271L249.965 21.2422ZM257.602 32.8828H258.602V31.8483L257.568 31.8834L257.602 32.8828ZM255.297 32.9609L255.324 33.9606L255.331 33.9604L255.297 32.9609ZM251.273 33.9961L250.628 33.2322L250.622 33.2378L251.273 33.9961ZM250.961 38.4688L250.37 39.2758L250.377 39.2805L250.383 39.2852L250.961 38.4688ZM256.273 37.9023L255.624 37.1415L255.619 37.1463L256.273 37.9023ZM254.438 21.7148C257.238 21.7148 259.225 22.3265 260.543 23.4034L261.808 21.8544C260.002 20.3792 257.496 19.7148 254.438 19.7148V21.7148ZM260.543 23.4034C261.809 24.437 262.52 26.0509 262.52 28.4492H264.52C264.52 25.6392 263.668 23.3729 261.808 21.8544L260.543 23.4034ZM262.52 28.4492V43H264.52V28.4492H262.52ZM263.52 42H259.359V44H263.52V42ZM260.292 42.6381L259.139 39.6694L257.275 40.3931L258.427 43.3619L260.292 42.6381ZM258.207 39.0312H258.051V41.0312H258.207V39.0312ZM257.27 39.4066C256.685 40.1373 256.105 40.7137 255.532 41.1492L256.742 42.7415C257.471 42.1874 258.166 41.4877 258.832 40.6559L257.27 39.4066ZM255.532 41.1492C254.989 41.5616 254.357 41.8723 253.624 42.0753L254.158 44.0028C255.117 43.7371 255.982 43.3186 256.742 42.7415L255.532 41.1492ZM253.624 42.0753C252.89 42.2785 251.957 42.3906 250.805 42.3906V44.3906C252.074 44.3906 253.198 44.2684 254.158 44.0028L253.624 42.0753ZM250.805 42.3906C249.646 42.3906 248.638 42.1691 247.762 41.7473L246.895 43.5496C248.075 44.1174 249.385 44.3906 250.805 44.3906V42.3906ZM247.766 41.7494C246.937 41.3455 246.282 40.7328 245.792 39.8831L244.06 40.8825C244.741 42.0641 245.688 42.9618 246.89 43.5474L247.766 41.7494ZM245.795 39.8879C245.318 39.0519 245.047 37.934 245.047 36.4766H243.047C243.047 38.1702 243.361 39.6565 244.057 40.8778L245.795 39.8879ZM245.047 36.4766C245.047 34.4221 245.748 33.0615 247.046 32.1894L245.931 30.5294C243.973 31.8447 243.047 33.8956 243.047 36.4766H245.047ZM247.051 32.1863C248.451 31.2339 250.671 30.6372 253.848 30.5228L253.777 28.5241C250.444 28.6441 247.781 29.2713 245.926 30.5324L247.051 32.1863ZM253.843 30.523L257.632 30.4058L257.571 28.4067L253.782 28.5239L253.843 30.523ZM258.602 29.4062V28.4492H256.602V29.4062H258.602ZM258.602 28.4492C258.602 27.1435 258.259 25.9766 257.368 25.1832L256.038 26.6762C256.345 26.9505 256.602 27.4633 256.602 28.4492H258.602ZM257.368 25.1832C256.533 24.4384 255.434 24.1289 254.203 24.1289V26.1289C255.108 26.1289 255.675 26.3532 256.038 26.6762L257.368 25.1832ZM254.203 24.1289C253.052 24.1289 251.922 24.2925 250.815 24.619L251.38 26.5373C252.305 26.2648 253.245 26.1289 254.203 26.1289V24.1289ZM250.815 24.619C249.754 24.9318 248.696 25.3254 247.641 25.7986L248.46 27.6233C249.437 27.1851 250.41 26.8234 251.38 26.5373L250.815 24.619ZM248.949 26.2707L246.976 22.2473L245.18 23.1277L247.153 27.1512L248.949 26.2707ZM246.545 23.5718C247.623 23.0024 248.841 22.5478 250.203 22.2134L249.726 20.271C248.224 20.6397 246.851 21.1486 245.611 21.8032L246.545 23.5718ZM250.201 22.2139C251.567 21.8817 252.978 21.7148 254.438 21.7148V19.7148C252.824 19.7148 251.254 19.8995 249.728 20.2705L250.201 22.2139ZM257.568 31.8834L255.263 31.9615L255.331 33.9604L257.635 33.8822L257.568 31.8834ZM255.27 31.9613C253.3 32.0145 251.658 32.3618 250.628 33.2322L251.919 34.76C252.399 34.3543 253.44 34.0115 255.324 33.9606L255.27 31.9613ZM250.622 33.2378C249.643 34.0792 249.16 35.2038 249.16 36.5156H251.16C251.16 35.7441 251.42 35.189 251.925 34.7544L250.622 33.2378ZM249.16 36.5156C249.16 37.6163 249.49 38.6315 250.37 39.2758L251.551 37.6617C251.364 37.5247 251.16 37.2379 251.16 36.5156H249.16ZM250.383 39.2852C251.132 39.8147 252.049 40.0352 253.051 40.0352V38.0352C252.334 38.0352 251.857 37.878 251.538 37.6523L250.383 39.2852ZM253.051 40.0352C254.54 40.0352 255.854 39.588 256.928 38.6584L255.619 37.1463C254.948 37.7271 254.114 38.0352 253.051 38.0352V40.0352ZM256.922 38.6632C258.075 37.6803 258.602 36.3022 258.602 34.6797H256.602C256.602 35.8436 256.243 36.614 255.624 37.1415L256.922 38.6632ZM258.602 34.6797V32.8828H256.602V34.6797H258.602ZM275.629 12.6094H276.629V11.6094H275.629V12.6094ZM275.551 22.1211L274.553 22.0567L274.552 22.0647L274.552 22.0728L275.551 22.1211ZM275.395 23.9961L274.405 23.8506L274.237 24.9961H275.395V23.9961ZM275.629 23.9961V24.9961H276.177L276.472 24.5338L275.629 23.9961ZM277.973 21.7109L278.507 22.5565L278.515 22.5514L277.973 21.7109ZM289.008 38.3125L289.93 38.6986L289.931 38.6961L289.008 38.3125ZM286.059 42.1211L286.615 42.9518L286.621 42.9479L286.059 42.1211ZM275.629 40.5977L276.41 39.973L276.11 39.5977H275.629V40.5977ZM275.219 40.5977V39.5977H274.551L274.295 40.2146L275.219 40.5977ZM274.223 43V44H274.891L275.146 43.383L274.223 43ZM269.672 43H268.672V44H269.672V43ZM269.672 12.6094V11.6094H268.672V12.6094H269.672ZM276.078 28.0977L275.129 27.7814L275.125 27.7945L276.078 28.0977ZM275.629 31.3594L274.629 31.3396L274.629 31.3495V31.3594H275.629ZM276.566 36.8867L275.691 37.3698L275.693 37.3741L276.566 36.8867ZM282.895 36.8672L282.054 36.3259L282.049 36.3328L282.895 36.8672ZM274.629 12.6094V19.6797H276.629V12.6094H274.629ZM274.629 19.6797C274.629 20.4788 274.604 21.2712 274.553 22.0567L276.549 22.1855C276.602 21.3565 276.629 20.5212 276.629 19.6797H274.629ZM274.552 22.0728C274.513 22.8689 274.463 23.456 274.405 23.8506L276.384 24.1416C276.456 23.6508 276.51 22.9878 276.55 22.1694L274.552 22.0728ZM275.395 24.9961H275.629V22.9961H275.395V24.9961ZM276.472 24.5338C276.958 23.7712 277.629 23.1107 278.507 22.5564L277.439 20.8654C276.337 21.5612 275.445 22.4241 274.786 23.4584L276.472 24.5338ZM278.515 22.5514C279.296 22.0472 280.374 21.7539 281.82 21.7539V19.7539C280.116 19.7539 278.628 20.0986 277.431 20.8705L278.515 22.5514ZM281.82 21.7539C283.964 21.7539 285.661 22.5722 286.995 24.2477L288.56 23.0023C286.846 20.8496 284.573 19.7539 281.82 19.7539V21.7539ZM286.995 24.2477C288.321 25.9143 289.062 28.4608 289.062 32.043H291.062C291.062 28.2293 290.28 25.1638 288.56 23.0023L286.995 24.2477ZM289.062 32.043C289.062 34.4424 288.722 36.3928 288.084 37.9289L289.931 38.6961C290.699 36.8468 291.062 34.6175 291.062 32.043H289.062ZM288.085 37.9264C287.442 39.4622 286.57 40.5633 285.496 41.2943L286.621 42.9479C288.073 41.9601 289.167 40.5222 289.93 38.6986L288.085 37.9264ZM285.502 41.2904C284.419 42.0158 283.152 42.3906 281.664 42.3906V44.3906C283.509 44.3906 285.172 43.9191 286.615 42.9518L285.502 41.2904ZM281.664 42.3906C280.166 42.3906 279.11 42.1202 278.402 41.6812L277.348 43.3813C278.489 44.0881 279.959 44.3906 281.664 44.3906V42.3906ZM278.402 41.6812C277.557 41.1575 276.9 40.5852 276.41 39.973L274.848 41.2224C275.504 42.0424 276.344 42.7592 277.348 43.3813L278.402 41.6812ZM275.629 39.5977H275.219V41.5977H275.629V39.5977ZM274.295 40.2146L273.299 42.617L275.146 43.383L276.142 40.9807L274.295 40.2146ZM274.223 42H269.672V44H274.223V42ZM270.672 43V12.6094H268.672V43H270.672ZM269.672 13.6094H275.629V11.6094H269.672V13.6094ZM279.906 24.5195C278.737 24.5195 277.686 24.7596 276.851 25.3456L278 26.9825C278.39 26.7092 278.992 26.5195 279.906 26.5195V24.5195ZM276.851 25.3456C276.029 25.9226 275.469 26.7629 275.129 27.7814L277.027 28.4139C277.26 27.7137 277.598 27.2649 278 26.9825L276.851 25.3456ZM275.125 27.7945C274.813 28.7771 274.656 29.9681 274.629 31.3396L276.629 31.3792C276.654 30.1205 276.797 29.137 277.031 28.4009L275.125 27.7945ZM274.629 31.3594V32.0039H276.629V31.3594H274.629ZM274.629 32.0039C274.629 34.199 274.948 36.023 275.691 37.3698L277.442 36.4036C276.935 35.4848 276.629 34.0536 276.629 32.0039H274.629ZM275.693 37.3741C276.547 38.904 278.09 39.5664 279.984 39.5664V37.5664C278.572 37.5664 277.836 37.109 277.44 36.3994L275.693 37.3741ZM279.984 39.5664C281.588 39.5664 282.861 38.7914 283.74 37.4015L282.049 36.3328C281.496 37.2086 280.828 37.5664 279.984 37.5664V39.5664ZM283.735 37.4084C284.613 36.0454 284.988 34.1895 284.988 31.9648H282.988C282.988 34.011 282.635 35.4234 282.054 36.3259L283.735 37.4084ZM284.988 31.9648C284.988 29.7454 284.615 27.9022 283.723 26.5813L282.066 27.6999C282.633 28.5405 282.988 29.9135 282.988 31.9648H284.988ZM283.723 26.5813C282.816 25.2357 281.514 24.5195 279.906 24.5195V26.5195C280.824 26.5195 281.515 26.8841 282.066 27.6999L283.723 26.5813ZM300.941 43V44H301.941V43H300.941ZM294.984 43H293.984V44H294.984V43ZM294.984 12.6094V11.6094H293.984V12.6094H294.984ZM300.941 12.6094H301.941V11.6094H300.941V12.6094ZM300.941 42H294.984V44H300.941V42ZM295.984 43V12.6094H293.984V43H295.984ZM294.984 13.6094H300.941V11.6094H294.984V13.6094ZM299.941 12.6094V43H301.941V12.6094H299.941ZM321.43 21.9258L320.957 22.8073L320.964 22.8105L321.43 21.9258ZM324.809 25.2852L323.929 25.7602L324.809 25.2852ZM326 33.5664V34.5664H327V33.5664H326ZM311.918 33.5664V32.5664H310.878L310.919 33.6051L311.918 33.5664ZM313.422 37.5312L312.705 38.2287L312.715 38.2384L313.422 37.5312ZM324.77 37.2383H325.77V35.6661L324.346 36.3326L324.77 37.2383ZM324.77 41.8477L325.212 42.7442L325.77 42.469V41.8477H324.77ZM321.371 43.0195L321.167 42.0406L321.165 42.0411L321.371 43.0195ZM311.273 42.1797L310.84 43.081L310.843 43.0823L311.273 42.1797ZM307.309 38.4883L306.442 38.9866L306.445 38.9917L307.309 38.4883ZM307.172 25.8711L306.282 25.4157L306.28 25.4184L307.172 25.8711ZM310.805 22.043L311.284 22.9206L311.29 22.9175L310.805 22.043ZM313.363 26.1055L312.668 25.3863L312.662 25.3922L313.363 26.1055ZM312.055 29.6016L311.057 29.528L310.978 30.6016H312.055V29.6016ZM320.414 29.6016V30.6016H321.429L321.414 29.5869L320.414 29.6016ZM319.926 27.2383L319.008 27.6364L319.012 27.6436L319.015 27.6508L319.926 27.2383ZM318.559 25.5977L318 26.427L318.008 26.4324L318.559 25.5977ZM316.215 21.7539C318.104 21.7539 319.673 22.1192 320.957 22.8073L321.902 21.0443C320.27 20.1699 318.362 19.7539 316.215 19.7539V21.7539ZM320.964 22.8105C322.244 23.4849 323.227 24.4608 323.929 25.7602L325.689 24.8101C324.801 23.1668 323.532 21.9032 321.896 21.041L320.964 22.8105ZM323.929 25.7602C324.626 27.0515 325 28.6756 325 30.6758H327C327 28.4312 326.58 26.4615 325.689 24.8101L323.929 25.7602ZM325 30.6758V33.5664H327V30.6758H325ZM326 32.5664H311.918V34.5664H326V32.5664ZM310.919 33.6051C310.991 35.4675 311.555 37.0467 312.705 38.2286L314.139 36.8339C313.414 36.0887 312.975 35.0247 312.917 33.5277L310.919 33.6051ZM312.715 38.2384C313.897 39.4207 315.492 39.957 317.367 39.957V37.957C315.883 37.957 314.848 37.5429 314.129 36.8241L312.715 38.2384ZM317.367 39.957C318.828 39.957 320.186 39.8069 321.435 39.4981L320.955 37.5566C319.887 37.8207 318.693 37.957 317.367 37.957V39.957ZM321.435 39.4981C322.665 39.1941 323.918 38.741 325.193 38.144L324.346 36.3326C323.173 36.8814 322.043 37.2876 320.955 37.5566L321.435 39.4981ZM323.77 37.2383V41.8477H325.77V37.2383H323.77ZM324.327 40.9511C323.322 41.4474 322.269 41.8104 321.167 42.0406L321.575 43.9984C322.843 43.7338 324.056 43.3156 325.212 42.7442L324.327 40.9511ZM321.165 42.0411C320.082 42.2697 318.729 42.3906 317.094 42.3906V44.3906C318.817 44.3906 320.317 44.2641 321.578 43.998L321.165 42.0411ZM317.094 42.3906C315.031 42.3906 313.242 42.0104 311.704 41.2771L310.843 43.0823C312.691 43.9635 314.782 44.3906 317.094 44.3906V42.3906ZM311.707 41.2784C310.212 40.5601 309.038 39.4707 308.173 37.9848L306.445 38.9917C307.506 40.8131 308.975 42.1847 310.84 43.081L311.707 41.2784ZM308.176 37.9899C307.336 36.5287 306.883 34.6303 306.883 32.2383H304.883C304.883 34.8723 305.381 37.1406 306.442 38.9866L308.176 37.9899ZM306.883 32.2383C306.883 29.7918 307.296 27.8364 308.064 26.3238L306.28 25.4184C305.329 27.2912 304.883 29.5806 304.883 32.2383H306.883ZM308.062 26.3264C308.851 24.7836 309.926 23.6624 311.284 22.9206L310.325 21.1654C308.584 22.1162 307.237 23.5471 306.282 25.4157L308.062 26.3264ZM311.29 22.9175C312.668 22.1528 314.3 21.7539 316.215 21.7539V19.7539C314.015 19.7539 312.04 20.2144 310.32 21.1685L311.29 22.9175ZM316.254 23.9922C314.86 23.9922 313.64 24.4479 312.668 25.3863L314.058 26.8247C314.623 26.2787 315.33 25.9922 316.254 25.9922V23.9922ZM312.662 25.3922C311.665 26.3725 311.184 27.8156 311.057 29.528L313.052 29.6751C313.16 28.2104 313.551 27.3228 314.064 26.8187L312.662 25.3922ZM312.055 30.6016H320.414V28.6016H312.055V30.6016ZM321.414 29.5869C321.399 28.5871 321.215 27.6603 320.837 26.8258L319.015 27.6508C319.262 28.1965 319.403 28.8452 319.414 29.6163L321.414 29.5869ZM320.843 26.8402C320.469 25.9769 319.888 25.2763 319.109 24.7629L318.008 26.4324C318.453 26.7263 318.784 27.1194 319.008 27.6364L320.843 26.8402ZM319.117 24.7684C318.311 24.2246 317.332 23.9922 316.254 23.9922V25.9922C317.051 25.9922 317.609 26.1634 318 26.4269L319.117 24.7684ZM331 37.6289L330.41 36.8215L330.403 36.827L331 37.6289ZM335.824 37.6289L335.227 38.4308L335.234 38.4363L335.824 37.6289ZM335.824 42.7461L335.214 41.9534L335.207 41.9592L335.824 42.7461ZM331 42.7461L330.383 43.533L330.39 43.5387L331 42.7461ZM331.004 40.207C331.004 39.1413 331.291 38.6592 331.597 38.4308L330.403 36.827C329.381 37.5882 329.004 38.8248 329.004 40.207H331.004ZM331.59 38.4363C332.073 38.083 332.673 37.8867 333.441 37.8867V35.8867C332.308 35.8867 331.281 36.1852 330.41 36.8215L331.59 38.4363ZM333.441 37.8867C334.177 37.8867 334.755 38.0795 335.227 38.4308L336.422 36.827C335.565 36.1887 334.555 35.8867 333.441 35.8867V37.8867ZM335.234 38.4363C335.55 38.6672 335.84 39.1478 335.84 40.207H337.84C337.84 38.8183 337.452 37.5802 336.414 36.8215L335.234 38.4363ZM335.84 40.207C335.84 41.1918 335.562 41.6862 335.215 41.9535L336.434 43.5387C337.441 42.7643 337.84 41.566 337.84 40.207H335.84ZM335.207 41.9592C334.736 42.3286 334.165 42.5273 333.441 42.5273V44.5273C334.567 44.5273 335.584 44.2053 336.441 43.5329L335.207 41.9592ZM333.441 42.5273C332.685 42.5273 332.092 42.3247 331.61 41.9535L330.39 43.5387C331.262 44.2092 332.297 44.5273 333.441 44.5273V42.5273ZM331.617 41.9592C331.279 41.6943 331.004 41.1982 331.004 40.207H329.004C329.004 41.5596 329.393 42.7562 330.383 43.5329L331.617 41.9592Z" fill="#EF4F5F" mask="url(#path-1-inside-1_919_652)"/>
</g>
<g clip-path="url(#clip0_919_652)">
<path d="M23.9999 35.7833L30.9165 39.9666C32.1832 40.7333 33.7332 39.5999 33.3999 38.1666L31.5665 30.2999L37.6832 24.9999C38.7999 24.0333 38.1999 22.1999 36.7332 22.0833L28.6832 21.3999L25.5332 13.9666C24.9665 12.6166 23.0332 12.6166 22.4665 13.9666L19.3165 21.3833L11.2665 22.0666C9.79988 22.1833 9.19988 24.0166 10.3165 24.9833L16.4332 30.2833L14.5999 38.1499C14.2665 39.5833 15.8165 40.7166 17.0832 39.9499L23.9999 35.7833Z" fill="#EF4F5F"/>
</g>
</g>
<defs>
<filter id="filter0_d_919_652" x="0" y="7" width="340.84" height="48" filterUnits="userSpaceOnUse" color-interpolation-filters="sRGB">
<feFlood flood-opacity="0" result="BackgroundImageFix"/>
<feColorMatrix in="SourceAlpha" type="matrix" values="0 0 0 0 0 0 0 0 0 0 0 0 0 0 0 0 0 0 127 0" result="hardAlpha"/>
<feOffset dy="4"/>
<feGaussianBlur stdDeviation="2"/>
<feComposite in2="hardAlpha" operator="out"/>
<feColorMatrix type="matrix" values="0 0 0 0 0 0 0 0 0 0 0 0 0 0 0 0 0 0 0.25 0"/>
<feBlend mode="normal" in2="BackgroundImageFix" result="effect1_dropShadow_919_652"/>
<feBlend mode="normal" in="SourceGraphic" in2="effect1_dropShadow_919_652" result="shape"/>
</filter>
<filter id="filter1_d_919_652" x="44.3242" y="12.6094" width="296.516" height="38.918" filterUnits="userSpaceOnUse" color-interpolation-filters="sRGB">
<feFlood flood-opacity="0" result="BackgroundImageFix"/>
<feColorMatrix in="SourceAlpha" type="matrix" values="0 0 0 0 0 0 0 0 0 0 0 0 0 0 0 0 0 0 127 0" result="hardAlpha"/>
<feOffset dy="4"/>
<feGaussianBlur stdDeviation="2"/>
<feComposite in2="hardAlpha" operator="out"/>
<feColorMatrix type="matrix" values="0 0 0 0 0 0 0 0 0 0 0 0 0 0 0 0 0 0 0.25 0"/>
<feBlend mode="normal" in2="BackgroundImageFix" result="effect1_dropShadow_919_652"/>
<feBlend mode="normal" in="SourceGraphic" in2="effect1_dropShadow_919_652" result="shape"/>
</filter>
<clipPath id="clip0_919_652">
<rect width="40" height="40" fill="white" transform="translate(4 7)"/>
</clipPath>
</defs>
</svg>
