<svg width="433" height="54" viewBox="0 0 433 54" fill="none" xmlns="http://www.w3.org/2000/svg">
<mask id="path-1-inside-1_919_644" fill="white">
<path d="M71.5117 28.6836C71.5117 30.8841 71.2383 32.8893 70.6914 34.6992C70.1445 36.4961 69.3112 38.0456 68.1914 39.3477C67.0846 40.6497 65.6784 41.6523 63.9727 42.3555C62.2669 43.0456 60.2487 43.3906 57.918 43.3906C55.5872 43.3906 53.569 43.0456 51.8633 42.3555C50.1576 41.6523 48.7448 40.6497 47.625 39.3477C46.5182 38.0456 45.6914 36.4896 45.1445 34.6797C44.5977 32.8698 44.3242 30.8581 44.3242 28.6445C44.3242 25.6888 44.806 23.1172 45.7695 20.9297C46.7461 18.7292 48.2435 17.0234 50.2617 15.8125C52.2799 14.6016 54.8451 13.9961 57.957 13.9961C61.056 13.9961 63.6016 14.6016 65.5938 15.8125C67.599 17.0234 69.0833 18.7292 70.0469 20.9297C71.0234 23.1302 71.5117 25.7148 71.5117 28.6836ZM50.6719 28.6836C50.6719 30.6758 50.9193 32.3945 51.4141 33.8398C51.9219 35.2721 52.7096 36.3789 53.7773 37.1602C54.8451 37.9284 56.2253 38.3125 57.918 38.3125C59.6367 38.3125 61.0299 37.9284 62.0977 37.1602C63.1654 36.3789 63.9401 35.2721 64.4219 33.8398C64.9167 32.3945 65.1641 30.6758 65.1641 28.6836C65.1641 25.6888 64.6042 23.332 63.4844 21.6133C62.3646 19.8945 60.5221 19.0352 57.957 19.0352C56.2513 19.0352 54.8581 19.4258 53.7773 20.207C52.7096 20.9753 51.9219 22.082 51.4141 23.5273C50.9193 24.9596 50.6719 26.6784 50.6719 28.6836ZM89.3633 20.7539C91.694 20.7539 93.569 21.3919 94.9883 22.668C96.4076 23.931 97.1172 25.9622 97.1172 28.7617V43H91.1602V30.2461C91.1602 28.6836 90.8737 27.5052 90.3008 26.7109C89.7409 25.9167 88.8555 25.5195 87.6445 25.5195C85.8216 25.5195 84.5781 26.138 83.9141 27.375C83.25 28.612 82.918 30.3958 82.918 32.7266V43H76.9609V21.1641H81.5117L82.3125 23.957H82.6445C83.1133 23.2018 83.6927 22.5898 84.3828 22.1211C85.0859 21.6523 85.8607 21.3073 86.707 21.0859C87.5664 20.8646 88.4518 20.7539 89.3633 20.7539ZM112.254 20.7539C114.272 20.7539 116.01 21.1445 117.469 21.9258C118.927 22.694 120.053 23.8138 120.848 25.2852C121.642 26.7565 122.039 28.5534 122.039 30.6758V33.5664H107.957C108.022 35.2461 108.523 36.5677 109.461 37.5312C110.411 38.4818 111.727 38.957 113.406 38.957C114.799 38.957 116.076 38.8138 117.234 38.5273C118.393 38.2409 119.585 37.8112 120.809 37.2383V41.8477C119.728 42.3815 118.595 42.7721 117.41 43.0195C116.238 43.2669 114.812 43.3906 113.133 43.3906C110.945 43.3906 109.005 42.987 107.312 42.1797C105.633 41.3724 104.311 40.1419 103.348 38.4883C102.397 36.8346 101.922 34.7513 101.922 32.2383C101.922 29.6862 102.352 27.5638 103.211 25.8711C104.083 24.1654 105.294 22.8893 106.844 22.043C108.393 21.1836 110.197 20.7539 112.254 20.7539ZM112.293 24.9922C111.134 24.9922 110.171 25.3633 109.402 26.1055C108.647 26.8477 108.211 28.013 108.094 29.6016H116.453C116.44 28.7161 116.277 27.9284 115.965 27.2383C115.665 26.5482 115.21 26.0013 114.598 25.5977C113.999 25.194 113.23 24.9922 112.293 24.9922ZM146.473 38.6445C147.124 38.6445 147.755 38.5794 148.367 38.4492C148.992 38.319 149.611 38.1562 150.223 37.9609V42.3945C149.585 42.681 148.79 42.9154 147.84 43.0977C146.902 43.293 145.874 43.3906 144.754 43.3906C143.452 43.3906 142.28 43.1823 141.238 42.7656C140.21 42.3359 139.396 41.6003 138.797 40.5586C138.211 39.5039 137.918 38.0391 137.918 36.1641V25.6367H135.066V23.1172L138.348 21.125L140.066 16.5156H143.875V21.1641H149.988V25.6367H143.875V36.1641C143.875 36.9974 144.109 37.6224 144.578 38.0391C145.06 38.4427 145.691 38.6445 146.473 38.6445ZM160.613 21.1641V43H154.656V21.1641H160.613ZM157.645 12.6094C158.53 12.6094 159.292 12.8177 159.93 13.2344C160.568 13.638 160.887 14.3997 160.887 15.5195C160.887 16.6263 160.568 17.3945 159.93 17.8242C159.292 18.2409 158.53 18.4492 157.645 18.4492C156.746 18.4492 155.978 18.2409 155.34 17.8242C154.715 17.3945 154.402 16.6263 154.402 15.5195C154.402 14.3997 154.715 13.638 155.34 13.2344C155.978 12.8177 156.746 12.6094 157.645 12.6094ZM192.527 20.7539C195.001 20.7539 196.87 21.3919 198.133 22.668C199.409 23.931 200.047 25.9622 200.047 28.7617V43H194.07V30.2461C194.07 28.6836 193.803 27.5052 193.27 26.7109C192.736 25.9167 191.909 25.5195 190.789 25.5195C189.214 25.5195 188.094 26.0859 187.43 27.2188C186.766 28.3385 186.434 29.9466 186.434 32.043V43H180.477V30.2461C180.477 29.2044 180.359 28.332 180.125 27.6289C179.891 26.9258 179.533 26.3984 179.051 26.0469C178.569 25.6953 177.951 25.5195 177.195 25.5195C176.089 25.5195 175.216 25.7995 174.578 26.3594C173.953 26.9062 173.504 27.7201 173.23 28.8008C172.97 29.8685 172.84 31.1771 172.84 32.7266V43H166.883V21.1641H171.434L172.234 23.957H172.566C173.009 23.2018 173.562 22.5898 174.227 22.1211C174.904 21.6523 175.646 21.3073 176.453 21.0859C177.26 20.8646 178.081 20.7539 178.914 20.7539C180.516 20.7539 181.87 21.0143 182.977 21.5352C184.096 22.056 184.956 22.8633 185.555 23.957H186.082C186.733 22.8372 187.651 22.0234 188.836 21.5156C190.034 21.0078 191.264 20.7539 192.527 20.7539ZM215.184 20.7539C217.202 20.7539 218.94 21.1445 220.398 21.9258C221.857 22.694 222.983 23.8138 223.777 25.2852C224.572 26.7565 224.969 28.5534 224.969 30.6758V33.5664H210.887C210.952 35.2461 211.453 36.5677 212.391 37.5312C213.341 38.4818 214.656 38.957 216.336 38.957C217.729 38.957 219.005 38.8138 220.164 38.5273C221.323 38.2409 222.514 37.8112 223.738 37.2383V41.8477C222.658 42.3815 221.525 42.7721 220.34 43.0195C219.168 43.2669 217.742 43.3906 216.062 43.3906C213.875 43.3906 211.935 42.987 210.242 42.1797C208.562 41.3724 207.241 40.1419 206.277 38.4883C205.327 36.8346 204.852 34.7513 204.852 32.2383C204.852 29.6862 205.281 27.5638 206.141 25.8711C207.013 24.1654 208.224 22.8893 209.773 22.043C211.323 21.1836 213.126 20.7539 215.184 20.7539ZM215.223 24.9922C214.064 24.9922 213.1 25.3633 212.332 26.1055C211.577 26.8477 211.141 28.013 211.023 29.6016H219.383C219.37 28.7161 219.207 27.9284 218.895 27.2383C218.595 26.5482 218.139 26.0013 217.527 25.5977C216.928 25.194 216.16 24.9922 215.223 24.9922ZM252.352 20.7539C254.812 20.7539 256.798 21.7109 258.309 23.625C259.832 25.5391 260.594 28.3451 260.594 32.043C260.594 34.5169 260.236 36.6003 259.52 38.293C258.803 39.9727 257.814 41.2422 256.551 42.1016C255.288 42.9609 253.836 43.3906 252.195 43.3906C251.141 43.3906 250.236 43.2604 249.48 43C248.725 42.7266 248.081 42.3815 247.547 41.9648C247.013 41.5352 246.551 41.0794 246.16 40.5977H245.848C245.952 41.1185 246.03 41.6523 246.082 42.1992C246.134 42.7461 246.16 43.2799 246.16 43.8008V52.6094H240.203V21.1641H245.047L245.887 23.9961H246.16C246.551 23.4102 247.026 22.8698 247.586 22.375C248.146 21.8802 248.816 21.4896 249.598 21.2031C250.392 20.9036 251.31 20.7539 252.352 20.7539ZM250.438 25.5195C249.396 25.5195 248.569 25.7344 247.957 26.1641C247.345 26.5938 246.896 27.2383 246.609 28.0977C246.336 28.957 246.186 30.0443 246.16 31.3594V32.0039C246.16 33.4102 246.29 34.6016 246.551 35.5781C246.824 36.5547 247.273 37.2969 247.898 37.8047C248.536 38.3125 249.409 38.5664 250.516 38.5664C251.427 38.5664 252.176 38.3125 252.762 37.8047C253.348 37.2969 253.784 36.5547 254.07 35.5781C254.37 34.5885 254.52 33.3841 254.52 31.9648C254.52 29.8294 254.188 28.2214 253.523 27.1406C252.859 26.0599 251.831 25.5195 250.438 25.5195ZM285.555 21.1641V43H280.984L280.184 40.207H279.871C279.402 40.9492 278.816 41.5547 278.113 42.0234C277.41 42.4922 276.635 42.8372 275.789 43.0586C274.943 43.2799 274.064 43.3906 273.152 43.3906C271.59 43.3906 270.229 43.1172 269.07 42.5703C267.911 42.0104 267.007 41.1445 266.355 39.9727C265.717 38.8008 265.398 37.2773 265.398 35.4023V21.1641H271.355V33.918C271.355 35.4805 271.635 36.6589 272.195 37.4531C272.755 38.2474 273.647 38.6445 274.871 38.6445C276.082 38.6445 277.033 38.3711 277.723 37.8242C278.413 37.2643 278.895 36.4505 279.168 35.3828C279.454 34.3021 279.598 32.987 279.598 31.4375V21.1641H285.555ZM303.992 20.7539C304.292 20.7539 304.637 20.7734 305.027 20.8125C305.431 20.8385 305.757 20.8776 306.004 20.9297L305.555 26.5156C305.359 26.4505 305.079 26.4049 304.715 26.3789C304.363 26.3398 304.057 26.3203 303.797 26.3203C303.029 26.3203 302.28 26.418 301.551 26.6133C300.835 26.8086 300.19 27.1276 299.617 27.5703C299.044 28 298.589 28.5729 298.25 29.2891C297.924 29.9922 297.762 30.8581 297.762 31.8867V43H291.805V21.1641H296.316L297.195 24.8359H297.488C297.918 24.0938 298.452 23.4167 299.09 22.8047C299.741 22.1797 300.477 21.6849 301.297 21.3203C302.13 20.9427 303.029 20.7539 303.992 20.7539ZM318.836 43.3906C316.674 43.3906 314.832 43 313.309 42.2188C311.785 41.4245 310.626 40.2005 309.832 38.5469C309.038 36.8932 308.641 34.7773 308.641 32.1992C308.641 29.5299 309.09 27.3555 309.988 25.6758C310.9 23.9831 312.156 22.7396 313.758 21.9453C315.372 21.151 317.241 20.7539 319.363 20.7539C320.874 20.7539 322.176 20.9036 323.27 21.2031C324.376 21.4896 325.34 21.8346 326.16 22.2383L324.402 26.8477C323.465 26.4701 322.592 26.1641 321.785 25.9297C320.978 25.6823 320.171 25.5586 319.363 25.5586C318.322 25.5586 317.456 25.806 316.766 26.3008C316.076 26.7826 315.561 27.5117 315.223 28.4883C314.884 29.4648 314.715 30.6888 314.715 32.1602C314.715 33.6055 314.897 34.8034 315.262 35.7539C315.626 36.7044 316.154 37.4141 316.844 37.8828C317.534 38.3385 318.374 38.5664 319.363 38.5664C320.6 38.5664 321.701 38.4036 322.664 38.0781C323.628 37.7396 324.565 37.2708 325.477 36.6719V41.7695C324.565 42.3424 323.608 42.7526 322.605 43C321.616 43.2604 320.359 43.3906 318.836 43.3906ZM336.512 12.6094V18.8008C336.512 19.8815 336.473 20.9102 336.395 21.8867C336.329 22.8633 336.277 23.5534 336.238 23.957H336.551C337.02 23.2018 337.573 22.5898 338.211 22.1211C338.862 21.6523 339.578 21.3073 340.359 21.0859C341.141 20.8646 341.98 20.7539 342.879 20.7539C344.454 20.7539 345.828 21.0339 347 21.5938C348.172 22.1406 349.083 23.0065 349.734 24.1914C350.385 25.3633 350.711 26.8867 350.711 28.7617V43H344.754V30.2461C344.754 28.6836 344.467 27.5052 343.895 26.7109C343.322 25.9167 342.436 25.5195 341.238 25.5195C340.04 25.5195 339.096 25.7995 338.406 26.3594C337.716 26.9062 337.228 27.7201 336.941 28.8008C336.655 29.8685 336.512 31.1771 336.512 32.7266V43H330.555V12.6094H336.512ZM365.789 20.7148C368.719 20.7148 370.965 21.3529 372.527 22.6289C374.09 23.9049 374.871 25.8451 374.871 28.4492V43H370.711L369.559 40.0312H369.402C368.777 40.8125 368.139 41.4505 367.488 41.9453C366.837 42.4401 366.089 42.8047 365.242 43.0391C364.396 43.2734 363.367 43.3906 362.156 43.3906C360.867 43.3906 359.708 43.1432 358.68 42.6484C357.664 42.1536 356.863 41.3984 356.277 40.3828C355.691 39.3542 355.398 38.0521 355.398 36.4766C355.398 34.1589 356.212 32.4531 357.84 31.3594C359.467 30.2526 361.909 29.6406 365.164 29.5234L368.953 29.4062V28.4492C368.953 27.3034 368.654 26.4635 368.055 25.9297C367.456 25.3958 366.622 25.1289 365.555 25.1289C364.5 25.1289 363.465 25.2786 362.449 25.5781C361.434 25.8776 360.418 26.2552 359.402 26.7109L357.43 22.6875C358.589 22.0755 359.884 21.5938 361.316 21.2422C362.762 20.8906 364.253 20.7148 365.789 20.7148ZM368.953 32.8828L366.648 32.9609C364.721 33.013 363.38 33.3581 362.625 33.9961C361.883 34.6341 361.512 35.474 361.512 36.5156C361.512 37.4271 361.779 38.0781 362.312 38.4688C362.846 38.8464 363.543 39.0352 364.402 39.0352C365.678 39.0352 366.753 38.6576 367.625 37.9023C368.51 37.1471 368.953 36.0729 368.953 34.6797V32.8828ZM396.258 36.5156C396.258 38 395.906 39.2565 395.203 40.2852C394.513 41.3008 393.478 42.0755 392.098 42.6094C390.717 43.1302 388.999 43.3906 386.941 43.3906C385.418 43.3906 384.109 43.293 383.016 43.0977C381.935 42.9023 380.841 42.5768 379.734 42.1211V37.1992C380.919 37.7331 382.189 38.1758 383.543 38.5273C384.91 38.8659 386.108 39.0352 387.137 39.0352C388.296 39.0352 389.122 38.8659 389.617 38.5273C390.125 38.1758 390.379 37.7201 390.379 37.1602C390.379 36.7956 390.275 36.4701 390.066 36.1836C389.871 35.8841 389.441 35.5521 388.777 35.1875C388.113 34.8099 387.072 34.3216 385.652 33.7227C384.285 33.1497 383.159 32.5703 382.273 31.9844C381.401 31.3984 380.75 30.7083 380.32 29.9141C379.904 29.1068 379.695 28.0846 379.695 26.8477C379.695 24.8294 380.477 23.3125 382.039 22.2969C383.615 21.2682 385.717 20.7539 388.348 20.7539C389.702 20.7539 390.991 20.8906 392.215 21.1641C393.452 21.4375 394.721 21.8737 396.023 22.4727L394.227 26.7695C393.146 26.3008 392.124 25.9167 391.16 25.6172C390.21 25.3177 389.24 25.168 388.25 25.168C387.378 25.168 386.72 25.2852 386.277 25.5195C385.835 25.7539 385.613 26.112 385.613 26.5938C385.613 26.9453 385.724 27.2578 385.945 27.5312C386.18 27.8047 386.622 28.1107 387.273 28.4492C387.938 28.7747 388.908 29.1979 390.184 29.7188C391.421 30.2266 392.495 30.7604 393.406 31.3203C394.318 31.8672 395.021 32.5508 395.516 33.3711C396.01 34.1784 396.258 35.2266 396.258 36.5156ZM409.91 20.7539C411.928 20.7539 413.667 21.1445 415.125 21.9258C416.583 22.694 417.71 23.8138 418.504 25.2852C419.298 26.7565 419.695 28.5534 419.695 30.6758V33.5664H405.613C405.678 35.2461 406.18 36.5677 407.117 37.5312C408.068 38.4818 409.383 38.957 411.062 38.957C412.456 38.957 413.732 38.8138 414.891 38.5273C416.049 38.2409 417.241 37.8112 418.465 37.2383V41.8477C417.384 42.3815 416.251 42.7721 415.066 43.0195C413.895 43.2669 412.469 43.3906 410.789 43.3906C408.602 43.3906 406.661 42.987 404.969 42.1797C403.289 41.3724 401.967 40.1419 401.004 38.4883C400.053 36.8346 399.578 34.7513 399.578 32.2383C399.578 29.6862 400.008 27.5638 400.867 25.8711C401.74 24.1654 402.951 22.8893 404.5 22.043C406.049 21.1836 407.853 20.7539 409.91 20.7539ZM409.949 24.9922C408.79 24.9922 407.827 25.3633 407.059 26.1055C406.303 26.8477 405.867 28.013 405.75 29.6016H414.109C414.096 28.7161 413.934 27.9284 413.621 27.2383C413.322 26.5482 412.866 26.0013 412.254 25.5977C411.655 25.194 410.887 24.9922 409.949 24.9922ZM423.699 40.207C423.699 38.9831 424.031 38.1237 424.695 37.6289C425.372 37.1341 426.186 36.8867 427.137 36.8867C428.061 36.8867 428.855 37.1341 429.52 37.6289C430.197 38.1237 430.535 38.9831 430.535 40.207C430.535 41.3789 430.197 42.2253 429.52 42.7461C428.855 43.2669 428.061 43.5273 427.137 43.5273C426.186 43.5273 425.372 43.2669 424.695 42.7461C424.031 42.2253 423.699 41.3789 423.699 40.207Z"/>
</mask>
<path d="M70.6914 34.6992L71.6481 34.9904L71.6487 34.9885L70.6914 34.6992ZM68.1914 39.3477L67.4332 38.6956L67.4295 38.7L68.1914 39.3477ZM63.9727 42.3555L64.3477 43.2825L64.3538 43.28L63.9727 42.3555ZM51.8633 42.3555L51.4822 43.28L51.4882 43.2825L51.8633 42.3555ZM47.625 39.3477L46.863 39.9953L46.8668 39.9997L47.625 39.3477ZM45.7695 20.9297L44.8555 20.524L44.8544 20.5266L45.7695 20.9297ZM65.5938 15.8125L65.0743 16.667L65.0768 16.6685L65.5938 15.8125ZM70.0469 20.9297L69.1308 21.3308L69.1328 21.3353L70.0469 20.9297ZM51.4141 33.8398L50.4679 34.1637L50.4715 34.174L51.4141 33.8398ZM53.7773 37.1602L53.1868 37.9672L53.1933 37.9719L53.7773 37.1602ZM62.0977 37.1602L62.6817 37.9719L62.6882 37.9672L62.0977 37.1602ZM64.4219 33.8398L63.4758 33.5159L63.4741 33.521L64.4219 33.8398ZM53.7773 20.207L54.3614 21.0188L54.3632 21.0175L53.7773 20.207ZM51.4141 23.5273L50.4706 23.1959L50.4689 23.2008L51.4141 23.5273ZM70.5117 28.6836C70.5117 30.8018 70.2485 32.7078 69.7341 34.41L71.6487 34.9885C72.2281 33.0709 72.5117 30.9664 72.5117 28.6836H70.5117ZM69.7347 34.4081C69.2244 36.0847 68.4543 37.5083 67.4332 38.6956L68.9496 39.9997C70.168 38.5829 71.0646 36.9075 71.6481 34.9904L69.7347 34.4081ZM67.4295 38.7C66.4339 39.8713 65.1621 40.7835 63.5916 41.4309L64.3538 43.28C66.1947 42.5211 67.7354 41.4282 68.9533 39.9953L67.4295 38.7ZM63.5976 41.4285C62.0382 42.0594 60.1531 42.3906 57.918 42.3906V44.3906C60.3443 44.3906 62.4957 44.0318 64.3477 43.2825L63.5976 41.4285ZM57.918 42.3906C55.6829 42.3906 53.7978 42.0594 52.2383 41.4285L51.4882 43.2825C53.3403 44.0318 55.4916 44.3906 57.918 44.3906V42.3906ZM52.2444 41.4309C50.673 40.7832 49.3929 39.8697 48.3832 38.6956L46.8668 39.9997C48.0967 41.4297 49.6421 42.5215 51.4822 43.28L52.2444 41.4309ZM48.3869 38.7C47.3783 37.5133 46.6131 36.0828 46.1018 34.3904L44.1873 34.9689C44.7697 36.8964 45.6582 38.5778 46.8631 39.9953L48.3869 38.7ZM46.1018 34.3904C45.5876 32.6888 45.3242 30.7764 45.3242 28.6445H43.3242C43.3242 30.9398 43.6077 33.0508 44.1873 34.9689L46.1018 34.3904ZM45.3242 28.6445C45.3242 25.7957 45.7887 23.367 46.6847 21.3328L44.8544 20.5266C43.8233 22.8674 43.3242 25.5819 43.3242 28.6445H45.3242ZM46.6836 21.3353C47.5787 19.3184 48.9388 17.7725 50.7762 16.67L49.7472 14.955C47.5482 16.2744 45.9135 18.14 44.8555 20.5241L46.6836 21.3353ZM50.7762 16.67C52.5966 15.5777 54.9695 14.9961 57.957 14.9961V12.9961C54.7206 12.9961 51.9633 13.6254 49.7472 14.955L50.7762 16.67ZM57.957 14.9961C60.9314 14.9961 63.2822 15.5777 65.0743 16.667L66.1132 14.958C63.9209 13.6254 61.1805 12.9961 57.957 12.9961V14.9961ZM65.0768 16.6685C66.9004 17.7698 68.2479 19.3143 69.1308 21.3308L70.9629 20.5286C69.9188 18.144 68.2975 16.2771 66.1107 14.9565L65.0768 16.6685ZM69.1328 21.3353C70.0411 23.382 70.5117 25.8229 70.5117 28.6836H72.5117C72.5117 25.6068 72.0057 22.8784 70.9609 20.5241L69.1328 21.3353ZM49.6719 28.6836C49.6719 30.7543 49.9285 32.5879 50.468 34.1637L52.3602 33.516C51.91 32.2011 51.6719 30.5972 51.6719 28.6836H49.6719ZM50.4715 34.174C51.0362 35.7667 51.9338 37.0503 53.1868 37.9672L54.3679 36.3531C53.4855 35.7075 52.8075 34.7776 52.3566 33.5057L50.4715 34.174ZM53.1933 37.9719C54.4742 38.8935 56.0758 39.3125 57.918 39.3125V37.3125C56.3747 37.3125 55.2159 36.9633 54.3614 36.3484L53.1933 37.9719ZM57.918 39.3125C59.7823 39.3125 61.3984 38.8952 62.6817 37.9719L61.5136 36.3484C60.6615 36.9615 59.4911 37.3125 57.918 37.3125V39.3125ZM62.6882 37.9672C63.9455 37.0472 64.8318 35.7578 65.3697 34.1587L63.4741 33.521C63.0484 34.7864 62.3852 35.7106 61.5071 36.3531L62.6882 37.9672ZM65.368 34.1637C65.9074 32.5879 66.1641 30.7543 66.1641 28.6836H64.1641C64.1641 30.5972 63.9259 32.2011 63.4758 33.516L65.368 34.1637ZM66.1641 28.6836C66.1641 25.5793 65.586 23.0071 64.3222 21.0674L62.6465 22.1592C63.6223 23.6569 64.1641 25.7983 64.1641 28.6836H66.1641ZM64.3222 21.0674C62.9708 18.9931 60.7638 18.0352 57.957 18.0352V20.0352C60.2804 20.0352 61.7584 20.7959 62.6465 22.1592L64.3222 21.0674ZM57.957 18.0352C56.0998 18.0352 54.4849 18.4616 53.1915 19.3966L54.3632 21.0175C55.2312 20.39 56.4028 20.0352 57.957 20.0352V18.0352ZM53.1933 19.3953C51.9334 20.3018 51.0348 21.5902 50.4706 23.1959L52.3575 23.8588C52.809 22.5739 53.4859 21.6487 54.3614 21.0188L53.1933 19.3953ZM50.4689 23.2008C49.9282 24.7659 49.6719 26.601 49.6719 28.6836H51.6719C51.6719 26.7557 51.9103 25.1534 52.3593 23.8539L50.4689 23.2008ZM94.9883 22.668L94.3197 23.4116L94.3235 23.415L94.9883 22.668ZM97.1172 43V44H98.1172V43H97.1172ZM91.1602 43H90.1602V44H91.1602V43ZM90.3008 26.7109L89.4834 27.2871L89.4897 27.2959L90.3008 26.7109ZM82.918 43V44H83.918V43H82.918ZM76.9609 43H75.9609V44H76.9609V43ZM76.9609 21.1641V20.1641H75.9609V21.1641H76.9609ZM81.5117 21.1641L82.473 20.8885L82.2653 20.1641H81.5117V21.1641ZM82.3125 23.957L81.3512 24.2326L81.5589 24.957H82.3125V23.957ZM82.6445 23.957V24.957H83.2008L83.4942 24.4844L82.6445 23.957ZM84.3828 22.1211L83.8281 21.289L83.8209 21.2939L84.3828 22.1211ZM86.707 21.0859L86.4576 20.1175L86.454 20.1185L86.707 21.0859ZM89.3633 21.7539C91.5043 21.7539 93.1225 22.3352 94.3197 23.4116L95.6569 21.9243C94.0155 20.4486 91.8837 19.7539 89.3633 19.7539V21.7539ZM94.3235 23.415C95.445 24.4131 96.1172 26.1107 96.1172 28.7617H98.1172C98.1172 25.8138 97.3701 23.4489 95.6531 21.9209L94.3235 23.415ZM96.1172 28.7617V43H98.1172V28.7617H96.1172ZM97.1172 42H91.1602V44H97.1172V42ZM92.1602 43V30.2461H90.1602V43H92.1602ZM92.1602 30.2461C92.1602 28.589 91.8612 27.1649 91.1118 26.1259L89.4897 27.2959C89.8862 27.8455 90.1602 28.7782 90.1602 30.2461H92.1602ZM91.1181 26.1348C90.3245 25.0089 89.0908 24.5195 87.6445 24.5195V26.5195C88.6202 26.5195 89.1573 26.8244 89.4834 27.2871L91.1181 26.1348ZM87.6445 24.5195C85.5814 24.5195 83.9245 25.2414 83.033 26.902L84.7951 27.848C85.2318 27.0347 86.0619 26.5195 87.6445 26.5195V24.5195ZM83.033 26.902C82.2554 28.3505 81.918 30.327 81.918 32.7266H83.918C83.918 30.4647 84.2446 28.8735 84.7951 27.848L83.033 26.902ZM81.918 32.7266V43H83.918V32.7266H81.918ZM82.918 42H76.9609V44H82.918V42ZM77.9609 43V21.1641H75.9609V43H77.9609ZM76.9609 22.1641H81.5117V20.1641H76.9609V22.1641ZM80.5504 21.4397L81.3512 24.2326L83.2738 23.6814L82.473 20.8885L80.5504 21.4397ZM82.3125 24.957H82.6445V22.957H82.3125V24.957ZM83.4942 24.4844C83.894 23.8403 84.3779 23.3333 84.9447 22.9483L83.8209 21.2939C83.0075 21.8464 82.3326 22.5634 81.7949 23.4297L83.4942 24.4844ZM84.9375 22.9531C85.5451 22.5481 86.2173 22.2477 86.9601 22.0534L86.454 20.1185C85.5041 20.3669 84.6268 20.7566 83.8281 21.289L84.9375 22.9531ZM86.9565 22.0543C87.7322 21.8545 88.5337 21.7539 89.3633 21.7539V19.7539C88.37 19.7539 87.4006 19.8746 86.4576 20.1175L86.9565 22.0543ZM117.469 21.9258L116.997 22.8073L117.003 22.8105L117.469 21.9258ZM120.848 25.2852L119.968 25.7602L120.848 25.2852ZM122.039 33.5664V34.5664H123.039V33.5664H122.039ZM107.957 33.5664V32.5664H106.918L106.958 33.6051L107.957 33.5664ZM109.461 37.5312L108.744 38.2287L108.754 38.2384L109.461 37.5312ZM120.809 37.2383H121.809V35.6661L120.385 36.3326L120.809 37.2383ZM120.809 41.8477L121.251 42.7442L121.809 42.469V41.8477H120.809ZM117.41 43.0195L117.206 42.0406L117.204 42.0411L117.41 43.0195ZM107.312 42.1797L106.879 43.081L106.882 43.0823L107.312 42.1797ZM103.348 38.4883L102.481 38.9866L102.484 38.9917L103.348 38.4883ZM103.211 25.8711L102.321 25.4157L102.319 25.4184L103.211 25.8711ZM106.844 22.043L107.323 22.9206L107.329 22.9175L106.844 22.043ZM109.402 26.1055L108.708 25.3863L108.701 25.3922L109.402 26.1055ZM108.094 29.6016L107.096 29.528L107.017 30.6016H108.094V29.6016ZM116.453 29.6016V30.6016H117.468L117.453 29.5869L116.453 29.6016ZM115.965 27.2383L115.048 27.6364L115.051 27.6436L115.054 27.6508L115.965 27.2383ZM114.598 25.5977L114.039 26.427L114.047 26.4324L114.598 25.5977ZM112.254 21.7539C114.143 21.7539 115.712 22.1192 116.997 22.8073L117.941 21.0443C116.309 20.1699 114.401 19.7539 112.254 19.7539V21.7539ZM117.003 22.8105C118.283 23.4849 119.266 24.4608 119.968 25.7602L121.728 24.8101C120.841 23.1668 119.571 21.9032 117.935 21.041L117.003 22.8105ZM119.968 25.7602C120.665 27.0515 121.039 28.6756 121.039 30.6758H123.039C123.039 28.4312 122.619 26.4615 121.728 24.8101L119.968 25.7602ZM121.039 30.6758V33.5664H123.039V30.6758H121.039ZM122.039 32.5664H107.957V34.5664H122.039V32.5664ZM106.958 33.6051C107.03 35.4675 107.594 37.0467 108.744 38.2286L110.178 36.8339C109.453 36.0887 109.014 35.0247 108.956 33.5277L106.958 33.6051ZM108.754 38.2384C109.936 39.4207 111.531 39.957 113.406 39.957V37.957C111.922 37.957 110.887 37.5429 110.168 36.8241L108.754 38.2384ZM113.406 39.957C114.867 39.957 116.225 39.8069 117.474 39.4981L116.994 37.5566C115.926 37.8207 114.732 37.957 113.406 37.957V39.957ZM117.474 39.4981C118.704 39.1941 119.957 38.741 121.233 38.144L120.385 36.3326C119.212 36.8814 118.082 37.2876 116.994 37.5566L117.474 39.4981ZM119.809 37.2383V41.8477H121.809V37.2383H119.809ZM120.366 40.9511C119.361 41.4474 118.308 41.8104 117.206 42.0406L117.615 43.9984C118.882 43.7338 120.095 43.3156 121.251 42.7442L120.366 40.9511ZM117.204 42.0411C116.121 42.2697 114.768 42.3906 113.133 42.3906V44.3906C114.857 44.3906 116.356 44.2641 117.617 43.998L117.204 42.0411ZM113.133 42.3906C111.07 42.3906 109.281 42.0104 107.743 41.2771L106.882 43.0823C108.73 43.9635 110.821 44.3906 113.133 44.3906V42.3906ZM107.746 41.2784C106.251 40.5601 105.077 39.4707 104.212 37.9848L102.484 38.9917C103.545 40.8131 105.014 42.1847 106.879 43.081L107.746 41.2784ZM104.215 37.9899C103.375 36.5287 102.922 34.6303 102.922 32.2383H100.922C100.922 34.8723 101.42 37.1406 102.481 38.9866L104.215 37.9899ZM102.922 32.2383C102.922 29.7918 103.335 27.8364 104.103 26.3238L102.319 25.4184C101.368 27.2912 100.922 29.5806 100.922 32.2383H102.922ZM104.101 26.3264C104.89 24.7836 105.965 23.6624 107.323 22.9206L106.364 21.1654C104.624 22.1162 103.276 23.5471 102.321 25.4157L104.101 26.3264ZM107.329 22.9175C108.707 22.1528 110.339 21.7539 112.254 21.7539V19.7539C110.054 19.7539 108.079 20.2144 106.359 21.1685L107.329 22.9175ZM112.293 23.9922C110.899 23.9922 109.679 24.4479 108.708 25.3863L110.097 26.8247C110.662 26.2787 111.369 25.9922 112.293 25.9922V23.9922ZM108.701 25.3922C107.704 26.3725 107.223 27.8156 107.096 29.528L109.091 29.6751C109.199 28.2104 109.59 27.3228 110.103 26.8187L108.701 25.3922ZM108.094 30.6016H116.453V28.6016H108.094V30.6016ZM117.453 29.5869C117.438 28.5871 117.254 27.6603 116.876 26.8258L115.054 27.6508C115.301 28.1965 115.442 28.8452 115.453 29.6163L117.453 29.5869ZM116.882 26.8402C116.508 25.9769 115.927 25.2763 115.148 24.7629L114.047 26.4324C114.493 26.7263 114.823 27.1194 115.048 27.6364L116.882 26.8402ZM115.157 24.7684C114.35 24.2246 113.371 23.9922 112.293 23.9922V25.9922C113.09 25.9922 113.648 26.1634 114.039 26.4269L115.157 24.7684ZM148.367 38.4492L148.163 37.4702L148.159 37.4711L148.367 38.4492ZM150.223 37.9609H151.223V36.5921L149.919 37.0083L150.223 37.9609ZM150.223 42.3945L150.632 43.3068L151.223 43.0417V42.3945H150.223ZM147.84 43.0977L147.651 42.1156L147.644 42.1171L147.636 42.1187L147.84 43.0977ZM141.238 42.7656L140.853 43.6884L140.86 43.6913L140.867 43.6941L141.238 42.7656ZM138.797 40.5586L137.923 41.0442L137.926 41.0507L137.93 41.0571L138.797 40.5586ZM137.918 25.6367H138.918V24.6367H137.918V25.6367ZM135.066 25.6367H134.066V26.6367H135.066V25.6367ZM135.066 23.1172L134.547 22.2624L134.066 22.5544V23.1172H135.066ZM138.348 21.125L138.867 21.9798L139.163 21.7996L139.285 21.4744L138.348 21.125ZM140.066 16.5156V15.5156H139.372L139.129 16.1662L140.066 16.5156ZM143.875 16.5156H144.875V15.5156H143.875V16.5156ZM143.875 21.1641H142.875V22.1641H143.875V21.1641ZM149.988 21.1641H150.988V20.1641H149.988V21.1641ZM149.988 25.6367V26.6367H150.988V25.6367H149.988ZM143.875 25.6367V24.6367H142.875V25.6367H143.875ZM144.578 38.0391L143.914 38.7865L143.925 38.7962L143.936 38.8056L144.578 38.0391ZM146.473 39.6445C147.191 39.6445 147.892 39.5727 148.575 39.4273L148.159 37.4711C147.618 37.5862 147.057 37.6445 146.473 37.6445V39.6445ZM148.571 39.4282C149.23 39.2909 149.882 39.1193 150.527 38.9136L149.919 37.0083C149.339 37.1932 148.754 37.3471 148.163 37.4702L148.571 39.4282ZM149.223 37.9609V42.3945H151.223V37.9609H149.223ZM149.813 41.4823C149.267 41.7274 148.553 41.9427 147.651 42.1156L148.028 44.0798C149.028 43.888 149.902 43.6345 150.632 43.3068L149.813 41.4823ZM147.636 42.1187C146.776 42.2979 145.816 42.3906 144.754 42.3906V44.3906C145.931 44.3906 147.029 44.288 148.044 44.0766L147.636 42.1187ZM144.754 42.3906C143.559 42.3906 142.516 42.1996 141.61 41.8371L140.867 43.6941C142.044 44.165 143.345 44.3906 144.754 44.3906V42.3906ZM141.624 41.8429C140.814 41.5047 140.162 40.9271 139.664 40.0601L137.93 41.0571C138.629 42.2734 139.605 43.1672 140.853 43.6884L141.624 41.8429ZM139.671 40.073C139.201 39.2271 138.918 37.9548 138.918 36.1641H136.918C136.918 38.1233 137.221 39.7807 137.923 41.0442L139.671 40.073ZM138.918 36.1641V25.6367H136.918V36.1641H138.918ZM137.918 24.6367H135.066V26.6367H137.918V24.6367ZM136.066 25.6367V23.1172H134.066V25.6367H136.066ZM135.585 23.972L138.867 21.9798L137.829 20.2702L134.547 22.2624L135.585 23.972ZM139.285 21.4744L141.003 16.865L139.129 16.1662L137.411 20.7756L139.285 21.4744ZM140.066 17.5156H143.875V15.5156H140.066V17.5156ZM142.875 16.5156V21.1641H144.875V16.5156H142.875ZM143.875 22.1641H149.988V20.1641H143.875V22.1641ZM148.988 21.1641V25.6367H150.988V21.1641H148.988ZM149.988 24.6367H143.875V26.6367H149.988V24.6367ZM142.875 25.6367V36.1641H144.875V25.6367H142.875ZM142.875 36.1641C142.875 37.184 143.167 38.1229 143.914 38.7865L145.242 37.2917C145.051 37.1219 144.875 36.8107 144.875 36.1641H142.875ZM143.936 38.8056C144.638 39.394 145.515 39.6445 146.473 39.6445V37.6445C145.867 37.6445 145.482 37.4914 145.22 37.2725L143.936 38.8056ZM160.613 21.1641H161.613V20.1641H160.613V21.1641ZM160.613 43V44H161.613V43H160.613ZM154.656 43H153.656V44H154.656V43ZM154.656 21.1641V20.1641H153.656V21.1641H154.656ZM159.93 13.2344L159.383 14.0716L159.389 14.0756L159.395 14.0795L159.93 13.2344ZM159.93 17.8242L160.476 18.6615L160.482 18.6576L160.488 18.6537L159.93 17.8242ZM155.34 17.8242L154.773 18.6483L154.783 18.655L154.793 18.6615L155.34 17.8242ZM155.34 13.2344L155.882 14.0744L155.887 14.0716L155.34 13.2344ZM159.613 21.1641V43H161.613V21.1641H159.613ZM160.613 42H154.656V44H160.613V42ZM155.656 43V21.1641H153.656V43H155.656ZM154.656 22.1641H160.613V20.1641H154.656V22.1641ZM157.645 13.6094C158.368 13.6094 158.932 13.7775 159.383 14.0716L160.476 12.3971C159.651 11.8579 158.692 11.6094 157.645 11.6094V13.6094ZM159.395 14.0795C159.62 14.2215 159.887 14.5647 159.887 15.5195H161.887C161.887 14.2348 161.516 13.0545 160.464 12.3893L159.395 14.0795ZM159.887 15.5195C159.887 16.4505 159.624 16.8241 159.371 16.9948L160.488 18.6537C161.511 17.9649 161.887 16.8021 161.887 15.5195H159.887ZM159.383 16.9869C158.932 17.2811 158.368 17.4492 157.645 17.4492V19.4492C158.692 19.4492 159.651 19.2007 160.476 18.6615L159.383 16.9869ZM157.645 17.4492C156.905 17.4492 156.335 17.2796 155.887 16.9869L154.793 18.6615C155.621 19.2022 156.587 19.4492 157.645 19.4492V17.4492ZM155.906 17.0002C155.663 16.8327 155.402 16.458 155.402 15.5195H153.402C153.402 16.7946 153.767 17.9564 154.773 18.6483L155.906 17.0002ZM155.402 15.5195C155.402 14.5569 155.668 14.213 155.882 14.0744L154.797 12.3943C153.762 13.063 153.402 14.2426 153.402 15.5195H155.402ZM155.887 14.0716C156.335 13.779 156.905 13.6094 157.645 13.6094V11.6094C156.587 11.6094 155.621 11.8564 154.793 12.3971L155.887 14.0716ZM198.133 22.668L197.422 23.3715L197.429 23.3787L198.133 22.668ZM200.047 43V44H201.047V43H200.047ZM194.07 43H193.07V44H194.07V43ZM187.43 27.2188L188.29 27.7288L188.292 27.7245L187.43 27.2188ZM186.434 43V44H187.434V43H186.434ZM180.477 43H179.477V44H180.477V43ZM174.578 26.3594L175.237 27.112L175.238 27.111L174.578 26.3594ZM173.23 28.8008L172.261 28.5555L172.259 28.5638L173.23 28.8008ZM172.84 43V44H173.84V43H172.84ZM166.883 43H165.883V44H166.883V43ZM166.883 21.1641V20.1641H165.883V21.1641H166.883ZM171.434 21.1641L172.395 20.8885L172.187 20.1641H171.434V21.1641ZM172.234 23.957L171.273 24.2326L171.481 24.957H172.234V23.957ZM172.566 23.957V24.957H173.139L173.429 24.4628L172.566 23.957ZM174.227 22.1211L173.657 21.2989L173.65 21.3041L174.227 22.1211ZM182.977 21.5352L182.551 22.44L182.555 22.4419L182.977 21.5352ZM185.555 23.957L184.678 24.4373L184.962 24.957H185.555V23.957ZM186.082 23.957V24.957H186.657L186.947 24.4597L186.082 23.957ZM188.836 21.5156L188.446 20.5949L188.442 20.5965L188.836 21.5156ZM192.527 21.7539C194.837 21.7539 196.409 22.3477 197.422 23.3714L198.844 21.9645C197.331 20.4362 195.165 19.7539 192.527 19.7539V21.7539ZM197.429 23.3787C198.433 24.3717 199.047 26.0838 199.047 28.7617H201.047C201.047 25.8407 200.385 23.4903 198.836 21.9572L197.429 23.3787ZM199.047 28.7617V43H201.047V28.7617H199.047ZM200.047 42H194.07V44H200.047V42ZM195.07 43V30.2461H193.07V43H195.07ZM195.07 30.2461C195.07 28.5989 194.794 27.1867 194.099 26.1531L192.44 27.2688C192.813 27.8237 193.07 28.7682 193.07 30.2461H195.07ZM194.099 26.1531C193.346 25.0322 192.176 24.5195 190.789 24.5195V26.5195C191.641 26.5195 192.125 26.8012 192.44 27.2688L194.099 26.1531ZM190.789 24.5195C188.942 24.5195 187.449 25.2083 186.567 26.713L188.292 27.7245C188.738 26.9636 189.485 26.5195 190.789 26.5195V24.5195ZM186.57 26.7087C185.774 28.0501 185.434 29.8659 185.434 32.043H187.434C187.434 30.0273 187.757 28.627 188.29 27.7288L186.57 26.7087ZM185.434 32.043V43H187.434V32.043H185.434ZM186.434 42H180.477V44H186.434V42ZM181.477 43V30.2461H179.477V43H181.477ZM181.477 30.2461C181.477 29.137 181.353 28.1499 181.074 27.3127L179.176 27.9451C179.366 28.5142 179.477 29.2719 179.477 30.2461H181.477ZM181.074 27.3127C180.79 26.4607 180.327 25.7402 179.64 25.2391L178.461 26.8547C178.738 27.0567 178.992 27.3908 179.176 27.9451L181.074 27.3127ZM179.64 25.2391C178.946 24.7328 178.106 24.5195 177.195 24.5195V26.5195C177.795 26.5195 178.192 26.6578 178.461 26.8547L179.64 25.2391ZM177.195 24.5195C175.921 24.5195 174.789 24.8442 173.919 25.6077L175.238 27.111C175.644 26.7547 176.256 26.5195 177.195 26.5195V24.5195ZM173.92 25.6068C173.098 26.3261 172.568 27.3441 172.261 28.5555L174.2 29.0461C174.44 28.096 174.809 27.4864 175.237 27.112L173.92 25.6068ZM172.259 28.5638C171.974 29.7335 171.84 31.127 171.84 32.7266H173.84C173.84 31.2271 173.966 30.0035 174.202 29.0377L172.259 28.5638ZM171.84 32.7266V43H173.84V32.7266H171.84ZM172.84 42H166.883V44H172.84V42ZM167.883 43V21.1641H165.883V43H167.883ZM166.883 22.1641H171.434V20.1641H166.883V22.1641ZM170.472 21.4397L171.273 24.2326L173.196 23.6814L172.395 20.8885L170.472 21.4397ZM172.234 24.957H172.566V22.957H172.234V24.957ZM173.429 24.4628C173.805 23.8209 174.264 23.3184 174.803 22.9381L173.65 21.3041C172.861 21.8612 172.213 22.5828 171.704 23.4513L173.429 24.4628ZM174.796 22.9433C175.378 22.5399 176.017 22.2423 176.718 22.0503L176.189 20.1215C175.274 20.3722 174.429 20.7648 173.657 21.2989L174.796 22.9433ZM176.718 22.0503C177.439 21.8525 178.17 21.7539 178.914 21.7539V19.7539C177.991 19.7539 177.082 19.8767 176.189 20.1215L176.718 22.0503ZM178.914 21.7539C180.412 21.7539 181.612 21.9981 182.551 22.44L183.402 20.6303C182.128 20.0306 180.619 19.7539 178.914 19.7539V21.7539ZM182.555 22.4419C183.479 22.8718 184.18 23.5287 184.678 24.4373L186.432 23.4767C185.731 22.1979 184.713 21.2401 183.398 20.6284L182.555 22.4419ZM185.555 24.957H186.082V22.957H185.555V24.957ZM186.947 24.4597C187.49 23.5247 188.244 22.8575 189.23 22.4348L188.442 20.5965C187.059 21.1894 185.976 22.1498 185.218 23.4544L186.947 24.4597ZM189.226 22.4363C190.304 21.9792 191.402 21.7539 192.527 21.7539V19.7539C191.126 19.7539 189.763 20.0364 188.446 20.5949L189.226 22.4363ZM220.398 21.9258L219.926 22.8073L219.932 22.8105L220.398 21.9258ZM223.777 25.2852L222.897 25.7602L223.777 25.2852ZM224.969 33.5664V34.5664H225.969V33.5664H224.969ZM210.887 33.5664V32.5664H209.847L209.887 33.6051L210.887 33.5664ZM212.391 37.5312L211.674 38.2287L211.684 38.2384L212.391 37.5312ZM223.738 37.2383H224.738V35.6661L223.314 36.3326L223.738 37.2383ZM223.738 41.8477L224.181 42.7442L224.738 42.469V41.8477H223.738ZM220.34 43.0195L220.135 42.0406L220.133 42.0411L220.34 43.0195ZM210.242 42.1797L209.809 43.081L209.812 43.0823L210.242 42.1797ZM206.277 38.4883L205.41 38.9866L205.413 38.9917L206.277 38.4883ZM206.141 25.8711L205.25 25.4157L205.249 25.4184L206.141 25.8711ZM209.773 22.043L210.253 22.9206L210.258 22.9175L209.773 22.043ZM212.332 26.1055L211.637 25.3863L211.631 25.3922L212.332 26.1055ZM211.023 29.6016L210.026 29.528L209.947 30.6016H211.023V29.6016ZM219.383 29.6016V30.6016H220.398L220.383 29.5869L219.383 29.6016ZM218.895 27.2383L217.977 27.6364L217.98 27.6436L217.984 27.6508L218.895 27.2383ZM217.527 25.5977L216.968 26.427L216.977 26.4324L217.527 25.5977ZM215.184 21.7539C217.073 21.7539 218.642 22.1192 219.926 22.8073L220.871 21.0443C219.238 20.1699 217.331 19.7539 215.184 19.7539V21.7539ZM219.932 22.8105C221.212 23.4849 222.196 24.4608 222.897 25.7602L224.657 24.8101C223.77 23.1668 222.501 21.9032 220.865 21.041L219.932 22.8105ZM222.897 25.7602C223.594 27.0515 223.969 28.6756 223.969 30.6758H225.969C225.969 28.4312 225.549 26.4615 224.657 24.8101L222.897 25.7602ZM223.969 30.6758V33.5664H225.969V30.6758H223.969ZM224.969 32.5664H210.887V34.5664H224.969V32.5664ZM209.887 33.6051C209.96 35.4675 210.524 37.0467 211.674 38.2286L213.107 36.8339C212.382 36.0887 211.944 35.0247 211.886 33.5277L209.887 33.6051ZM211.684 38.2384C212.866 39.4207 214.461 39.957 216.336 39.957V37.957C214.852 37.957 213.816 37.5429 213.098 36.8241L211.684 38.2384ZM216.336 39.957C217.797 39.957 219.155 39.8069 220.404 39.4981L219.924 37.5566C218.856 37.8207 217.661 37.957 216.336 37.957V39.957ZM220.404 39.4981C221.634 39.1941 222.887 38.741 224.162 38.144L223.314 36.3326C222.142 36.8814 221.012 37.2876 219.924 37.5566L220.404 39.4981ZM222.738 37.2383V41.8477H224.738V37.2383H222.738ZM223.295 40.9511C222.291 41.4474 221.238 41.8104 220.135 42.0406L220.544 43.9984C221.811 43.7338 223.024 43.3156 224.181 42.7442L223.295 40.9511ZM220.133 42.0411C219.05 42.2697 217.698 42.3906 216.062 42.3906V44.3906C217.786 44.3906 219.286 44.2641 220.546 43.998L220.133 42.0411ZM216.062 42.3906C213.999 42.3906 212.21 42.0104 210.673 41.2771L209.812 43.0823C211.659 43.9635 213.751 44.3906 216.062 44.3906V42.3906ZM210.675 41.2784C209.181 40.5601 208.007 39.4707 207.141 37.9848L205.413 38.9917C206.475 40.8131 207.944 42.1847 209.809 43.081L210.675 41.2784ZM207.144 37.9899C206.304 36.5287 205.852 34.6303 205.852 32.2383H203.852C203.852 34.8723 204.349 37.1406 205.41 38.9866L207.144 37.9899ZM205.852 32.2383C205.852 29.7918 206.264 27.8364 207.032 26.3238L205.249 25.4184C204.298 27.2912 203.852 29.5806 203.852 32.2383H205.852ZM207.031 26.3264C207.82 24.7836 208.895 23.6624 210.253 22.9206L209.294 21.1654C207.553 22.1162 206.206 23.5471 205.25 25.4157L207.031 26.3264ZM210.258 22.9175C211.637 22.1528 213.268 21.7539 215.184 21.7539V19.7539C212.984 19.7539 211.009 20.2144 209.288 21.1685L210.258 22.9175ZM215.223 23.9922C213.829 23.9922 212.609 24.4479 211.637 25.3863L213.027 26.8247C213.592 26.2787 214.299 25.9922 215.223 25.9922V23.9922ZM211.631 25.3922C210.634 26.3725 210.152 27.8156 210.026 29.528L212.021 29.6751C212.129 28.2104 212.52 27.3228 213.033 26.8187L211.631 25.3922ZM211.023 30.6016H219.383V28.6016H211.023V30.6016ZM220.383 29.5869C220.368 28.5871 220.183 27.6603 219.805 26.8258L217.984 27.6508C218.231 28.1965 218.372 28.8452 218.383 29.6163L220.383 29.5869ZM219.812 26.8402C219.437 25.9769 218.856 25.2763 218.078 24.7629L216.977 26.4324C217.422 26.7263 217.753 27.1194 217.977 27.6364L219.812 26.8402ZM218.086 24.7684C217.279 24.2246 216.301 23.9922 215.223 23.9922V25.9922C216.02 25.9922 216.577 26.1634 216.968 26.4269L218.086 24.7684ZM258.309 23.625L257.524 24.2445L257.526 24.2477L258.309 23.625ZM259.52 38.293L260.439 38.6852L260.441 38.6826L259.52 38.293ZM256.551 42.1016L255.988 41.2748L256.551 42.1016ZM249.48 43L249.14 43.9403L249.147 43.9429L249.154 43.9454L249.48 43ZM247.547 41.9648L246.92 42.7439L246.926 42.7486L246.932 42.7532L247.547 41.9648ZM246.16 40.5977L246.937 39.9679L246.637 39.5977H246.16V40.5977ZM245.848 40.5977V39.5977H244.628L244.867 40.7938L245.848 40.5977ZM246.16 52.6094V53.6094H247.16V52.6094H246.16ZM240.203 52.6094H239.203V53.6094H240.203V52.6094ZM240.203 21.1641V20.1641H239.203V21.1641H240.203ZM245.047 21.1641L246.006 20.8797L245.793 20.1641H245.047V21.1641ZM245.887 23.9961L244.928 24.2804L245.14 24.9961H245.887V23.9961ZM246.16 23.9961V24.9961H246.695L246.992 24.5508L246.16 23.9961ZM247.586 22.375L248.248 23.1243L247.586 22.375ZM249.598 21.2031L249.942 22.142L249.95 22.1388L249.598 21.2031ZM246.609 28.0977L245.661 27.7814L245.656 27.7945L246.609 28.0977ZM246.16 31.3594L245.16 31.3396L245.16 31.3495V31.3594H246.16ZM246.551 35.5781L245.584 35.8358L245.588 35.8478L246.551 35.5781ZM247.898 37.8047L247.268 38.5808L247.276 38.5871L247.898 37.8047ZM254.07 35.5781L253.113 35.2885L253.111 35.2966L254.07 35.5781ZM252.352 21.7539C254.51 21.7539 256.205 22.5733 257.524 24.2445L259.094 23.0055C257.392 20.8485 255.115 19.7539 252.352 19.7539V21.7539ZM257.526 24.2477C258.853 25.9143 259.594 28.4608 259.594 32.043H261.594C261.594 28.2293 260.811 25.1638 259.091 23.0023L257.526 24.2477ZM259.594 32.043C259.594 34.4268 259.248 36.3686 258.599 37.9033L260.441 38.6826C261.223 36.8319 261.594 34.6071 261.594 32.043H259.594ZM258.6 37.9008C257.944 39.4392 257.064 40.5426 255.988 41.2748L257.113 42.9283C258.563 41.9418 259.663 40.5061 260.439 38.6852L258.6 37.9008ZM255.988 41.2748C254.904 42.0128 253.651 42.3906 252.195 42.3906V44.3906C254.021 44.3906 255.672 43.909 257.113 42.9283L255.988 41.2748ZM252.195 42.3906C251.218 42.3906 250.429 42.2694 249.806 42.0546L249.154 43.9454C250.042 44.2514 251.063 44.3906 252.195 44.3906V42.3906ZM249.821 42.0597C249.147 41.8157 248.599 41.5176 248.162 41.1765L246.932 42.7532C247.562 43.2454 248.304 43.6375 249.14 43.9403L249.821 42.0597ZM248.174 41.1858C247.689 40.7959 247.279 40.3894 246.937 39.9679L245.383 41.2275C245.823 41.7695 246.337 42.2744 246.92 42.7439L248.174 41.1858ZM246.16 39.5977H245.848V41.5977H246.16V39.5977ZM244.867 40.7938C244.964 41.28 245.038 41.78 245.087 42.294L247.078 42.1044C247.022 41.5247 246.939 40.957 246.828 40.4015L244.867 40.7938ZM245.087 42.294C245.136 42.8111 245.16 43.3133 245.16 43.8008H247.16C247.16 43.2466 247.132 42.6811 247.078 42.1044L245.087 42.294ZM245.16 43.8008V52.6094H247.16V43.8008H245.16ZM246.16 51.6094H240.203V53.6094H246.16V51.6094ZM241.203 52.6094V21.1641H239.203V52.6094H241.203ZM240.203 22.1641H245.047V20.1641H240.203V22.1641ZM244.088 21.4484L244.928 24.2804L246.845 23.7118L246.006 20.8797L244.088 21.4484ZM245.887 24.9961H246.16V22.9961H245.887V24.9961ZM246.992 24.5508C247.332 24.0411 247.749 23.5653 248.248 23.1243L246.924 21.6257C246.303 22.1742 245.77 22.7793 245.328 23.4414L246.992 24.5508ZM248.248 23.1243C248.705 22.7208 249.264 22.3905 249.942 22.142L249.253 20.2642C248.369 20.5887 247.587 21.0396 246.924 21.6257L248.248 23.1243ZM249.95 22.1388C250.61 21.8903 251.404 21.7539 252.352 21.7539V19.7539C251.216 19.7539 250.174 19.917 249.245 20.2674L249.95 22.1388ZM250.438 24.5195C249.269 24.5195 248.217 24.7596 247.382 25.3456L248.532 26.9825C248.921 26.7092 249.523 26.5195 250.438 26.5195V24.5195ZM247.382 25.3456C246.561 25.9226 246 26.7629 245.661 27.7814L247.558 28.4139C247.791 27.7137 248.129 27.2649 248.532 26.9825L247.382 25.3456ZM245.656 27.7945C245.344 28.7771 245.188 29.9681 245.16 31.3396L247.16 31.3792C247.185 30.1205 247.328 29.137 247.562 28.4009L245.656 27.7945ZM245.16 31.3594V32.0039H247.16V31.3594H245.16ZM245.16 32.0039C245.16 33.466 245.295 34.7496 245.585 35.8358L247.517 35.3205C247.286 34.4535 247.16 33.3544 247.16 32.0039H245.16ZM245.588 35.8478C245.902 36.9715 246.445 37.9123 247.268 38.5808L248.529 37.0286C248.102 36.6815 247.746 36.1379 247.514 35.3085L245.588 35.8478ZM247.276 38.5871C248.145 39.2788 249.263 39.5664 250.516 39.5664V37.5664C249.555 37.5664 248.928 37.3462 248.521 37.0223L247.276 38.5871ZM250.516 39.5664C251.623 39.5664 252.618 39.2527 253.417 38.5604L252.107 37.049C251.734 37.3723 251.231 37.5664 250.516 37.5664V39.5664ZM253.417 38.5604C254.186 37.8933 254.706 36.9637 255.03 35.8596L253.111 35.2966C252.862 36.1457 252.509 36.7004 252.107 37.049L253.417 38.5604ZM255.027 35.8678C255.364 34.7566 255.52 33.4485 255.52 31.9648H253.52C253.52 33.3198 253.376 34.4204 253.113 35.2885L255.027 35.8678ZM255.52 31.9648C255.52 29.7568 255.182 27.9293 254.375 26.6171L252.671 27.6642C253.193 28.5134 253.52 29.9021 253.52 31.9648H255.52ZM254.375 26.6171C253.509 25.207 252.137 24.5195 250.438 24.5195V26.5195C251.524 26.5195 252.21 26.9128 252.671 27.6642L254.375 26.6171ZM285.555 21.1641H286.555V20.1641H285.555V21.1641ZM285.555 43V44H286.555V43H285.555ZM280.984 43L280.023 43.2756L280.231 44H280.984V43ZM280.184 40.207L281.145 39.9314L280.937 39.207H280.184V40.207ZM279.871 40.207V39.207H279.32L279.026 39.673L279.871 40.207ZM269.07 42.5703L268.635 43.4708L268.644 43.4747L269.07 42.5703ZM266.355 39.9727L265.477 40.4508L265.481 40.4583L266.355 39.9727ZM265.398 21.1641V20.1641H264.398V21.1641H265.398ZM271.355 21.1641H272.355V20.1641H271.355V21.1641ZM272.195 37.4531L273.013 36.877L272.195 37.4531ZM277.723 37.8242L278.344 38.608L278.353 38.6008L277.723 37.8242ZM279.168 35.3828L278.201 35.1266L278.199 35.1347L279.168 35.3828ZM279.598 21.1641V20.1641H278.598V21.1641H279.598ZM284.555 21.1641V43H286.555V21.1641H284.555ZM285.555 42H280.984V44H285.555V42ZM281.946 42.7244L281.145 39.9314L279.222 40.4826L280.023 43.2756L281.946 42.7244ZM280.184 39.207H279.871V41.207H280.184V39.207ZM279.026 39.673C278.629 40.3013 278.14 40.8035 277.559 41.1914L278.668 42.8555C279.492 42.3059 280.176 41.5972 280.717 40.741L279.026 39.673ZM277.559 41.1914C276.951 41.5964 276.279 41.8969 275.536 42.0911L276.042 44.0261C276.992 43.7776 277.869 43.388 278.668 42.8555L277.559 41.1914ZM275.536 42.0911C274.776 42.29 273.982 42.3906 273.152 42.3906V44.3906C274.146 44.3906 275.11 44.2699 276.042 44.0261L275.536 42.0911ZM273.152 42.3906C271.706 42.3906 270.496 42.1376 269.497 41.666L268.644 43.4747C269.962 44.0968 271.474 44.3906 273.152 44.3906V42.3906ZM269.505 41.6699C268.54 41.2036 267.785 40.4866 267.23 39.487L265.481 40.4583C266.228 41.8024 267.283 42.8173 268.635 43.4707L269.505 41.6699ZM267.234 39.4945C266.701 38.5168 266.398 37.1742 266.398 35.4023H264.398C264.398 37.3805 264.733 39.0848 265.477 40.4508L267.234 39.4945ZM266.398 35.4023V21.1641H264.398V35.4023H266.398ZM265.398 22.1641H271.355V20.1641H265.398V22.1641ZM270.355 21.1641V33.918H272.355V21.1641H270.355ZM270.355 33.918C270.355 35.5717 270.647 36.992 271.378 38.0293L273.013 36.877C272.624 36.3258 272.355 35.3893 272.355 33.918H270.355ZM271.378 38.0293C272.174 39.1581 273.416 39.6445 274.871 39.6445V37.6445C273.878 37.6445 273.337 37.3367 273.013 36.877L271.378 38.0293ZM274.871 39.6445C276.224 39.6445 277.421 39.3392 278.344 38.608L277.102 37.0405C276.644 37.4029 275.94 37.6445 274.871 37.6445V39.6445ZM278.353 38.6008C279.246 37.876 279.823 36.8558 280.137 35.6309L278.199 35.1347C277.966 36.0453 277.579 36.6527 277.093 37.0477L278.353 38.6008ZM280.135 35.639C280.45 34.4495 280.598 33.0429 280.598 31.4375H278.598C278.598 32.9311 278.459 34.1546 278.201 35.1266L280.135 35.639ZM280.598 31.4375V21.1641H278.598V31.4375H280.598ZM279.598 22.1641H285.555V20.1641H279.598V22.1641ZM305.027 20.8125L304.928 21.8075L304.945 21.8093L304.963 21.8104L305.027 20.8125ZM306.004 20.9297L307.001 21.0098L307.071 20.1325L306.21 19.9511L306.004 20.9297ZM305.555 26.5156L305.238 27.4643L306.449 27.8679L306.551 26.5958L305.555 26.5156ZM304.715 26.3789L304.604 27.3728L304.624 27.375L304.644 27.3764L304.715 26.3789ZM301.551 26.6133L301.292 25.6473L301.288 25.6485L301.551 26.6133ZM299.617 27.5703L300.217 28.3703L300.223 28.366L300.229 28.3616L299.617 27.5703ZM298.25 29.2891L297.346 28.8617L297.343 28.8689L298.25 29.2891ZM297.762 43V44H298.762V43H297.762ZM291.805 43H290.805V44H291.805V43ZM291.805 21.1641V20.1641H290.805V21.1641H291.805ZM296.316 21.1641L297.289 20.9313L297.105 20.1641H296.316V21.1641ZM297.195 24.8359L296.223 25.0687L296.406 25.8359H297.195V24.8359ZM297.488 24.8359V25.8359H298.065L298.354 25.337L297.488 24.8359ZM299.09 22.8047L299.782 23.5264L299.782 23.5261L299.09 22.8047ZM301.297 21.3203L301.703 22.2341L301.71 22.2312L301.297 21.3203ZM303.992 21.7539C304.25 21.7539 304.561 21.7708 304.928 21.8075L305.127 19.8175C304.713 19.776 304.333 19.7539 303.992 19.7539V21.7539ZM304.963 21.8104C305.344 21.835 305.616 21.87 305.798 21.9082L306.21 19.9511C305.897 19.8852 305.518 19.8421 305.092 19.8146L304.963 21.8104ZM305.007 20.8495L304.558 26.4355L306.551 26.5958L307.001 21.0098L305.007 20.8495ZM305.871 25.5669C305.558 25.4626 305.18 25.4096 304.786 25.3814L304.644 27.3764C304.978 27.4003 305.161 27.4385 305.238 27.4643L305.871 25.5669ZM304.825 25.385C304.449 25.3432 304.105 25.3203 303.797 25.3203V27.3203C304.01 27.3203 304.277 27.3365 304.604 27.3728L304.825 25.385ZM303.797 25.3203C302.943 25.3203 302.107 25.429 301.292 25.6473L301.81 27.5792C302.453 27.4069 303.114 27.3203 303.797 27.3203V25.3203ZM301.288 25.6485C300.448 25.8774 299.685 26.2542 299.006 26.779L300.229 28.3616C300.695 28.001 301.221 27.7398 301.814 27.578L301.288 25.6485ZM299.017 26.7703C298.301 27.3076 297.746 28.0143 297.346 28.8617L299.154 29.7164C299.431 29.1315 299.788 28.6924 300.217 28.3703L299.017 26.7703ZM297.343 28.8689C296.94 29.7394 296.762 30.7583 296.762 31.8867H298.762C298.762 30.9579 298.909 30.245 299.157 29.7092L297.343 28.8689ZM296.762 31.8867V43H298.762V31.8867H296.762ZM297.762 42H291.805V44H297.762V42ZM292.805 43V21.1641H290.805V43H292.805ZM291.805 22.1641H296.316V20.1641H291.805V22.1641ZM295.344 21.3968L296.223 25.0687L298.168 24.6032L297.289 20.9313L295.344 21.3968ZM297.195 25.8359H297.488V23.8359H297.195V25.8359ZM298.354 25.337C298.735 24.6786 299.21 24.0753 299.782 23.5264L298.398 22.083C297.694 22.758 297.101 23.5089 296.623 24.3349L298.354 25.337ZM299.782 23.5261C300.35 22.9809 300.989 22.5514 301.703 22.2341L300.891 20.4065C299.964 20.8184 299.132 21.3785 298.397 22.0833L299.782 23.5261ZM301.71 22.2312C302.406 21.9154 303.163 21.7539 303.992 21.7539V19.7539C302.894 19.7539 301.854 19.97 300.884 20.4095L301.71 22.2312ZM313.309 42.2188L312.846 43.1055L312.852 43.1086L313.309 42.2188ZM309.988 25.6758L309.108 25.2017L309.107 25.2041L309.988 25.6758ZM313.758 21.9453L313.316 21.048L313.314 21.0494L313.758 21.9453ZM323.27 21.2031L323.005 22.1677L323.019 22.1712L323.27 21.2031ZM326.16 22.2383L327.095 22.5946L327.419 21.7433L326.602 21.341L326.16 22.2383ZM324.402 26.8477L324.029 27.7752L324.974 28.1559L325.337 27.204L324.402 26.8477ZM321.785 25.9297L321.492 26.8858L321.499 26.888L321.506 26.89L321.785 25.9297ZM316.766 26.3008L317.338 27.1208L317.348 27.1135L316.766 26.3008ZM316.844 37.8828L316.282 38.7101L316.293 38.7173L316.844 37.8828ZM322.664 38.0781L322.984 39.0256L322.996 39.0216L322.664 38.0781ZM325.477 36.6719H326.477V34.8181L324.927 35.8362L325.477 36.6719ZM325.477 41.7695L326.009 42.6162L326.477 42.3221V41.7695H325.477ZM322.605 43L322.366 42.0291L322.358 42.031L322.351 42.0329L322.605 43ZM318.836 42.3906C316.793 42.3906 315.115 42.0213 313.765 41.3289L312.852 43.1086C314.549 43.9787 316.556 44.3906 318.836 44.3906V42.3906ZM313.771 41.332C312.452 40.6446 311.441 39.5869 310.733 38.1139L308.931 38.9798C309.812 40.8141 311.118 42.2044 312.846 43.1055L313.771 41.332ZM310.733 38.1139C310.025 36.6387 309.641 34.6843 309.641 32.1992H307.641C307.641 34.8704 308.051 37.1478 308.931 38.9798L310.733 38.1139ZM309.641 32.1992C309.641 29.6322 310.074 27.6355 310.87 26.1474L309.107 25.2041C308.106 27.0754 307.641 29.4277 307.641 32.1992H309.641ZM310.869 26.1499C311.69 24.625 312.8 23.5364 314.202 22.8412L313.314 21.0494C311.512 21.9428 310.11 23.3411 309.108 25.2017L310.869 26.1499ZM314.199 22.8426C315.654 22.127 317.367 21.7539 319.363 21.7539V19.7539C317.115 19.7539 315.091 20.1751 313.316 21.048L314.199 22.8426ZM319.363 21.7539C320.812 21.7539 322.021 21.898 323.005 22.1676L323.534 20.2386C322.331 19.9093 320.935 19.7539 319.363 19.7539V21.7539ZM323.019 22.1712C324.075 22.4447 324.972 22.7683 325.719 23.1355L326.602 21.341C325.707 20.901 324.677 20.5345 323.52 20.235L323.019 22.1712ZM325.226 21.882L323.468 26.4913L325.337 27.204L327.095 22.5946L325.226 21.882ZM324.776 25.9201C323.813 25.5324 322.909 25.2147 322.064 24.9693L321.506 26.89C322.276 27.1134 323.116 27.4077 324.029 27.7752L324.776 25.9201ZM322.078 24.9736C321.18 24.6984 320.274 24.5586 319.363 24.5586V26.5586C320.067 26.5586 320.775 26.6662 321.492 26.8858L322.078 24.9736ZM319.363 24.5586C318.161 24.5586 317.078 24.8462 316.183 25.4881L317.348 27.1135C317.833 26.7658 318.483 26.5586 319.363 26.5586V24.5586ZM316.193 25.4808C315.294 26.1086 314.669 27.0311 314.278 28.1607L316.167 28.8158C316.453 27.9923 316.857 27.4565 317.338 27.1207L316.193 25.4808ZM314.278 28.1607C313.891 29.2769 313.715 30.6206 313.715 32.1602H315.715C315.715 30.757 315.877 29.6527 316.167 28.8158L314.278 28.1607ZM313.715 32.1602C313.715 33.6806 313.905 35.0101 314.328 36.112L316.195 35.3958C315.889 34.5967 315.715 33.5304 315.715 32.1602H313.715ZM314.328 36.112C314.749 37.2106 315.389 38.1033 316.282 38.71L317.406 37.0556C316.919 36.7248 316.503 36.1982 316.195 35.3958L314.328 36.112ZM316.293 38.7173C317.176 39.3007 318.217 39.5664 319.363 39.5664V37.5664C318.531 37.5664 317.892 37.3764 317.395 37.0483L316.293 38.7173ZM319.363 39.5664C320.686 39.5664 321.898 39.3925 322.984 39.0255L322.344 37.1307C321.503 37.4148 320.514 37.5664 319.363 37.5664V39.5664ZM322.996 39.0216C324.041 38.6543 325.051 38.1482 326.026 37.5076L324.927 35.8362C324.079 36.3935 323.214 36.8248 322.333 37.1347L322.996 39.0216ZM324.477 36.6719V41.7695H326.477V36.6719H324.477ZM324.944 40.9229C324.119 41.4415 323.261 41.8083 322.366 42.0291L322.845 43.9709C323.956 43.6969 325.011 43.2434 326.009 42.6162L324.944 40.9229ZM322.351 42.0329C321.474 42.2636 320.311 42.3906 318.836 42.3906V44.3906C320.408 44.3906 321.758 44.2572 322.86 43.9671L322.351 42.0329ZM336.512 12.6094H337.512V11.6094H336.512V12.6094ZM336.395 21.8867L335.398 21.807L335.397 21.8202L336.395 21.8867ZM336.238 23.957L335.243 23.8607L335.137 24.957H336.238V23.957ZM336.551 23.957V24.957H337.107L337.4 24.4844L336.551 23.957ZM338.211 22.1211L337.627 21.3095L337.619 21.3152L338.211 22.1211ZM347 21.5938L346.569 22.4961L346.577 22.4999L347 21.5938ZM349.734 24.1914L348.858 24.673L348.86 24.677L349.734 24.1914ZM350.711 43V44H351.711V43H350.711ZM344.754 43H343.754V44H344.754V43ZM338.406 26.3594L339.027 27.1432L339.036 27.1359L338.406 26.3594ZM336.941 28.8008L337.907 29.0599L337.908 29.057L336.941 28.8008ZM336.512 43V44H337.512V43H336.512ZM330.555 43H329.555V44H330.555V43ZM330.555 12.6094V11.6094H329.555V12.6094H330.555ZM335.512 12.6094V18.8008H337.512V12.6094H335.512ZM335.512 18.8008C335.512 19.8576 335.474 20.8595 335.398 21.807L337.391 21.9665C337.472 20.9608 337.512 19.9054 337.512 18.8008H335.512ZM335.397 21.8202C335.332 22.7968 335.28 23.4735 335.243 23.8607L337.234 24.0534C337.274 23.6333 337.327 22.9298 337.392 21.9532L335.397 21.8202ZM336.238 24.957H336.551V22.957H336.238V24.957ZM337.4 24.4844C337.81 23.8244 338.28 23.3115 338.803 22.927L337.619 21.3152C336.866 21.8682 336.229 22.5793 335.701 23.4297L337.4 24.4844ZM338.795 22.9326C339.351 22.5327 339.961 22.2381 340.632 22.0481L340.087 20.1238C339.195 20.3765 338.373 20.772 337.627 21.3096L338.795 22.9326ZM340.632 22.0481C341.316 21.8543 342.063 21.7539 342.879 21.7539V19.7539C341.898 19.7539 340.966 19.8748 340.087 20.1238L340.632 22.0481ZM342.879 21.7539C344.336 21.7539 345.557 22.0127 346.569 22.4961L347.431 20.6914C346.099 20.055 344.572 19.7539 342.879 19.7539V21.7539ZM346.577 22.4999C347.547 22.9527 348.304 23.6651 348.858 24.673L350.611 23.7099C349.862 22.3479 348.796 21.3285 347.423 20.6876L346.577 22.4999ZM348.86 24.677C349.402 25.6529 349.711 26.9925 349.711 28.7617H351.711C351.711 26.781 351.368 25.0737 350.609 23.7058L348.86 24.677ZM349.711 28.7617V43H351.711V28.7617H349.711ZM350.711 42H344.754V44H350.711V42ZM345.754 43V30.2461H343.754V43H345.754ZM345.754 30.2461C345.754 28.589 345.455 27.1649 344.706 26.1259L343.083 27.2959C343.48 27.8455 343.754 28.7782 343.754 30.2461H345.754ZM344.706 26.1259C343.902 25.0119 342.677 24.5195 341.238 24.5195V26.5195C342.196 26.5195 342.741 26.8215 343.083 27.2959L344.706 26.1259ZM341.238 24.5195C339.891 24.5195 338.698 24.835 337.776 25.5828L339.036 27.1359C339.495 26.7639 340.19 26.5195 341.238 26.5195V24.5195ZM337.785 25.5756C336.885 26.2889 336.301 27.3121 335.975 28.5446L337.908 29.057C338.154 28.128 338.547 27.5236 339.027 27.1431L337.785 25.5756ZM335.976 28.5417C335.659 29.7201 335.512 31.1217 335.512 32.7266H337.512C337.512 31.2325 337.651 30.0169 337.907 29.0599L335.976 28.5417ZM335.512 32.7266V43H337.512V32.7266H335.512ZM336.512 42H330.555V44H336.512V42ZM331.555 43V12.6094H329.555V43H331.555ZM330.555 13.6094H336.512V11.6094H330.555V13.6094ZM372.527 22.6289L373.16 21.8544L372.527 22.6289ZM374.871 43V44H375.871V43H374.871ZM370.711 43L369.779 43.3619L370.026 44H370.711V43ZM369.559 40.0312L370.491 39.6694L370.243 39.0312H369.559V40.0312ZM369.402 40.0312V39.0312H368.922L368.621 39.4066L369.402 40.0312ZM367.488 41.9453L366.883 41.1492L367.488 41.9453ZM358.68 42.6484L358.242 43.5474L358.246 43.5496L358.68 42.6484ZM356.277 40.3828L355.408 40.8778L355.411 40.8825L356.277 40.3828ZM357.84 31.3594L358.398 32.1894L358.402 32.1863L357.84 31.3594ZM365.164 29.5234L365.133 28.5239L365.128 28.5241L365.164 29.5234ZM368.953 29.4062L368.984 30.4058L369.953 30.3758V29.4062H368.953ZM359.402 26.7109L358.504 27.1512L358.93 28.019L359.812 27.6233L359.402 26.7109ZM357.43 22.6875L356.963 21.8032L356.105 22.2564L356.532 23.1277L357.43 22.6875ZM361.316 21.2422L361.08 20.2705L361.078 20.271L361.316 21.2422ZM368.953 32.8828H369.953V31.8483L368.919 31.8834L368.953 32.8828ZM366.648 32.9609L366.675 33.9606L366.682 33.9604L366.648 32.9609ZM362.625 33.9961L361.98 33.2322L361.973 33.2378L362.625 33.9961ZM362.312 38.4688L361.722 39.2758L361.728 39.2805L361.735 39.2852L362.312 38.4688ZM367.625 37.9023L366.976 37.1415L366.97 37.1463L367.625 37.9023ZM365.789 21.7148C368.59 21.7148 370.576 22.3265 371.895 23.4034L373.16 21.8544C371.354 20.3792 368.848 19.7148 365.789 19.7148V21.7148ZM371.895 23.4034C373.16 24.437 373.871 26.0509 373.871 28.4492H375.871C375.871 25.6392 375.019 23.3729 373.16 21.8544L371.895 23.4034ZM373.871 28.4492V43H375.871V28.4492H373.871ZM374.871 42H370.711V44H374.871V42ZM371.643 42.6381L370.491 39.6694L368.626 40.3931L369.779 43.3619L371.643 42.6381ZM369.559 39.0312H369.402V41.0312H369.559V39.0312ZM368.621 39.4066C368.037 40.1373 367.456 40.7137 366.883 41.1492L368.093 42.7415C368.822 42.1874 369.518 41.4877 370.183 40.6559L368.621 39.4066ZM366.883 41.1492C366.341 41.5616 365.708 41.8723 364.975 42.0753L365.509 44.0028C366.469 43.7371 367.334 43.3186 368.093 42.7415L366.883 41.1492ZM364.975 42.0753C364.242 42.2785 363.308 42.3906 362.156 42.3906V44.3906C363.426 44.3906 364.55 44.2684 365.509 44.0028L364.975 42.0753ZM362.156 42.3906C360.998 42.3906 359.99 42.1691 359.113 41.7473L358.246 43.5496C359.427 44.1174 360.737 44.3906 362.156 44.3906V42.3906ZM359.118 41.7494C358.288 41.3455 357.634 40.7328 357.144 39.8831L355.411 40.8825C356.093 42.0641 357.04 42.9618 358.242 43.5474L359.118 41.7494ZM357.146 39.8879C356.67 39.0519 356.398 37.934 356.398 36.4766H354.398C354.398 38.1702 354.713 39.6565 355.408 40.8778L357.146 39.8879ZM356.398 36.4766C356.398 34.4221 357.1 33.0615 358.398 32.1894L357.282 30.5294C355.325 31.8447 354.398 33.8956 354.398 36.4766H356.398ZM358.402 32.1863C359.803 31.2339 362.023 30.6372 365.2 30.5228L365.128 28.5241C361.795 28.6441 359.132 29.2713 357.278 30.5324L358.402 32.1863ZM365.195 30.523L368.984 30.4058L368.922 28.4067L365.133 28.5239L365.195 30.523ZM369.953 29.4062V28.4492H367.953V29.4062H369.953ZM369.953 28.4492C369.953 27.1435 369.61 25.9766 368.72 25.1832L367.389 26.6762C367.697 26.9505 367.953 27.4633 367.953 28.4492H369.953ZM368.72 25.1832C367.884 24.4384 366.785 24.1289 365.555 24.1289V26.1289C366.46 26.1289 367.027 26.3532 367.389 26.6762L368.72 25.1832ZM365.555 24.1289C364.404 24.1289 363.273 24.2925 362.166 24.619L362.732 26.5373C363.656 26.2648 364.596 26.1289 365.555 26.1289V24.1289ZM362.166 24.619C361.105 24.9318 360.048 25.3254 358.993 25.7986L359.812 27.6233C360.788 27.1851 361.762 26.8234 362.732 26.5373L362.166 24.619ZM360.3 26.2707L358.328 22.2473L356.532 23.1277L358.504 27.1512L360.3 26.2707ZM357.897 23.5718C358.975 23.0024 360.192 22.5478 361.555 22.2134L361.078 20.271C359.576 20.6397 358.202 21.1486 356.963 21.8032L357.897 23.5718ZM361.553 22.2139C362.918 21.8817 364.33 21.7148 365.789 21.7148V19.7148C364.176 19.7148 362.605 19.8995 361.08 20.2705L361.553 22.2139ZM368.919 31.8834L366.615 31.9615L366.682 33.9604L368.987 33.8822L368.919 31.8834ZM366.621 31.9613C364.651 32.0145 363.01 32.3618 361.98 33.2322L363.27 34.76C363.751 34.3543 364.791 34.0115 366.675 33.9606L366.621 31.9613ZM361.973 33.2378C360.994 34.0792 360.512 35.2038 360.512 36.5156H362.512C362.512 35.7441 362.771 35.189 363.277 34.7544L361.973 33.2378ZM360.512 36.5156C360.512 37.6163 360.841 38.6315 361.722 39.2758L362.903 37.6617C362.716 37.5247 362.512 37.2379 362.512 36.5156H360.512ZM361.735 39.2852C362.484 39.8147 363.401 40.0352 364.402 40.0352V38.0352C363.685 38.0352 363.209 37.878 362.89 37.6523L361.735 39.2852ZM364.402 40.0352C365.891 40.0352 367.206 39.588 368.28 38.6584L366.97 37.1463C366.299 37.7271 365.465 38.0352 364.402 38.0352V40.0352ZM368.274 38.6632C369.426 37.6803 369.953 36.3022 369.953 34.6797H367.953C367.953 35.8436 367.595 36.614 366.976 37.1415L368.274 38.6632ZM369.953 34.6797V32.8828H367.953V34.6797H369.953ZM395.203 40.2852L394.378 39.7208L394.376 39.7231L395.203 40.2852ZM392.098 42.6094L392.451 43.545L392.458 43.542L392.098 42.6094ZM383.016 43.0977L382.838 44.0817L382.84 44.0821L383.016 43.0977ZM379.734 42.1211H378.734V42.7908L379.354 43.0458L379.734 42.1211ZM379.734 37.1992L380.145 36.2875L378.734 35.6519V37.1992H379.734ZM383.543 38.5273L383.292 39.4953L383.303 39.498L383.543 38.5273ZM389.617 38.5273L390.182 39.3527L390.186 39.3495L389.617 38.5273ZM390.066 36.1836L389.229 36.7299L389.243 36.7512L389.258 36.7718L390.066 36.1836ZM388.777 35.1875L388.283 36.0568L388.29 36.0605L388.296 36.0641L388.777 35.1875ZM385.652 33.7227L386.041 32.8013L386.039 32.8004L385.652 33.7227ZM382.273 31.9844L381.716 32.8145L381.722 32.8183L382.273 31.9844ZM380.32 29.9141L379.432 30.3727L379.436 30.3813L379.441 30.3899L380.32 29.9141ZM382.039 22.2969L382.584 23.1353L382.586 23.1342L382.039 22.2969ZM392.215 21.1641L391.997 22.14L391.999 22.1405L392.215 21.1641ZM396.023 22.4727L396.946 22.8585L397.319 21.9677L396.441 21.5642L396.023 22.4727ZM394.227 26.7695L393.829 27.687L394.758 28.0901L395.149 27.1553L394.227 26.7695ZM391.16 25.6172L390.86 26.571L390.863 26.5721L391.16 25.6172ZM385.945 27.5312L385.168 28.1604L385.177 28.1714L385.186 28.182L385.945 27.5312ZM387.273 28.4492L386.812 29.3364L386.823 29.3419L386.833 29.3471L387.273 28.4492ZM390.184 29.7188L390.563 28.7937L390.561 28.7929L390.184 29.7188ZM393.406 31.3203L392.883 32.1724L392.892 32.1778L393.406 31.3203ZM395.516 33.3711L394.659 33.8876L394.663 33.8937L395.516 33.3711ZM395.258 36.5156C395.258 37.8379 394.947 38.8882 394.378 39.7208L396.029 40.8495C396.866 39.6248 397.258 38.1621 397.258 36.5156H395.258ZM394.376 39.7231C393.822 40.5387 392.967 41.2009 391.737 41.6767L392.458 43.542C393.989 42.9502 395.204 42.0628 396.03 40.8472L394.376 39.7231ZM391.745 41.6738C390.512 42.1388 388.922 42.3906 386.941 42.3906V44.3906C389.075 44.3906 390.923 44.1216 392.451 43.545L391.745 41.6738ZM386.941 42.3906C385.457 42.3906 384.21 42.2952 383.191 42.1132L382.84 44.0821C384.008 44.2908 385.379 44.3906 386.941 44.3906V42.3906ZM383.193 42.1136C382.188 41.9319 381.162 41.6276 380.115 41.1964L379.354 43.0458C380.52 43.526 381.682 43.8728 382.838 44.0817L383.193 42.1136ZM380.734 42.1211V37.1992H378.734V42.1211H380.734ZM379.324 38.111C380.564 38.6697 381.887 39.1306 383.292 39.4953L383.794 37.5594C382.491 37.221 381.275 36.7965 380.145 36.2875L379.324 38.111ZM383.303 39.498C384.722 39.8494 386.004 40.0352 387.137 40.0352V38.0352C386.213 38.0352 385.099 37.8823 383.783 37.5567L383.303 39.498ZM387.137 40.0352C388.339 40.0352 389.426 39.8699 390.182 39.3526L389.052 37.702C388.819 37.8618 388.252 38.0352 387.137 38.0352V40.0352ZM390.186 39.3495C390.931 38.8337 391.379 38.0859 391.379 37.1602H389.379C389.379 37.3542 389.319 37.5178 389.048 37.7052L390.186 39.3495ZM391.379 37.1602C391.379 36.5909 391.212 36.0581 390.875 35.5954L389.258 36.7718C389.338 36.882 389.379 37.0003 389.379 37.1602H391.379ZM390.904 35.6373C390.564 35.1155 389.94 34.6848 389.259 34.3109L388.296 36.0641C388.943 36.4193 389.178 36.6527 389.229 36.7299L390.904 35.6373ZM389.272 34.3182C388.554 33.9103 387.468 33.4035 386.041 32.8013L385.264 34.644C386.675 35.2397 387.672 35.7095 388.283 36.0568L389.272 34.3182ZM386.039 32.8004C384.709 32.2429 383.643 31.6913 382.825 31.1504L381.722 32.8183C382.675 33.4494 383.862 34.0565 385.266 34.645L386.039 32.8004ZM382.831 31.1542C382.071 30.6438 381.541 30.0684 381.2 29.4382L379.441 30.3899C379.959 31.3483 380.731 32.1531 381.716 32.8145L382.831 31.1542ZM381.209 29.4554C380.887 28.8318 380.695 27.9799 380.695 26.8477H378.695C378.695 28.1893 378.92 29.3818 379.432 30.3727L381.209 29.4554ZM380.695 26.8477C380.695 25.1345 381.332 23.949 382.584 23.1353L381.494 21.4584C379.621 22.676 378.695 24.5244 378.695 26.8477H380.695ZM382.586 23.1342C383.946 22.2461 385.837 21.7539 388.348 21.7539V19.7539C385.598 19.7539 383.283 20.2904 381.492 21.4595L382.586 23.1342ZM388.348 21.7539C389.634 21.7539 390.85 21.8838 391.997 22.14L392.433 20.1881C391.132 19.8975 389.769 19.7539 388.348 19.7539V21.7539ZM391.999 22.1405C393.158 22.3967 394.36 22.8082 395.606 23.3811L396.441 21.5642C395.083 20.9392 393.746 20.4783 392.431 20.1876L391.999 22.1405ZM395.101 22.0868L393.304 26.3837L395.149 27.1553L396.946 22.8585L395.101 22.0868ZM394.624 25.8521C393.516 25.3713 392.46 24.974 391.457 24.6622L390.863 26.5721C391.787 26.8593 392.776 27.2302 393.829 27.687L394.624 25.8521ZM391.461 24.6634C390.414 24.3335 389.342 24.168 388.25 24.168V26.168C389.137 26.168 390.006 26.3019 390.86 26.571L391.461 24.6634ZM388.25 24.168C387.319 24.168 386.467 24.2878 385.809 24.6357L386.745 26.4033C386.973 26.2825 387.436 26.168 388.25 26.168V24.168ZM385.809 24.6357C385.461 24.8202 385.149 25.0813 384.929 25.438C384.707 25.7969 384.613 26.1945 384.613 26.5938H386.613C386.613 26.5501 386.618 26.5238 386.622 26.5105C386.625 26.498 386.628 26.4925 386.63 26.4897C386.631 26.4883 386.651 26.4532 386.745 26.4033L385.809 24.6357ZM384.613 26.5938C384.613 27.1745 384.803 27.7091 385.168 28.1604L386.723 26.9021C386.645 26.8065 386.613 26.7161 386.613 26.5938H384.613ZM385.186 28.182C385.552 28.6091 386.141 28.9873 386.812 29.3364L387.735 27.562C387.104 27.2341 386.807 27.0003 386.705 26.8805L385.186 28.182ZM386.833 29.3471C387.528 29.6878 388.523 30.1211 389.806 30.6446L390.561 28.7929C389.292 28.2747 388.347 27.8617 387.714 27.5513L386.833 29.3471ZM389.804 30.6438C391.003 31.136 392.027 31.6466 392.883 32.1724L393.93 30.4682C392.963 29.8742 391.838 29.3171 390.563 28.7937L389.804 30.6438ZM392.892 32.1778C393.679 32.65 394.258 33.222 394.659 33.8876L396.372 32.8546C395.784 31.8796 394.957 31.0844 393.921 30.4628L392.892 32.1778ZM394.663 33.8937C395.033 34.4966 395.258 35.3467 395.258 36.5156H397.258C397.258 35.1064 396.988 33.8601 396.368 32.8485L394.663 33.8937ZM415.125 21.9258L414.653 22.8073L414.659 22.8105L415.125 21.9258ZM418.504 25.2852L417.624 25.7602L418.504 25.2852ZM419.695 33.5664V34.5664H420.695V33.5664H419.695ZM405.613 33.5664V32.5664H404.574L404.614 33.6051L405.613 33.5664ZM407.117 37.5312L406.4 38.2287L406.41 38.2384L407.117 37.5312ZM418.465 37.2383H419.465V35.6661L418.041 36.3326L418.465 37.2383ZM418.465 41.8477L418.908 42.7442L419.465 42.469V41.8477H418.465ZM415.066 43.0195L414.862 42.0406L414.86 42.0411L415.066 43.0195ZM404.969 42.1797L404.536 43.081L404.538 43.0823L404.969 42.1797ZM401.004 38.4883L400.137 38.9866L400.14 38.9917L401.004 38.4883ZM400.867 25.8711L399.977 25.4157L399.976 25.4184L400.867 25.8711ZM404.5 22.043L404.979 22.9206L404.985 22.9175L404.5 22.043ZM407.059 26.1055L406.364 25.3863L406.358 25.3922L407.059 26.1055ZM405.75 29.6016L404.753 29.528L404.674 30.6016H405.75V29.6016ZM414.109 29.6016V30.6016H415.124L415.109 29.5869L414.109 29.6016ZM413.621 27.2383L412.704 27.6364L412.707 27.6436L412.71 27.6508L413.621 27.2383ZM412.254 25.5977L411.695 26.427L411.703 26.4324L412.254 25.5977ZM409.91 21.7539C411.799 21.7539 413.368 22.1192 414.653 22.8073L415.597 21.0443C413.965 20.1699 412.057 19.7539 409.91 19.7539V21.7539ZM414.659 22.8105C415.939 23.4849 416.922 24.4608 417.624 25.7602L419.384 24.8101C418.497 23.1668 417.228 21.9032 415.591 21.041L414.659 22.8105ZM417.624 25.7602C418.321 27.0515 418.695 28.6756 418.695 30.6758H420.695C420.695 28.4312 420.275 26.4615 419.384 24.8101L417.624 25.7602ZM418.695 30.6758V33.5664H420.695V30.6758H418.695ZM419.695 32.5664H405.613V34.5664H419.695V32.5664ZM404.614 33.6051C404.686 35.4675 405.251 37.0467 406.4 38.2286L407.834 36.8339C407.109 36.0887 406.671 35.0247 406.613 33.5277L404.614 33.6051ZM406.41 38.2384C407.592 39.4207 409.188 39.957 411.062 39.957V37.957C409.578 37.957 408.543 37.5429 407.824 36.8241L406.41 38.2384ZM411.062 39.957C412.523 39.957 413.881 39.8069 415.131 39.4981L414.651 37.5566C413.582 37.8207 412.388 37.957 411.062 37.957V39.957ZM415.131 39.4981C416.36 39.1941 417.613 38.741 418.889 38.144L418.041 36.3326C416.868 36.8814 415.739 37.2876 414.651 37.5566L415.131 39.4981ZM417.465 37.2383V41.8477H419.465V37.2383H417.465ZM418.022 40.9511C417.017 41.4474 415.965 41.8104 414.862 42.0406L415.271 43.9984C416.538 43.7338 417.751 43.3156 418.908 42.7442L418.022 40.9511ZM414.86 42.0411C413.777 42.2697 412.425 42.3906 410.789 42.3906V44.3906C412.513 44.3906 414.012 44.2641 415.273 43.998L414.86 42.0411ZM410.789 42.3906C408.726 42.3906 406.937 42.0104 405.399 41.2771L404.538 43.0823C406.386 43.9635 408.477 44.3906 410.789 44.3906V42.3906ZM405.402 41.2784C403.908 40.5601 402.734 39.4707 401.868 37.9848L400.14 38.9917C401.201 40.8131 402.671 42.1847 404.536 43.081L405.402 41.2784ZM401.871 37.9899C401.031 36.5287 400.578 34.6303 400.578 32.2383H398.578C398.578 34.8723 399.076 37.1406 400.137 38.9866L401.871 37.9899ZM400.578 32.2383C400.578 29.7918 400.991 27.8364 401.759 26.3238L399.976 25.4184C399.025 27.2912 398.578 29.5806 398.578 32.2383H400.578ZM401.758 26.3264C402.547 24.7836 403.621 23.6624 404.979 22.9206L404.021 21.1654C402.28 22.1162 400.933 23.5471 399.977 25.4157L401.758 26.3264ZM404.985 22.9175C406.364 22.1528 407.995 21.7539 409.91 21.7539V19.7539C407.711 19.7539 405.735 20.2144 404.015 21.1685L404.985 22.9175ZM409.949 23.9922C408.555 23.9922 407.335 24.4479 406.364 25.3863L407.753 26.8247C408.319 26.2787 409.025 25.9922 409.949 25.9922V23.9922ZM406.358 25.3922C405.36 26.3725 404.879 27.8156 404.753 29.528L406.747 29.6751C406.855 28.2104 407.247 27.3228 407.76 26.8187L406.358 25.3922ZM405.75 30.6016H414.109V28.6016H405.75V30.6016ZM415.109 29.5869C415.095 28.5871 414.91 27.6603 414.532 26.8258L412.71 27.6508C412.957 28.1965 413.098 28.8452 413.109 29.6163L415.109 29.5869ZM414.538 26.8402C414.164 25.9769 413.583 25.2763 412.805 24.7629L411.703 26.4324C412.149 26.7263 412.479 27.1194 412.704 27.6364L414.538 26.8402ZM412.813 24.7684C412.006 24.2246 411.027 23.9922 409.949 23.9922V25.9922C410.746 25.9922 411.304 26.1634 411.695 26.4269L412.813 24.7684ZM424.695 37.6289L424.105 36.8215L424.098 36.827L424.695 37.6289ZM429.52 37.6289L428.922 38.4308L428.93 38.4363L429.52 37.6289ZM429.52 42.7461L428.91 41.9534L428.902 41.9592L429.52 42.7461ZM424.695 42.7461L424.078 43.533L424.086 43.5387L424.695 42.7461ZM424.699 40.207C424.699 39.1413 424.986 38.6592 425.293 38.4308L424.098 36.827C423.076 37.5882 422.699 38.8248 422.699 40.207H424.699ZM425.285 38.4363C425.769 38.083 426.369 37.8867 427.137 37.8867V35.8867C426.004 35.8867 424.976 36.1852 424.105 36.8215L425.285 38.4363ZM427.137 37.8867C427.872 37.8867 428.451 38.0795 428.922 38.4308L430.117 36.827C429.26 36.1887 428.25 35.8867 427.137 35.8867V37.8867ZM428.93 38.4363C429.246 38.6672 429.535 39.1478 429.535 40.207H431.535C431.535 38.8183 431.148 37.5802 430.11 36.8215L428.93 38.4363ZM429.535 40.207C429.535 41.1918 429.257 41.6862 428.91 41.9535L430.129 43.5387C431.136 42.7643 431.535 41.566 431.535 40.207H429.535ZM428.902 41.9592C428.431 42.3286 427.86 42.5273 427.137 42.5273V44.5273C428.262 44.5273 429.279 44.2053 430.137 43.5329L428.902 41.9592ZM427.137 42.5273C426.38 42.5273 425.788 42.3247 425.305 41.9535L424.086 43.5387C424.957 44.2092 425.992 44.5273 427.137 44.5273V42.5273ZM425.312 41.9592C424.975 41.6943 424.699 41.1982 424.699 40.207H422.699C422.699 41.5596 423.088 42.7562 424.078 43.5329L425.312 41.9592Z" fill="#EF4F5F" mask="url(#path-1-inside-1_919_644)"/>
<g clip-path="url(#clip0_919_644)">
<path d="M19.9999 35.7833L26.9165 39.9666C28.1832 40.7333 29.7332 39.5999 29.3999 38.1666L27.5665 30.2999L33.6832 24.9999C34.7999 24.0333 34.1999 22.1999 32.7332 22.0833L24.6832 21.3999L21.5332 13.9666C20.9665 12.6166 19.0332 12.6166 18.4665 13.9666L15.3165 21.3833L7.26654 22.0666C5.79988 22.1833 5.19988 24.0166 6.31654 24.9833L12.4332 30.2833L10.5999 38.1499C10.2665 39.5833 11.8165 40.7166 13.0832 39.9499L19.9999 35.7833Z" fill="#EF4F5F"/>
</g>
<defs>
<clipPath id="clip0_919_644">
<rect width="40" height="40" fill="white" transform="translate(0 7)"/>
</clipPath>
</defs>
</svg>
