<svg width="315" height="54" viewBox="0 0 315 54" fill="none" xmlns="http://www.w3.org/2000/svg">
<path d="M57.7227 19.0742C56.5638 19.0742 55.5352 19.3021 54.6367 19.7578C53.7513 20.2005 53.0026 20.8451 52.3906 21.6914C51.7917 22.5378 51.3359 23.5599 51.0234 24.7578C50.7109 25.9557 50.5547 27.3034 50.5547 28.8008C50.5547 30.819 50.8021 32.5443 51.2969 33.9766C51.8047 35.3958 52.5859 36.4831 53.6406 37.2383C54.6953 37.9805 56.056 38.3516 57.7227 38.3516C58.8815 38.3516 60.0404 38.2214 61.1992 37.9609C62.3711 37.7005 63.6406 37.3294 65.0078 36.8477V41.9258C63.7448 42.4466 62.5013 42.8177 61.2773 43.0391C60.0534 43.2734 58.6797 43.3906 57.1562 43.3906C54.2135 43.3906 51.7917 42.7852 49.8906 41.5742C48.0026 40.3503 46.6029 38.6445 45.6914 36.457C44.7799 34.2565 44.3242 31.6914 44.3242 28.7617C44.3242 26.6003 44.6172 24.6211 45.2031 22.8242C45.7891 21.0273 46.6484 19.4714 47.7812 18.1562C48.9141 16.8411 50.3138 15.8255 51.9805 15.1094C53.6471 14.3932 55.5612 14.0352 57.7227 14.0352C59.1419 14.0352 60.5612 14.2174 61.9805 14.582C63.4128 14.9336 64.7799 15.4219 66.082 16.0469L64.1289 20.9688C63.0612 20.4609 61.987 20.0182 60.9062 19.6406C59.8255 19.263 58.7643 19.0742 57.7227 19.0742ZM79.5781 20.7148C82.5078 20.7148 84.7539 21.3529 86.3164 22.6289C87.8789 23.9049 88.6602 25.8451 88.6602 28.4492V43H84.5L83.3477 40.0312H83.1914C82.5664 40.8125 81.9284 41.4505 81.2773 41.9453C80.6263 42.4401 79.8776 42.8047 79.0312 43.0391C78.1849 43.2734 77.1562 43.3906 75.9453 43.3906C74.6562 43.3906 73.4974 43.1432 72.4688 42.6484C71.4531 42.1536 70.6523 41.3984 70.0664 40.3828C69.4805 39.3542 69.1875 38.0521 69.1875 36.4766C69.1875 34.1589 70.0013 32.4531 71.6289 31.3594C73.2565 30.2526 75.6979 29.6406 78.9531 29.5234L82.7422 29.4062V28.4492C82.7422 27.3034 82.4427 26.4635 81.8438 25.9297C81.2448 25.3958 80.4115 25.1289 79.3438 25.1289C78.2891 25.1289 77.2539 25.2786 76.2383 25.5781C75.2227 25.8776 74.207 26.2552 73.1914 26.7109L71.2188 22.6875C72.3776 22.0755 73.6732 21.5938 75.1055 21.2422C76.5508 20.8906 78.0417 20.7148 79.5781 20.7148ZM82.7422 32.8828L80.4375 32.9609C78.5104 33.013 77.1693 33.3581 76.4141 33.9961C75.6719 34.6341 75.3008 35.474 75.3008 36.5156C75.3008 37.4271 75.5677 38.0781 76.1016 38.4688C76.6354 38.8464 77.332 39.0352 78.1914 39.0352C79.4674 39.0352 80.5417 38.6576 81.4141 37.9023C82.2995 37.1471 82.7422 36.0729 82.7422 34.6797V32.8828ZM100.77 43H94.8125V12.6094H100.77V43ZM112.996 43H107.039V12.6094H112.996V43ZM128.27 20.7539C130.288 20.7539 132.026 21.1445 133.484 21.9258C134.943 22.694 136.069 23.8138 136.863 25.2852C137.658 26.7565 138.055 28.5534 138.055 30.6758V33.5664H123.973C124.038 35.2461 124.539 36.5677 125.477 37.5312C126.427 38.4818 127.742 38.957 129.422 38.957C130.815 38.957 132.091 38.8138 133.25 38.5273C134.409 38.2409 135.6 37.8112 136.824 37.2383V41.8477C135.743 42.3815 134.611 42.7721 133.426 43.0195C132.254 43.2669 130.828 43.3906 129.148 43.3906C126.961 43.3906 125.021 42.987 123.328 42.1797C121.648 41.3724 120.327 40.1419 119.363 38.4883C118.413 36.8346 117.938 34.7513 117.938 32.2383C117.938 29.6862 118.367 27.5638 119.227 25.8711C120.099 24.1654 121.31 22.8893 122.859 22.043C124.409 21.1836 126.212 20.7539 128.27 20.7539ZM128.309 24.9922C127.15 24.9922 126.186 25.3633 125.418 26.1055C124.663 26.8477 124.227 28.013 124.109 29.6016H132.469C132.456 28.7161 132.293 27.9284 131.98 27.2383C131.681 26.5482 131.225 26.0013 130.613 25.5977C130.014 25.194 129.246 24.9922 128.309 24.9922ZM155.086 20.7539C155.385 20.7539 155.73 20.7734 156.121 20.8125C156.525 20.8385 156.85 20.8776 157.098 20.9297L156.648 26.5156C156.453 26.4505 156.173 26.4049 155.809 26.3789C155.457 26.3398 155.151 26.3203 154.891 26.3203C154.122 26.3203 153.374 26.418 152.645 26.6133C151.928 26.8086 151.284 27.1276 150.711 27.5703C150.138 28 149.682 28.5729 149.344 29.2891C149.018 29.9922 148.855 30.8581 148.855 31.8867V43H142.898V21.1641H147.41L148.289 24.8359H148.582C149.012 24.0938 149.546 23.4167 150.184 22.8047C150.835 22.1797 151.57 21.6849 152.391 21.3203C153.224 20.9427 154.122 20.7539 155.086 20.7539ZM181.043 14.4453C184.728 14.4453 187.417 15.2396 189.109 16.8281C190.802 18.4036 191.648 20.5781 191.648 23.3516C191.648 24.6016 191.46 25.7995 191.082 26.9453C190.704 28.0781 190.086 29.0872 189.227 29.9727C188.38 30.8581 187.247 31.5612 185.828 32.082C184.409 32.5898 182.658 32.8438 180.574 32.8438H177.977V43H171.922V14.4453H181.043ZM180.73 19.4062H177.977V27.8828H179.969C181.102 27.8828 182.085 27.7331 182.918 27.4336C183.751 27.1341 184.396 26.6654 184.852 26.0273C185.307 25.3893 185.535 24.569 185.535 23.5664C185.535 22.1602 185.145 21.1185 184.363 20.4414C183.582 19.7513 182.371 19.4062 180.73 19.4062ZM208.758 20.7539C209.057 20.7539 209.402 20.7734 209.793 20.8125C210.197 20.8385 210.522 20.8776 210.77 20.9297L210.32 26.5156C210.125 26.4505 209.845 26.4049 209.48 26.3789C209.129 26.3398 208.823 26.3203 208.562 26.3203C207.794 26.3203 207.046 26.418 206.316 26.6133C205.6 26.8086 204.956 27.1276 204.383 27.5703C203.81 28 203.354 28.5729 203.016 29.2891C202.69 29.9922 202.527 30.8581 202.527 31.8867V43H196.57V21.1641H201.082L201.961 24.8359H202.254C202.684 24.0938 203.217 23.4167 203.855 22.8047C204.507 22.1797 205.242 21.6849 206.062 21.3203C206.896 20.9427 207.794 20.7539 208.758 20.7539ZM220.691 21.1641V43H214.734V21.1641H220.691ZM217.723 12.6094C218.608 12.6094 219.37 12.8177 220.008 13.2344C220.646 13.638 220.965 14.3997 220.965 15.5195C220.965 16.6263 220.646 17.3945 220.008 17.8242C219.37 18.2409 218.608 18.4492 217.723 18.4492C216.824 18.4492 216.056 18.2409 215.418 17.8242C214.793 17.3945 214.48 16.6263 214.48 15.5195C214.48 14.3997 214.793 13.638 215.418 13.2344C216.056 12.8177 216.824 12.6094 217.723 12.6094ZM232.156 43L223.836 21.1641H230.066L234.285 33.6055C234.52 34.3346 234.702 35.1029 234.832 35.9102C234.975 36.7174 235.073 37.4401 235.125 38.0781H235.281C235.32 37.388 235.411 36.6523 235.555 35.8711C235.711 35.0898 235.913 34.3346 236.16 33.6055L240.359 21.1641H246.59L238.27 43H232.156ZM258.68 20.7148C261.609 20.7148 263.855 21.3529 265.418 22.6289C266.98 23.9049 267.762 25.8451 267.762 28.4492V43H263.602L262.449 40.0312H262.293C261.668 40.8125 261.03 41.4505 260.379 41.9453C259.728 42.4401 258.979 42.8047 258.133 43.0391C257.286 43.2734 256.258 43.3906 255.047 43.3906C253.758 43.3906 252.599 43.1432 251.57 42.6484C250.555 42.1536 249.754 41.3984 249.168 40.3828C248.582 39.3542 248.289 38.0521 248.289 36.4766C248.289 34.1589 249.103 32.4531 250.73 31.3594C252.358 30.2526 254.799 29.6406 258.055 29.5234L261.844 29.4062V28.4492C261.844 27.3034 261.544 26.4635 260.945 25.9297C260.346 25.3958 259.513 25.1289 258.445 25.1289C257.391 25.1289 256.355 25.2786 255.34 25.5781C254.324 25.8776 253.309 26.2552 252.293 26.7109L250.32 22.6875C251.479 22.0755 252.775 21.5938 254.207 21.2422C255.652 20.8906 257.143 20.7148 258.68 20.7148ZM261.844 32.8828L259.539 32.9609C257.612 33.013 256.271 33.3581 255.516 33.9961C254.773 34.6341 254.402 35.474 254.402 36.5156C254.402 37.4271 254.669 38.0781 255.203 38.4688C255.737 38.8464 256.434 39.0352 257.293 39.0352C258.569 39.0352 259.643 38.6576 260.516 37.9023C261.401 37.1471 261.844 36.0729 261.844 34.6797V32.8828ZM282.781 43.3906C280.62 43.3906 278.777 43 277.254 42.2188C275.73 41.4245 274.572 40.2005 273.777 38.5469C272.983 36.8932 272.586 34.7773 272.586 32.1992C272.586 29.5299 273.035 27.3555 273.934 25.6758C274.845 23.9831 276.102 22.7396 277.703 21.9453C279.318 21.151 281.186 20.7539 283.309 20.7539C284.819 20.7539 286.121 20.9036 287.215 21.2031C288.322 21.4896 289.285 21.8346 290.105 22.2383L288.348 26.8477C287.41 26.4701 286.538 26.1641 285.73 25.9297C284.923 25.6823 284.116 25.5586 283.309 25.5586C282.267 25.5586 281.401 25.806 280.711 26.3008C280.021 26.7826 279.507 27.5117 279.168 28.4883C278.829 29.4648 278.66 30.6888 278.66 32.1602C278.66 33.6055 278.842 34.8034 279.207 35.7539C279.572 36.7044 280.099 37.4141 280.789 37.8828C281.479 38.3385 282.319 38.5664 283.309 38.5664C284.546 38.5664 285.646 38.4036 286.609 38.0781C287.573 37.7396 288.51 37.2708 289.422 36.6719V41.7695C288.51 42.3424 287.553 42.7526 286.551 43C285.561 43.2604 284.305 43.3906 282.781 43.3906ZM291.375 21.1641H297.898L302.02 33.4492C302.15 33.8398 302.26 34.237 302.352 34.6406C302.443 35.0443 302.521 35.4609 302.586 35.8906C302.651 36.3203 302.703 36.7695 302.742 37.2383H302.859C302.938 36.5352 303.042 35.8776 303.172 35.2656C303.315 34.6536 303.491 34.0482 303.699 33.4492L307.742 21.1641H314.129L304.891 45.793C304.331 47.3034 303.602 48.5599 302.703 49.5625C301.805 50.5781 300.77 51.3398 299.598 51.8477C298.439 52.3555 297.163 52.6094 295.77 52.6094C295.092 52.6094 294.507 52.5703 294.012 52.4922C293.517 52.4271 293.094 52.3555 292.742 52.2773V47.5508C293.016 47.6159 293.361 47.6745 293.777 47.7266C294.194 47.7786 294.63 47.8047 295.086 47.8047C295.919 47.8047 296.635 47.6289 297.234 47.2773C297.833 46.9258 298.335 46.4505 298.738 45.8516C299.142 45.2656 299.461 44.6211 299.695 43.918L300.047 42.8438L291.375 21.1641Z" fill="#EF4F5F"/>
<g clip-path="url(#clip0_919_668)">
<path d="M19.9999 35.7833L26.9165 39.9666C28.1832 40.7333 29.7332 39.5999 29.3999 38.1666L27.5665 30.2999L33.6832 24.9999C34.7999 24.0333 34.1999 22.1999 32.7332 22.0833L24.6832 21.3999L21.5332 13.9666C20.9665 12.6166 19.0332 12.6166 18.4665 13.9666L15.3165 21.3833L7.26654 22.0666C5.79988 22.1833 5.19988 24.0166 6.31654 24.9833L12.4332 30.2833L10.5999 38.1499C10.2665 39.5833 11.8165 40.7166 13.0832 39.9499L19.9999 35.7833Z" fill="#EF4F5F"/>
</g>
<defs>
<clipPath id="clip0_919_668">
<rect width="40" height="40" fill="white" transform="translate(0 7)"/>
</clipPath>
</defs>
</svg>
