<svg width="158" height="154" viewBox="0 0 158 154" fill="none" xmlns="http://www.w3.org/2000/svg">
<g clip-path="url(#clip0_919_942)">
<path d="M138.014 96.2033C141.131 78.1339 139.115 59.8224 132.407 42.9073C130.932 39.1815 130.709 39.1063 136.266 45.4513C138.045 47.5413 140.121 49.4835 140.567 49.6339C141.904 50.0853 142.874 49.4192 142.804 48.154C142.958 46.9641 140.215 44.0521 131.687 36.208C129.24 33.8924 126.423 31.2033 125.681 30.4565C124.792 29.4116 124.199 28.9629 123.825 29.3336C123.75 29.5565 123.229 29.629 122.56 29.4033C121.891 29.1777 121.668 29.1024 121.443 29.7713C121.292 30.2171 121.142 30.663 121.513 31.0364C121.956 31.9309 123.403 43.0973 123.239 47.2635C123.306 49.2727 123.373 51.282 123.52 51.5802C123.74 52.3994 125.078 52.8508 126.196 52.4829C128.578 52.0452 128.015 43.4119 125.214 36.2586C124.846 35.1411 125.214 36.2585 126.248 38.3458C128.316 42.5202 130.671 49.5231 131.914 55.4058C134.403 66.4272 134.808 77.7386 133.499 89.7133C132.806 96.1841 129.794 105.846 127.172 110.673C125.074 114.683 121.186 119.58 118.127 122.024C109.02 129.877 95.1676 133.398 84.9846 130.458C79.3358 128.801 73.5447 125.357 69.3197 120.951C66.5774 118.039 66.5022 118.262 69.7123 115.372C72.9225 112.482 76.0601 109.071 78.2308 105.582C79.2785 103.949 80.2537 101.794 82.0592 96.4437C84.2408 89.9783 84.4665 89.3095 84.4049 85.8121C84.6553 78.4468 82.8184 72.1154 79.7054 68.83C74.5162 63.6024 65.8829 64.1659 59.9085 70.0965C56.9213 73.0618 55.8708 75.4389 54.3635 80.6418C52.4828 86.2154 52.5416 90.4569 53.3335 97.6773C54.1309 103.41 55.2319 107.506 57.8908 112.873C58.9248 114.96 59.5882 116.674 59.29 116.822C59.2148 117.045 57.7991 117.56 56.5312 118.374C48.4833 121.618 40.6693 121.962 33.5351 119.554C27.9615 117.674 24.3999 114.982 20.4758 109.685C14.626 101.999 11.9917 89.9355 14.6247 82.1325C15.0761 80.7948 15.1513 80.5719 15.4467 81.1682C15.8899 82.0627 16.411 81.9902 16.7119 81.0985C17.6146 78.4231 16.3577 76.2607 14.198 76.7736C12.5594 77.214 11.2888 78.7719 10.0851 82.339C8.4301 87.2437 8.41093 92.4521 9.94962 98.9312C11.9287 107.049 17.7758 115.478 24.5284 120.489C27.4964 122.732 36.4894 125.518 40.8033 125.98C47.1265 126.376 56.5093 124.327 60.8342 121.813L62.4003 120.851L64.1783 122.941C66.55 125.48 69.7382 128.542 73.2274 130.713C77.3101 133.332 85.782 136.191 90.3941 136.505C99.6935 136.912 110.196 133.751 118.177 128.497C122.056 125.833 126.612 121.162 129.68 116.486C132.149 112.849 132.525 111.734 134.779 105.79C136.359 101.108 137.412 97.9869 137.794 95.384L138.014 96.2033ZM76.3884 100.738C75.8618 102.299 74.3655 104.526 73.4682 105.713C71.8967 108.163 67.0425 112.981 65.4012 114.166L64.4314 114.832L62.4386 110.434C54.9831 94.2606 56.9103 76.038 67.0482 71.0156C73.608 67.7659 79.1734 71.8788 80.4809 80.5148C81.3507 86.7682 79.9104 93.9804 76.6866 100.591L76.3884 100.738Z" fill="#EF4F5F"/>
</g>
<defs>
<clipPath id="clip0_919_942">
<rect width="120" height="125.647" fill="white" transform="translate(157.418 40.1719) rotate(108.646)"/>
</clipPath>
</defs>
</svg>
