<svg width="128" height="85" viewBox="0 0 128 85" fill="none" xmlns="http://www.w3.org/2000/svg">
<path d="M21.6692 35.7152C21.6692 35.7152 22.4946 37.835 21.3761 38.8809C20.8461 39.0872 18.6091 41.179 16.1656 42.7408C13.7222 44.3025 11.8088 45.6579 11.9119 45.9229C11.9119 45.9229 16.9465 43.9625 23.0411 41.5893C35.4951 36.7397 37.8799 35.8111 54.2219 33.1094C75.9081 29.2423 94.1801 29.1459 108.831 32.2902C115.841 33.8331 124.47 37.1863 125.987 38.7316C127.136 40.1151 127.122 41.6464 125.797 42.1623C124.473 42.6782 118.2 41.4589 117.89 40.664C117.374 39.3391 102.502 37.196 91.6805 36.8327C72.2008 36.1787 41.6952 40.1234 21.0995 46.0072C13.2087 48.4695 12.6788 48.6759 17.1694 48.4531C19.3338 48.5257 21.395 48.3334 21.8664 48.7602C23.2358 49.1424 24.0167 50.3641 23.7963 51.3654C23.4141 52.7349 21.456 53.1922 15.9641 53.1946C13.2698 53.3283 9.30913 53.3448 7.40971 53.1689C5.34848 53.3613 3.44906 53.1854 3.34588 52.9204C3.34588 52.9204 3.03633 52.1255 3.6249 51.286C3.9485 50.5497 4.2721 49.8133 4.16891 49.5484C3.96255 49.0184 9.61383 43.1559 13.9262 39.3406C17.3849 36.468 19.6666 35.2743 21.1392 35.9215L21.6692 35.7152Z" fill="#EF4F5F"/>
</svg>
