<svg width="180" height="49" viewBox="0 0 180 49" fill="none" xmlns="http://www.w3.org/2000/svg">
<g clip-path="url(#clip0_919_816)">
<path d="M80.5312 4.60167C69.7348 4.60167 57.6994 6.54857 47.6109 9.9114C37.1684 13.4512 26.903 19.2919 20.1773 25.4866C14.8676 30.4424 12.2127 33.4512 6.37198 41.4158C0.531281 49.3804 0.354294 49.5574 0.000305176 48.1415C-0.353668 46.7256 3.54013 39.9999 8.84985 32.9202C13.6286 26.5486 17.6994 22.3008 22.6552 18.23C29.3808 12.7433 40.5313 7.25654 51.5047 3.8937C56.2835 2.47778 68.8498 0.353882 74.1596 -9.97335e-05C83.1861 -0.531073 93.8056 0.353882 103.717 2.30078C115.575 4.77866 134.16 11.5043 146.549 17.699C156.46 22.6548 168.85 30.7964 173.806 35.2211C175.221 36.6371 173.806 34.6902 171.505 32.3893C169.204 29.9114 168.85 29.3804 169.558 28.6725C170.62 27.6105 172.921 29.0264 175.575 32.5663C177.876 36.2831 180.354 41.4158 180 42.1238C180 42.1238 179.292 42.1238 178.761 41.5928C177.345 40.7079 172.036 38.584 167.08 37.168C164.956 36.4601 163.186 35.9291 163.009 35.9291C162.655 35.7521 162.655 34.5132 163.009 34.1592C163.54 33.4512 164.956 33.8052 168.673 35.2211C172.744 36.8141 172.567 36.6371 166.903 33.0972C149.558 22.1238 128.319 13.0972 109.558 8.31848" fill="#EF4F5F"/>
</g>
<defs>
<clipPath id="clip0_919_816">
<rect width="180" height="48.8495" fill="white" transform="matrix(-1 0 0 1 180 0)"/>
</clipPath>
</defs>
</svg>
