<svg width="26" height="27" viewBox="0 0 26 27" fill="none" xmlns="http://www.w3.org/2000/svg">
<g clip-path="url(#clip0_488_210)">
<path d="M18.159 25.3311C18.1207 25.3768 18.0735 25.4143 18.0203 25.4413C17.9672 25.4683 17.9091 25.4844 17.8496 25.4884C15.7297 25.5909 13.6168 25.1741 11.6946 24.2744C7.28881 22.2554 3.75448 18.7216 1.73489 14.3161C0.835816 12.3931 0.419111 10.28 0.520874 8.15972C0.52509 8.10086 0.540866 8.04341 0.5673 7.99066C0.593735 7.9379 0.630308 7.89088 0.67493 7.85226C1.30081 7.24768 2.11208 6.87152 2.97791 6.78445C3.84374 6.69738 4.71366 6.90447 5.44739 7.37232C6.29663 7.90957 6.93871 8.7188 7.26884 9.66794C7.59897 10.6171 7.59766 11.6501 7.26513 12.5984C7.02287 13.2902 6.59901 13.9042 6.03794 14.376C7.45939 16.6407 9.3739 18.5552 11.6386 19.9766C12.1102 19.4154 12.7242 18.9915 13.4162 18.7495C16.5223 17.6447 19.9998 20.3631 19.1176 23.6536C18.9478 24.2855 18.6197 24.8638 18.1643 25.3337L18.159 25.3311ZM12.5932 8.59885H12.6248V7.50597C12.6148 7.19137 12.6696 6.87806 12.7858 6.58557C12.9021 6.29308 13.0774 6.02766 13.3007 5.80587C13.5241 5.58407 13.7907 5.41064 14.084 5.29639C14.3773 5.18214 14.691 5.12952 15.0055 5.14179C15.3199 5.12951 15.6336 5.18214 15.9268 5.2964C16.22 5.41066 16.4866 5.58411 16.7098 5.80593C16.933 6.02774 17.1082 6.29317 17.2243 6.58566C17.3404 6.87815 17.3951 7.19143 17.3848 7.50597V8.59885H17.4171C17.8742 8.60041 18.3122 8.78271 18.6355 9.10598C18.9588 9.42925 19.1411 9.86724 19.1426 10.3244V14.1225C19.1411 14.5797 18.9588 15.0177 18.6355 15.3409C18.3122 15.6642 17.8742 15.8465 17.4171 15.8481H12.5932C12.1359 15.8472 11.6975 15.6651 11.374 15.3417C11.0506 15.0183 10.8685 14.5799 10.8677 14.1225V10.3231C10.8685 9.86571 11.0506 9.42731 11.374 9.1039C11.6975 8.78048 12.1359 8.5984 12.5932 8.59753V8.59885ZM13.5149 8.59885H16.494V7.50597C16.494 7.11091 16.3371 6.73204 16.0578 6.4527C15.7784 6.17336 15.3995 6.01642 15.0045 6.01642C14.6094 6.01642 14.2306 6.17336 13.9512 6.4527C13.6719 6.73204 13.5149 7.11091 13.5149 7.50597V8.59885ZM17.4171 9.48961H12.5932C12.3722 9.49047 12.1605 9.57861 12.0041 9.73484C11.8478 9.89107 11.7595 10.1027 11.7584 10.3238V14.1225C11.7591 14.3436 11.8473 14.5555 12.0038 14.7118C12.1602 14.8681 12.3721 14.9561 12.5932 14.9566H17.4171C17.6383 14.9563 17.8504 14.8683 18.007 14.712C18.1635 14.5557 18.2518 14.3437 18.2525 14.1225V10.3231C18.2522 10.1017 18.164 9.88958 18.0073 9.73318C17.8507 9.57679 17.6384 9.48961 17.4171 9.48961ZM6.24072 6.19122C6.21129 6.24224 6.17199 6.2869 6.12513 6.32258C6.07826 6.35826 6.02476 6.38426 5.96775 6.39905C5.91073 6.41384 5.85134 6.41713 5.79304 6.40873C5.73474 6.40033 5.67869 6.3804 5.62817 6.35012C5.57765 6.31983 5.53367 6.27979 5.49878 6.23233C5.4639 6.18486 5.43881 6.13093 5.42499 6.07367C5.41116 6.01642 5.40888 5.95698 5.41826 5.89883C5.42765 5.84068 5.44851 5.78498 5.47965 5.73497C6.32183 4.32869 7.47361 3.13299 8.8474 2.2388C10.2212 1.34461 11.7808 0.775479 13.4076 0.574703C15.0345 0.373927 16.6857 0.546789 18.2356 1.08014C19.7856 1.6135 21.1935 2.49329 22.3524 3.65262C23.5112 4.81195 24.3903 6.22027 24.923 7.77048C25.4557 9.3207 25.6278 10.972 25.4263 12.5987C25.2248 14.2254 24.655 15.7848 23.7602 17.1582C22.8654 18.5316 21.6691 19.6829 20.2625 20.5244C20.1617 20.5825 20.042 20.5988 19.9294 20.5695C19.8167 20.5403 19.7201 20.468 19.6602 20.3682C19.6004 20.2683 19.5821 20.149 19.6095 20.0359C19.6368 19.9227 19.7074 19.8249 19.8062 19.7633C21.0963 18.9907 22.1931 17.9342 23.0135 16.674C23.8339 15.4139 24.3561 13.9832 24.5406 12.4909C24.725 10.9986 24.5668 9.48388 24.0779 8.06189C23.5891 6.6399 22.7825 5.34809 21.7194 4.28465C20.6563 3.22121 19.3648 2.41415 17.943 1.92481C16.5211 1.43547 15.0065 1.27674 13.5141 1.46068C12.0217 1.64462 10.5909 2.16639 9.33046 2.98633C8.07001 3.80627 7.01309 4.90279 6.24006 6.19254L6.24072 6.19122ZM1.39847 8.39475C1.3435 10.3135 1.73758 12.2185 2.54928 13.9579C4.48082 18.158 7.8513 21.5285 12.0514 23.46C13.7904 24.2724 15.6953 24.667 17.6139 24.6122C17.9152 24.2691 18.1337 23.8614 18.2525 23.4205C18.9497 20.8207 16.1412 18.7185 13.7098 19.5836C13.063 19.8089 12.5068 20.2379 12.1245 20.8062C12.0915 20.8559 12.0489 20.8985 11.9991 20.9313C11.9493 20.9642 11.8934 20.9867 11.8347 20.9976C11.776 21.0084 11.7158 21.0073 11.6576 20.9943C11.5993 20.9813 11.5443 20.9567 11.4958 20.9221C8.86105 19.3516 6.65815 17.1508 5.08529 14.5175C5.05051 14.469 5.02587 14.414 5.01285 14.3557C4.99982 14.2975 4.99869 14.2372 5.00951 14.1785C5.02032 14.1198 5.04287 14.0639 5.07581 14.0141C5.10874 13.9643 5.15137 13.9217 5.20116 13.8888C5.76973 13.5068 6.1988 12.9504 6.42374 12.3034C6.68785 11.5468 6.68914 10.7231 6.4274 9.96564C6.16566 9.20813 5.65618 8.561 4.98127 8.12878C4.43561 7.77907 3.79117 7.61593 3.14484 7.6639C2.49851 7.71186 1.88522 7.96833 1.39715 8.39475" fill="#393939"/>
<path d="M1.39847 8.39475C1.3435 10.3135 1.73758 12.2185 2.54928 13.9579C4.48082 18.158 7.8513 21.5285 12.0514 23.46C13.7904 24.2724 15.6953 24.667 17.6139 24.6122C17.9152 24.2691 18.1337 23.8614 18.2525 23.4205C18.9497 20.8207 16.1412 18.7185 13.7098 19.5836C13.063 19.8089 12.5068 20.2379 12.1245 20.8062C12.0915 20.8559 12.0489 20.8985 11.9991 20.9313C11.9493 20.9642 11.8934 20.9867 11.8347 20.9976C11.776 21.0084 11.7158 21.0073 11.6576 20.9943C11.5993 20.9813 11.5443 20.9567 11.4958 20.9221C8.86105 19.3516 6.65815 17.1508 5.08529 14.5175C5.05051 14.469 5.02587 14.414 5.01285 14.3557C4.99982 14.2975 4.99869 14.2372 5.00951 14.1785C5.02032 14.1198 5.04287 14.0639 5.07581 14.0141C5.10874 13.9643 5.15137 13.9217 5.20116 13.8888C5.76973 13.5068 6.1988 12.9504 6.42374 12.3034C6.68785 11.5468 6.68914 10.7231 6.4274 9.96564C6.16566 9.20813 5.65618 8.561 4.98127 8.12878C4.43561 7.77907 3.79117 7.61593 3.14484 7.6639C2.49851 7.71186 1.88522 7.96833 1.39715 8.39475M18.159 25.3311C18.1207 25.3768 18.0735 25.4143 18.0203 25.4413C17.9672 25.4683 17.9091 25.4844 17.8496 25.4884C15.7297 25.5909 13.6168 25.1741 11.6946 24.2744C7.28881 22.2554 3.75448 18.7216 1.73489 14.3161C0.835816 12.3931 0.419111 10.28 0.520874 8.15972C0.52509 8.10086 0.540866 8.04341 0.5673 7.99066C0.593735 7.9379 0.630308 7.89088 0.67493 7.85226C1.30081 7.24768 2.11208 6.87152 2.97791 6.78445C3.84374 6.69738 4.71366 6.90447 5.44739 7.37232C6.29663 7.90957 6.93871 8.7188 7.26884 9.66794C7.59897 10.6171 7.59766 11.6501 7.26513 12.5984C7.02287 13.2902 6.59901 13.9042 6.03794 14.376C7.45939 16.6407 9.3739 18.5552 11.6386 19.9766C12.1102 19.4154 12.7242 18.9915 13.4162 18.7495C16.5223 17.6447 19.9998 20.3631 19.1176 23.6536C18.9478 24.2855 18.6197 24.8638 18.1643 25.3337L18.159 25.3311ZM12.5932 8.59885H12.6248V7.50597C12.6148 7.19137 12.6696 6.87806 12.7858 6.58557C12.9021 6.29307 13.0774 6.02766 13.3007 5.80587C13.5241 5.58407 13.7907 5.41064 14.084 5.29639C14.3773 5.18214 14.691 5.12952 15.0055 5.14179C15.3199 5.12951 15.6336 5.18214 15.9268 5.2964C16.22 5.41066 16.4866 5.58411 16.7098 5.80593C16.933 6.02774 17.1082 6.29317 17.2243 6.58566C17.3404 6.87815 17.3951 7.19143 17.3848 7.50597V8.59885H17.4171C17.8742 8.60041 18.3122 8.78271 18.6355 9.10598C18.9588 9.42925 19.1411 9.86724 19.1426 10.3244V14.1225C19.1411 14.5797 18.9588 15.0177 18.6355 15.3409C18.3122 15.6642 17.8742 15.8465 17.4171 15.8481H12.5932C12.1359 15.8472 11.6975 15.6651 11.374 15.3417C11.0506 15.0183 10.8685 14.5799 10.8677 14.1225V10.3231C10.8685 9.86571 11.0506 9.42731 11.374 9.1039C11.6975 8.78048 12.1359 8.5984 12.5932 8.59753V8.59885ZM13.5149 8.59885H16.494V7.50597C16.494 7.11091 16.3371 6.73204 16.0578 6.4527C15.7784 6.17336 15.3995 6.01642 15.0045 6.01642C14.6094 6.01642 14.2306 6.17336 13.9512 6.4527C13.6719 6.73204 13.5149 7.11091 13.5149 7.50597V8.59885ZM17.4171 9.48961H12.5932C12.3722 9.49047 12.1605 9.57861 12.0041 9.73484C11.8478 9.89107 11.7595 10.1027 11.7584 10.3238V14.1225C11.7591 14.3436 11.8473 14.5555 12.0038 14.7118C12.1602 14.8681 12.3721 14.9561 12.5932 14.9566H17.4171C17.6383 14.9563 17.8504 14.8683 18.007 14.712C18.1635 14.5557 18.2518 14.3437 18.2525 14.1225V10.3231C18.2522 10.1017 18.164 9.88958 18.0073 9.73319C17.8507 9.57679 17.6384 9.48961 17.4171 9.48961ZM6.24072 6.19122C6.21129 6.24224 6.17199 6.2869 6.12513 6.32258C6.07826 6.35826 6.02476 6.38426 5.96775 6.39905C5.91073 6.41384 5.85134 6.41713 5.79304 6.40873C5.73474 6.40033 5.67869 6.3804 5.62817 6.35012C5.57765 6.31983 5.53367 6.27979 5.49878 6.23233C5.4639 6.18486 5.43881 6.13093 5.42499 6.07367C5.41116 6.01642 5.40888 5.95698 5.41826 5.89883C5.42765 5.84068 5.44851 5.78498 5.47965 5.73497C6.32183 4.32869 7.47361 3.13299 8.8474 2.2388C10.2212 1.34461 11.7808 0.775479 13.4076 0.574703C15.0345 0.373927 16.6857 0.546789 18.2356 1.08014C19.7856 1.6135 21.1935 2.49329 22.3524 3.65262C23.5112 4.81195 24.3903 6.22027 24.923 7.77048C25.4557 9.3207 25.6278 10.972 25.4263 12.5987C25.2248 14.2254 24.655 15.7848 23.7602 17.1582C22.8654 18.5316 21.6691 19.6829 20.2625 20.5244C20.1617 20.5825 20.042 20.5988 19.9294 20.5695C19.8167 20.5403 19.7201 20.468 19.6602 20.3682C19.6004 20.2683 19.5821 20.149 19.6095 20.0359C19.6368 19.9227 19.7074 19.8249 19.8062 19.7633C21.0963 18.9907 22.1931 17.9342 23.0135 16.674C23.8339 15.4139 24.3561 13.9832 24.5406 12.4909C24.725 10.9986 24.5668 9.48388 24.0779 8.06189C23.5891 6.6399 22.7825 5.34809 21.7194 4.28465C20.6563 3.22121 19.3648 2.41415 17.943 1.92481C16.5211 1.43547 15.0065 1.27674 13.5141 1.46068C12.0217 1.64462 10.5909 2.16639 9.33046 2.98633C8.07001 3.80627 7.01309 4.90279 6.24006 6.19254L6.24072 6.19122Z" stroke="#393939" stroke-width="1.5"/>
</g>
<defs>
<clipPath id="clip0_488_210">
<rect width="26" height="26.0988" fill="white"/>
</clipPath>
</defs>
</svg>
