<svg width="13" height="20" viewBox="0 0 13 20" fill="none" xmlns="http://www.w3.org/2000/svg">
<path d="M7.05307 0.327654C6.98496 0.226764 6.89314 0.144129 6.78566 0.0870018C6.67817 0.0298744 6.55831 0 6.43658 0C6.31486 0 6.195 0.0298744 6.08751 0.0870018C5.98003 0.144129 5.8882 0.226764 5.8201 0.327654C5.22436 1.33891 0 10.3022 0 13.5634C2.54376e-08 15.2705 0.678138 16.9077 1.88523 18.1148C3.09233 19.3219 4.7295 20 6.43658 20C8.14367 20 9.78084 19.3219 10.9879 18.1148C12.195 16.9077 12.8732 15.2705 12.8732 13.5634C12.8732 10.3022 7.65238 1.33891 7.05307 0.327654ZM6.43658 16.7817C6.24691 16.7817 6.065 16.7064 5.93088 16.5722C5.79676 16.4381 5.72141 16.2562 5.72141 16.0665C5.72141 15.8769 5.79676 15.6949 5.93088 15.5608C6.065 15.4267 6.24691 15.3514 6.43658 15.3514C7.00561 15.3514 7.55134 15.1253 7.9537 14.7229C8.35607 14.3206 8.58211 13.7749 8.58211 13.2058C8.58211 13.0162 8.65746 12.8342 8.79158 12.7001C8.9257 12.566 9.10761 12.4907 9.29729 12.4907C9.48696 12.4907 9.66887 12.566 9.80299 12.7001C9.93712 12.8342 10.0125 13.0162 10.0125 13.2058C10.0113 14.1539 9.63422 15.0627 8.96386 15.7331C8.2935 16.4035 7.38462 16.7806 6.43658 16.7817Z" fill="#292929"/>
</svg>
