<svg width="100" height="100" viewBox="0 0 100 100" fill="none" xmlns="http://www.w3.org/2000/svg">
<path d="M50 100C77.6142 100 100 77.6142 100 50C100 22.3858 77.6142 0 50 0C22.3858 0 0 22.3858 0 50C0 77.6142 22.3858 100 50 100Z" fill="#EF4F5F"/>
<path d="M51 55.2586L36.0951 70.1635C35.5374 70.7212 34.8276 71 33.9658 71C33.1039 71 32.3942 70.7212 31.8365 70.1635C31.2788 69.6058 31 68.8961 31 68.0342C31 67.1724 31.2788 66.4626 31.8365 65.9049L46.7414 51L31.8365 36.0951C31.2788 35.5374 31 34.8276 31 33.9658C31 33.1039 31.2788 32.3942 31.8365 31.8365C32.3942 31.2788 33.1039 31 33.9658 31C34.8276 31 35.5374 31.2788 36.0951 31.8365L51 46.7414L65.9049 31.8365C66.4626 31.2788 67.1724 31 68.0342 31C68.8961 31 69.6058 31.2788 70.1635 31.8365C70.7212 32.3942 71 33.1039 71 33.9658C71 34.8276 70.7212 35.5374 70.1635 36.0951L55.2586 51L70.1635 65.9049C70.7212 66.4626 71 67.1724 71 68.0342C71 68.8961 70.7212 69.6058 70.1635 70.1635C69.6058 70.7212 68.8961 71 68.0342 71C67.1724 71 66.4626 70.7212 65.9049 70.1635L51 55.2586Z" fill="white"/>
</svg>
