<svg width="500" height="183" viewBox="0 0 500 183" fill="none" xmlns="http://www.w3.org/2000/svg">
<g clip-path="url(#clip0_992_51)">
<path d="M182.292 182.291H140.625V169.284H169.271V158.867H182.292V182.304V182.291ZM127.604 182.291H101.562V169.284H127.604V182.304V182.291ZM67.7083 182.291H0V114.583H67.7083V182.291ZM13.0208 130.221V169.284H52.0833V130.221H13.0208ZM44.2708 161.471H20.8333V138.034H44.2708V161.471ZM70.3125 98.971H0V85.9502H70.3125V98.971ZM67.7083 67.721H0V0.0126953H67.7083V67.721ZM13.0208 13.0335V52.096H52.0833V13.0335H13.0208ZM130.208 49.4919H114.583V0.0126953H182.292V49.4919H169.271V13.0335H130.208V49.4919ZM98.9583 49.4919H83.3333V28.6585H98.9583V49.4919ZM161.458 44.2835H138.021V20.846H161.458V44.2835ZM44.2708 44.2835H20.8333V20.846H44.2708V44.2835ZM98.9583 20.846H83.3333V0.0126953H98.9583V20.846Z" fill="white"/>
<path d="M483.135 117.641C483.135 119.411 483.017 121.005 482.781 122.422H446.922C447.217 125.963 448.456 128.738 450.64 130.745C452.824 132.752 455.51 133.755 458.698 133.755C463.302 133.755 466.578 131.778 468.526 127.823H481.896C480.479 132.545 477.764 136.441 473.75 139.51C469.736 142.521 464.807 144.026 458.963 144.026C454.241 144.026 449.991 142.993 446.213 140.927C442.494 138.802 439.573 135.821 437.448 131.984C435.382 128.147 434.349 123.72 434.349 118.703C434.349 113.627 435.382 109.17 437.448 105.333C439.514 101.496 442.406 98.5451 446.125 96.4791C449.843 94.4131 454.123 93.3801 458.963 93.3801C463.626 93.3801 467.788 94.3836 471.448 96.3905C475.166 98.3975 478.029 101.26 480.036 104.979C482.102 108.639 483.135 112.859 483.135 117.641ZM470.297 114.099C470.238 110.911 469.087 108.373 466.843 106.484C464.6 104.536 461.856 103.562 458.609 103.562C455.54 103.562 452.942 104.507 450.817 106.396C448.751 108.226 447.482 110.793 447.01 114.099H470.297Z" fill="white"/>
<path d="M419.18 88.3333C416.996 88.3333 415.166 87.6545 413.69 86.2969C412.274 84.8802 411.565 83.1389 411.565 81.0729C411.565 79.0069 412.274 77.2951 413.69 75.9375C415.166 74.5208 416.996 73.8125 419.18 73.8125C421.364 73.8125 423.164 74.5208 424.581 75.9375C426.057 77.2951 426.795 79.0069 426.795 81.0729C426.795 83.1389 426.057 84.8802 424.581 86.2969C423.164 87.6545 421.364 88.3333 419.18 88.3333ZM425.289 94.1771V143.229H412.894V94.1771H425.289Z" fill="white"/>
<path d="M381.538 93.4688C387.382 93.4688 392.104 95.3281 395.704 99.0469C399.305 102.707 401.105 107.842 401.105 114.453V143.229H388.71V116.135C388.71 112.24 387.736 109.259 385.788 107.193C383.84 105.068 381.184 104.005 377.819 104.005C374.395 104.005 371.68 105.068 369.673 107.193C367.725 109.259 366.751 112.24 366.751 116.135V143.229H354.355V94.1771H366.751V100.286C368.404 98.1615 370.5 96.5087 373.038 95.3281C375.635 94.0885 378.468 93.4688 381.538 93.4688Z" fill="white"/>
<path d="M345.308 117.641C345.308 119.411 345.19 121.005 344.954 122.422H309.094C309.39 125.963 310.629 128.738 312.813 130.745C314.997 132.752 317.683 133.755 320.87 133.755C325.475 133.755 328.751 131.778 330.699 127.823H344.068C342.652 132.545 339.936 136.441 335.923 139.51C331.909 142.521 326.98 144.026 321.136 144.026C316.414 144.026 312.164 142.993 308.386 140.927C304.667 138.802 301.745 135.821 299.62 131.984C297.554 128.147 296.521 123.72 296.521 118.703C296.521 113.627 297.554 109.17 299.62 105.333C301.686 101.496 304.579 98.5451 308.298 96.4791C312.016 94.4131 316.296 93.3801 321.136 93.3801C325.799 93.3801 329.961 94.3836 333.62 96.3905C337.339 98.3975 340.202 101.26 342.209 104.979C344.275 108.639 345.308 112.859 345.308 117.641ZM332.469 114.099C332.41 110.911 331.259 108.373 329.016 106.484C326.773 104.536 324.028 103.562 320.782 103.562C317.712 103.562 315.115 104.507 312.99 106.396C310.924 108.226 309.655 110.793 309.183 114.099H332.469Z" fill="white"/>
<path d="M274.777 100.021C273.36 97.4235 271.412 95.4461 268.933 94.0885C266.454 92.7308 263.562 92.052 260.256 92.052C256.596 92.052 253.35 92.8784 250.517 94.5312C247.683 96.1839 245.47 98.5451 243.876 101.615C242.282 104.684 241.485 108.226 241.485 112.24C241.485 116.371 242.282 119.972 243.876 123.042C245.529 126.111 247.801 128.472 250.694 130.125C253.586 131.778 256.951 132.604 260.787 132.604C265.51 132.604 269.376 131.365 272.386 128.885C275.397 126.347 277.374 122.835 278.319 118.349H257.069V108.875H290.537V119.677C289.711 123.986 287.94 127.97 285.225 131.63C282.51 135.29 278.998 138.241 274.688 140.484C270.438 142.668 265.657 143.76 260.345 143.76C254.383 143.76 248.982 142.432 244.142 139.776C239.36 137.061 235.583 133.312 232.808 128.531C230.093 123.75 228.735 118.319 228.735 112.24C228.735 106.16 230.093 100.729 232.808 95.9478C235.583 91.1076 239.36 87.3593 244.142 84.703C248.982 81.9878 254.353 80.6301 260.256 80.6301C267.221 80.6301 273.272 82.3419 278.407 85.7655C283.543 89.1301 287.084 93.8819 289.032 100.021H274.777Z" fill="white"/>
<path d="M185.801 143.229L172.165 119.146H166.322V143.229H153.926V81.427H177.124C181.905 81.427 185.978 82.2829 189.342 83.9947C192.707 85.6475 195.216 87.9201 196.868 90.8124C198.58 93.6458 199.436 96.8332 199.436 100.375C199.436 104.448 198.256 108.137 195.895 111.443C193.533 114.689 190.021 116.932 185.358 118.172L200.145 143.229H185.801ZM166.322 109.849H176.681C180.046 109.849 182.554 109.052 184.207 107.458C185.86 105.805 186.686 103.533 186.686 100.641C186.686 97.8072 185.86 95.6232 184.207 94.0885C182.554 92.4947 180.046 91.6978 176.681 91.6978H166.322V109.849Z" fill="white"/>
<path d="M130.276 154.12L120.89 142.875C118.293 143.524 115.637 143.849 112.922 143.849C107.137 143.849 101.824 142.491 96.9841 139.776C92.1438 137.061 88.307 133.313 85.4736 128.531C82.6403 123.691 81.2236 118.231 81.2236 112.151C81.2236 106.13 82.6403 100.729 85.4736 95.948C88.307 91.1077 92.1438 87.3299 96.9841 84.6147C101.824 81.8994 107.137 80.5417 112.922 80.5417C118.765 80.5417 124.078 81.8994 128.859 84.6147C133.699 87.3299 137.507 91.1077 140.281 95.948C143.114 100.729 144.531 106.13 144.531 112.151C144.531 117.641 143.35 122.658 140.989 127.203C138.687 131.689 135.529 135.349 131.515 138.182L145.682 154.12H130.276ZM93.9736 112.151C93.9736 116.283 94.7705 119.913 96.3643 123.042C97.958 126.17 100.172 128.59 103.005 130.302C105.897 131.955 109.203 132.781 112.922 132.781C116.64 132.781 119.916 131.955 122.75 130.302C125.583 128.59 127.797 126.17 129.39 123.042C130.984 119.913 131.781 116.283 131.781 112.151C131.781 108.019 130.984 104.418 129.39 101.349C127.797 98.2206 125.583 95.8299 122.75 94.1772C119.916 92.5244 116.64 91.698 112.922 91.698C109.203 91.698 105.897 92.5244 103.005 94.1772C100.172 95.8299 97.958 98.2206 96.3643 101.349C94.7705 104.418 93.9736 108.019 93.9736 112.151Z" fill="white"/>
<path d="M489.062 148.438H233.854C232.416 148.438 231.25 149.603 231.25 151.042V153.646C231.25 155.084 232.416 156.25 233.854 156.25H489.062C490.501 156.25 491.667 155.084 491.667 153.646V151.042C491.667 149.603 490.501 148.438 489.062 148.438Z" fill="white"/>
</g>
<defs>
<clipPath id="clip0_992_51">
<rect width="500" height="182.292" fill="white"/>
</clipPath>
</defs>
</svg>
