<svg width="64" height="64" viewBox="0 0 64 64" fill="none" xmlns="http://www.w3.org/2000/svg">
<g clip-path="url(#clip0_919_627)">
<rect y="-0.000488281" width="64" height="64" rx="8" fill="#EA5158"/>
<path d="M46.7693 23.1996H31.0881C29.8263 23.1996 28.8008 24.2251 28.8008 25.4963V34.7466C28.8008 36.0177 29.8263 37.0433 31.0881 37.0433H32.5654C32.7098 37.0433 32.8223 37.1558 32.8223 37.2889V39.7712C32.7942 40.6861 34.0016 41.1492 34.5959 40.4574L37.6106 37.1239C37.6612 37.0733 37.7231 37.0414 37.7944 37.0414H46.7672C48.029 37.0414 49.0545 36.0159 49.0545 34.7447V25.4945C49.0545 24.2233 48.029 23.1978 46.7672 23.1978L46.7693 23.1996ZM35.0367 29.0134C33.6924 28.989 33.6868 26.9885 35.0367 26.9623H42.8212C44.1654 26.9867 44.1711 28.9872 42.8212 29.0134H35.0367ZM36.9134 31.2294H40.9443C41.5087 31.2294 41.9699 31.6906 41.9699 32.255C41.9699 32.8287 41.5087 33.2805 40.9443 33.2805H36.9134C35.5673 33.2617 35.5636 31.2556 36.9134 31.2294Z" fill="white"/>
<path d="M38.5968 39.0944L36.1145 41.8335C34.3147 43.9165 30.702 42.5216 30.7711 39.7712V39.0738C28.5251 38.9088 26.7515 37.0321 26.7515 34.7466V25.4964C26.7515 23.0966 28.6994 21.1486 31.0899 21.1486H39.6543V15.3948C39.6543 13.5181 38.1357 11.9995 36.259 11.9995H33.6229C33.4504 12.562 33.0848 13.805 32.9161 14.3787C32.5974 15.4342 31.645 16.1429 30.5463 16.1429H24.1062C23.0094 16.1429 22.0551 15.4361 21.7364 14.39C21.5789 13.8275 21.1946 12.5601 21.0295 12.0014H18.4047C16.528 12.0014 15 13.52 15 15.3967V48.6042C15 50.4809 16.528 51.9995 18.4047 51.9995H36.2588C38.1355 51.9995 39.6541 50.4809 39.6541 48.6042V39.0967H38.5986L38.5968 39.0944ZM25.336 46.1925H29.3145C29.8882 46.1925 30.34 46.6537 30.34 47.2181C30.34 47.7824 29.8882 48.2436 29.3145 48.2436H25.336C23.9899 48.2173 23.988 46.2187 25.336 46.1925Z" fill="white"/>
<path d="M23.7043 13.7952C23.755 13.9696 23.92 14.0933 24.1037 14.0933H30.5438C30.7275 14.0933 30.8925 13.9696 30.9431 13.7952C31.0725 13.3621 31.3425 12.4378 31.4756 12.001H23.168C23.3067 12.4416 23.5711 13.3602 23.7004 13.7952H23.7043Z" fill="white"/>
</g>
<defs>
<clipPath id="clip0_919_627">
<rect width="64" height="64" fill="white" transform="translate(0 -0.000488281)"/>
</clipPath>
</defs>
</svg>
