<svg width="64" height="64" viewBox="0 0 64 64" fill="none" xmlns="http://www.w3.org/2000/svg">
<g clip-path="url(#clip0_919_612)">
<rect width="64" height="64" rx="8" fill="#EA5158"/>
<path d="M45.2439 44.6338H42.2474V32.5509C42.2474 27.7567 38.8348 23.7524 34.3222 22.8466L34.0622 22.1473C33.728 21.2486 32.8877 20.645 31.9712 20.645C30.9338 20.645 30.017 21.3582 29.7919 22.3412L29.637 23.0176C25.1025 24.2389 21.7522 28.3976 21.7522 33.3318V44.6341H17.8383C17.3899 44.6341 17.0254 45.0006 17.0254 45.4506C17.0254 45.9006 17.3899 46.267 17.8383 46.267H25.8899C26.0493 47.5645 26.6115 48.7545 27.5228 49.6774C28.5912 50.759 30.0154 51.3548 31.5335 51.3548C34.4625 51.3548 36.8232 49.1774 37.2232 46.2667H45.2435C45.6919 46.2667 46.0564 45.9003 46.0564 45.4503C46.0564 45.0003 45.6923 44.6338 45.2439 44.6338ZM27.5286 33.8596H31.3496V29.9886C31.3496 29.6279 31.6409 29.3354 32 29.3354C32.359 29.3354 32.6503 29.6279 32.6503 29.9886V33.8596H36.4713C36.8303 33.8596 37.1216 34.1522 37.1216 34.5128C37.1216 34.8735 36.8303 35.166 36.4713 35.166H32.6503V39.037C32.6503 39.3977 32.359 39.6902 32 39.6902C31.6409 39.6902 31.3496 39.3977 31.3496 39.037V35.166H27.5286C27.1696 35.166 26.8783 34.8735 26.8783 34.5128C26.8783 34.1522 27.1696 33.8596 27.5286 33.8596Z" fill="white"/>
<path d="M31.935 18.0384C32.3834 18.0384 32.7479 17.672 32.7479 17.222V12.8165C32.7479 12.3665 32.3834 12 31.935 12C31.4866 12 31.1221 12.3665 31.1221 12.8165V17.222C31.1221 17.6723 31.4866 18.0384 31.935 18.0384Z" fill="white"/>
<path d="M22.3471 20.1064C22.4916 20.3596 22.7619 20.5171 23.0532 20.5171C23.1942 20.5171 23.3335 20.4796 23.4564 20.409C23.8454 20.1851 23.9806 19.6854 23.7577 19.2945L21.5806 15.479C21.4725 15.2899 21.298 15.1541 21.0883 15.097C20.8787 15.0403 20.6593 15.0683 20.4712 15.1764C20.0822 15.4003 19.947 15.8999 20.1699 16.2909L22.3471 20.1064Z" fill="white"/>
<path d="M17.286 26.7512C17.5112 26.3621 17.3793 25.8612 16.9918 25.6347L13.2215 23.4318C12.8338 23.2053 12.3354 23.3382 12.1099 23.727C11.8847 24.116 12.0167 24.617 12.4041 24.8434L16.1747 27.0463C16.2986 27.1189 16.4399 27.1573 16.5828 27.1573C16.8715 27.157 17.1409 27.0015 17.286 26.7512Z" fill="white"/>
<path d="M51.8899 23.5021C51.6647 23.1127 51.1654 22.9805 50.7783 23.2066L47.0073 25.4092C46.6202 25.6357 46.4883 26.1366 46.7134 26.5253C46.8586 26.776 47.1279 26.9318 47.417 26.9318C47.5596 26.9318 47.7008 26.8934 47.825 26.8208L51.596 24.6182C51.9834 24.3915 52.1151 23.8908 51.8899 23.5021Z" fill="white"/>
<path d="M40.4494 20.2783C40.5727 20.349 40.712 20.3867 40.853 20.3867C41.1443 20.3867 41.4146 20.2293 41.5591 19.9761L43.7362 16.1609C43.9591 15.7699 43.824 15.2703 43.4349 15.0464C43.0459 14.8225 42.5482 14.9583 42.3256 15.349L40.1485 19.1638C39.9256 19.5548 40.0607 20.0545 40.4494 20.2783Z" fill="white"/>
</g>
<defs>
<clipPath id="clip0_919_612">
<rect width="64" height="64" fill="white"/>
</clipPath>
</defs>
</svg>
