<svg width="64" height="64" viewBox="0 0 64 64" fill="none" xmlns="http://www.w3.org/2000/svg">
<g clip-path="url(#clip0_919_591)">
<rect width="64" height="64" rx="8" fill="#EA5158"/>
<path d="M33.1061 12.6553C32.9699 12.4535 32.7863 12.2883 32.5713 12.174C32.3563 12.0597 32.1166 12 31.8732 12C31.6297 12 31.39 12.0597 31.175 12.174C30.9601 12.2883 30.7764 12.4535 30.6402 12.6553C29.4487 14.6778 19 32.6044 19 39.1268C19 42.541 20.3563 45.8153 22.7705 48.2295C25.1847 50.6437 28.459 52 31.8732 52C35.2873 52 38.5617 50.6437 40.9759 48.2295C43.3901 45.8153 44.7463 42.541 44.7463 39.1268C44.7463 32.6044 34.3048 14.6778 33.1061 12.6553ZM31.8732 45.5634C31.4938 45.5634 31.13 45.4127 30.8618 45.1445C30.5935 44.8762 30.4428 44.5124 30.4428 44.1331C30.4428 43.7537 30.5935 43.3899 30.8618 43.1217C31.13 42.8534 31.4938 42.7027 31.8732 42.7027C33.0112 42.7027 34.1027 42.2506 34.9074 41.4459C35.7121 40.6412 36.1642 39.5497 36.1642 38.4117C36.1642 38.0323 36.3149 37.6685 36.5832 37.4002C36.8514 37.132 37.2152 36.9813 37.5946 36.9813C37.9739 36.9813 38.3377 37.132 38.606 37.4002C38.8742 37.6685 39.0249 38.0323 39.0249 38.4117C39.0227 40.3077 38.2684 42.1255 36.9277 43.4662C35.587 44.8069 33.7692 45.5611 31.8732 45.5634Z" fill="white"/>
</g>
<defs>
<clipPath id="clip0_919_591">
<rect width="64" height="64" fill="white"/>
</clipPath>
</defs>
</svg>
