<svg width="64" height="64" viewBox="0 0 64 64" fill="none" xmlns="http://www.w3.org/2000/svg">
<g clip-path="url(#clip0_1137_3)">
<rect width="64" height="64" rx="8" fill="#EA5158"/>
<path fill-rule="evenodd" clip-rule="evenodd" d="M39.0607 40.2833C39.0799 40.1845 39.1297 40.0942 39.2031 40.0253C39.2121 40.0167 39.2216 40.0081 39.2311 40.0004C39.274 39.9268 39.3156 39.8522 39.3558 39.7776C39.3644 39.7586 39.3744 39.7401 39.3857 39.7225C40.1096 38.3575 40.4681 36.8284 40.4265 35.2838C40.3849 33.7393 39.9445 32.2318 39.1481 30.9077C38.3517 29.5836 37.2264 28.488 35.8815 27.7273C34.5366 26.9666 33.0179 26.5667 31.4728 26.5664C29.9276 26.5661 28.4087 26.9654 27.0635 27.7256C25.7183 28.4857 24.5926 29.5809 23.7957 30.9046C22.9988 32.2284 22.5578 33.7357 22.5155 35.2803C22.4733 36.8248 22.8312 38.354 23.5546 39.7193C23.5665 39.7383 23.577 39.7581 23.5862 39.7785C24.6892 41.8183 26.5396 43.3513 28.7488 44.056C30.958 44.7606 33.3543 44.5819 35.4346 43.5575C35.4409 43.5507 35.4472 43.5444 35.454 43.538C35.526 43.4702 35.6172 43.4263 35.7152 43.4124C37.0805 42.6743 38.2323 41.5966 39.0594 40.2833H39.0607ZM26.1527 29.8694L26.164 29.8603C27.6637 28.4549 29.6598 27.7018 31.7141 27.7663C33.7685 27.8308 35.7133 28.7075 37.122 30.2042L37.1315 30.2155C37.5907 30.705 37.9846 31.2518 38.3033 31.8424C38.3173 31.8642 38.3295 31.887 38.3399 31.9107C39.2223 33.594 39.4587 35.5419 39.0047 37.3875C39.0001 37.4153 38.9931 37.4426 38.9839 37.4693C38.7248 38.4745 38.2654 39.4171 37.6331 40.2404C37.6203 40.2599 37.6061 40.2785 37.5907 40.296C37.3465 40.6081 37.079 40.9012 36.7903 41.1727L36.779 41.1822C35.2773 42.59 33.2779 43.3436 31.2206 43.2773C29.1633 43.2109 27.2166 42.33 25.8088 40.8283C25.6479 40.656 25.4962 40.4789 25.3537 40.2969C25.3372 40.2791 25.3221 40.26 25.3085 40.24C24.6758 39.4163 24.216 38.4732 23.9568 37.4674C23.9481 37.4423 23.9414 37.4164 23.9369 37.3902C23.4811 35.5439 23.7168 33.5947 24.5994 31.9102C24.6094 31.887 24.6212 31.8647 24.6347 31.8433C25.0308 31.1081 25.5433 30.4418 26.1522 29.8703L26.1527 29.8694ZM16.6294 19.7383H13.9577C13.9459 19.738 13.9342 19.7401 13.9233 19.7445C13.9123 19.7488 13.9024 19.7553 13.894 19.7636C13.8857 19.772 13.8792 19.782 13.8748 19.7929C13.8705 19.8039 13.8684 19.8156 13.8687 19.8273V20.7651C13.8697 21.0376 13.9784 21.2986 14.1711 21.4914C14.3637 21.6841 14.6247 21.7929 14.8972 21.7941H16.0162L16.6312 19.7365L16.6294 19.7383ZM47.9856 21.7959H49.1046C49.377 21.7945 49.6379 21.6856 49.8305 21.4929C50.0231 21.3002 50.1318 21.0393 50.1331 20.7669V19.8292C50.133 19.8173 50.1306 19.8055 50.1259 19.7946C50.1213 19.7837 50.1145 19.7738 50.106 19.7654C50.0976 19.7572 50.0877 19.7506 50.0767 19.7463C50.0658 19.7419 50.0541 19.7399 50.0423 19.7401H47.3706L47.9856 21.7977V21.7959ZM47.1776 22.4399L47.4058 23.2036H16.5942L16.8201 22.4399C16.8264 22.4226 16.8316 22.4049 16.836 22.387L17.7226 19.422C17.7287 19.405 17.7338 19.3876 17.738 19.37L18.9948 15.1672C19.1751 14.5364 19.558 13.9825 20.0844 13.5909C20.6108 13.1993 21.2514 12.9917 21.9074 13.0003H42.0926C42.7482 12.9922 43.3882 13.1999 43.9141 13.5914C44.44 13.9829 44.8226 14.5364 45.003 15.1667L46.2598 19.3696C46.2639 19.3872 46.2691 19.4045 46.2751 19.4215L47.1618 22.3866C47.1659 22.4045 47.1712 22.4222 47.1776 22.4394V22.4399ZM18.4507 29.4175C18.1456 29.1125 17.7442 28.9227 17.3149 28.8805C16.8856 28.8383 16.4549 28.9462 16.0963 29.186C15.7376 29.4257 15.4732 29.7823 15.348 30.1951C15.2229 30.6079 15.2447 31.0514 15.4098 31.4499C15.5749 31.8484 15.8731 32.1774 16.2536 32.3807C16.634 32.584 17.0732 32.6491 17.4963 32.5649C17.9194 32.4808 18.3002 32.2525 18.5738 31.919C18.8475 31.5856 18.997 31.1675 18.997 30.7362C18.9973 30.4912 18.9492 30.2486 18.8554 30.0223C18.7617 29.796 18.6241 29.5904 18.4507 29.4175ZM17.132 27.9135C17.7855 27.9135 18.4189 28.14 18.9241 28.5546C19.4293 28.9692 19.7752 29.5462 19.9027 30.1872C20.0302 30.8282 19.9316 31.4936 19.6235 32.07C19.3154 32.6464 18.817 33.0981 18.2132 33.3483C17.6094 33.5984 16.9376 33.6314 16.3121 33.4417C15.6867 33.252 15.1464 32.8513 14.7833 32.3079C14.4202 31.7645 14.2567 31.112 14.3207 30.4616C14.3848 29.8112 14.6724 29.2031 15.1345 28.7409C15.3964 28.4781 15.7078 28.2697 16.0506 28.1277C16.3934 27.9857 16.7609 27.9129 17.132 27.9135ZM48.1858 29.4193C47.8807 29.114 47.4792 28.9239 47.0497 28.8814C46.6202 28.839 46.1892 28.9468 45.8302 29.1865C45.4713 29.4262 45.2066 29.7829 45.0812 30.1959C44.9558 30.609 44.9775 31.0527 45.1426 31.4515C45.3077 31.8503 45.606 32.1795 45.9866 32.383C46.3672 32.5865 46.8066 32.6518 47.23 32.5676C47.6533 32.4835 48.0344 32.2551 48.3082 31.9215C48.5821 31.5878 48.7317 31.1696 48.7317 30.738C48.732 30.493 48.684 30.2505 48.5903 30.0242C48.4966 29.7979 48.3592 29.5923 48.1858 29.4193ZM46.868 27.9135C47.5216 27.9134 48.155 28.1399 48.6603 28.5544C49.1656 28.9689 49.5116 29.5459 49.6392 30.1869C49.7668 30.8279 49.6682 31.4933 49.3601 32.0697C49.0521 32.6462 48.5538 33.098 47.95 33.3482C47.3462 33.5984 46.6743 33.6314 46.0488 33.4418C45.4234 33.2521 44.883 32.8514 44.5199 32.308C44.1567 31.7646 43.9932 31.1121 44.0573 30.4617C44.1213 29.8112 44.4089 29.2031 44.871 28.7409C45.1329 28.4782 45.4442 28.2699 45.7869 28.1278C46.1296 27.9858 46.4971 27.913 46.868 27.9135ZM14.2605 40.4555V43.2149C14.2614 43.3874 14.3304 43.5526 14.4524 43.6745C14.5744 43.7964 14.7397 43.8653 14.9121 43.8661H18.8352C19.0077 43.8651 19.1729 43.7961 19.2948 43.6741C19.4168 43.5521 19.4858 43.387 19.4869 43.2145V40.4555H14.2605ZM44.5131 40.4555V43.2149C44.5143 43.3873 44.5833 43.5524 44.7053 43.6742C44.8273 43.7961 44.9923 43.8651 45.1648 43.8661H49.0879C49.2604 43.8653 49.4257 43.7964 49.5477 43.6743C49.6698 43.5523 49.7387 43.387 49.7395 43.2145V40.4555H44.5131ZM25.0563 37.7892H37.8849C37.6702 38.3971 37.3696 38.9711 36.9923 39.4938H25.9497C25.5721 38.9712 25.2712 38.3972 25.0563 37.7892ZM25.3351 32.5795H37.6065C38.2384 33.9006 38.4285 35.39 38.1488 36.8275H24.7947C24.5146 35.39 24.7048 33.9006 25.337 32.5795H25.3351ZM26.831 30.5459C28.1482 29.3168 29.8992 28.6606 31.6997 28.7213C33.5003 28.7819 35.2032 29.5545 36.4347 30.8695L36.4441 30.8808C36.661 31.1127 36.8616 31.3595 37.0443 31.6192H25.8969C26.1673 31.234 26.4767 30.8776 26.8201 30.5558L26.8314 30.5463L26.831 30.5459ZM24.6898 28.2863C23.1962 29.6883 22.1729 31.5181 21.7602 33.5246C21.3476 35.5312 21.5658 37.6162 22.385 39.4938H12.484C12.3558 39.4932 12.2331 39.4421 12.1424 39.3514C12.0518 39.2608 12.0006 39.138 12 39.0098V28.3306C12.0031 27.2263 12.4431 26.1681 13.2239 25.3871C14.0047 24.6062 15.0628 24.1659 16.1671 24.1626H47.8329C48.937 24.1659 49.995 24.606 50.7758 25.3868C51.5566 26.1676 51.9967 27.2255 52 28.3297V39.0116C51.9994 39.1398 51.9482 39.2626 51.8576 39.3532C51.7669 39.4439 51.6442 39.495 51.516 39.4956H40.5575C41.4711 37.4037 41.6351 35.0605 41.0217 32.8617C40.4083 30.6629 39.0551 28.743 37.1906 27.426C35.326 26.109 33.0642 25.4756 30.7868 25.6327C28.5094 25.7897 26.3559 26.7277 24.6898 28.2881V28.2863ZM39.1032 45.3999C39.2326 45.3192 39.3537 45.226 39.4648 45.1216L40.5245 44.1273L40.5358 44.1183C40.6438 44.0161 40.7415 43.9036 40.8277 43.7825L46.1147 49.4247C46.3289 49.6537 46.4434 49.9584 46.433 50.2718C46.4226 50.5852 46.2881 50.8816 46.0591 51.0959C45.8301 51.3101 45.5254 51.4246 45.212 51.4142C44.8986 51.4038 44.6022 51.2693 44.3879 51.0403L39.1032 45.3999ZM40.2407 42.833C40.1718 43.0615 40.0438 43.2678 39.8697 43.4309L39.8584 43.4404L38.8095 44.4238C38.6363 44.5858 38.4235 44.6996 38.1926 44.7537C38.183 44.7553 38.1735 44.7574 38.1641 44.76C38.0553 44.7829 37.9441 44.7926 37.8329 44.7889C37.6542 44.7832 37.4785 44.7424 37.3157 44.6687C37.1528 44.595 37.0061 44.49 36.8839 44.3596L36.572 44.027C37.7789 43.3005 38.8187 42.3272 39.6234 41.1709L39.9347 41.5031L39.9442 41.5144C40.1848 41.7772 40.3125 42.124 40.2999 42.4801C40.2963 42.5888 40.2799 42.6966 40.2511 42.8014C40.2475 42.8118 40.2443 42.8227 40.2416 42.833H40.2407ZM26.4469 34.1047C26.4469 33.9774 26.4974 33.8554 26.5874 33.7654C26.6774 33.6754 26.7995 33.6248 26.9268 33.6248C27.0541 33.6248 27.1762 33.6754 27.2662 33.7654C27.3562 33.8554 27.4067 33.9774 27.4067 34.1047V35.6706C27.4067 35.7979 27.3562 35.92 27.2662 36.01C27.1762 36.1 27.0541 36.1506 26.9268 36.1506C26.7995 36.1506 26.6774 36.1 26.5874 36.01C26.4974 35.92 26.4469 35.7979 26.4469 35.6706V34.1047ZM29.4295 34.1047C29.4295 33.9774 29.4801 33.8554 29.5701 33.7654C29.6601 33.6754 29.7822 33.6248 29.9094 33.6248C30.0367 33.6248 30.1588 33.6754 30.2488 33.7654C30.3388 33.8554 30.3894 33.9774 30.3894 34.1047V35.6706C30.3894 35.7979 30.3388 35.92 30.2488 36.01C30.1588 36.1 30.0367 36.1506 29.9094 36.1506C29.7822 36.1506 29.6601 36.1 29.5701 36.01C29.4801 35.92 29.4295 35.7979 29.4295 35.6706V34.1047ZM32.4121 34.1047C32.4121 33.9774 32.4627 33.8554 32.5527 33.7654C32.6427 33.6754 32.7648 33.6248 32.8921 33.6248C33.0194 33.6248 33.1414 33.6754 33.2315 33.7654C33.3215 33.8554 33.372 33.9774 33.372 34.1047V35.6706C33.372 35.7979 33.3215 35.92 33.2315 36.01C33.1414 36.1 33.0194 36.1506 32.8921 36.1506C32.7648 36.1506 32.6427 36.1 32.5527 36.01C32.4627 35.92 32.4121 35.7979 32.4121 35.6706V34.1047ZM35.3948 34.1047C35.3986 33.9799 35.4509 33.8615 35.5405 33.7746C35.6302 33.6877 35.7501 33.6391 35.875 33.6391C35.9998 33.6391 36.1198 33.6877 36.2094 33.7746C36.299 33.8615 36.3513 33.9799 36.3551 34.1047V35.6706C36.3513 35.7954 36.299 35.9138 36.2094 36.0007C36.1198 36.0877 35.9998 36.1363 35.875 36.1363C35.7501 36.1363 35.6302 36.0877 35.5405 36.0007C35.4509 35.9138 35.3986 35.7954 35.3948 35.6706V34.1047Z" fill="white"/>
</g>
<defs>
<clipPath id="clip0_1137_3">
<rect width="64" height="64" fill="white"/>
</clipPath>
</defs>
</svg>
