<svg width="64" height="64" viewBox="0 0 64 64" fill="none" xmlns="http://www.w3.org/2000/svg">
<g clip-path="url(#clip0_919_600)">
<rect width="64" height="64" rx="8" fill="#EA5158"/>
<path d="M32.6797 25.3245C32.6797 25.6991 32.9831 26.0024 33.3577 26.0024C35.8459 26.0024 37.8695 28.0262 37.8695 30.516C37.8695 30.8906 38.1728 31.1939 38.5474 31.1939C38.922 31.1939 39.2254 30.8906 39.2254 30.516C39.2254 27.2803 36.5932 24.6465 33.3577 24.6465C32.9831 24.6465 32.6797 24.9499 32.6797 25.3245Z" fill="white"/>
<path d="M44.178 30.5157C44.178 30.8903 44.4814 31.1937 44.856 31.1937C45.2306 31.1937 45.534 30.8903 45.534 30.5157C45.534 23.8018 40.0711 18.3394 33.3577 18.3394C32.9831 18.3394 32.6797 18.6428 32.6797 19.0173C32.6797 19.3919 32.9831 19.6953 33.3577 19.6953C39.3239 19.6953 44.1785 24.5499 44.1785 30.5161L44.178 30.5157Z" fill="white"/>
<path d="M51.1937 31.1937C51.5683 31.1937 51.8717 30.8903 51.8717 30.5157C51.8717 20.3072 43.5662 12 33.3577 12C32.9831 12 32.6797 12.3034 32.6797 12.678C32.6797 13.0526 32.9831 13.356 33.3577 13.356C42.819 13.356 50.5157 21.0544 50.5157 30.5157C50.5157 30.8903 50.8191 31.1937 51.1937 31.1937Z" fill="white"/>
<path d="M21.3218 42.6771C30.1661 51.5214 41.3866 54.613 46.4004 49.5992C47.3191 48.6805 47.9648 47.5568 48.353 46.2805C48.614 45.4228 48.2276 44.4957 47.436 44.0737L38.973 39.5649C38.2442 39.1768 37.3476 39.3107 36.7628 39.8938L33.6695 42.9871C31.2355 42.2718 28.4322 40.5633 25.9321 38.0631C23.4303 35.5613 21.7336 32.7715 21.0081 30.3256L24.1014 27.2323C24.6844 26.6492 24.8183 25.7526 24.4319 25.0238L19.937 16.5695C19.5184 15.7814 18.6014 15.3949 17.7437 15.6458C16.4505 16.0254 15.3217 16.6729 14.3979 17.5967C9.38409 22.6105 12.4894 33.8426 21.3201 42.6753L21.3218 42.6771ZM37.0883 42.794C37.4171 42.616 37.829 42.7398 38.007 43.0686C39.8612 46.506 43.2173 46.9195 43.3596 46.9348C43.7308 46.9772 44.0004 47.3111 43.9597 47.6823C43.9224 48.0298 43.6291 48.2874 43.2868 48.2874C43.263 48.2874 43.2393 48.2857 43.2156 48.284C43.0461 48.267 39.0172 47.7975 36.8137 43.7128C36.6357 43.384 36.7595 42.972 37.0883 42.794ZM16.3184 20.0377C16.6913 20.0021 17.0235 20.2682 17.0642 20.6394C17.0811 20.7851 17.4947 24.1378 20.9304 25.9921C21.2592 26.17 21.383 26.5819 21.205 26.9107C21.0829 27.1379 20.849 27.2667 20.6083 27.2667C20.4999 27.2667 20.3897 27.2396 20.2863 27.1853C16.2014 24.9819 15.7337 20.9548 15.7151 20.7834C15.6761 20.4105 15.9455 20.0784 16.3184 20.0377Z" fill="white"/>
</g>
<defs>
<clipPath id="clip0_919_600">
<rect width="64" height="64" fill="white"/>
</clipPath>
</defs>
</svg>
