<svg width="492" height="183" viewBox="0 0 492 183" fill="none" xmlns="http://www.w3.org/2000/svg">
<path d="M182.292 182.291H140.625V169.284H169.271V158.867H182.292V182.304V182.291ZM127.604 182.291H101.563V169.284H127.604V182.304V182.291ZM67.7083 182.291H0V114.583H67.7083V182.291ZM13.0208 130.221V169.284H52.0833V130.221H13.0208ZM44.2708 161.471H20.8333V138.034H44.2708V161.471ZM70.3125 98.971H0V85.9502H70.3125V98.971ZM67.7083 67.721H0V0.0126953H67.7083V67.721ZM13.0208 13.0335V52.096H52.0833V13.0335H13.0208ZM130.208 49.4919H114.583V0.0126953H182.292V49.4919H169.271V13.0335H130.208V49.4919ZM98.9583 49.4919H83.3333V28.6585H98.9583V49.4919ZM161.458 44.2835H138.021V20.846H161.458V44.2835ZM44.2708 44.2835H20.8333V20.846H44.2708V44.2835ZM98.9583 20.846H83.3333V0.0126953H98.9583V20.846Z" fill="white"/>
<path d="M483.136 117.641C483.136 119.411 483.018 121.005 482.782 122.422H446.923C447.218 125.964 448.457 128.738 450.641 130.745C452.825 132.752 455.511 133.755 458.699 133.755C463.303 133.755 466.579 131.778 468.527 127.823H481.897C480.48 132.545 477.765 136.441 473.751 139.51C469.737 142.521 464.808 144.026 458.964 144.026C454.242 144.026 449.992 142.993 446.214 140.927C442.495 138.802 439.574 135.821 437.449 131.984C435.383 128.148 434.35 123.721 434.35 118.703C434.35 113.627 435.383 109.17 437.449 105.333C439.515 101.497 442.407 98.5452 446.126 96.4792C449.844 94.4132 454.124 93.3802 458.964 93.3802C463.627 93.3802 467.789 94.3837 471.449 96.3907C475.167 98.3976 478.03 101.26 480.037 104.979C482.103 108.639 483.136 112.859 483.136 117.641ZM470.298 114.099C470.238 110.911 469.087 108.373 466.844 106.484C464.601 104.536 461.857 103.563 458.61 103.563C455.541 103.563 452.943 104.507 450.818 106.396C448.752 108.226 447.483 110.793 447.011 114.099H470.298Z" fill="white"/>
<path d="M419.181 88.3333C416.997 88.3333 415.167 87.6545 413.691 86.2969C412.275 84.8802 411.566 83.1389 411.566 81.0729C411.566 79.0069 412.275 77.2951 413.691 75.9375C415.167 74.5208 416.997 73.8125 419.181 73.8125C421.365 73.8125 423.165 74.5208 424.582 75.9375C426.058 77.2951 426.796 79.0069 426.796 81.0729C426.796 83.1389 426.058 84.8802 424.582 86.2969C423.165 87.6545 421.365 88.3333 419.181 88.3333ZM425.29 94.1771V143.229H412.895V94.1771H425.29Z" fill="white"/>
<path d="M381.538 93.4688C387.382 93.4688 392.104 95.3281 395.704 99.0469C399.305 102.707 401.105 107.842 401.105 114.453V143.229H388.71V116.135C388.71 112.24 387.736 109.259 385.788 107.193C383.84 105.068 381.184 104.005 377.819 104.005C374.395 104.005 371.68 105.068 369.673 107.193C367.725 109.259 366.751 112.24 366.751 116.135V143.229H354.355V94.1771H366.751V100.286C368.404 98.1615 370.5 96.5087 373.038 95.3281C375.635 94.0885 378.468 93.4688 381.538 93.4688Z" fill="white"/>
<path d="M345.308 117.641C345.308 119.411 345.19 121.005 344.954 122.422H309.094C309.39 125.964 310.629 128.738 312.813 130.745C314.997 132.752 317.683 133.755 320.87 133.755C325.475 133.755 328.751 131.778 330.699 127.823H344.068C342.652 132.545 339.936 136.441 335.923 139.51C331.909 142.521 326.98 144.026 321.136 144.026C316.414 144.026 312.164 142.993 308.386 140.927C304.667 138.802 301.745 135.821 299.62 131.984C297.554 128.148 296.521 123.721 296.521 118.703C296.521 113.627 297.554 109.17 299.62 105.333C301.686 101.497 304.579 98.5452 308.298 96.4792C312.016 94.4132 316.296 93.3802 321.136 93.3802C325.799 93.3802 329.961 94.3837 333.62 96.3907C337.339 98.3976 340.202 101.26 342.209 104.979C344.275 108.639 345.308 112.859 345.308 117.641ZM332.469 114.099C332.41 110.911 331.259 108.373 329.016 106.484C326.773 104.536 324.028 103.563 320.782 103.563C317.712 103.563 315.115 104.507 312.99 106.396C310.924 108.226 309.655 110.793 309.183 114.099H332.469Z" fill="white"/>
<path d="M274.778 100.021C273.361 97.4237 271.413 95.4462 268.934 94.0886C266.455 92.7309 263.563 92.0521 260.257 92.0521C256.597 92.0521 253.351 92.8785 250.518 94.5313C247.684 96.1841 245.471 98.5452 243.877 101.615C242.283 104.684 241.486 108.226 241.486 112.24C241.486 116.372 242.283 119.972 243.877 123.042C245.53 126.111 247.802 128.472 250.695 130.125C253.587 131.778 256.952 132.604 260.788 132.604C265.511 132.604 269.377 131.365 272.387 128.885C275.398 126.347 277.375 122.835 278.32 118.349H257.07V108.875H290.538V119.677C289.712 123.986 287.941 127.971 285.226 131.63C282.511 135.29 278.998 138.241 274.689 140.484C270.439 142.668 265.658 143.76 260.346 143.76C254.384 143.76 248.983 142.432 244.143 139.776C239.361 137.061 235.584 133.313 232.809 128.531C230.094 123.75 228.736 118.319 228.736 112.24C228.736 106.16 230.094 100.729 232.809 95.948C235.584 91.1077 239.361 87.3594 244.143 84.7032C248.983 81.9879 254.354 80.6302 260.257 80.6302C267.222 80.6302 273.273 82.3421 278.408 85.7657C283.544 89.1302 287.085 93.882 289.033 100.021H274.778Z" fill="white"/>
<path d="M185.803 143.229L172.167 119.146H166.324V143.229H153.928V81.4271H177.126C181.907 81.4271 185.98 82.283 189.344 83.9948C192.709 85.6476 195.218 87.9202 196.87 90.8125C198.582 93.6459 199.438 96.8334 199.438 100.375C199.438 104.448 198.258 108.137 195.896 111.443C193.535 114.689 190.023 116.932 185.36 118.172L200.146 143.229H185.803ZM166.324 109.849H176.683C180.048 109.849 182.556 109.052 184.209 107.458C185.862 105.806 186.688 103.533 186.688 100.641C186.688 97.8073 185.862 95.6233 184.209 94.0886C182.556 92.4948 180.048 91.698 176.683 91.698H166.324V109.849Z" fill="white"/>
<path d="M130.277 154.12L120.891 142.875C118.294 143.524 115.638 143.849 112.923 143.849C107.138 143.849 101.825 142.491 96.985 139.776C92.1447 137.061 88.3079 133.312 85.4746 128.531C82.6413 123.691 81.2246 118.231 81.2246 112.151C81.2246 106.13 82.6413 100.729 85.4746 95.9479C88.3079 91.1076 92.1447 87.3298 96.985 84.6145C101.825 81.8993 107.138 80.5416 112.923 80.5416C118.766 80.5416 124.079 81.8993 128.86 84.6145C133.7 87.3298 137.508 91.1076 140.282 95.9479C143.115 100.729 144.532 106.13 144.532 112.151C144.532 117.641 143.351 122.658 140.99 127.203C138.688 131.689 135.53 135.349 131.516 138.182L145.683 154.12H130.277ZM93.9746 112.151C93.9746 116.283 94.7715 119.913 96.3652 123.042C97.959 126.17 100.173 128.59 103.006 130.302C105.898 131.955 109.204 132.781 112.923 132.781C116.641 132.781 119.917 131.955 122.751 130.302C125.584 128.59 127.798 126.17 129.391 123.042C130.985 119.913 131.782 116.283 131.782 112.151C131.782 108.019 130.985 104.418 129.391 101.349C127.798 98.2204 125.584 95.8298 122.751 94.177C119.917 92.5243 116.641 91.6979 112.923 91.6979C109.204 91.6979 105.898 92.5243 103.006 94.177C100.173 95.8298 97.959 98.2204 96.3652 101.349C94.7715 104.418 93.9746 108.019 93.9746 112.151Z" fill="white"/>
<path d="M489.062 148.438H233.854C232.416 148.438 231.25 149.604 231.25 151.042V153.646C231.25 155.084 232.416 156.25 233.854 156.25H489.062C490.501 156.25 491.667 155.084 491.667 153.646V151.042C491.667 149.604 490.501 148.438 489.062 148.438Z" fill="white"/>
</svg>
