<svg width="288" height="295" viewBox="0 0 288 295" fill="none" xmlns="http://www.w3.org/2000/svg">
<path d="M68.265 11.4458C53.7193 16.2949 38.5357 25.6873 35.7269 40.7605C32.2146 59.6125 49.7331 77.1903 47.7328 96.2625C46.2464 110.435 34.6127 120.983 26.1088 132.417C15.5469 146.619 9.12418 164.515 11.339 182.075C13.1696 196.585 20.6194 209.76 28.8791 221.829C34.6111 230.205 41.0387 238.473 49.798 243.599C58.5196 248.703 68.8477 250.27 78.9357 250.874C95.4561 251.862 112.114 250.522 128.263 246.904C152.106 241.563 175.371 231.233 199.782 232.287C221.205 233.212 242.706 242.905 263.435 237.419C266.995 236.477 270.507 235.055 273.293 232.645C276.534 229.842 278.567 225.912 280.261 221.976C292.303 193.999 289.18 158.052 266.881 137.304C253.384 124.745 234.139 118.385 223.818 103.109C211.26 84.5224 216.162 59.5909 211.146 37.7284C209.954 32.5335 208.109 27.3434 204.646 23.2916C200.43 18.3576 194.269 15.5977 188.296 13.0571C178.1 8.72027 167.589 5.02863 156.348 5.64016C148.762 6.05319 142.169 7.91022 134.48 7.17942C111.495 4.99741 90.631 3.98965 68.265 11.4458Z" fill="#FCDCDF"/>
<path d="M224.517 78.3221C231.052 66.1849 226.512 51.0473 214.375 44.5113C202.237 37.9753 187.1 42.516 180.564 54.6533C174.028 66.7905 178.568 81.9282 190.706 88.4641C202.843 95.0001 217.981 90.4594 224.517 78.3221Z" fill="#41415B"/>
<path d="M202.556 88.567C214.755 88.567 224.644 78.6781 224.644 66.4796C224.644 54.281 214.755 44.3921 202.556 44.3921C190.358 44.3921 180.469 54.281 180.469 66.4796C180.469 78.6781 190.358 88.567 202.556 88.567Z" fill="#F4F4F4"/>
<path d="M206.353 87.2887C194.514 89.4883 183.134 81.8 180.699 70.0647C180.725 70.2192 180.745 70.3729 180.773 70.5266C183.002 82.5205 194.53 90.436 206.524 88.2076C218.518 85.9792 226.434 74.4504 224.205 62.4565C224.176 62.302 224.14 62.1515 224.108 61.9987C226.051 73.826 218.192 85.0891 206.353 87.2887Z" fill="black"/>
<path d="M198.878 46.6814C210.55 44.5129 221.778 51.9539 224.426 63.4082C224.381 63.0873 224.332 62.7663 224.273 62.4453C222.044 50.4514 210.515 42.5359 198.521 44.7643C186.528 46.9927 178.612 58.5215 180.84 70.5154C180.9 70.8372 180.97 71.1541 181.043 71.4695C179.4 59.8271 187.206 48.8498 198.878 46.6814Z" fill="black"/>
<path d="M200.217 53.5388C199.809 53.6124 199.415 53.3395 199.341 52.9313L198.579 48.7153C198.505 48.3079 198.778 47.9141 199.186 47.8404C199.594 47.7668 199.988 48.0397 200.062 48.448L200.825 52.6639C200.897 53.0713 200.624 53.4652 200.217 53.5388Z" fill="#DD3E4B"/>
<path d="M205.981 85.4165C205.573 85.4901 205.179 85.2172 205.106 84.8089L204.344 80.593C204.27 80.1856 204.543 79.7918 204.951 79.7181C205.359 79.6445 205.753 79.9174 205.827 80.3256L206.589 84.5416C206.661 84.9482 206.388 85.342 205.981 85.4165Z" fill="#DD3E4B"/>
<path d="M217.314 63.9645C217.24 63.5571 217.513 63.1633 217.92 63.0888L222.136 62.3268C222.544 62.2532 222.937 62.5261 223.012 62.9344C223.086 63.3418 222.813 63.7356 222.404 63.81L218.188 64.5721C217.781 64.6457 217.387 64.372 217.314 63.9645Z" fill="#DD3E4B"/>
<path d="M182.228 70.3088C182.155 69.9014 182.428 69.5076 182.836 69.4332L187.052 68.6711C187.459 68.5975 187.853 68.8704 187.927 69.2787C188.001 69.6861 187.728 70.0799 187.32 70.1535L183.104 70.9156C182.696 70.9892 182.302 70.7163 182.228 70.3088Z" fill="#DD3E4B"/>
<path d="M211.188 54.3424C210.848 54.1062 210.762 53.6348 210.998 53.2938L213.441 49.7734C213.677 49.4333 214.148 49.3476 214.489 49.5837C214.829 49.8199 214.915 50.2913 214.679 50.6323L212.237 54.1527C212.001 54.4937 211.529 54.5785 211.188 54.3424Z" fill="#DD3E4B"/>
<path d="M190.866 83.6379C190.526 83.4017 190.44 82.9303 190.676 82.5893L193.118 79.0689C193.354 78.7287 193.826 78.6431 194.167 78.8792C194.507 79.1153 194.593 79.5868 194.357 79.9278L191.914 83.4481C191.678 83.7883 191.206 83.874 190.866 83.6379Z" fill="#DD3E4B"/>
<path d="M214.869 75.234C215.105 74.8938 215.576 74.8082 215.917 75.0443L219.438 77.4865C219.778 77.7226 219.864 78.1941 219.627 78.535C219.391 78.8752 218.92 78.9609 218.579 78.7248L215.059 76.2826C214.718 76.0457 214.633 75.5742 214.869 75.234Z" fill="#DD3E4B"/>
<path d="M185.573 54.9108C185.81 54.5706 186.281 54.4849 186.622 54.7211L190.142 57.1632C190.483 57.3994 190.568 57.8708 190.332 58.2118C190.096 58.552 189.624 58.6376 189.283 58.4015L185.763 55.9594C185.423 55.7232 185.337 55.251 185.573 54.9108Z" fill="#DD3E4B"/>
<path opacity="0.5" d="M203.63 67.015C203.772 67.8019 203.245 68.5615 202.458 68.704L194.165 70.2032C193.378 70.3457 192.619 69.8182 192.476 69.0314C192.334 68.2445 192.861 67.4849 193.648 67.3424L201.941 65.8432C202.728 65.7015 203.488 66.229 203.63 67.015Z" fill="black"/>
<path d="M206.539 66.1074C206.682 66.8942 206.154 67.6538 205.368 67.7963L192.985 70.0351C192.198 70.1776 191.438 69.6501 191.296 68.8633C191.153 68.0765 191.681 67.3168 192.468 67.1744L204.85 64.9355C205.637 64.7938 206.397 65.3205 206.539 66.1074Z" fill="#EF4F5F"/>
<path opacity="0.5" d="M202.059 68.0148C201.559 67.6162 201.476 66.8814 201.874 66.3819L209.443 56.887C209.842 56.3875 210.577 56.3043 211.076 56.7029C211.576 57.1015 211.659 57.8363 211.261 58.3358L203.691 67.8307C203.293 68.3302 202.558 68.4134 202.059 68.0148Z" fill="black"/>
<path d="M200.145 69.9615C199.646 69.5629 199.563 68.8281 199.961 68.3286L209.601 56.2363C210 55.7368 210.734 55.6535 211.234 56.0522C211.733 56.4508 211.817 57.1856 211.418 57.6851L201.778 69.7774C201.38 70.2769 200.645 70.3593 200.145 69.9615Z" fill="#DD3E4B"/>
<path opacity="0.5" d="M205.083 66.6125C205.293 67.7699 204.524 68.8785 203.366 69.0874C202.209 69.2972 201.1 68.5279 200.891 67.3705C200.683 66.213 201.451 65.1044 202.608 64.8955C203.766 64.6858 204.874 65.4542 205.083 66.6125Z" fill="black"/>
<path d="M204.985 66.3883C205.195 67.5458 204.425 68.6544 203.268 68.8633C202.111 69.0722 201.002 68.3038 200.793 67.1463C200.584 65.9889 201.353 64.8803 202.51 64.6714C203.667 64.4616 204.775 65.2309 204.985 66.3883Z" fill="#233354"/>
<path d="M204.105 66.5476C204.227 67.2191 203.78 67.8627 203.109 67.9844C202.437 68.106 201.794 67.6594 201.672 66.9878C201.55 66.3162 201.997 65.6727 202.668 65.551C203.341 65.4293 203.983 65.8752 204.105 66.5476Z" fill="white"/>
<path opacity="0.3" d="M130.995 295C171.182 295 203.76 291.147 203.76 286.395C203.76 281.643 171.182 277.79 130.995 277.79C90.8081 277.79 58.23 281.643 58.23 286.395C58.23 291.147 90.8081 295 130.995 295Z" fill="#DADAE0"/>
<path d="M187.447 71.8537V273.27C187.447 281.41 180.852 288.014 172.711 288.014H89.2808C81.1403 288.014 74.5366 281.41 74.5366 273.27V71.8537C74.5366 66.7389 77.1461 62.2244 81.1083 59.5909C83.4536 58.0221 86.2631 57.1096 89.2808 57.1096H172.711C180.852 57.1096 187.447 63.7132 187.447 71.8537Z" fill="#484867"/>
<path d="M170.887 283.254H91.1049C84.9127 283.254 79.8931 278.234 79.8931 272.042V73.6563C79.8931 67.4641 84.9127 62.4445 91.1049 62.4445H170.887C177.079 62.4445 182.099 67.4641 182.099 73.6563V272.042C182.099 278.234 177.079 283.254 170.887 283.254Z" fill="#FDFDFD"/>
<path d="M149.8 69.41H112.192C110.531 69.41 109.184 68.0636 109.184 66.4019V59.9935H152.807V66.4019C152.808 68.0636 151.461 69.41 149.8 69.41Z" fill="#484867"/>
<path opacity="0.5" d="M137.698 66.4795H119.826C119.109 66.4795 118.529 65.8992 118.529 65.182C118.529 64.4656 119.109 63.8845 119.826 63.8845H137.698C138.414 63.8845 138.995 64.4656 138.995 65.182C138.995 65.8992 138.414 66.4795 137.698 66.4795Z" fill="#D1D1E6"/>
<path opacity="0.5" d="M143.463 65.1828C143.463 65.8992 142.882 66.4803 142.165 66.4803C141.449 66.4803 140.868 65.9 140.868 65.1828C140.868 64.4664 141.449 63.8853 142.165 63.8853C142.882 63.8853 143.463 64.4664 143.463 65.1828Z" fill="#D1D1E6"/>
<path d="M96.0997 130.747H93.0652V133.782H96.0997V130.747Z" fill="#303030"/>
<path d="M99.1343 130.747H96.0999V133.782H99.1343V130.747Z" fill="#303030"/>
<path d="M102.169 130.747H99.134V133.782H102.169V130.747Z" fill="#303030"/>
<path d="M105.203 130.747H102.169V133.782H105.203V130.747Z" fill="#303030"/>
<path d="M108.238 130.747H105.203V133.782H108.238V130.747Z" fill="#303030"/>
<path d="M111.271 130.747H108.237V133.782H111.271V130.747Z" fill="#303030"/>
<path d="M114.306 130.747H111.271V133.782H114.306V130.747Z" fill="#303030"/>
<path d="M120.375 130.747H117.34V133.782H120.375V130.747Z" fill="#303030"/>
<path d="M123.409 130.747H120.375V133.782H123.409V130.747Z" fill="#303030"/>
<path d="M126.444 130.747H123.409V133.782H126.444V130.747Z" fill="#303030"/>
<path d="M129.477 130.747H126.443V133.782H129.477V130.747Z" fill="#303030"/>
<path d="M138.581 130.747H135.546V133.782H138.581V130.747Z" fill="#303030"/>
<path d="M150.718 130.747H147.684V133.782H150.718V130.747Z" fill="#303030"/>
<path d="M153.752 130.747H150.718V133.782H153.752V130.747Z" fill="#303030"/>
<path d="M156.787 130.747H153.752V133.782H156.787V130.747Z" fill="#303030"/>
<path d="M159.821 130.747H156.787V133.782H159.821V130.747Z" fill="#303030"/>
<path d="M162.855 130.747H159.821V133.782H162.855V130.747Z" fill="#303030"/>
<path d="M165.89 130.747H162.855V133.782H165.89V130.747Z" fill="#303030"/>
<path d="M168.924 130.747H165.89V133.782H168.924V130.747Z" fill="#303030"/>
<path d="M96.0997 133.782H93.0652V136.816H96.0997V133.782Z" fill="#303030"/>
<path d="M114.306 133.782H111.271V136.816H114.306V133.782Z" fill="#303030"/>
<path d="M129.477 133.782H126.443V136.816H129.477V133.782Z" fill="#303030"/>
<path d="M132.512 133.782H129.478V136.816H132.512V133.782Z" fill="#303030"/>
<path d="M138.581 133.782H135.546V136.816H138.581V133.782Z" fill="#303030"/>
<path d="M144.649 133.782H141.615V136.816H144.649V133.782Z" fill="#303030"/>
<path d="M150.718 133.782H147.684V136.816H150.718V133.782Z" fill="#303030"/>
<path d="M168.924 133.782H165.89V136.816H168.924V133.782Z" fill="#303030"/>
<path d="M96.0997 136.815H93.0652V139.85H96.0997V136.815Z" fill="#303030"/>
<path d="M102.169 136.815H99.134V139.85H102.169V136.815Z" fill="#303030"/>
<path d="M105.203 136.815H102.169V139.85H105.203V136.815Z" fill="#303030"/>
<path d="M108.238 136.815H105.203V139.85H108.238V136.815Z" fill="#303030"/>
<path d="M114.306 136.815H111.271V139.85H114.306V136.815Z" fill="#303030"/>
<path d="M123.409 136.815H120.375V139.85H123.409V136.815Z" fill="#303030"/>
<path d="M129.477 136.815H126.443V139.85H129.477V136.815Z" fill="#303030"/>
<path d="M135.546 136.815H132.512V139.85H135.546V136.815Z" fill="#303030"/>
<path d="M138.581 136.815H135.546V139.85H138.581V136.815Z" fill="#303030"/>
<path d="M141.615 136.815H138.581V139.85H141.615V136.815Z" fill="#303030"/>
<path d="M144.649 136.815H141.615V139.85H144.649V136.815Z" fill="#303030"/>
<path d="M150.718 136.815H147.684V139.85H150.718V136.815Z" fill="#303030"/>
<path d="M156.787 136.815H153.752V139.85H156.787V136.815Z" fill="#303030"/>
<path d="M159.821 136.815H156.787V139.85H159.821V136.815Z" fill="#303030"/>
<path d="M162.855 136.815H159.821V139.85H162.855V136.815Z" fill="#303030"/>
<path d="M168.924 136.815H165.89V139.85H168.924V136.815Z" fill="#303030"/>
<path d="M96.0997 139.85H93.0652V142.884H96.0997V139.85Z" fill="#303030"/>
<path d="M102.169 139.85H99.134V142.884H102.169V139.85Z" fill="#303030"/>
<path d="M105.203 139.85H102.169V142.884H105.203V139.85Z" fill="#303030"/>
<path d="M108.238 139.85H105.203V142.884H108.238V139.85Z" fill="#303030"/>
<path d="M114.306 139.85H111.271V142.884H114.306V139.85Z" fill="#303030"/>
<path d="M126.444 139.85H123.409V142.884H126.444V139.85Z" fill="#303030"/>
<path d="M129.477 139.85H126.443V142.884H129.477V139.85Z" fill="#303030"/>
<path d="M135.546 139.85H132.512V142.884H135.546V139.85Z" fill="#303030"/>
<path d="M138.581 139.85H135.546V142.884H138.581V139.85Z" fill="#303030"/>
<path d="M141.615 139.85H138.581V142.884H141.615V139.85Z" fill="#303030"/>
<path d="M144.649 139.85H141.615V142.884H144.649V139.85Z" fill="#303030"/>
<path d="M150.718 139.85H147.684V142.884H150.718V139.85Z" fill="#303030"/>
<path d="M156.787 139.85H153.752V142.884H156.787V139.85Z" fill="#303030"/>
<path d="M159.821 139.85H156.787V142.884H159.821V139.85Z" fill="#303030"/>
<path d="M162.855 139.85H159.821V142.884H162.855V139.85Z" fill="#303030"/>
<path d="M168.924 139.85H165.89V142.884H168.924V139.85Z" fill="#303030"/>
<path d="M96.0997 142.884H93.0652V145.919H96.0997V142.884Z" fill="#303030"/>
<path d="M102.169 142.884H99.134V145.919H102.169V142.884Z" fill="#303030"/>
<path d="M105.203 142.884H102.169V145.919H105.203V142.884Z" fill="#303030"/>
<path d="M108.238 142.884H105.203V145.919H108.238V142.884Z" fill="#303030"/>
<path d="M114.306 142.884H111.271V145.919H114.306V142.884Z" fill="#303030"/>
<path d="M126.444 142.884H123.409V145.919H126.444V142.884Z" fill="#303030"/>
<path d="M129.477 142.884H126.443V145.919H129.477V142.884Z" fill="#303030"/>
<path d="M132.512 142.884H129.478V145.919H132.512V142.884Z" fill="#303030"/>
<path d="M135.546 142.884H132.512V145.919H135.546V142.884Z" fill="#303030"/>
<path d="M138.581 142.884H135.546V145.919H138.581V142.884Z" fill="#303030"/>
<path d="M144.649 142.884H141.615V145.919H144.649V142.884Z" fill="#303030"/>
<path d="M150.718 142.884H147.684V145.919H150.718V142.884Z" fill="#303030"/>
<path d="M156.787 142.884H153.752V145.919H156.787V142.884Z" fill="#303030"/>
<path d="M159.821 142.884H156.787V145.919H159.821V142.884Z" fill="#303030"/>
<path d="M162.855 142.884H159.821V145.919H162.855V142.884Z" fill="#303030"/>
<path d="M168.924 142.884H165.89V145.919H168.924V142.884Z" fill="#303030"/>
<path d="M96.0997 145.919H93.0652V148.953H96.0997V145.919Z" fill="#303030"/>
<path d="M114.306 145.919H111.271V148.953H114.306V145.919Z" fill="#303030"/>
<path d="M123.409 145.919H120.375V148.953H123.409V145.919Z" fill="#303030"/>
<path d="M129.477 145.919H126.443V148.953H129.477V145.919Z" fill="#303030"/>
<path d="M135.546 145.919H132.512V148.953H135.546V145.919Z" fill="#303030"/>
<path d="M138.581 145.919H135.546V148.953H138.581V145.919Z" fill="#303030"/>
<path d="M144.649 145.919H141.615V148.953H144.649V145.919Z" fill="#303030"/>
<path d="M150.718 145.919H147.684V148.953H150.718V145.919Z" fill="#303030"/>
<path d="M168.924 145.919H165.89V148.953H168.924V145.919Z" fill="#303030"/>
<path d="M96.0997 148.953H93.0652V151.988H96.0997V148.953Z" fill="#303030"/>
<path d="M99.1343 148.953H96.0999V151.988H99.1343V148.953Z" fill="#303030"/>
<path d="M102.169 148.953H99.134V151.988H102.169V148.953Z" fill="#303030"/>
<path d="M105.203 148.953H102.169V151.988H105.203V148.953Z" fill="#303030"/>
<path d="M108.238 148.953H105.203V151.988H108.238V148.953Z" fill="#303030"/>
<path d="M111.271 148.953H108.237V151.988H111.271V148.953Z" fill="#303030"/>
<path d="M114.306 148.953H111.271V151.988H114.306V148.953Z" fill="#303030"/>
<path d="M120.375 148.953H117.34V151.988H120.375V148.953Z" fill="#303030"/>
<path d="M126.444 148.953H123.409V151.988H126.444V148.953Z" fill="#303030"/>
<path d="M132.512 148.953H129.478V151.988H132.512V148.953Z" fill="#303030"/>
<path d="M138.581 148.953H135.546V151.988H138.581V148.953Z" fill="#303030"/>
<path d="M144.649 148.953H141.615V151.988H144.649V148.953Z" fill="#303030"/>
<path d="M150.718 148.953H147.684V151.988H150.718V148.953Z" fill="#303030"/>
<path d="M153.752 148.953H150.718V151.988H153.752V148.953Z" fill="#303030"/>
<path d="M156.787 148.953H153.752V151.988H156.787V148.953Z" fill="#303030"/>
<path d="M159.821 148.953H156.787V151.988H159.821V148.953Z" fill="#303030"/>
<path d="M162.855 148.953H159.821V151.988H162.855V148.953Z" fill="#303030"/>
<path d="M165.89 148.953H162.855V151.988H165.89V148.953Z" fill="#303030"/>
<path d="M168.924 148.953H165.89V151.988H168.924V148.953Z" fill="#303030"/>
<path d="M120.375 151.988H117.34V155.022H120.375V151.988Z" fill="#303030"/>
<path d="M123.409 151.988H120.375V155.022H123.409V151.988Z" fill="#303030"/>
<path d="M132.512 151.988H129.478V155.022H132.512V151.988Z" fill="#303030"/>
<path d="M135.546 151.988H132.512V155.022H135.546V151.988Z" fill="#303030"/>
<path d="M138.581 151.988H135.546V155.022H138.581V151.988Z" fill="#303030"/>
<path d="M96.0997 155.021H93.0652V158.056H96.0997V155.021Z" fill="#303030"/>
<path d="M99.1343 155.021H96.0999V158.056H99.1343V155.021Z" fill="#303030"/>
<path d="M105.203 155.021H102.169V158.056H105.203V155.021Z" fill="#303030"/>
<path d="M108.238 155.021H105.203V158.056H108.238V155.021Z" fill="#303030"/>
<path d="M114.306 155.021H111.271V158.056H114.306V155.021Z" fill="#303030"/>
<path d="M123.409 155.021H120.375V158.056H123.409V155.021Z" fill="#303030"/>
<path d="M132.512 155.021H129.478V158.056H132.512V155.021Z" fill="#303030"/>
<path d="M138.581 155.021H135.546V158.056H138.581V155.021Z" fill="#303030"/>
<path d="M141.615 155.021H138.581V158.056H141.615V155.021Z" fill="#303030"/>
<path d="M150.718 155.021H147.684V158.056H150.718V155.021Z" fill="#303030"/>
<path d="M168.924 155.021H165.89V158.056H168.924V155.021Z" fill="#303030"/>
<path d="M99.1343 158.056H96.0999V161.091H99.1343V158.056Z" fill="#303030"/>
<path d="M102.169 158.056H99.134V161.091H102.169V158.056Z" fill="#303030"/>
<path d="M111.271 158.056H108.237V161.091H111.271V158.056Z" fill="#303030"/>
<path d="M117.34 158.056H114.306V161.091H117.34V158.056Z" fill="#303030"/>
<path d="M120.375 158.056H117.34V161.091H120.375V158.056Z" fill="#303030"/>
<path d="M126.444 158.056H123.409V161.091H126.444V158.056Z" fill="#303030"/>
<path d="M138.581 158.056H135.546V161.091H138.581V158.056Z" fill="#303030"/>
<path d="M141.615 158.056H138.581V161.091H141.615V158.056Z" fill="#303030"/>
<path d="M147.683 158.056H144.649V161.091H147.683V158.056Z" fill="#303030"/>
<path d="M153.752 158.056H150.718V161.091H153.752V158.056Z" fill="#303030"/>
<path d="M156.787 158.056H153.752V161.091H156.787V158.056Z" fill="#303030"/>
<path d="M159.821 158.056H156.787V161.091H159.821V158.056Z" fill="#303030"/>
<path d="M162.855 158.056H159.821V161.091H162.855V158.056Z" fill="#303030"/>
<path d="M165.89 158.056H162.855V161.091H165.89V158.056Z" fill="#303030"/>
<path d="M96.0997 161.09H93.0652V164.125H96.0997V161.09Z" fill="#303030"/>
<path d="M99.1343 161.09H96.0999V164.125H99.1343V161.09Z" fill="#303030"/>
<path d="M105.203 161.09H102.169V164.125H105.203V161.09Z" fill="#303030"/>
<path d="M111.271 161.09H108.237V164.125H111.271V161.09Z" fill="#303030"/>
<path d="M114.306 161.09H111.271V164.125H114.306V161.09Z" fill="#303030"/>
<path d="M120.375 161.09H117.34V164.125H120.375V161.09Z" fill="#303030"/>
<path d="M123.409 161.09H120.375V164.125H123.409V161.09Z" fill="#303030"/>
<path d="M132.512 161.09H129.478V164.125H132.512V161.09Z" fill="#303030"/>
<path d="M135.546 161.09H132.512V164.125H135.546V161.09Z" fill="#303030"/>
<path d="M138.581 161.09H135.546V164.125H138.581V161.09Z" fill="#303030"/>
<path d="M141.615 161.09H138.581V164.125H141.615V161.09Z" fill="#303030"/>
<path d="M144.649 161.09H141.615V164.125H144.649V161.09Z" fill="#303030"/>
<path d="M150.718 161.09H147.684V164.125H150.718V161.09Z" fill="#303030"/>
<path d="M153.752 161.09H150.718V164.125H153.752V161.09Z" fill="#303030"/>
<path d="M159.821 161.09H156.787V164.125H159.821V161.09Z" fill="#303030"/>
<path d="M168.924 161.09H165.89V164.125H168.924V161.09Z" fill="#303030"/>
<path d="M99.1343 164.125H96.0999V167.159H99.1343V164.125Z" fill="#303030"/>
<path d="M105.203 164.125H102.169V167.159H105.203V164.125Z" fill="#303030"/>
<path d="M108.238 164.125H105.203V167.159H108.238V164.125Z" fill="#303030"/>
<path d="M120.375 164.125H117.34V167.159H120.375V164.125Z" fill="#303030"/>
<path d="M138.581 164.125H135.546V167.159H138.581V164.125Z" fill="#303030"/>
<path d="M153.752 164.125H150.718V167.159H153.752V164.125Z" fill="#303030"/>
<path d="M159.821 164.125H156.787V167.159H159.821V164.125Z" fill="#303030"/>
<path d="M162.855 164.125H159.821V167.159H162.855V164.125Z" fill="#303030"/>
<path d="M165.89 164.125H162.855V167.159H165.89V164.125Z" fill="#303030"/>
<path d="M168.924 164.125H165.89V167.159H168.924V164.125Z" fill="#303030"/>
<path d="M102.169 167.159H99.134V170.194H102.169V167.159Z" fill="#303030"/>
<path d="M105.203 167.159H102.169V170.194H105.203V167.159Z" fill="#303030"/>
<path d="M111.271 167.159H108.237V170.194H111.271V167.159Z" fill="#303030"/>
<path d="M114.306 167.159H111.271V170.194H114.306V167.159Z" fill="#303030"/>
<path d="M117.34 167.159H114.306V170.194H117.34V167.159Z" fill="#303030"/>
<path d="M123.409 167.159H120.375V170.194H123.409V167.159Z" fill="#303030"/>
<path d="M126.444 167.159H123.409V170.194H126.444V167.159Z" fill="#303030"/>
<path d="M141.615 167.159H138.581V170.194H141.615V167.159Z" fill="#303030"/>
<path d="M144.649 167.159H141.615V170.194H144.649V167.159Z" fill="#303030"/>
<path d="M147.683 167.159H144.649V170.194H147.683V167.159Z" fill="#303030"/>
<path d="M150.718 167.159H147.684V170.194H150.718V167.159Z" fill="#303030"/>
<path d="M168.924 167.159H165.89V170.194H168.924V167.159Z" fill="#303030"/>
<path d="M96.0997 170.193H93.0652V173.228H96.0997V170.193Z" fill="#303030"/>
<path d="M105.203 170.193H102.169V173.228H105.203V170.193Z" fill="#303030"/>
<path d="M117.34 170.193H114.306V173.228H117.34V170.193Z" fill="#303030"/>
<path d="M120.375 170.193H117.34V173.228H120.375V170.193Z" fill="#303030"/>
<path d="M126.444 170.193H123.409V173.228H126.444V170.193Z" fill="#303030"/>
<path d="M132.512 170.193H129.478V173.228H132.512V170.193Z" fill="#303030"/>
<path d="M138.581 170.193H135.546V173.228H138.581V170.193Z" fill="#303030"/>
<path d="M141.615 170.193H138.581V173.228H141.615V170.193Z" fill="#303030"/>
<path d="M144.649 170.193H141.615V173.228H144.649V170.193Z" fill="#303030"/>
<path d="M156.787 170.193H153.752V173.228H156.787V170.193Z" fill="#303030"/>
<path d="M165.89 170.193H162.855V173.228H165.89V170.193Z" fill="#303030"/>
<path d="M96.0997 173.228H93.0652V176.262H96.0997V173.228Z" fill="#303030"/>
<path d="M99.1343 173.228H96.0999V176.262H99.1343V173.228Z" fill="#303030"/>
<path d="M105.203 173.228H102.169V176.262H105.203V173.228Z" fill="#303030"/>
<path d="M108.238 173.228H105.203V176.262H108.238V173.228Z" fill="#303030"/>
<path d="M111.271 173.228H108.237V176.262H111.271V173.228Z" fill="#303030"/>
<path d="M114.306 173.228H111.271V176.262H114.306V173.228Z" fill="#303030"/>
<path d="M126.444 173.228H123.409V176.262H126.444V173.228Z" fill="#303030"/>
<path d="M138.581 173.228H135.546V176.262H138.581V173.228Z" fill="#303030"/>
<path d="M141.615 173.228H138.581V176.262H141.615V173.228Z" fill="#303030"/>
<path d="M147.683 173.228H144.649V176.262H147.683V173.228Z" fill="#303030"/>
<path d="M156.787 173.228H153.752V176.262H156.787V173.228Z" fill="#303030"/>
<path d="M159.821 173.228H156.787V176.262H159.821V173.228Z" fill="#303030"/>
<path d="M162.855 173.228H159.821V176.262H162.855V173.228Z" fill="#303030"/>
<path d="M165.89 173.228H162.855V176.262H165.89V173.228Z" fill="#303030"/>
<path d="M168.924 173.228H165.89V176.262H168.924V173.228Z" fill="#303030"/>
<path d="M96.0997 176.262H93.0652V179.296H96.0997V176.262Z" fill="#303030"/>
<path d="M102.169 176.262H99.134V179.296H102.169V176.262Z" fill="#303030"/>
<path d="M105.203 176.262H102.169V179.296H105.203V176.262Z" fill="#303030"/>
<path d="M108.238 176.262H105.203V179.296H108.238V176.262Z" fill="#303030"/>
<path d="M111.271 176.262H108.237V179.296H111.271V176.262Z" fill="#303030"/>
<path d="M120.375 176.262H117.34V179.296H120.375V176.262Z" fill="#303030"/>
<path d="M123.409 176.262H120.375V179.296H123.409V176.262Z" fill="#303030"/>
<path d="M126.444 176.262H123.409V179.296H126.444V176.262Z" fill="#303030"/>
<path d="M132.512 176.262H129.478V179.296H132.512V176.262Z" fill="#303030"/>
<path d="M153.752 176.262H150.718V179.296H153.752V176.262Z" fill="#303030"/>
<path d="M156.787 176.262H153.752V179.296H156.787V176.262Z" fill="#303030"/>
<path d="M162.855 176.262H159.821V179.296H162.855V176.262Z" fill="#303030"/>
<path d="M168.924 176.262H165.89V179.296H168.924V176.262Z" fill="#303030"/>
<path d="M96.0997 179.297H93.0652V182.331H96.0997V179.297Z" fill="#303030"/>
<path d="M102.169 179.297H99.134V182.331H102.169V179.297Z" fill="#303030"/>
<path d="M111.271 179.297H108.237V182.331H111.271V179.297Z" fill="#303030"/>
<path d="M114.306 179.297H111.271V182.331H114.306V179.297Z" fill="#303030"/>
<path d="M117.34 179.297H114.306V182.331H117.34V179.297Z" fill="#303030"/>
<path d="M129.477 179.297H126.443V182.331H129.477V179.297Z" fill="#303030"/>
<path d="M132.512 179.297H129.478V182.331H132.512V179.297Z" fill="#303030"/>
<path d="M135.546 179.297H132.512V182.331H135.546V179.297Z" fill="#303030"/>
<path d="M141.615 179.297H138.581V182.331H141.615V179.297Z" fill="#303030"/>
<path d="M144.649 179.297H141.615V182.331H144.649V179.297Z" fill="#303030"/>
<path d="M147.683 179.297H144.649V182.331H147.683V179.297Z" fill="#303030"/>
<path d="M150.718 179.297H147.684V182.331H150.718V179.297Z" fill="#303030"/>
<path d="M153.752 179.297H150.718V182.331H153.752V179.297Z" fill="#303030"/>
<path d="M156.787 179.297H153.752V182.331H156.787V179.297Z" fill="#303030"/>
<path d="M162.855 179.297H159.821V182.331H162.855V179.297Z" fill="#303030"/>
<path d="M165.89 179.297H162.855V182.331H165.89V179.297Z" fill="#303030"/>
<path d="M120.375 182.331H117.34V185.365H120.375V182.331Z" fill="#303030"/>
<path d="M126.444 182.331H123.409V185.365H126.444V182.331Z" fill="#303030"/>
<path d="M129.477 182.331H126.443V185.365H129.477V182.331Z" fill="#303030"/>
<path d="M135.546 182.331H132.512V185.365H135.546V182.331Z" fill="#303030"/>
<path d="M144.649 182.331H141.615V185.365H144.649V182.331Z" fill="#303030"/>
<path d="M156.787 182.331H153.752V185.365H156.787V182.331Z" fill="#303030"/>
<path d="M165.89 182.331H162.855V185.365H165.89V182.331Z" fill="#303030"/>
<path d="M96.0997 185.365H93.0652V188.4H96.0997V185.365Z" fill="#303030"/>
<path d="M99.1343 185.365H96.0999V188.4H99.1343V185.365Z" fill="#303030"/>
<path d="M102.169 185.365H99.134V188.4H102.169V185.365Z" fill="#303030"/>
<path d="M105.203 185.365H102.169V188.4H105.203V185.365Z" fill="#303030"/>
<path d="M108.238 185.365H105.203V188.4H108.238V185.365Z" fill="#303030"/>
<path d="M111.271 185.365H108.237V188.4H111.271V185.365Z" fill="#303030"/>
<path d="M114.306 185.365H111.271V188.4H114.306V185.365Z" fill="#303030"/>
<path d="M123.409 185.365H120.375V188.4H123.409V185.365Z" fill="#303030"/>
<path d="M126.444 185.365H123.409V188.4H126.444V185.365Z" fill="#303030"/>
<path d="M132.512 185.365H129.478V188.4H132.512V185.365Z" fill="#303030"/>
<path d="M135.546 185.365H132.512V188.4H135.546V185.365Z" fill="#303030"/>
<path d="M144.649 185.365H141.615V188.4H144.649V185.365Z" fill="#303030"/>
<path d="M150.718 185.365H147.684V188.4H150.718V185.365Z" fill="#303030"/>
<path d="M156.787 185.365H153.752V188.4H156.787V185.365Z" fill="#303030"/>
<path d="M159.821 185.365H156.787V188.4H159.821V185.365Z" fill="#303030"/>
<path d="M168.924 185.365H165.89V188.4H168.924V185.365Z" fill="#303030"/>
<path d="M96.0997 188.399H93.0652V191.434H96.0997V188.399Z" fill="#303030"/>
<path d="M114.306 188.399H111.271V191.434H114.306V188.399Z" fill="#303030"/>
<path d="M129.477 188.399H126.443V191.434H129.477V188.399Z" fill="#303030"/>
<path d="M135.546 188.399H132.512V191.434H135.546V188.399Z" fill="#303030"/>
<path d="M141.615 188.399H138.581V191.434H141.615V188.399Z" fill="#303030"/>
<path d="M144.649 188.399H141.615V191.434H144.649V188.399Z" fill="#303030"/>
<path d="M156.787 188.399H153.752V191.434H156.787V188.399Z" fill="#303030"/>
<path d="M96.0997 191.434H93.0652V194.468H96.0997V191.434Z" fill="#303030"/>
<path d="M102.169 191.434H99.134V194.468H102.169V191.434Z" fill="#303030"/>
<path d="M105.203 191.434H102.169V194.468H105.203V191.434Z" fill="#303030"/>
<path d="M108.238 191.434H105.203V194.468H108.238V191.434Z" fill="#303030"/>
<path d="M114.306 191.434H111.271V194.468H114.306V191.434Z" fill="#303030"/>
<path d="M120.375 191.434H117.34V194.468H120.375V191.434Z" fill="#303030"/>
<path d="M123.409 191.434H120.375V194.468H123.409V191.434Z" fill="#303030"/>
<path d="M126.444 191.434H123.409V194.468H126.444V191.434Z" fill="#303030"/>
<path d="M129.477 191.434H126.443V194.468H129.477V191.434Z" fill="#303030"/>
<path d="M135.546 191.434H132.512V194.468H135.546V191.434Z" fill="#303030"/>
<path d="M141.615 191.434H138.581V194.468H141.615V191.434Z" fill="#303030"/>
<path d="M144.649 191.434H141.615V194.468H144.649V191.434Z" fill="#303030"/>
<path d="M147.683 191.434H144.649V194.468H147.683V191.434Z" fill="#303030"/>
<path d="M150.718 191.434H147.684V194.468H150.718V191.434Z" fill="#303030"/>
<path d="M153.752 191.434H150.718V194.468H153.752V191.434Z" fill="#303030"/>
<path d="M156.787 191.434H153.752V194.468H156.787V191.434Z" fill="#303030"/>
<path d="M159.821 191.434H156.787V194.468H159.821V191.434Z" fill="#303030"/>
<path d="M165.89 191.434H162.855V194.468H165.89V191.434Z" fill="#303030"/>
<path d="M168.924 191.434H165.89V194.468H168.924V191.434Z" fill="#303030"/>
<path d="M96.0997 194.468H93.0652V197.503H96.0997V194.468Z" fill="#303030"/>
<path d="M102.169 194.468H99.134V197.503H102.169V194.468Z" fill="#303030"/>
<path d="M105.203 194.468H102.169V197.503H105.203V194.468Z" fill="#303030"/>
<path d="M108.238 194.468H105.203V197.503H108.238V194.468Z" fill="#303030"/>
<path d="M114.306 194.468H111.271V197.503H114.306V194.468Z" fill="#303030"/>
<path d="M120.375 194.468H117.34V197.503H120.375V194.468Z" fill="#303030"/>
<path d="M132.512 194.468H129.478V197.503H132.512V194.468Z" fill="#303030"/>
<path d="M135.546 194.468H132.512V197.503H135.546V194.468Z" fill="#303030"/>
<path d="M138.581 194.468H135.546V197.503H138.581V194.468Z" fill="#303030"/>
<path d="M147.683 194.468H144.649V197.503H147.683V194.468Z" fill="#303030"/>
<path d="M150.718 194.468H147.684V197.503H150.718V194.468Z" fill="#303030"/>
<path d="M153.752 194.468H150.718V197.503H153.752V194.468Z" fill="#303030"/>
<path d="M159.821 194.468H156.787V197.503H159.821V194.468Z" fill="#303030"/>
<path d="M165.89 194.468H162.855V197.503H165.89V194.468Z" fill="#303030"/>
<path d="M168.924 194.468H165.89V197.503H168.924V194.468Z" fill="#303030"/>
<path d="M96.0997 197.503H93.0652V200.537H96.0997V197.503Z" fill="#303030"/>
<path d="M102.169 197.503H99.134V200.537H102.169V197.503Z" fill="#303030"/>
<path d="M105.203 197.503H102.169V200.537H105.203V197.503Z" fill="#303030"/>
<path d="M108.238 197.503H105.203V200.537H108.238V197.503Z" fill="#303030"/>
<path d="M114.306 197.503H111.271V200.537H114.306V197.503Z" fill="#303030"/>
<path d="M123.409 197.503H120.375V200.537H123.409V197.503Z" fill="#303030"/>
<path d="M129.477 197.503H126.443V200.537H129.477V197.503Z" fill="#303030"/>
<path d="M135.546 197.503H132.512V200.537H135.546V197.503Z" fill="#303030"/>
<path d="M141.615 197.503H138.581V200.537H141.615V197.503Z" fill="#303030"/>
<path d="M147.683 197.503H144.649V200.537H147.683V197.503Z" fill="#303030"/>
<path d="M153.752 197.503H150.718V200.537H153.752V197.503Z" fill="#303030"/>
<path d="M156.787 197.503H153.752V200.537H156.787V197.503Z" fill="#303030"/>
<path d="M162.855 197.503H159.821V200.537H162.855V197.503Z" fill="#303030"/>
<path d="M165.89 197.503H162.855V200.537H165.89V197.503Z" fill="#303030"/>
<path d="M168.924 197.503H165.89V200.537H168.924V197.503Z" fill="#303030"/>
<path d="M96.0997 200.537H93.0652V203.572H96.0997V200.537Z" fill="#303030"/>
<path d="M114.306 200.537H111.271V203.572H114.306V200.537Z" fill="#303030"/>
<path d="M120.375 200.537H117.34V203.572H120.375V200.537Z" fill="#303030"/>
<path d="M123.409 200.537H120.375V203.572H123.409V200.537Z" fill="#303030"/>
<path d="M126.444 200.537H123.409V203.572H126.444V200.537Z" fill="#303030"/>
<path d="M129.477 200.537H126.443V203.572H129.477V200.537Z" fill="#303030"/>
<path d="M132.512 200.537H129.478V203.572H132.512V200.537Z" fill="#303030"/>
<path d="M135.546 200.537H132.512V203.572H135.546V200.537Z" fill="#303030"/>
<path d="M141.615 200.537H138.581V203.572H141.615V200.537Z" fill="#303030"/>
<path d="M150.718 200.537H147.684V203.572H150.718V200.537Z" fill="#303030"/>
<path d="M153.752 200.537H150.718V203.572H153.752V200.537Z" fill="#303030"/>
<path d="M156.787 200.537H153.752V203.572H156.787V200.537Z" fill="#303030"/>
<path d="M162.855 200.537H159.821V203.572H162.855V200.537Z" fill="#303030"/>
<path d="M165.89 200.537H162.855V203.572H165.89V200.537Z" fill="#303030"/>
<path d="M168.924 200.537H165.89V203.572H168.924V200.537Z" fill="#303030"/>
<path d="M96.0997 203.571H93.0652V206.605H96.0997V203.571Z" fill="#303030"/>
<path d="M99.1343 203.571H96.0999V206.605H99.1343V203.571Z" fill="#303030"/>
<path d="M102.169 203.571H99.134V206.605H102.169V203.571Z" fill="#303030"/>
<path d="M105.203 203.571H102.169V206.605H105.203V203.571Z" fill="#303030"/>
<path d="M108.238 203.571H105.203V206.605H108.238V203.571Z" fill="#303030"/>
<path d="M111.271 203.571H108.237V206.605H111.271V203.571Z" fill="#303030"/>
<path d="M114.306 203.571H111.271V206.605H114.306V203.571Z" fill="#303030"/>
<path d="M120.375 203.571H117.34V206.605H120.375V203.571Z" fill="#303030"/>
<path d="M126.444 203.571H123.409V206.605H126.444V203.571Z" fill="#303030"/>
<path d="M129.477 203.571H126.443V206.605H129.477V203.571Z" fill="#303030"/>
<path d="M132.512 203.571H129.478V206.605H132.512V203.571Z" fill="#303030"/>
<path d="M135.546 203.571H132.512V206.605H135.546V203.571Z" fill="#303030"/>
<path d="M144.649 203.571H141.615V206.605H144.649V203.571Z" fill="#303030"/>
<path d="M147.683 203.571H144.649V206.605H147.683V203.571Z" fill="#303030"/>
<path d="M159.821 203.571H156.787V206.605H159.821V203.571Z" fill="#303030"/>
<path d="M168.924 203.571H165.89V206.605H168.924V203.571Z" fill="#303030"/>
<path d="M157.558 244.214H103.129C101.401 244.214 100 242.814 100 241.085V233.235C100 231.507 101.401 230.106 103.129 230.106H157.558C159.287 230.106 160.687 231.507 160.687 233.235V241.085C160.687 242.814 159.287 244.214 157.558 244.214Z" fill="#EF4F5F"/>
<path d="M121.83 234.455C121.778 234.023 121.571 233.688 121.207 233.449C120.844 233.21 120.398 233.091 119.869 233.091C119.483 233.091 119.145 233.153 118.855 233.278C118.568 233.403 118.344 233.575 118.182 233.794C118.023 234.013 117.943 234.261 117.943 234.54C117.943 234.773 117.999 234.973 118.109 235.141C118.223 235.305 118.368 235.443 118.544 235.554C118.72 235.662 118.905 235.751 119.098 235.822C119.291 235.891 119.469 235.946 119.631 235.989L120.517 236.227C120.744 236.287 120.997 236.369 121.276 236.474C121.557 236.58 121.825 236.723 122.081 236.905C122.339 237.084 122.553 237.314 122.72 237.595C122.888 237.876 122.972 238.222 122.972 238.631C122.972 239.102 122.848 239.528 122.601 239.909C122.357 240.29 121.999 240.592 121.527 240.817C121.058 241.041 120.489 241.153 119.818 241.153C119.193 241.153 118.652 241.053 118.195 240.851C117.74 240.649 117.382 240.368 117.121 240.007C116.862 239.646 116.716 239.227 116.682 238.75H117.773C117.801 239.08 117.912 239.352 118.105 239.568C118.301 239.781 118.548 239.94 118.847 240.045C119.148 240.148 119.472 240.199 119.818 240.199C120.222 240.199 120.584 240.134 120.905 240.003C121.226 239.869 121.48 239.685 121.668 239.449C121.855 239.21 121.949 238.932 121.949 238.614C121.949 238.324 121.868 238.088 121.706 237.906C121.544 237.724 121.331 237.577 121.067 237.463C120.803 237.349 120.517 237.25 120.21 237.165L119.136 236.858C118.455 236.662 117.915 236.382 117.517 236.018C117.119 235.655 116.92 235.179 116.92 234.591C116.92 234.102 117.053 233.676 117.317 233.312C117.584 232.946 117.942 232.662 118.391 232.46C118.842 232.256 119.347 232.153 119.903 232.153C120.466 232.153 120.966 232.254 121.403 232.456C121.841 232.655 122.188 232.928 122.443 233.274C122.702 233.621 122.838 234.014 122.852 234.455H121.83ZM127.232 241.136C126.618 241.136 126.09 240.991 125.647 240.702C125.203 240.412 124.863 240.013 124.624 239.504C124.385 238.996 124.266 238.415 124.266 237.761C124.266 237.097 124.388 236.51 124.632 236.001C124.88 235.49 125.223 235.091 125.664 234.804C126.107 234.514 126.624 234.369 127.215 234.369C127.675 234.369 128.09 234.455 128.459 234.625C128.828 234.795 129.131 235.034 129.367 235.341C129.603 235.648 129.749 236.006 129.806 236.415H128.8C128.723 236.116 128.553 235.852 128.289 235.622C128.027 235.389 127.675 235.273 127.232 235.273C126.84 235.273 126.496 235.375 126.201 235.58C125.908 235.781 125.679 236.067 125.515 236.436C125.353 236.803 125.272 237.233 125.272 237.727C125.272 238.233 125.351 238.673 125.51 239.048C125.672 239.423 125.9 239.714 126.192 239.922C126.488 240.129 126.834 240.233 127.232 240.233C127.493 240.233 127.73 240.188 127.944 240.097C128.157 240.006 128.337 239.875 128.485 239.705C128.632 239.534 128.738 239.33 128.8 239.091H129.806C129.749 239.477 129.608 239.825 129.384 240.135C129.162 240.442 128.868 240.686 128.502 240.868C128.138 241.047 127.715 241.136 127.232 241.136ZM133.202 241.153C132.787 241.153 132.411 241.075 132.073 240.919C131.735 240.76 131.466 240.531 131.267 240.233C131.069 239.932 130.969 239.568 130.969 239.142C130.969 238.767 131.043 238.463 131.191 238.23C131.338 237.994 131.536 237.81 131.783 237.676C132.03 237.543 132.303 237.443 132.601 237.378C132.902 237.31 133.205 237.256 133.509 237.216C133.907 237.165 134.229 237.126 134.476 237.101C134.726 237.072 134.908 237.026 135.022 236.96C135.138 236.895 135.196 236.781 135.196 236.619V236.585C135.196 236.165 135.081 235.838 134.851 235.605C134.624 235.372 134.279 235.256 133.816 235.256C133.336 235.256 132.959 235.361 132.686 235.571C132.414 235.781 132.222 236.006 132.111 236.244L131.157 235.903C131.327 235.506 131.554 235.196 131.838 234.974C132.125 234.75 132.438 234.594 132.776 234.506C133.117 234.415 133.452 234.369 133.782 234.369C133.992 234.369 134.233 234.395 134.506 234.446C134.782 234.494 135.047 234.595 135.303 234.749C135.561 234.902 135.776 235.134 135.946 235.443C136.117 235.753 136.202 236.168 136.202 236.688V241H135.196V240.114H135.145C135.077 240.256 134.963 240.408 134.804 240.57C134.645 240.732 134.434 240.869 134.169 240.983C133.905 241.097 133.583 241.153 133.202 241.153ZM133.355 240.25C133.753 240.25 134.088 240.172 134.361 240.016C134.637 239.859 134.844 239.658 134.983 239.411C135.125 239.163 135.196 238.903 135.196 238.631V237.71C135.154 237.761 135.06 237.808 134.915 237.851C134.773 237.891 134.608 237.926 134.421 237.957C134.236 237.986 134.056 238.011 133.88 238.034C133.706 238.054 133.566 238.071 133.458 238.085C133.196 238.119 132.952 238.175 132.725 238.251C132.5 238.325 132.319 238.437 132.179 238.588C132.043 238.736 131.975 238.937 131.975 239.193C131.975 239.543 132.104 239.807 132.363 239.986C132.624 240.162 132.955 240.25 133.355 240.25ZM139.043 237.062V241H138.038V234.455H139.009V235.477H139.094C139.248 235.145 139.481 234.878 139.793 234.676C140.106 234.472 140.509 234.369 141.004 234.369C141.447 234.369 141.835 234.46 142.167 234.642C142.499 234.821 142.758 235.094 142.942 235.46C143.127 235.824 143.219 236.284 143.219 236.841V241H142.214V236.909C142.214 236.395 142.08 235.994 141.813 235.707C141.546 235.418 141.18 235.273 140.714 235.273C140.393 235.273 140.106 235.342 139.853 235.482C139.603 235.621 139.406 235.824 139.261 236.091C139.116 236.358 139.043 236.682 139.043 237.062Z" fill="white"/>
<path opacity="0.2" d="M168.924 86.2225H93.0652V98.2916H168.924V86.2225Z" fill="url(#paint0_linear_100_1632)"/>
<path opacity="0.2" d="M168.924 102.63H93.0652V108.665H168.924V102.63Z" fill="url(#paint1_linear_100_1632)"/>
<path opacity="0.2" d="M168.924 114.076H93.0652V120.11H168.924V114.076Z" fill="url(#paint2_linear_100_1632)"/>
<path opacity="0.2" d="M168.924 255.684H93.0652V265.327H168.924V255.684Z" fill="url(#paint3_linear_100_1632)"/>
<path d="M34.2583 111.082C34.2583 111.082 42.3436 107.911 45.234 118.356C48.1244 128.8 50.922 130.944 53.6267 132.623C56.3314 134.301 56.5699 147.977 33.6924 147.948C10.7005 147.919 9.42695 137.845 15.2086 131.317C20.9902 124.79 22.9481 117.983 23.2282 115.371C23.5076 112.76 27.4794 108.284 34.2583 111.082Z" fill="#E64054"/>
<path d="M48.025 147.063C47.9554 146.986 47.9122 146.941 47.9002 146.93C47.0941 146.167 46.0391 145.764 44.9297 145.796C43.8203 145.827 42.7893 146.288 42.0273 147.094C40.5513 148.656 40.5193 151.129 41.9553 152.725C42.0273 152.805 42.1025 152.883 42.1818 152.958L57.7312 169.014L57.7448 169.026C59.188 170.344 61.5517 170.24 62.8933 168.82C64.174 167.465 64.3005 165.296 63.0518 163.91C63.0518 163.859 62.8605 163.832 62.8108 163.782C62.3026 163.203 49.2545 148.43 48.025 147.063Z" fill="#F4B799"/>
<path d="M62.8029 168.831C62.7605 168.868 62.6444 168.98 62.6428 168.982L62.6076 169.015C61.1324 170.297 58.8655 170.162 57.5584 168.71C56.2417 167.247 56.3705 164.936 57.7913 163.58C58.1299 163.161 62.1889 159.435 72.3194 151.089L75.289 154.729C72.2617 158.523 66.9276 165.711 62.8029 168.831Z" fill="#F4B799"/>
<path d="M35.5452 231.946C35.5516 231.931 35.5492 231.767 35.5492 231.767C35.1818 220.784 35.4459 195.161 35.4451 195.123C35.3371 191.13 38.4868 187.793 42.4795 187.685C46.4737 187.577 49.7755 190.671 49.8836 194.664C49.8844 194.703 49.8724 194.776 49.8724 194.776C48.7205 206.504 47.4542 215.481 44.6575 232.839L44.6351 233.001C44.3269 235.172 42.4907 236.894 40.2254 236.955C37.6976 237.024 35.5916 235.043 35.5228 232.514C35.518 232.318 35.526 232.137 35.5452 231.946Z" fill="#484867"/>
<path d="M42.1328 269.507L36.9476 269.56C36.7827 267.884 36.4929 263.456 36.1855 261.166H42.4162C42.2921 263.456 42.1945 267.769 42.1328 269.507Z" fill="#F4B799"/>
<path d="M35.5094 232.014C35.5102 232.009 35.555 231.847 35.5662 231.769C35.8688 229.592 37.7066 227.888 39.9767 227.826C42.5045 227.757 44.6096 229.751 44.6785 232.28C44.6857 232.543 44.5856 233.424 44.5544 233.588C43.9133 236.901 42.9367 250.968 42.4172 261.167H36.1866C35.7935 258.044 35.3701 255.311 35.1356 254.019C32.4973 239.508 35.4373 232.479 35.5094 232.014Z" fill="#484867"/>
<path d="M42.4571 259.193C42.4571 259.193 43.019 259.308 42.8669 260.16C42.7149 261.012 43.0342 261.66 42.682 261.99C42.329 262.32 39.4258 263.149 36.0191 261.984C36.0191 261.984 35.5141 261.721 35.7838 260.5C35.8951 259.996 35.314 259.434 35.8767 258.9C35.8767 258.9 38.964 260.217 42.4571 259.193Z" fill="#6F6FA5"/>
<path d="M18.1651 231.273C18.1723 231.26 18.1787 231.095 18.1787 231.095C18.366 220.108 19.9261 194.531 19.9269 194.493C20.0206 190.499 23.3344 187.327 27.3278 187.42C31.322 187.514 34.4798 190.848 34.3861 194.842C34.3853 194.88 34.3781 194.976 34.3781 194.976H34.3789C32.6452 206.632 30.881 215.486 27.211 232.681L27.1853 232.815C26.7675 234.967 24.8496 236.581 22.5836 236.528C20.0558 236.469 18.0539 234.378 18.1131 231.849C18.1179 231.65 18.1371 231.463 18.1651 231.273Z" fill="#484867"/>
<path d="M18.1253 231.34C18.1269 231.335 18.1797 231.176 18.1941 231.098C18.6056 228.938 20.5282 227.33 22.7983 227.382C25.3269 227.442 27.3288 229.54 27.2688 232.067C27.2624 232.33 27.1151 233.21 27.0751 233.372C26.2594 236.681 24.5825 251.194 23.5691 261.343L17.3369 260.696C17.1031 257.533 16.8086 254.629 16.6365 253.301C14.7362 238.677 18.0309 231.8 18.1253 231.34Z" fill="#484867"/>
<path d="M22.7943 269.372L17.5194 269.676C17.441 268.037 17.5394 262.81 17.3369 260.697L23.5692 261.344C23.3418 263.622 22.9376 267.711 22.7943 269.372Z" fill="#F4B799"/>
<path d="M23.7916 259.229C23.7916 259.229 24.3447 259.376 24.1446 260.218C23.9437 261.06 24.2246 261.725 23.8532 262.035C23.4818 262.344 20.5354 263.004 17.2023 261.642C17.2023 261.642 16.7133 261.349 17.0535 260.146C17.1943 259.649 16.6468 259.055 17.2392 258.554C17.2392 258.554 20.244 260.048 23.7916 259.229Z" fill="#6F6FA5"/>
<path d="M43.2441 269.88C43.2441 269.88 42.5494 268.744 39.7038 268.744C36.859 268.744 36.6165 269.901 36.6165 269.901V271.365H43.2209L43.2441 269.88Z" fill="#F4B799"/>
<path d="M54.3095 275.528H35.1597V276.985H54.3095V275.528Z" fill="#D0D1D8"/>
<path d="M54.1581 275.528C54.1581 275.528 55.0474 272.127 48.6887 272.657L43.2865 268.865C43.2865 268.865 42.8607 268.507 42.4636 268.876C42.0666 269.245 40.6466 270.598 38.9161 270.371C37.1847 270.144 37.1415 269.04 36.5315 269.125C35.9216 269.21 34.9138 271.99 35.0843 275.528H54.1581V275.528Z" fill="#FFCE43"/>
<path d="M48.6893 272.615C55.0472 272.084 54.1587 275.528 54.1587 275.528H48.1538C48.1538 273.447 48.6893 272.615 48.6893 272.615Z" fill="#FFDC85"/>
<path d="M46.3832 273.075C46.4592 273.075 46.5337 273.037 46.5769 272.969C46.9899 272.303 47.5406 271.983 47.5462 271.981C47.6551 271.918 47.6927 271.78 47.6303 271.671C47.5686 271.562 47.4294 271.524 47.3205 271.586C47.2941 271.601 46.6641 271.966 46.1903 272.728C46.1246 272.836 46.1567 272.975 46.2631 273.041C46.3007 273.064 46.3424 273.075 46.3832 273.075Z" fill="#EAEBF4"/>
<path d="M45.4573 272.419C45.5333 272.419 45.6077 272.381 45.6502 272.311C46.064 271.645 46.6139 271.327 46.6195 271.324C46.7284 271.262 46.766 271.123 46.7044 271.014C46.6419 270.905 46.5034 270.867 46.3946 270.929C46.3682 270.944 45.7382 271.309 45.2644 272.071C45.1979 272.178 45.2307 272.318 45.3372 272.384C45.3748 272.408 45.4164 272.419 45.4573 272.419Z" fill="#EAEBF4"/>
<path d="M44.5302 271.763C44.6062 271.763 44.6807 271.725 44.7239 271.656C45.1377 270.99 45.6876 270.671 45.6932 270.668C45.8021 270.606 45.8405 270.467 45.7781 270.358C45.7157 270.249 45.5764 270.212 45.4683 270.273C45.4419 270.289 44.812 270.654 44.3381 271.416C44.2717 271.523 44.3045 271.663 44.4109 271.729C44.447 271.752 44.4894 271.763 44.5302 271.763Z" fill="#EAEBF4"/>
<path d="M43.6034 271.107C43.6794 271.107 43.7539 271.069 43.7963 271C44.2101 270.334 44.76 270.016 44.7656 270.012C44.8745 269.95 44.9121 269.812 44.8505 269.703C44.7881 269.594 44.6496 269.556 44.5407 269.618C44.5143 269.633 43.8844 269.999 43.4105 270.76C43.3449 270.867 43.3769 271.007 43.4833 271.073C43.5217 271.095 43.5626 271.107 43.6034 271.107Z" fill="#EAEBF4"/>
<path d="M23.8741 269.88C23.8741 269.88 23.1858 268.744 20.341 268.744C17.4954 268.744 17.2593 269.901 17.2593 269.901V271.365H23.8525L23.8741 269.88Z" fill="#F4B799"/>
<path d="M28.4981 275.528H16.4258V276.985H28.4981V275.528Z" fill="#D0D1D8"/>
<path d="M28.2894 275.528C28.2894 275.528 28.8257 273.183 26.4484 272.649L23.5428 268.837C23.5428 268.837 22.463 267.832 20.8053 268.852C20.4227 269.087 19.5454 270.587 18.4432 270.358C17.3409 270.13 17.6883 269.007 17.3001 269.093C16.9111 269.178 16.2707 271.573 16.3788 275.528H28.2894Z" fill="#FFCE43"/>
<path d="M26.4482 272.595C28.8255 273.129 28.2892 275.528 28.2892 275.528H22.0161C22.173 271.99 26.4482 272.595 26.4482 272.595Z" fill="#FFDC85"/>
<path d="M23.2064 272.398C23.2376 272.398 23.2696 272.391 23.2993 272.378C24.7313 271.739 25.6806 272.024 25.6894 272.026C25.8095 272.064 25.9383 271.998 25.976 271.878C26.0144 271.758 25.9487 271.63 25.8295 271.591C25.7846 271.577 24.7176 271.245 23.1128 271.96C22.9975 272.011 22.9455 272.146 22.9975 272.262C23.0351 272.347 23.1192 272.398 23.2064 272.398Z" fill="#EAEBF4"/>
<path d="M22.635 271.597C22.6662 271.597 22.6974 271.591 22.7278 271.577C24.1598 270.939 25.1091 271.224 25.1179 271.226C25.238 271.264 25.3661 271.197 25.4045 271.077C25.4429 270.957 25.3773 270.829 25.258 270.791C25.2132 270.776 24.1462 270.444 22.5413 271.16C22.426 271.211 22.374 271.346 22.4252 271.461C22.4637 271.547 22.5469 271.597 22.635 271.597Z" fill="#EAEBF4"/>
<path d="M22.1842 270.947C22.217 270.947 22.2506 270.939 22.2826 270.924C23.7106 270.241 24.652 270.505 24.6616 270.508C24.7824 270.543 24.9097 270.474 24.9449 270.353C24.9809 270.232 24.9113 270.104 24.7904 270.069C24.7456 270.056 23.6698 269.753 22.0849 270.512C21.9713 270.566 21.9224 270.703 21.9769 270.817C22.0169 270.899 22.0985 270.947 22.1842 270.947Z" fill="#EAEBF4"/>
<path d="M21.6175 270.169C21.6519 270.169 21.6872 270.161 21.72 270.144C23.136 269.435 24.0821 269.682 24.0909 269.685C24.2126 269.719 24.3382 269.647 24.3719 269.525C24.4047 269.403 24.3342 269.277 24.2118 269.243C24.1661 269.231 23.0863 268.948 21.5151 269.735C21.4022 269.792 21.3566 269.929 21.4126 270.041C21.4526 270.122 21.5335 270.169 21.6175 270.169Z" fill="#EAEBF4"/>
<path d="M19.8599 194.375C19.8591 194.118 19.9103 193.608 19.9391 193.419C19.9671 193.184 20.0055 192.953 20.0552 192.726C21.5592 184.464 25.896 177.292 25.896 177.292L44.2222 177.398C44.2222 177.398 49.1073 183.024 49.8837 192.645C49.9422 193.018 49.8837 194.665 49.8837 194.665C49.7669 198.352 47.0197 201.193 43.481 201.567L26.9646 201.582C23.0576 201.446 19.9007 198.305 19.8599 194.375Z" fill="#484867"/>
<g opacity="0.3">
<path d="M34.7034 201.29C34.7835 201.29 34.8603 201.244 34.8939 201.166C34.9027 201.145 35.8152 199.025 36.9174 194.527C38.0237 190.012 36.9679 179.919 36.9222 179.491C36.9102 179.377 36.8054 179.293 36.6933 179.306C36.5789 179.318 36.4964 179.421 36.5084 179.535C36.5196 179.639 37.6018 189.983 36.5132 194.428C35.4214 198.885 34.5217 200.978 34.5121 200.999C34.4665 201.105 34.5145 201.227 34.6202 201.273C34.6474 201.285 34.6754 201.29 34.7034 201.29Z" fill="black"/>
<path d="M36.5761 197.489C36.5865 197.489 36.597 197.488 36.6066 197.487C38.6925 197.173 39.4337 194.681 39.4649 194.575C40.8321 190.367 39.4778 179.696 39.4193 179.244C39.4041 179.13 39.3017 179.048 39.1864 179.064C39.0719 179.078 38.9919 179.183 39.0063 179.297C39.0207 179.406 40.4071 190.326 39.0671 194.453C39.0583 194.483 38.3651 196.801 36.5457 197.074C36.4321 197.091 36.3536 197.198 36.3704 197.311C36.3864 197.415 36.4753 197.489 36.5761 197.489Z" fill="black"/>
<path d="M35.9457 182.692C41.9746 182.692 45.555 180.835 45.6078 180.807C45.7095 180.753 45.7471 180.627 45.6935 180.525C45.6399 180.424 45.5134 180.386 45.4117 180.44C45.3333 180.481 37.4401 184.562 25.2822 180.426C25.1733 180.389 25.0548 180.448 25.018 180.557C24.9804 180.665 25.0388 180.784 25.1477 180.821C29.2732 182.224 32.9184 182.692 35.9457 182.692Z" fill="black"/>
<path d="M38.219 181.587C38.6933 181.587 39.0779 181.202 39.0779 180.728C39.0779 180.253 38.6933 179.869 38.219 179.869C37.7446 179.869 37.3601 180.253 37.3601 180.728C37.3601 181.202 37.7446 181.587 38.219 181.587Z" fill="black"/>
<path d="M29.6391 182.498C29.6391 182.498 29.5959 188.434 23.4773 188.275C23.4773 188.275 24.5395 183.849 25.893 181.586C25.893 181.586 28.4937 182.446 29.6391 182.498Z" fill="black"/>
<path d="M45.0066 181.56C45.0066 181.56 45.6653 184.89 48.302 185.723C48.302 185.723 47.2438 182.421 46.3417 180.897C46.3417 180.897 45.735 181.249 45.0066 181.56Z" fill="black"/>
<path d="M23.6947 189.756C25.8943 189.757 27.6577 189.136 28.9424 187.906C31.1668 185.779 31.1492 182.622 31.1468 182.489C31.1452 182.375 31.0524 182.277 30.9387 182.277H30.9355C30.821 182.277 30.729 182.379 30.7306 182.494C30.7306 182.525 30.745 185.606 28.6518 187.605C27.3151 188.882 25.4092 189.46 22.9895 189.317C22.8734 189.31 22.7766 189.399 22.7694 189.513C22.763 189.628 22.8502 189.727 22.9647 189.734C23.2136 189.749 23.457 189.756 23.6947 189.756Z" fill="black"/>
<path d="M48.5542 187.024C48.6471 187.024 48.7311 186.962 48.756 186.868C48.784 186.757 48.7175 186.643 48.6063 186.615C44.8306 185.647 44.2655 181.806 44.2599 181.767C44.2447 181.653 44.1406 181.573 44.0253 181.588C43.9109 181.603 43.8316 181.708 43.8468 181.823C43.8524 181.864 44.4592 185.98 48.503 187.018C48.5198 187.022 48.5374 187.024 48.5542 187.024Z" fill="black"/>
<path d="M33.677 200.897C33.7154 200.897 33.7546 200.887 33.789 200.865C33.8859 200.803 33.9139 200.674 33.8523 200.577C33.8338 200.548 31.9448 197.631 29.1865 195.677C29.0928 195.61 28.9631 195.633 28.8959 195.727C28.8295 195.82 28.8519 195.951 28.9455 196.017C31.6366 197.924 33.4833 200.774 33.5017 200.803C33.5417 200.864 33.6089 200.897 33.677 200.897Z" fill="black"/>
<path d="M32.4483 200.479C32.5084 200.479 32.5684 200.452 32.6092 200.402C32.6821 200.313 32.6693 200.182 32.5796 200.109C32.5436 200.079 28.9464 197.174 24.367 196.342C24.2542 196.322 24.1453 196.396 24.1253 196.51C24.1045 196.623 24.1789 196.731 24.2926 196.752C28.7671 197.565 32.281 200.403 32.3163 200.431C32.3555 200.463 32.4019 200.479 32.4483 200.479Z" fill="black"/>
<path d="M32.6566 201.29C32.7543 201.29 32.8415 201.221 32.8607 201.122C32.8832 201.009 32.8095 200.9 32.6967 200.878C32.5126 200.841 28.1533 199.994 25.8481 200.486C25.736 200.51 25.664 200.62 25.688 200.733C25.712 200.846 25.8232 200.917 25.9353 200.893C28.1565 200.419 32.5718 201.277 32.6166 201.286C32.6302 201.289 32.6438 201.29 32.6566 201.29Z" fill="black"/>
<path d="M37.2358 200.897C37.3047 200.897 37.3711 200.864 37.4111 200.802C37.4296 200.773 39.2762 197.923 41.9673 196.016C42.0609 195.95 42.0833 195.82 42.0169 195.726C41.9497 195.632 41.8208 195.61 41.7263 195.676C38.9672 197.631 37.079 200.548 37.0606 200.576C36.9989 200.673 37.0269 200.802 37.123 200.864C37.1582 200.887 37.1974 200.897 37.2358 200.897Z" fill="black"/>
<path d="M38.4645 200.479C38.5109 200.479 38.5573 200.463 38.5957 200.431C38.6309 200.403 42.1489 197.564 46.6194 196.752C46.7322 196.731 46.8075 196.623 46.7867 196.51C46.7667 196.396 46.6578 196.322 46.5449 196.342C41.9656 197.174 38.3676 200.08 38.3324 200.109C38.2435 200.182 38.2299 200.313 38.3028 200.402C38.3444 200.452 38.4044 200.479 38.4645 200.479Z" fill="black"/>
<path d="M38.2565 201.29C38.2701 201.29 38.283 201.289 38.2966 201.286C38.3414 201.278 42.7574 200.419 44.9771 200.893C45.0891 200.917 45.2004 200.846 45.2244 200.733C45.2484 200.621 45.1772 200.51 45.0643 200.486C42.759 199.994 38.4006 200.841 38.2157 200.878C38.1029 200.901 38.0292 201.009 38.0516 201.122C38.0716 201.222 38.1589 201.29 38.2565 201.29Z" fill="black"/>
</g>
<path d="M36.7975 141.865L36.8175 147.016L30.514 147.041L30.4875 140.339C33.1082 142.052 35.7209 142.003 36.7975 141.865Z" fill="#F4B799"/>
<path d="M30.4874 140.339L30.4666 135.176L36.7701 135.151L36.7965 141.864C35.7207 142.003 33.108 142.052 30.4874 140.339Z" fill="#F4B799"/>
<path opacity="0.3" d="M30.4434 140.339L30.4226 135.176L36.7261 135.151L36.7525 141.864C35.6767 142.003 33.0633 142.052 30.4434 140.339Z" fill="black"/>
<path d="M34.5489 146.027C32.2797 146.08 30.4546 144.715 29.8823 144.032C31.1046 143.814 32.9392 143.385 34.0046 143.374C35.014 143.363 36.5108 143.702 37.5498 143.885C37.5066 144.384 36.9695 145.971 34.5489 146.027Z" fill="#F4B799"/>
<path d="M18.0859 148.568C18.0859 146.122 21.5359 145.628 21.5359 145.628C23.3312 145.29 26.2417 144.857 28.1467 144.398C28.1467 144.398 29.0456 144.197 30.2119 143.988C30.7842 144.671 32.2474 145.812 34.5167 145.759C36.9372 145.703 37.279 144.376 37.3222 143.877C38.4252 144.071 39.2705 144.275 39.2705 144.275C42.658 144.987 45.3547 145.628 45.3547 145.628C45.3547 145.628 48.9086 146.123 48.9086 148.568C48.9086 149.674 46.609 151.286 45.5684 151.86V152.13C48.899 154.734 49.3249 156.686 49.3249 158.908C49.3249 163.555 45.4003 164.693 45.4003 164.693L44.2373 177.397C36.9692 181.2 25.9039 177.291 25.9039 177.291C24.7 169.092 22.8158 163.822 21.9449 158.58C21.5815 156.392 21.4366 153.952 21.399 151.785C20.276 151.156 18.0859 149.629 18.0859 148.568Z" fill="#FFCE43"/>
<path d="M48.3029 183.318C48.3029 183.318 48.9873 185.276 49.2723 187.027C49.2723 187.027 39.5669 191.522 21.2151 187.03L22.4294 183.318H48.3029Z" fill="#FFCE43"/>
<path d="M34.9082 147.476C31.0268 147.566 28.7128 145.772 27.9243 144.45C27.9988 144.432 28.074 144.416 28.146 144.399C28.146 144.399 29.0449 144.198 30.2112 143.989C30.7835 144.672 32.2467 145.812 34.516 145.759C36.9365 145.703 37.2783 144.376 37.3215 143.878C38.3341 144.056 39.1265 144.242 39.2506 144.271C39.0113 145.391 38.134 147.4 34.9082 147.476Z" fill="white"/>
<path opacity="0.1" d="M48.2021 160.892C48.2021 160.892 47.3785 161.589 45.5863 161.744C41.9699 162.056 36.0378 162.707 30.8077 161.866C28.6144 161.514 27.0007 160.405 25.3486 159.11C25.3486 159.11 26.334 164.733 33.2082 164.62C40.0832 164.506 47.7715 165.351 48.2021 160.892Z" fill="black"/>
<path d="M17.3473 191.151C17.3473 191.151 20.0448 193.088 20.2866 194.066C20.5291 195.043 21.2711 197.346 21.2743 197.82C21.2839 198.994 21.8554 200.526 21.5433 200.633C21.2311 200.74 20.6179 201.023 19.8871 198.742L20.1033 201.4C20.1033 201.4 20.2385 202.359 19.4813 202.448C18.6697 202.543 18.58 201.784 18.58 201.784L18.2422 200.818C18.2422 200.818 18.0973 201.321 17.4706 201.291C16.8094 201.259 16.6005 200.12 16.6005 200.12C16.6005 200.12 16.3292 200.656 15.736 200.536C15.1429 200.417 14.9884 199.921 14.9884 199.921C14.9884 199.921 14.629 200.148 14.3377 200.034C13.8718 199.851 13.57 198.791 13.57 198.791C13.57 198.791 13.0305 195.753 13.6773 192.196C13.6773 192.196 14.5282 188.726 17.3473 191.151Z" fill="#F4B799"/>
<path opacity="0.3" d="M14.3368 200.034C14.6282 200.148 14.9876 199.921 14.9876 199.921C14.9876 199.921 15.1421 200.416 15.7352 200.536C16.3283 200.656 16.5997 200.12 16.5997 200.12C16.5997 200.12 16.8086 201.26 17.4698 201.291C18.0957 201.321 18.2414 200.818 18.2414 200.818L18.5792 201.784C18.5792 201.784 18.6728 202.537 19.4477 202.457C20.2065 202.379 20.1024 201.4 20.1024 201.4L19.8911 198.795C19.8887 198.78 19.5549 196.564 19.4108 196.484L19.6422 199.119C19.6422 199.119 19.2363 200.262 18.2758 199.832C18.2758 199.832 17.4706 200.471 16.6509 199.731C16.6509 199.731 15.5295 200.181 14.9756 199.419C14.9756 199.419 13.9806 199.82 13.5508 198.68C13.562 198.752 13.5684 198.791 13.5684 198.791C13.5684 198.791 13.871 199.851 14.3368 200.034Z" fill="black"/>
<path d="M11.877 172.966C11.8786 172.91 11.8714 172.75 11.8714 172.748L11.8706 172.701C11.9042 170.746 13.5211 169.152 15.4742 169.152C17.4424 169.152 19.0738 170.789 19.1314 172.752C19.2162 173.284 19.0065 178.883 18.4334 191.996L13.5803 192.774C12.7767 187.986 11.4375 178.119 11.877 172.966Z" fill="#F4B799"/>
<path d="M15.3606 176.34C17.0367 176.34 18.5111 175.161 18.8761 173.524C20.3697 168.523 25.2084 152.308 25.2693 152.001C25.7143 149.755 24.2495 147.565 22.0018 147.12C21.7345 147.067 21.4607 147.04 21.1902 147.04C19.2195 147.04 17.5114 148.442 17.1207 150.375L11.8146 172.087L11.8114 172.105C11.464 174.028 12.7407 175.896 14.657 176.277C14.8891 176.323 15.1252 176.34 15.3606 176.34Z" fill="#F4B799"/>
<path d="M23.7371 166.577C23.7371 166.577 23.9228 180.112 21.2141 187.03L48.5261 184.006C48.5261 184.006 45.3155 175.215 45.229 166.545L23.7371 166.577Z" fill="#FFCE43"/>
<path d="M21.8121 145.577C21.8121 145.577 14.1047 146.028 13.8269 159.265L24.1887 160.625C24.1887 160.625 30.4665 148.805 21.8121 145.577Z" fill="#FFCE43"/>
<path d="M42.1723 147.416C42.1723 147.416 38.2885 154.09 49.1666 161.636L55.266 154.627C55.266 154.627 49.6453 141.987 42.1723 147.416Z" fill="#FFCE43"/>
<path d="M26.996 126.996C26.8727 128.173 25.8178 129.027 24.6403 128.904C23.4629 128.781 22.6088 127.726 22.732 126.548C22.8553 125.371 23.9103 124.517 25.0878 124.64C26.2652 124.763 27.1193 125.818 26.996 126.996Z" fill="#F4B799"/>
<path d="M44.8947 126.996C44.7714 128.173 43.7164 129.027 42.539 128.904C41.3615 128.781 40.5075 127.726 40.6307 126.548C40.754 125.371 41.809 124.517 42.9864 124.64C44.1639 124.763 45.0188 125.818 44.8947 126.996Z" fill="#F4B799"/>
<path d="M39.6309 116.992C35.1292 111.987 26.7966 114.302 25.3702 120.882C24.7306 123.833 24.3384 127.505 24.998 131.169C26.4844 139.427 31.8041 142.796 37.5961 139.918C43.3882 137.04 43.6499 125.252 41.5928 120.145C41.1213 118.976 40.4545 117.909 39.6309 116.992Z" fill="#F4B799"/>
<path d="M71.426 152.341C71.426 152.341 71.2891 150.605 71.7654 149.29C71.9447 148.793 71.9239 146.967 71.4276 145.972C70.953 145.02 70.5415 144.815 70.7873 144.586C71.4332 143.984 72.4306 143.878 73.8818 147.466L76.1783 146.037C76.1783 146.037 76.9995 145.552 77.5014 146.117C77.9584 146.632 77.491 147.106 77.491 147.106C77.491 147.106 78.2498 146.868 78.6156 147.37C79.0022 147.901 78.57 148.508 78.57 148.508C78.57 148.508 78.9502 148.481 79.2696 149.048C79.5313 149.514 79.2584 150.008 79.2584 150.008C79.2584 150.008 79.4977 150.275 79.5905 150.571C79.7394 151.045 79.4273 151.673 79.4273 151.673C79.4273 151.673 77.8944 153.585 74.7455 155.294C74.7471 155.293 70.8089 156.501 71.426 152.341Z" fill="#F4B799"/>
<path opacity="0.3" d="M73.906 147.624L76.2009 146.253C76.2009 146.253 74.901 147.372 74.5208 147.802C74.1397 148.233 74.5256 148.721 74.5256 148.721C74.5256 148.721 74.536 148.74 74.5544 148.773L74.552 148.766C74.8177 149.115 75.3908 148.744 75.3908 148.744L77.492 147.103C77.492 147.103 76.0072 148.37 75.4541 148.848C74.901 149.325 75.1155 149.717 75.1155 149.717L75.1115 149.716C75.1587 149.791 75.2075 149.87 75.2596 149.952C75.5781 150.349 76.1368 150.071 76.1368 150.071L78.5718 148.507C78.5718 148.507 76.7676 149.843 76.2313 150.185C75.6974 150.525 75.9944 151.043 75.9976 151.049C76.008 151.063 76.0184 151.078 76.0288 151.093C76.3338 151.523 76.822 151.369 76.822 151.369L79.2602 150.007C79.2602 150.007 77.2719 151.238 76.9285 151.47C76.5859 151.702 76.7452 152.076 76.7452 152.076C76.818 152.173 76.8733 152.248 76.9029 152.286C77.2839 152.791 79.3258 151.534 79.3258 151.534C79.0777 151.963 77.6393 153.006 77.6393 153.006C75.7951 151.434 74.0421 152.07 74.0421 152.07C75.2251 150.078 73.906 147.624 73.906 147.624Z" fill="black"/>
<path d="M43.2306 123.47C43.2306 123.47 34.0231 118.81 33.5845 113.576C33.5845 113.576 43.6773 111.278 43.2306 123.47Z" fill="#E64054"/>
<path d="M35.6981 114.151C35.6981 114.151 34.7632 118.76 30.0974 120.278C30.0974 120.278 30.5761 119.085 30.5761 117.862C30.5761 117.862 28.8527 121.858 24.4487 122.002C24.4487 122.002 23.7307 111.517 35.6981 114.151Z" fill="#E64054"/>
<path opacity="0.3" d="M68.064 276.462C68.064 278.661 52.9868 280.444 34.3877 280.444C15.7886 280.444 0.711426 278.661 0.711426 276.462C0.711426 274.262 15.7886 272.479 34.3877 272.479C52.9868 272.479 68.064 274.262 68.064 276.462Z" fill="#DADAE0"/>
<path opacity="0.3" d="M257.401 276.787C257.401 278.986 242.324 280.769 223.725 280.769C205.126 280.769 190.049 278.986 190.049 276.787C190.049 274.587 205.126 272.804 223.725 272.804C242.324 272.804 257.401 274.587 257.401 276.787Z" fill="#DADAE0"/>
<path d="M222.128 263.316H216.209V270.051H222.128V263.316Z" fill="#FAA284"/>
<path d="M223.129 234.845C223.064 231.783 220.614 229.748 218.032 229.748C215.325 229.748 212.935 231.954 212.935 234.845C212.89 236.265 215.973 266.3 215.973 266.3C218.947 266.3 218.867 266.074 222.438 266.098L223.129 234.845Z" fill="#484867"/>
<path d="M222.446 196.476C222.446 193.411 219.961 190.926 216.896 190.926C213.832 190.926 211.347 193.411 211.347 196.476C211.347 196.553 212.866 233.435 212.935 234.845C212.999 238.072 215.623 239.942 218.032 239.942C220.67 239.942 223.242 237.762 223.125 234.66L222.446 196.476Z" fill="#484867"/>
<path d="M215.155 269.439C215.155 269.439 215.989 268.177 219.202 268.177C222.417 268.177 222.74 269.507 222.74 269.507V271.072H215.179L215.155 269.439Z" fill="#FAA284"/>
<path d="M224.373 275.97H202.74V277.603H224.373V275.97Z" fill="#DBDBDB"/>
<path d="M202.825 275.97C202.825 275.97 201.82 272.075 209.003 272.674L215.107 268.364C215.107 268.364 215.588 267.946 216.037 268.363C216.486 268.78 218.089 270.302 220.045 270.046C222.002 269.79 222.05 268.591 222.739 268.688C223.428 268.784 224.566 271.89 224.374 275.971H202.825V275.97Z" fill="#FFCE43"/>
<path d="M209.002 272.678C201.819 272.079 202.824 275.97 202.824 275.97H209.607C209.607 273.521 209.002 272.678 209.002 272.678Z" fill="#FFDC85"/>
<path d="M212.654 272.351C212.569 272.351 212.485 272.308 212.436 272.23C211.968 271.478 211.346 271.117 211.341 271.114C211.218 271.043 211.175 270.887 211.245 270.764C211.315 270.641 211.471 270.598 211.595 270.668C211.624 270.685 212.337 271.097 212.871 271.959C212.946 272.079 212.909 272.238 212.789 272.313C212.747 272.339 212.701 272.351 212.654 272.351Z" fill="#E8E8E8"/>
<path d="M213.701 271.61C213.616 271.61 213.532 271.568 213.484 271.489C213.016 270.737 212.394 270.377 212.389 270.374C212.265 270.303 212.223 270.147 212.292 270.024C212.363 269.901 212.52 269.858 212.642 269.928C212.673 269.945 213.384 270.358 213.919 271.219C213.993 271.339 213.957 271.497 213.837 271.573C213.794 271.598 213.748 271.61 213.701 271.61Z" fill="#E8E8E8"/>
<path d="M214.748 270.869C214.662 270.869 214.579 270.826 214.53 270.748C214.062 269.996 213.441 269.636 213.435 269.632C213.311 269.562 213.269 269.406 213.339 269.283C213.41 269.159 213.567 269.117 213.689 269.187C213.72 269.204 214.43 269.616 214.966 270.478C215.04 270.598 215.004 270.756 214.883 270.831C214.841 270.857 214.795 270.869 214.748 270.869Z" fill="#E8E8E8"/>
<path d="M239.799 263.173L233.883 263.343L234.076 270.075L239.992 269.905L239.799 263.173Z" fill="#FAA284"/>
<path d="M239.987 234.682C239.834 231.623 237.327 229.659 234.746 229.732C232.04 229.81 229.715 232.083 229.797 234.974C229.793 236.395 233.878 266.258 233.878 266.258C236.694 265.995 236.65 265.989 239.99 265.651L239.987 234.682Z" fill="#484867"/>
<path d="M238.204 196.348C238.116 193.284 235.562 190.873 232.498 190.96C229.435 191.048 227.022 193.603 227.11 196.666C227.113 196.744 229.688 233.567 229.798 234.975C229.954 238.199 232.631 239.993 235.039 239.924C237.675 239.848 240.185 237.595 239.98 234.498L238.204 196.348Z" fill="#484867"/>
<path d="M232.707 269.439C232.707 269.439 233.541 268.177 236.755 268.177C239.968 268.177 240.293 269.507 240.293 269.507V271.072H232.732L232.707 269.439Z" fill="#FAA284"/>
<path d="M242.13 275.97H222.129V277.603H242.13V275.97Z" fill="#E8E8E8"/>
<path d="M224.369 275.97C224.369 275.97 223.992 272.668 228.147 272.581L233.176 268.163C233.176 268.163 234.084 267.474 235.274 268.157C236.16 268.665 236.289 270.14 237.9 269.877C239.512 269.615 239.552 268.403 240.12 268.501C240.688 268.6 242.282 271.479 242.123 275.969H224.369V275.97Z" fill="#FFCE43"/>
<path d="M225.915 272.601C221.76 272.688 222.137 275.97 222.137 275.97H229.107C229.115 272.704 225.915 272.601 225.915 272.601Z" fill="#FFDC85"/>
<path d="M232.37 272.189C232.3 272.189 232.23 272.161 232.178 272.106C231.26 271.127 229.972 271.101 229.96 271.101C229.815 271.099 229.698 271.024 229.699 270.879C229.701 270.735 229.819 270.663 229.962 270.663H229.964C230.026 270.663 231.489 270.65 232.56 271.79C232.66 271.896 232.654 272.041 232.549 272.139C232.499 272.187 232.435 272.189 232.37 272.189Z" fill="white"/>
<path d="M233.42 271.27C233.35 271.27 233.28 271.242 233.229 271.187C232.31 270.208 231.023 270.183 231.011 270.182C230.866 270.18 230.75 270.054 230.75 269.91C230.752 269.766 230.87 269.643 231.013 269.643H231.016C231.078 269.643 232.542 269.68 233.612 270.82C233.711 270.926 233.707 271.095 233.601 271.195C233.549 271.243 233.485 271.27 233.42 271.27Z" fill="white"/>
<path d="M234.47 270.351C234.4 270.351 234.331 270.323 234.279 270.268C233.36 269.289 232.074 269.263 232.061 269.263C231.916 269.262 231.799 269.186 231.801 269.042C231.802 268.897 231.919 268.825 232.063 268.825H232.065C232.127 268.825 233.591 268.811 234.661 269.952C234.761 270.057 234.756 270.201 234.65 270.301C234.6 270.349 234.535 270.351 234.47 270.351Z" fill="white"/>
<path d="M238.252 187.801H211.303L211.409 197.329C211.481 200.793 214.301 203.595 217.753 203.717L231.899 203.817C235.421 203.72 238.252 200.785 238.252 197.24C238.252 197.045 238.252 187.801 238.252 187.801Z" fill="#484867"/>
<path d="M240.762 265.888C240.559 265.888 232.707 266.301 232.707 266.301L232.155 261.979H241.107L240.762 265.888Z" fill="#6F6FA5"/>
<path d="M223.301 266.27C223.097 266.27 215.245 266.683 215.245 266.683L214.694 262.362H223.646L223.301 266.27Z" fill="#6F6FA5"/>
<g opacity="0.3">
<path d="M225.663 203.492C225.596 203.492 225.533 203.453 225.504 203.388C225.497 203.371 224.736 201.602 223.816 197.852C222.893 194.085 223.774 185.666 223.812 185.31C223.822 185.215 223.91 185.145 224.002 185.156C224.098 185.166 224.167 185.252 224.157 185.347C224.147 185.433 223.244 194.062 224.153 197.769C225.064 201.486 225.815 203.232 225.822 203.25C225.86 203.338 225.82 203.44 225.731 203.478C225.71 203.487 225.687 203.492 225.663 203.492Z" fill="black"/>
<path d="M224.101 200.321C224.093 200.321 224.084 200.32 224.076 200.319C222.335 200.057 221.717 197.979 221.692 197.89C220.552 194.379 221.681 185.48 221.729 185.102C221.741 185.007 221.828 184.94 221.924 184.952C222.019 184.964 222.086 185.052 222.074 185.147C222.062 185.238 220.905 194.347 222.023 197.788C222.03 197.813 222.608 199.747 224.127 199.975C224.222 199.99 224.287 200.078 224.272 200.172C224.26 200.259 224.185 200.321 224.101 200.321Z" fill="black"/>
<path d="M224.627 187.98C219.599 187.98 216.612 186.431 216.568 186.408C216.483 186.363 216.451 186.257 216.497 186.173C216.542 186.089 216.647 186.057 216.732 186.102C216.797 186.137 223.381 189.541 233.521 186.091C233.612 186.06 233.711 186.108 233.742 186.2C233.773 186.29 233.724 186.389 233.634 186.42C230.192 187.589 227.152 187.98 224.627 187.98Z" fill="black"/>
<path d="M222.731 187.057C223.126 187.057 223.447 186.736 223.447 186.34C223.447 185.945 223.126 185.624 222.731 185.624C222.335 185.624 222.014 185.945 222.014 186.34C222.014 186.736 222.335 187.057 222.731 187.057Z" fill="black"/>
<path d="M229.887 187.817C229.887 187.817 229.923 192.769 235.027 192.637C235.027 192.637 234.141 188.945 233.012 187.057C233.012 187.057 230.842 187.775 229.887 187.817Z" fill="black"/>
<path d="M217.069 187.036C217.069 187.036 216.519 189.814 214.32 190.508C214.32 190.508 215.203 187.753 215.956 186.483C215.956 186.483 216.461 186.776 217.069 187.036Z" fill="black"/>
<path d="M234.845 193.871C233.01 193.872 231.54 193.353 230.469 192.329C228.613 190.555 228.628 187.921 228.63 187.81C228.632 187.715 228.709 187.634 228.804 187.634H228.806C228.902 187.634 228.978 187.719 228.977 187.815C228.977 187.84 228.965 190.41 230.711 192.077C231.826 193.143 233.416 193.624 235.434 193.505C235.531 193.5 235.612 193.573 235.617 193.668C235.623 193.765 235.55 193.847 235.455 193.853C235.246 193.865 235.044 193.871 234.845 193.871Z" fill="black"/>
<path d="M214.111 191.593C214.033 191.593 213.963 191.541 213.943 191.462C213.92 191.37 213.975 191.275 214.068 191.251C217.217 190.443 217.689 187.239 217.693 187.207C217.706 187.112 217.792 187.046 217.888 187.059C217.983 187.072 218.05 187.159 218.037 187.254C218.032 187.289 217.526 190.722 214.153 191.588C214.14 191.591 214.125 191.593 214.111 191.593Z" fill="black"/>
<path d="M226.519 203.164C226.487 203.164 226.455 203.155 226.426 203.137C226.345 203.085 226.322 202.978 226.373 202.898C226.389 202.873 227.963 200.44 230.265 198.81C230.343 198.755 230.451 198.773 230.506 198.851C230.562 198.929 230.543 199.037 230.465 199.092C228.22 200.682 226.679 203.06 226.664 203.084C226.632 203.136 226.576 203.164 226.519 203.164Z" fill="black"/>
<path d="M227.545 202.815C227.494 202.815 227.445 202.794 227.41 202.751C227.35 202.678 227.361 202.568 227.434 202.507C227.464 202.482 230.465 200.059 234.284 199.365C234.377 199.348 234.469 199.411 234.485 199.505C234.503 199.6 234.441 199.69 234.346 199.707C230.614 200.386 227.683 202.753 227.654 202.776C227.622 202.802 227.583 202.815 227.545 202.815Z" fill="black"/>
<path d="M227.37 203.492C227.289 203.492 227.217 203.435 227.201 203.352C227.182 203.258 227.243 203.166 227.337 203.148C227.491 203.118 231.127 202.411 233.049 202.822C233.143 202.842 233.203 202.934 233.183 203.027C233.163 203.121 233.07 203.18 232.977 203.161C231.124 202.765 227.441 203.482 227.404 203.489C227.393 203.491 227.381 203.492 227.37 203.492Z" fill="black"/>
<path d="M223.551 203.164C223.495 203.164 223.439 203.136 223.405 203.084C223.39 203.06 221.85 200.682 219.605 199.092C219.527 199.037 219.508 198.928 219.564 198.851C219.62 198.772 219.728 198.754 219.805 198.81C222.107 200.44 223.682 202.873 223.697 202.898C223.749 202.978 223.725 203.086 223.645 203.137C223.616 203.155 223.583 203.164 223.551 203.164Z" fill="black"/>
<path d="M222.526 202.815C222.488 202.815 222.448 202.802 222.416 202.776C222.387 202.752 219.453 200.384 215.724 199.707C215.629 199.689 215.567 199.599 215.585 199.505C215.601 199.411 215.692 199.348 215.786 199.365C219.606 200.06 222.607 202.483 222.636 202.507C222.71 202.568 222.721 202.677 222.66 202.751C222.627 202.793 222.576 202.815 222.526 202.815Z" fill="black"/>
<path d="M222.7 203.492C222.689 203.492 222.678 203.492 222.667 203.489C222.63 203.482 218.946 202.766 217.094 203.161C217 203.181 216.907 203.121 216.887 203.027C216.867 202.934 216.927 202.842 217.021 202.822C218.944 202.412 222.579 203.119 222.733 203.148C222.828 203.167 222.888 203.258 222.87 203.352C222.854 203.435 222.781 203.492 222.7 203.492Z" fill="black"/>
</g>
<path d="M233.907 111.488C235.135 112.418 235.915 113.848 236.306 115.339C236.831 117.333 236.712 119.458 236.212 121.458C235.712 123.458 234.842 125.347 233.871 127.166C233.69 127.505 233.492 127.855 233.169 128.063C232.88 128.247 232.527 128.295 232.187 128.337C228.1 128.845 223.958 129.354 219.876 128.809C218.933 128.682 217.941 128.472 217.258 127.81C216.374 126.955 216.253 125.601 216.209 124.372C216.17 123.285 216.148 122.198 216.146 121.11C216.138 118.689 212.541 118.032 213.294 115.731C213.586 114.841 217.676 112.155 218.352 111.507C218.861 111.018 219.499 110.686 220.15 110.414C222.318 109.512 224.741 109.234 227.056 109.619C228.239 109.816 229.212 110.65 230.377 110.568C231.671 110.475 232.845 110.683 233.907 111.488Z" fill="#502F26"/>
<path d="M230.089 133.921H221.721V143.718H230.089V133.921Z" fill="#F4B799"/>
<path opacity="0.3" d="M230.089 138.106V133.92H221.721V140.451C222.945 140.626 227.843 140.963 230.089 138.106Z" fill="black"/>
<path d="M220.563 142.52C220.563 142.52 225.487 141.372 231.355 142.52C231.355 142.52 229.875 145.888 225.487 145.888C221.099 145.888 220.563 142.52 220.563 142.52Z" fill="#F4B799"/>
<path d="M247.223 149.157C246.384 146.133 243.699 145.656 243.699 145.656C243.699 145.656 236.648 143.696 230.845 142.431C230.845 142.431 229.586 145.792 224.857 145.715C220.759 145.649 221.149 142.431 221.149 142.431C218.507 142.847 211.831 144.409 209.199 145.639C209.199 145.639 206.428 146.566 206.165 149.731C206.165 149.731 206.126 151.156 209.125 153.121C209.306 156.454 209.735 161.064 210.652 167.271C211.721 174.513 211.302 178.312 211.283 188.312C211.283 188.312 219.855 191.906 238.771 188.298C238.771 188.298 238.085 177.749 239.025 169.783C239.783 163.367 242.333 157.111 242.742 153.663V153.665C248.049 151.435 247.223 149.157 247.223 149.157Z" fill="#FFCE43"/>
<path d="M245.356 148.257C244.061 146.611 241.677 146.327 240.032 147.622C238.386 148.917 238.102 151.301 239.397 152.947C239.6 153.205 255.825 170.236 255.825 170.236C256.929 171.59 258.917 171.816 260.295 170.733C261.673 169.648 261.921 167.662 260.864 166.271L245.356 148.257Z" fill="#F4B799"/>
<path d="M260.461 170.577C261.722 169.368 261.787 167.368 260.595 166.082C259.403 164.796 257.358 164.671 256.057 165.836C256.057 165.836 251.215 169.003 239.018 181.664L241.802 184.668C241.802 184.668 254.868 176.686 260.294 170.724C260.33 170.685 260.461 170.577 260.461 170.577Z" fill="#F4B799"/>
<path d="M256.344 159.125L246.265 147.443C244.572 145.319 241.468 144.959 239.331 146.643C237.188 148.333 236.821 151.451 238.51 153.593C238.659 153.782 243.799 159.18 249.513 165.169C251.275 163.857 254.166 161.561 256.344 159.125Z" fill="#FFCE43"/>
<path d="M242.975 181.615C242.337 179.782 241.363 180.071 241.363 180.071L239.962 180.139C238.743 179.528 238.092 178.554 237.465 178.357C236.331 178.001 235.957 176.899 235.716 176.991C235.197 177.19 235.07 177.668 235.298 178.109C235.623 178.735 236.389 179.32 236.389 179.32C235.897 179.14 233.842 178.519 233.113 178.426C232.483 178.347 230.666 179.427 230.448 179.55C230.176 179.703 229.791 179.966 229.917 180.224C230.129 180.66 230.644 180.653 231.035 180.538C231.469 180.411 232.454 179.708 232.808 179.802C233.015 179.856 234.276 180.232 234.374 180.271C234.374 180.271 232.822 180.874 232.154 181.11C231.384 181.383 229.769 182.046 229.769 182.046C228.5 182.844 230.072 183.342 230.072 183.342C229.977 183.421 229.66 183.704 229.759 183.95C229.944 184.406 230.604 184.407 230.768 184.399C231.275 184.379 232.835 183.875 232.876 183.879L235.137 183.95C234.457 184.477 234.059 184.769 233.213 185.351C233.072 185.449 232.163 186.01 232.098 186.15C232.02 186.317 232.089 186.469 232.242 186.544C232.56 186.7 232.952 186.689 233.313 186.568C233.488 186.509 234.18 186.191 234.553 185.972C236.02 185.114 236.843 184.845 238.182 185.82C240.112 187.225 242.238 184.351 242.238 184.351C242.238 184.351 243.613 183.448 242.975 181.615Z" fill="#F4B799"/>
<path opacity="0.3" d="M236.389 179.32L237.423 179.695C237.423 179.695 237.54 179.455 236.389 179.32Z" fill="black"/>
<path opacity="0.3" d="M230.073 183.342C230.073 183.342 232.191 182.598 232.676 182.467C233.16 182.336 235.54 182.376 235.347 181.856C235.347 181.856 234.63 181.231 230.073 183.342Z" fill="black"/>
<path opacity="0.3" d="M234.375 180.272C234.375 180.272 235.567 180.099 235.281 179.98C234.995 179.861 234.609 180.182 234.375 180.272Z" fill="black"/>
<path d="M207.662 148.296C208.962 146.654 211.346 146.377 212.988 147.676C214.63 148.976 214.907 151.36 213.607 153.002C213.403 153.26 197.131 170.246 197.131 170.246C196.024 171.597 194.035 171.817 192.66 170.729C191.285 169.641 191.043 167.655 192.103 166.266L207.662 148.296Z" fill="#F4B799"/>
<path d="M192.218 170.247C191.093 168.91 191.242 166.914 192.564 165.763C193.887 164.611 195.933 164.705 197.102 166.003C197.102 166.003 201.579 169.668 212.355 183.559L209.483 186.059C209.483 186.059 197.127 176.918 192.367 170.412C192.337 170.368 192.218 170.247 192.218 170.247Z" fill="#F4B799"/>
<path d="M196.644 159.134L206.756 147.48C208.454 145.361 211.56 145.009 213.691 146.699C215.829 148.395 216.188 151.514 214.493 153.652C214.343 153.84 209.188 159.224 203.458 165.196C201.7 163.88 198.815 161.575 196.644 159.134Z" fill="#FFCE43"/>
<path d="M211.601 178.243C211.601 178.243 212.1 176.628 211.358 176.168C210.652 175.731 210.157 178.769 210.157 178.769L211.601 178.243Z" fill="#F4B799"/>
<path d="M217.496 180.879C217.414 180.82 215.017 179.613 214.666 179.536C214.459 179.49 212.694 179.312 212.684 179.303L214.016 178.915C214.569 178.753 215.59 179.612 216.363 179.408C217.071 179.221 217.01 178.704 216.746 178.6C214.935 177.886 214.488 177.495 213.846 177.554C212.791 177.652 212.223 177.857 211.813 177.924C210.956 178.062 210.64 177.929 210.285 178.517C210.257 178.563 209.254 180.378 208.649 184.17C208.366 185.947 210.36 186.489 210.36 186.489C212.036 186.923 211.989 185.042 212.653 184.447C212.933 184.195 214.199 185.239 214.614 185.476C215.029 185.713 215.605 185.899 215.828 185.765C216.339 185.457 216.125 185.224 215.883 185.032C215.508 184.735 212.912 182.907 212.912 182.907C212.927 182.806 212.954 182.731 212.97 182.635C212.97 182.635 214.294 183.068 214.92 183.351C215.492 183.609 216.495 184.06 217 183.748C217.464 183.461 217.246 183.087 217.085 182.938C216.788 182.662 213.191 181.052 213.191 181.052C213.191 181.052 213.726 180.663 214.464 180.835C214.967 180.953 215.777 181.243 216.033 181.37C216.376 181.542 217.199 181.928 217.528 181.528C217.758 181.249 217.657 180.995 217.496 180.879Z" fill="#F4B799"/>
<path opacity="0.3" d="M212.787 184.41C212.787 184.41 212.145 183.957 212.022 183.924C211.903 183.893 211.823 184.056 212.787 184.41Z" fill="black"/>
<path opacity="0.3" d="M212.317 184.848C212.317 184.848 211.275 184.698 211.156 184.584C211.037 184.471 210.591 184.992 212.317 184.848Z" fill="black"/>
<path opacity="0.3" d="M212.911 182.908C212.911 182.908 211.619 182.286 211.702 182.06C211.814 181.751 212.649 182.41 212.969 182.638L212.911 182.908Z" fill="black"/>
<path opacity="0.3" d="M213.19 181.053C213.19 181.053 211.742 180.775 211.789 180.428C211.834 180.082 213.19 181.053 213.19 181.053Z" fill="black"/>
<path opacity="0.3" d="M212.684 179.303C212.684 179.303 211.6 179.06 211.524 178.854C211.448 178.648 211.942 178.824 212.684 179.303Z" fill="black"/>
<path d="M232.616 126.1C232.792 127.451 234.03 128.404 235.382 128.228C236.733 128.052 237.686 126.815 237.51 125.463C237.334 124.111 236.096 123.158 234.745 123.334C233.393 123.51 232.44 124.749 232.616 126.1Z" fill="#F4B799"/>
<path opacity="0.6" d="M234.119 125.935C234.135 126.59 234.68 127.108 235.335 127.092C235.991 127.076 236.509 126.531 236.493 125.876C236.477 125.22 235.932 124.702 235.277 124.718C234.62 124.735 234.102 125.28 234.119 125.935Z" fill="black"/>
<path d="M219.281 114.882C223.839 109.553 232.577 111.749 234.233 118.564C234.976 121.62 235.479 125.435 234.887 129.267C233.553 137.906 228.101 141.552 221.994 138.704C215.888 135.857 215.311 123.589 217.32 118.217C217.779 116.986 218.446 115.857 219.281 114.882Z" fill="#F4B799"/>
<path d="M235.04 123.316C235.04 123.316 234.128 123.225 233.31 124.589C233.31 124.589 231.745 114.313 227.686 114.652C227.686 114.652 222.342 114.869 216.876 117.487C212.183 119.735 212.761 109.449 221.179 109.142C230.94 108.785 229.853 109.78 229.853 109.78C229.853 109.78 239.212 106.666 235.04 123.316Z" fill="#502F26"/>
<path d="M231.115 116.335C231.115 116.335 232.005 110.696 230.258 108.446C228.512 106.196 227.262 106.439 226.188 107.503C226.188 107.503 224.034 105.217 222.609 107.339C221.184 109.461 220.229 107.879 219.398 107.329C218.567 106.78 216.222 106.632 216.892 108.885C216.892 108.885 212.227 106.113 210.984 109.05C209.742 111.988 213.451 113.179 213.451 113.179C213.451 113.179 211.248 120.47 217.705 117.421C225.526 113.729 231.115 116.335 231.115 116.335Z" fill="#502F26"/>
<path d="M79.7259 15.8763C79.4729 15.3968 79.2368 14.9069 79.0247 14.4211L79.3913 14.261C79.5994 14.7389 79.8307 15.2191 80.0797 15.6898L79.7259 15.8763Z" fill="#484867"/>
<path d="M244.741 56.6004L242.831 54.071L243.15 53.8301L245.059 56.3595L244.741 56.6004ZM240.923 51.5416L239.014 49.0122L239.333 48.7713L241.242 51.3007L240.923 51.5416ZM237.105 46.4828L235.196 43.9518L235.516 43.7125L237.424 46.2419L237.105 46.4828ZM233.282 41.4296C232.642 40.5923 231.996 39.7583 231.339 38.9322L231.652 38.6825C232.31 39.5101 232.958 40.3466 233.6 41.1855L233.282 41.4296ZM229.335 36.4853C228.614 35.6336 227.93 34.8588 227.244 34.1159L227.538 33.8446C228.227 34.5914 228.916 35.3702 229.64 36.2267L229.335 36.4853ZM134.014 35.9778C133.85 35.9778 133.685 35.9762 133.521 35.9738L133.528 35.5736C134.555 35.592 135.605 35.5527 136.673 35.4599L136.708 35.8585C135.796 35.9378 134.89 35.9778 134.014 35.9778ZM130.34 35.7321C129.266 35.584 128.214 35.3654 127.213 35.0821L127.323 34.6971C128.306 34.9756 129.34 35.1901 130.395 35.3358L130.34 35.7321ZM139.865 35.4351L139.794 35.0413C140.81 34.8588 141.845 34.6282 142.87 34.3569L142.973 34.7435C141.937 35.0181 140.891 35.2502 139.865 35.4351ZM124.212 33.9799C123.488 33.6477 122.781 33.2683 122.11 32.8537C121.878 32.7104 121.651 32.5599 121.427 32.403L121.657 32.0756C121.874 32.2277 122.095 32.3742 122.321 32.5127C122.978 32.9193 123.671 33.2907 124.38 33.6165L124.212 33.9799ZM146.018 33.8134L145.886 33.4348C146.102 33.3603 146.315 33.2843 146.527 33.2075C147.276 32.9353 148.052 32.6335 148.837 32.311L148.988 32.6808C148.201 33.0057 147.418 33.3091 146.664 33.5829C146.45 33.6621 146.235 33.7389 146.018 33.8134ZM225.042 31.8547C224.399 31.2312 223.746 30.6324 223.103 30.0745C222.971 29.96 222.839 29.8464 222.706 29.7343L222.964 29.4286C223.098 29.5422 223.232 29.6567 223.365 29.7719C224.015 30.3347 224.672 30.9382 225.319 31.5665L225.042 31.8547ZM151.9 31.4097L151.733 31.0462C152.617 30.6388 153.551 30.1922 154.586 29.6807L154.763 30.0393C153.724 30.5532 152.788 31.0014 151.9 31.4097ZM110.973 31.0519C110.492 31.0519 110.011 31.047 109.531 31.0358L109.54 30.6356C110.592 30.6588 111.645 30.6556 112.699 30.63L112.709 31.0302C112.129 31.0438 111.551 31.0519 110.973 31.0519ZM115.881 30.8886L115.856 30.4891C116.85 30.4267 117.868 30.3467 118.968 30.2442C118.268 29.4862 117.629 28.6481 117.068 27.7524L117.407 27.5395C117.967 28.4344 118.607 29.2701 119.308 30.0217L119.015 30.2946H119.014L119.046 30.6388C117.926 30.7429 116.891 30.8253 115.881 30.8886ZM106.355 30.879C105.277 30.7957 104.213 30.6788 103.193 30.5332L103.249 30.1369C104.262 30.2818 105.317 30.3971 106.386 30.4803L106.355 30.879ZM122.202 30.305L122.156 29.9072C123.09 29.7984 124.022 29.6815 124.951 29.5606L125.296 29.515L125.349 29.912L125.003 29.9576C124.071 30.0785 123.138 30.1954 122.202 30.305ZM100.061 29.9713C99.7376 29.9016 99.4151 29.8272 99.0933 29.7495C98.3849 29.5774 97.6733 29.3813 96.9793 29.1668L97.097 28.7842C97.7837 28.9963 98.4865 29.19 99.1877 29.3597C99.5063 29.4374 99.8257 29.5102 100.146 29.5798L100.061 29.9713ZM128.491 29.4382L128.422 29.0443C129.559 28.8458 130.568 28.6297 131.504 28.3832L131.606 28.7698C130.658 29.0195 129.639 29.238 128.491 29.4382ZM157.595 28.6113L157.412 28.2551L160.232 26.8087L160.415 27.1649L157.595 28.6113ZM93.98 28.0902C92.9939 27.6852 92.0229 27.2313 91.0928 26.7415L91.2785 26.3877C92.1974 26.8711 93.158 27.3194 94.1321 27.7196L93.98 28.0902ZM220.225 27.79C219.382 27.1785 218.503 26.5862 217.608 26.0323L217.819 25.6921C218.721 26.2516 219.61 26.8487 220.46 27.4667L220.225 27.79ZM134.637 27.7716L134.486 27.401C135.493 26.9888 136.429 26.5077 137.266 25.9706L137.482 26.3076C136.625 26.8575 135.668 27.3506 134.637 27.7716ZM163.241 25.7393L163.063 25.3807C164.112 24.862 165.047 24.4138 165.926 24.0095L166.093 24.3729C165.22 24.7748 164.286 25.2222 163.241 25.7393ZM88.3481 25.1198C87.4508 24.525 86.5887 23.8871 85.7875 23.2211L86.0428 22.9129C86.8337 23.5693 87.6837 24.2 88.569 24.786L88.3481 25.1198ZM115.625 24.894C115.228 23.8887 114.928 22.8537 114.735 21.8179L115.128 21.7443C115.317 22.7544 115.609 23.7646 115.996 24.7467L115.625 24.894ZM214.872 24.4658C213.953 23.9815 212.997 23.5189 212.032 23.0922L212.194 22.7264C213.168 23.1571 214.132 23.6237 215.058 24.112L214.872 24.4658ZM139.958 24.2617L139.664 23.9895C140.374 23.2243 140.981 22.3718 141.466 21.4569L141.819 21.6442C141.318 22.5904 140.691 23.4708 139.958 24.2617ZM168.987 23.1042L168.836 22.7336L169.379 22.5119C170.171 22.1941 170.988 21.8876 171.806 21.601L171.939 21.9788C171.125 22.263 170.315 22.5679 169.528 22.8833L168.987 23.1042ZM209.106 21.9116C208.131 21.5546 207.122 21.2224 206.109 20.9238L206.222 20.5404C207.244 20.8414 208.261 21.1768 209.243 21.5362L209.106 21.9116ZM83.4574 21.0415C82.7178 20.2611 82.031 19.435 81.4163 18.5873L81.7404 18.352C82.3448 19.1861 83.0203 19.9985 83.7479 20.7661L83.4574 21.0415ZM174.947 21.0223L174.835 20.6381C175.849 20.3467 176.885 20.0794 177.915 19.844L178.003 20.2339C176.981 20.4676 175.953 20.7333 174.947 21.0223ZM203.055 20.1266C202.042 19.8953 201.001 19.6895 199.958 19.5158L200.024 19.1212C201.075 19.2957 202.124 19.503 203.144 19.7368L203.055 20.1266ZM181.1 19.6143L181.032 19.2197C182.076 19.0404 183.135 18.8875 184.18 18.7666L184.227 19.1645C183.188 19.2845 182.136 19.435 181.1 19.6143ZM196.829 19.09C195.792 18.9788 194.733 18.8963 193.681 18.8443L193.701 18.4449C194.759 18.4969 195.825 18.5801 196.871 18.6922L196.829 19.09ZM187.369 18.8843L187.345 18.4849C188.401 18.42 189.471 18.3832 190.523 18.3768L190.526 18.777C189.48 18.7834 188.419 18.8195 187.369 18.8843ZM114.878 18.6354L114.478 18.6234C114.511 17.5203 114.675 16.4533 114.964 15.4504L115.349 15.5617C115.069 16.5326 114.91 17.5668 114.878 18.6354ZM142.912 18.6209L142.52 18.5425C142.634 17.9646 142.693 17.3875 142.693 16.8264C142.693 16.3645 142.653 15.9066 142.576 15.4664L142.97 15.3968C143.052 15.8602 143.093 16.3405 143.093 16.8264C143.093 17.4139 143.032 18.0174 142.912 18.6209ZM116.624 12.7361L116.287 12.52C116.643 11.9645 117.054 11.437 117.507 10.9543C117.787 10.6557 118.088 10.3676 118.401 10.0978L118.662 10.4012C118.36 10.6613 118.069 10.9391 117.8 11.228C117.362 11.6939 116.966 12.2014 116.624 12.7361ZM141.41 12.6376C140.86 11.8356 140.126 11.1008 139.231 10.4556L139.465 10.1314C140.397 10.8038 141.162 11.5714 141.74 12.4111L141.41 12.6376ZM136.504 8.94518C135.94 8.70505 135.334 8.48172 134.703 8.28161C134.319 8.15914 133.925 8.04628 133.532 7.94463L133.632 7.55721C134.032 7.66047 134.433 7.77653 134.824 7.9006C135.467 8.10471 136.085 8.33284 136.661 8.57778L136.504 8.94518ZM121.266 8.70665L121.092 8.34645C122.026 7.8958 123.046 7.542 124.121 7.29387L124.211 7.68368C123.165 7.92542 122.174 8.26961 121.266 8.70665ZM130.446 7.37631C129.391 7.25865 128.342 7.22342 127.312 7.26825L127.295 6.86883C128.342 6.8208 129.413 6.85922 130.49 6.97849L130.446 7.37631Z" fill="#484867"/>
<path d="M247.026 58.9556L246.706 59.1967L247.67 60.4746L247.99 60.2336L247.026 58.9556Z" fill="#484867"/>
<path d="M83.7833 8.38649L83.3535 21.196L41.3181 0.687012L83.7833 8.38649Z" fill="#707070"/>
<path d="M94.6989 1.11685L83.7833 8.38649L41.3181 0.687012L94.6989 1.11685Z" fill="#BABABA"/>
<path d="M79.9203 10.7318L41.3181 0.687012L68.4276 18.4209L79.9203 10.7318Z" fill="#CBCBCB"/>
<path d="M83.3534 21.196L79.9203 10.7318L72.3081 15.829L83.3534 21.196Z" fill="#8C8C8C"/>
<path opacity="0.5" d="M100.92 226.089L94.6467 224.959L89.7223 215.884L78.3968 222.03L74.3594 221.302L72.7689 225.084L61.4426 231.229L66.367 240.304L63.896 246.179L77.7269 271.667L114.75 251.576L100.92 226.089Z" fill="black"/>
<path d="M97.4641 224.298L60.4419 244.391L70.5958 263.1L107.618 243.007L97.4641 224.298Z" fill="#E5AE13"/>
<path d="M60.4319 244.405L70.8945 219.528L97.4548 224.314L60.4319 244.405Z" fill="#FFCE43"/>
<path d="M86.2397 214.109L57.9614 229.453L76.3945 263.424L104.673 248.08L86.2397 214.109Z" fill="white"/>
<path d="M87.8383 222.063L63.4546 235.294L64.0707 236.43L88.4544 223.199L87.8383 222.063Z" fill="#EDEDED"/>
<path d="M89.1117 224.349L64.728 237.583L65.3446 238.719L89.7283 225.485L89.1117 224.349Z" fill="#EDEDED"/>
<path d="M90.3585 226.647L65.9749 239.881L66.5911 241.016L90.9748 227.783L90.3585 226.647Z" fill="#EDEDED"/>
<path d="M91.6058 228.945L67.2222 242.179L67.8388 243.315L92.2225 230.081L91.6058 228.945Z" fill="#EDEDED"/>
<path d="M92.8244 231.259L68.4407 244.489L69.0572 245.626L93.4408 232.395L92.8244 231.259Z" fill="#EDEDED"/>
<path d="M88.6833 236.646L69.7856 246.902L70.4023 248.038L89.3 237.782L88.6833 236.646Z" fill="#EDEDED"/>
<path d="M60.4319 244.405L74.262 269.892L111.286 249.802L97.4548 224.314L87.1347 249.455L60.4319 244.405Z" fill="#FCDCDF"/>
<path d="M74.262 269.892L84.7254 245.015L111.286 249.802L74.262 269.892Z" fill="#FCDCDF"/>
<path opacity="0.5" d="M74.262 269.892L82.2216 248.526L83.1781 248.707L74.262 269.892Z" fill="black"/>
<path opacity="0.5" d="M111.286 249.802L88.666 245.725L89.0342 244.83L111.286 249.802Z" fill="black"/>
<path opacity="0.5" d="M74.5369 103.992V71.8537C74.5369 66.7388 77.1463 62.2243 81.1085 59.5909C84.9987 62.5845 88.0724 66.7308 89.7533 71.7256C94.1798 84.8769 87.392 99.1008 74.5369 103.992Z" fill="black"/>
<path d="M89.3088 81.9646C91.6469 67.9444 82.1767 54.6833 68.1564 52.3452C54.1362 50.0071 40.8751 59.4773 38.537 73.4975C36.1989 87.5178 45.6691 100.779 59.6893 103.117C73.7096 105.455 86.9707 95.9849 89.3088 81.9646Z" fill="#0AAD60"/>
<path d="M74.2532 98.4373C85.7549 93.3486 90.9536 79.8995 85.865 68.3979C80.7763 56.8962 67.3272 51.6975 55.8256 56.7861C44.3239 61.8748 39.1252 75.3239 44.2138 86.8255C49.3025 98.3272 62.7516 103.526 74.2532 98.4373Z" fill="#0AAD60"/>
<path opacity="0.2" d="M70.8005 98.4365C59.0355 102.402 46.3029 96.208 42.1125 84.584C42.1606 84.7376 42.2038 84.8913 42.255 85.045C46.2725 96.9628 59.1908 103.368 71.1086 99.3506C83.0265 95.3331 89.4316 82.4148 85.4142 70.4969C85.363 70.3441 85.3029 70.1952 85.2485 70.0439C88.9506 81.832 82.5654 94.4711 70.8005 98.4365Z" fill="white"/>
<path opacity="0.5" d="M57.2927 58.0668C68.8911 54.1575 81.4341 60.1208 85.8013 71.4279C85.7085 71.1069 85.6116 70.7867 85.5043 70.4665C81.4869 58.5487 68.5685 52.1435 56.6507 56.161C44.7329 60.1784 38.3278 73.0968 42.3452 85.0146C42.4524 85.334 42.5701 85.6478 42.6902 85.9591C39.3203 74.3151 45.6942 61.9762 57.2927 58.0668Z" fill="black"/>
<g filter="url(#filter0_d_100_1632)">
<path d="M72.95 88C70.8667 88 68.8083 87.5458 66.775 86.6375C64.7417 85.7292 62.8917 84.4417 61.225 82.775C59.5583 81.1083 58.2708 79.2583 57.3625 77.225C56.4542 75.1917 56 73.1333 56 71.05C56 70.75 56.1 70.5 56.3 70.3C56.5 70.1 56.75 70 57.05 70H61.1C61.3333 70 61.5417 70.0792 61.725 70.2375C61.9083 70.3958 62.0167 70.5833 62.05 70.8L62.7 74.3C62.7333 74.5667 62.725 74.7917 62.675 74.975C62.625 75.1583 62.5333 75.3167 62.4 75.45L59.975 77.9C60.3083 78.5167 60.7042 79.1125 61.1625 79.6875C61.6208 80.2625 62.125 80.8167 62.675 81.35C63.1917 81.8667 63.7333 82.3458 64.3 82.7875C64.8667 83.2292 65.4667 83.6333 66.1 84L68.45 81.65C68.6 81.5 68.7958 81.3875 69.0375 81.3125C69.2792 81.2375 69.5167 81.2167 69.75 81.25L73.2 81.95C73.4333 82.0167 73.625 82.1375 73.775 82.3125C73.925 82.4875 74 82.6833 74 82.9V86.95C74 87.25 73.9 87.5 73.7 87.7C73.5 87.9 73.25 88 72.95 88ZM59.025 76L60.675 74.35L60.25 72H58.025C58.1083 72.6833 58.225 73.3583 58.375 74.025C58.525 74.6917 58.7417 75.35 59.025 76ZM67.975 84.95C68.625 85.2333 69.2875 85.4583 69.9625 85.625C70.6375 85.7917 71.3167 85.9 72 85.95V83.75L69.65 83.275L67.975 84.95Z" fill="white"/>
</g>
<defs>
<filter id="filter0_d_100_1632" x="52" y="67" width="26" height="26" filterUnits="userSpaceOnUse" color-interpolation-filters="sRGB">
<feFlood flood-opacity="0" result="BackgroundImageFix"/>
<feColorMatrix in="SourceAlpha" type="matrix" values="0 0 0 0 0 0 0 0 0 0 0 0 0 0 0 0 0 0 127 0" result="hardAlpha"/>
<feOffset dy="1"/>
<feGaussianBlur stdDeviation="0.5"/>
<feComposite in2="hardAlpha" operator="out"/>
<feColorMatrix type="matrix" values="0 0 0 0 0 0 0 0 0 0 0 0 0 0 0 0 0 0 0.25 0"/>
<feBlend mode="normal" in2="BackgroundImageFix" result="effect1_dropShadow_100_1632"/>
<feBlend mode="normal" in="SourceGraphic" in2="effect1_dropShadow_100_1632" result="shape"/>
</filter>
<linearGradient id="paint0_linear_100_1632" x1="93.0654" y1="92.2569" x2="168.924" y2="92.2569" gradientUnits="userSpaceOnUse">
<stop stop-color="#37355E" stop-opacity="0.8"/>
<stop offset="1" stop-color="#D1D1E6"/>
</linearGradient>
<linearGradient id="paint1_linear_100_1632" x1="93.0654" y1="105.647" x2="168.924" y2="105.647" gradientUnits="userSpaceOnUse">
<stop stop-color="#37355E" stop-opacity="0.8"/>
<stop offset="1" stop-color="#D1D1E6"/>
</linearGradient>
<linearGradient id="paint2_linear_100_1632" x1="93.0654" y1="117.093" x2="168.924" y2="117.093" gradientUnits="userSpaceOnUse">
<stop stop-color="#37355E" stop-opacity="0.8"/>
<stop offset="1" stop-color="#D1D1E6"/>
</linearGradient>
<linearGradient id="paint3_linear_100_1632" x1="93.0654" y1="260.505" x2="168.924" y2="260.505" gradientUnits="userSpaceOnUse">
<stop stop-color="#37355E" stop-opacity="0.8"/>
<stop offset="1" stop-color="#D1D1E6"/>
</linearGradient>
</defs>
</svg>
