<svg width="140" height="140" viewBox="0 0 140 140" fill="none" xmlns="http://www.w3.org/2000/svg">
<path d="M116.467 126.312H20.9195C15.5478 126.312 11.1934 121.998 11.1934 116.677V22.0256C11.1934 16.7043 15.5478 12.3907 20.9195 12.3907H116.467C121.839 12.3907 126.193 16.7043 126.193 22.0256V116.677C126.192 121.998 121.837 126.312 116.467 126.312Z" fill="#EFEFEF"/>
<path d="M113.204 95.9384C113.204 93.5632 113.204 91.2564 113.204 88.8478C112.007 88.8478 110.858 88.8478 109.719 88.8478C109.719 87.6674 109.719 86.5919 109.719 85.4497C110.917 85.4497 112.044 85.4497 113.189 85.4497C113.189 81.9227 113.189 78.4673 113.189 74.9673C109.631 74.9673 106.134 74.9673 102.637 74.9673C102.627 76.0857 102.617 77.2025 102.608 78.3209C101.451 78.3209 100.295 78.3209 99.0378 78.3209C99.0378 79.5332 99.0378 80.6722 99.0378 81.8591C95.4693 81.8591 92.0037 81.8591 88.4353 81.8591C88.4353 79.6095 88.4353 77.3441 88.4353 74.9387C87.1569 74.9387 85.9765 74.9387 84.7978 74.9387C84.7978 73.771 84.7978 72.6033 84.7978 71.3942C87.2677 71.3942 89.6253 71.3942 91.9828 71.3942C91.9828 72.5587 91.9828 73.7248 91.9828 74.8862C93.1985 74.8862 94.2809 74.8862 95.426 74.8862C95.426 73.6787 95.426 72.5365 95.426 71.3942C96.6192 71.3847 97.8124 71.3767 99.0056 71.3672C99.0056 70.1994 99.0056 69.0317 99.0056 67.8226C97.7385 67.8226 96.5822 67.8226 95.426 67.8226C95.4179 69.0047 95.4083 70.1851 95.4003 71.3672C94.2697 71.3672 93.1407 71.3672 92.0101 71.3672C92.0101 70.1851 92.0101 69.0031 92.0101 67.8211C93.1407 67.8131 94.2697 67.8036 95.4003 67.7956C95.4003 66.6756 95.4003 65.5572 95.4003 64.4372C94.2697 64.4372 93.1407 64.4372 92.0101 64.4372C92.0005 65.5572 91.9924 66.6756 91.9828 67.7956C87.2468 67.8051 82.5125 67.8147 77.7766 67.8226C77.7766 68.9649 77.7766 70.1072 77.7766 71.3465C78.9585 71.3465 80.1052 71.3465 81.3819 71.3465C81.3819 72.6081 81.3819 73.7742 81.3819 74.9387C82.5125 74.9467 83.6415 74.9562 84.7721 74.9641C84.7721 76.0459 84.7721 77.1294 84.7721 78.3225C83.6142 78.3225 82.4981 78.3225 81.3819 78.3225C81.3723 77.2025 81.3643 76.0841 81.3546 74.9641C78.9971 74.9641 76.6395 74.9641 74.1439 74.9641C74.1439 72.5364 74.1439 70.1788 74.1439 67.8211C73.031 67.8211 71.9164 67.8211 70.7071 67.8211C70.7071 69.0588 70.7071 70.1963 70.7071 71.3656C69.4561 71.3656 68.3014 71.3656 67.1483 71.3656C67.1483 69.0922 67.1483 66.8204 67.1483 64.4356C69.5091 64.4356 71.8265 64.4356 74.1439 64.4356C74.1519 65.5556 74.1616 66.674 74.1696 67.794C75.3628 67.794 76.556 67.794 77.7509 67.794C77.7589 66.6756 77.7685 65.5556 77.7766 64.4356C78.9553 64.4356 80.1341 64.4356 81.3819 64.4356C81.3819 63.155 81.3819 62.0079 81.3819 60.8625C83.7138 60.8545 86.044 60.845 88.3758 60.8371C88.3758 58.4794 88.3758 56.1201 88.3758 53.7178C87.1103 53.7178 85.9541 53.7178 84.7978 53.7178C84.7978 54.8633 84.7978 56.0087 84.7978 57.291C83.6126 57.291 82.4964 57.291 81.3819 57.291C81.3723 58.473 81.3643 59.655 81.3546 60.8371C80.1758 60.8371 78.9971 60.8371 77.7493 60.8371C77.7493 62.1177 77.7493 63.2648 77.7493 64.4086C76.556 64.4086 75.3644 64.4086 74.1712 64.4086C74.1712 62.0732 74.1712 59.7378 74.1712 57.2639C76.5946 57.2639 78.9746 57.2639 81.3546 57.2639C81.3546 56.1185 81.3546 54.9731 81.3546 53.6924C82.5382 53.6924 83.6543 53.6924 84.7689 53.6924C84.7689 49.0899 84.7689 44.4875 84.7689 39.8453C83.5788 39.8453 82.4643 39.8453 81.3498 39.8453C81.3482 40.9414 81.3482 42.0375 81.3482 43.2227C80.0891 43.2227 78.9441 43.2227 77.7444 43.2227C77.7444 44.4557 77.7444 45.5948 77.7444 46.7338C76.5657 46.7338 75.3869 46.7338 74.1085 46.7338C74.1085 49.1424 74.1085 51.4079 74.1085 53.6526C72.9426 53.6526 71.8795 53.6526 70.7152 53.6526C70.7152 51.3363 70.7152 49.0693 70.7152 46.8245C69.4625 46.8245 68.3143 46.8245 67.1853 46.8245C67.1853 50.3324 67.1853 53.7656 67.1853 57.3005C68.3849 57.3005 69.5348 57.3005 70.6638 57.3005C70.6638 58.543 70.6638 59.6805 70.6638 60.8848C68.2613 60.8848 65.9342 60.8848 63.5044 60.8848C63.5044 62.0907 63.5044 63.2298 63.5044 64.3482C62.3128 64.3482 61.2288 64.3482 60.1625 64.3482C60.1625 61.9682 60.1625 59.663 60.1625 57.256C61.2979 57.256 62.3851 57.256 63.4515 57.256C63.4515 56.0135 63.4515 54.876 63.4515 53.756C57.5721 53.756 51.7665 53.756 45.9385 53.756C45.9385 54.9428 45.9385 56.0803 45.9385 57.3196C48.2864 57.3196 50.5733 57.3196 52.9293 57.3196C52.9293 58.5366 52.9293 59.6534 52.9293 60.8705C54.1466 60.8705 55.2964 60.8705 56.4334 60.8705C56.4334 63.2393 56.4334 65.5047 56.4334 67.759C55.2354 67.759 54.1096 67.759 52.8811 67.759C52.8811 66.6359 52.8811 65.5588 52.8811 64.4404C51.6236 64.4404 50.4673 64.4404 49.311 64.4404C49.311 65.5429 49.311 66.6454 49.311 67.8433C48.0937 67.8433 47.0097 67.8433 45.8936 67.8433C45.8936 69.0826 45.8936 70.2265 45.8936 71.3687C50.6295 71.3687 55.3639 71.3687 60.0998 71.3687C60.0998 70.2265 60.0998 69.0842 60.0998 67.8768C61.2449 67.8768 62.3273 67.8768 63.543 67.8768C63.543 69.0397 63.543 70.2042 63.543 71.3703C64.7362 71.3799 65.9294 71.3878 67.1227 71.3974C67.1227 72.5619 67.1227 73.728 67.1227 74.988C68.3994 74.988 69.5476 74.988 70.728 74.988C70.728 76.1653 70.728 77.2455 70.728 78.3241C69.5733 78.3241 68.4187 78.3241 67.1998 78.3241C67.1998 80.7152 67.1998 83.0395 67.1998 85.4577C70.6815 85.4577 74.1647 85.4577 77.746 85.4577C77.746 87.8408 77.746 90.1317 77.746 92.4226C76.5544 92.4226 75.3644 92.4226 74.1728 92.421C74.1728 91.2755 74.1728 90.1301 74.1728 88.8781C69.4401 88.8781 64.7828 88.8781 60.1271 88.8781C60.1271 90.0235 60.1271 91.169 60.1271 92.4496C58.8793 92.4496 57.7005 92.4496 56.5218 92.4496C56.5121 93.6301 56.5009 94.8121 56.4913 95.9925C55.3125 95.9925 54.1337 95.9925 52.9774 95.9925C52.9774 101.911 52.9774 107.684 52.9774 113.44C55.3799 113.44 57.7086 113.44 60.0484 113.44C60.0484 112.312 60.0484 111.236 60.0484 110.059C58.8343 110.059 57.6829 110.059 56.5619 110.059C56.5619 108.839 56.5619 107.724 56.5619 106.507C58.9034 106.507 61.1919 106.507 63.5799 106.507C63.5799 104.076 63.5799 101.747 63.5799 99.4463C64.8117 99.4463 65.9375 99.4463 67.166 99.4463C67.166 100.64 67.166 101.779 67.166 102.984C68.3962 102.984 69.5236 102.984 70.7521 102.984C70.7521 104.19 70.7521 105.331 70.7521 106.57C71.9421 106.57 73.0293 106.57 74.1085 106.57C74.1085 107.791 74.1085 108.906 74.1085 110.123C70.5722 110.123 67.0825 110.123 63.6008 110.123C63.6008 111.302 63.6008 112.377 63.6008 113.445C69.5412 113.445 75.411 113.445 81.3835 113.445C81.3835 112.323 81.3835 111.246 81.3835 110.178C82.5751 110.178 83.6607 110.178 84.8138 110.178C84.8138 111.302 84.8138 112.356 84.8138 113.432C87.2356 113.432 89.5851 113.432 91.9812 113.432C91.9812 112.29 91.9812 111.208 91.9812 110.124C90.8024 110.124 89.6221 110.124 88.3421 110.124C88.3421 108.842 88.3421 107.701 88.3421 106.497C85.9733 106.497 83.7073 106.497 81.4349 106.497C81.4349 104.098 81.4349 101.771 81.4349 99.4368C82.5655 99.4368 83.627 99.4368 84.7946 99.4368C84.7946 100.617 84.7946 101.758 84.7946 102.895C87.2501 102.895 89.5996 102.895 92.0197 102.895C92.0197 101.712 92.0197 100.595 92.0197 99.4495C93.176 99.4495 94.2616 99.4495 95.4501 99.4495C95.4501 100.646 95.4501 101.787 95.4501 102.991C100.223 102.991 104.891 102.991 109.586 102.991C109.586 105.388 109.586 107.717 109.586 110.148C107.238 110.148 104.949 110.148 102.675 110.148C102.675 111.305 102.675 112.358 102.675 113.43C106.215 113.43 109.703 113.43 113.178 113.43C113.178 108.721 113.178 104.076 113.178 99.3604C110.84 99.3604 108.576 99.3604 106.207 99.3604C106.207 98.2166 106.207 97.1395 106.207 95.9623C103.751 95.9623 101.4 95.9623 99.0715 95.9623C99.0715 94.7421 99.0715 93.6269 99.0715 92.4098C100.273 92.4098 101.424 92.4098 102.674 92.4098C102.674 90.041 102.674 87.774 102.674 85.5372C103.905 85.5372 105.031 85.5372 106.26 85.5372C106.26 87.8583 106.26 90.1253 106.26 92.4592C107.427 92.4592 108.49 92.4592 109.656 92.4592C109.656 93.6666 109.656 94.8057 109.656 95.94C110.912 95.9384 112.062 95.9384 113.204 95.9384ZM81.3 50.2608C80.1678 50.2608 79.0228 50.2608 77.7733 50.2608C77.7733 49.0915 77.7733 47.927 77.7733 46.7625C78.9264 46.7625 80.0795 46.7625 81.3 46.7625C81.3 47.9286 81.3 49.0629 81.3 50.2608ZM60.0452 99.3286C58.913 99.3286 57.768 99.3286 56.5186 99.3286C56.5186 98.2213 56.5186 97.1205 56.5186 96.018C57.6716 96.018 58.8231 96.018 60.0452 96.018C60.0452 97.1221 60.0452 98.1943 60.0452 99.3286ZM67.1981 95.9416C67.1981 94.8168 67.1981 93.681 67.1981 92.4464C69.5203 92.4464 71.8329 92.4464 74.1455 92.4464C74.1455 93.5903 74.1455 94.7325 74.1455 95.9416C71.8265 95.9416 69.5444 95.9416 67.1981 95.9416ZM77.7219 102.914C76.5576 102.914 75.4335 102.914 74.2338 102.914C74.2338 101.798 74.2338 100.663 74.2338 99.4591C75.3532 99.4591 76.4998 99.4591 77.7219 99.4591C77.7219 100.638 77.7219 101.752 77.7219 102.914ZM81.3 95.9448C80.1678 95.9448 79.0228 95.9448 77.7733 95.9448C77.7733 94.7755 77.7733 93.611 77.7733 92.4464C78.9264 92.4464 80.0795 92.4464 81.3 92.4464C81.3 93.6142 81.3 94.7468 81.3 95.9448ZM70.7537 81.8432C70.7537 80.6818 70.7537 79.5141 70.7537 78.348C74.2868 78.348 77.8199 78.348 81.3546 78.348C81.3546 79.4918 81.3546 80.6357 81.3546 81.8432C77.8312 81.8432 74.3478 81.8432 70.7537 81.8432ZM95.3457 95.9671C91.8158 95.9671 88.3517 95.9671 84.8363 95.9671C84.8363 92.4942 84.8363 89.0626 84.8363 85.5563C88.3036 85.5563 91.7901 85.5563 95.3457 85.5563C95.3457 88.9831 95.3457 92.4369 95.3457 95.9671ZM109.576 81.8448C107.308 81.8448 105.026 81.8448 102.635 81.8448C102.635 80.6786 102.635 79.5125 102.635 78.3464C104.925 78.3464 107.215 78.3464 109.576 78.3464C109.576 79.5109 109.576 80.6452 109.576 81.8448Z" fill="#6B6E73"/>
<path d="M102.637 74.9656C102.637 74.9561 102.637 74.9466 102.637 74.9387L102.612 74.9656C102.62 74.9656 102.628 74.9656 102.637 74.9656Z" fill="#6B6E73"/>
<path d="M91.981 110.097C91.981 110.107 91.981 110.115 91.981 110.124C91.9903 110.124 91.9981 110.124 92.0075 110.124L91.981 110.097Z" fill="#6B6E73"/>
<path d="M81.3564 57.2671C81.3564 57.275 81.3564 57.2845 81.3564 57.2924C81.3642 57.2924 81.3736 57.2924 81.3814 57.2924C81.3814 57.2845 81.3814 57.275 81.3814 57.2671C81.3736 57.2671 81.3642 57.2671 81.3564 57.2671Z" fill="#6B6E73"/>
<path d="M45.8947 71.3671C45.8853 71.3671 45.876 71.3671 45.8682 71.3671L45.8947 71.3924C45.8947 71.3829 45.8947 71.375 45.8947 71.3671Z" fill="#6B6E73"/>
<path d="M113.187 25.769C104.889 25.769 96.6581 25.769 88.4404 25.769C88.4404 33.9748 88.4404 42.1058 88.4404 50.2798C96.6982 50.2798 104.906 50.2798 113.187 50.2798C113.187 42.0549 113.187 33.9016 113.187 25.769ZM109.573 46.686C103.768 46.686 97.9412 46.686 92.041 46.686C92.041 40.8665 92.041 35.1154 92.041 29.3167C97.8882 29.3167 103.694 29.3167 109.573 29.3167C109.573 35.0757 109.573 40.8474 109.573 46.686Z" fill="#6B6E73"/>
<path d="M49.2469 25.7373C41.0518 25.7373 32.9063 25.7373 24.6919 25.7373C24.6919 33.9638 24.6919 42.1187 24.6919 50.2481C32.9272 50.2481 41.0951 50.2481 49.2469 50.2481C49.2469 42.0439 49.2469 33.9113 49.2469 25.7373ZM45.8391 46.702C39.9292 46.702 34.061 46.702 28.1174 46.702C28.1174 40.9462 28.1174 35.1745 28.1174 29.3343C33.9823 29.3343 39.873 29.3343 45.8391 29.3343C45.8391 35.1506 45.8391 40.9016 45.8391 46.702Z" fill="#6B6E73"/>
<path d="M24.6772 113.451C32.874 113.451 41.0194 113.451 49.2291 113.451C49.2291 105.218 49.2291 97.0649 49.2291 88.9402C40.9921 88.9402 32.8242 88.9402 24.6772 88.9402C24.6772 97.1476 24.6772 105.28 24.6772 113.451ZM28.1156 92.5022C33.9838 92.5022 39.8728 92.5022 45.8373 92.5022C45.8373 98.3837 45.8373 104.197 45.8373 110.059C39.9274 110.059 34.0592 110.059 28.1156 110.059C28.1156 104.238 28.1156 98.4028 28.1156 92.5022Z" fill="#6B6E73"/>
<path d="M38.6842 67.7559C38.6842 65.395 38.6842 63.1312 38.6842 60.8674C39.863 60.8674 41.0402 60.8674 42.2013 60.8674C42.2013 58.3983 42.2013 56.0724 42.2013 53.7831C36.3042 53.7831 30.4794 53.7831 24.6787 53.7831C24.6787 54.9747 24.6787 56.0883 24.6787 57.3054C25.8157 57.3054 26.9029 57.3054 28.0239 57.3054C28.0239 59.741 28.0239 62.0749 28.0239 64.4087C26.9094 64.4087 25.7932 64.4087 24.6932 64.4087C24.6932 71.512 24.6932 78.4721 24.6932 85.4355C25.8238 85.4355 26.8853 85.4355 28.048 85.4355C28.048 81.9371 28.048 78.4817 28.048 74.9261C29.2958 74.9261 30.4457 74.9261 31.6951 74.9261C31.6951 73.6868 31.6951 72.5461 31.6951 71.3275C32.9558 71.3275 34.1137 71.3275 35.2716 71.3275C35.2732 70.1677 35.2732 69.0064 35.2732 67.7559C36.4744 67.7559 37.5568 67.7559 38.6842 67.7559ZM35.3214 57.342C36.3909 57.342 37.4717 57.342 38.6585 57.342C38.6585 58.5129 38.6585 59.6758 38.6585 60.8403C37.5697 60.8403 36.4793 60.8403 35.3214 60.8403C35.3214 59.6742 35.3214 58.5399 35.3214 57.342ZM31.5779 67.7448C30.4457 67.7448 29.3006 67.7448 28.0512 67.7448C28.0512 66.6375 28.0512 65.5366 28.0512 64.4342C29.2027 64.4342 30.3558 64.4342 31.5779 64.4342C31.5779 65.5382 31.5779 66.6105 31.5779 67.7448Z" fill="#6B6E73"/>
<path d="M60.1261 71.3925C60.1261 71.383 60.1261 71.3751 60.1261 71.3656C60.1168 71.3656 60.109 71.3656 60.0996 71.3656C60.0996 71.3751 60.0996 71.383 60.0996 71.3925C60.109 71.3925 60.1168 71.3925 60.1261 71.3925Z" fill="#6B6E73"/>
<path d="M63.5176 71.3924C63.5254 71.3924 63.5347 71.3924 63.5425 71.3924C63.5425 71.3845 63.5425 71.375 63.5425 71.3671C63.5347 71.3671 63.5254 71.3671 63.5176 71.3671C63.5176 71.375 63.5176 71.3845 63.5176 71.3924Z" fill="#6B6E73"/>
<path d="M38.6553 78.3209C38.6553 78.3304 38.6553 78.3398 38.6553 78.3478C38.6631 78.3478 38.6724 78.3478 38.6802 78.3478C38.6802 78.3383 38.6802 78.3304 38.6802 78.3209C38.6724 78.3209 38.6631 78.3209 38.6553 78.3209Z" fill="#6B6E73"/>
<path d="M45.8662 71.3671C45.8662 71.375 45.8662 71.3845 45.8662 71.3924C45.8756 71.3924 45.8849 71.3924 45.8927 71.3924L45.8662 71.3671Z" fill="#6B6E73"/>
<path d="M35.284 71.3408C35.2902 71.3348 35.2965 71.3274 35.2965 71.3274C35.2887 71.3274 35.2793 71.3274 35.2715 71.3274C35.2715 71.3363 35.2715 71.3452 35.2715 71.3556C35.2793 71.3556 35.2871 71.3556 35.2965 71.3556C35.2965 71.3467 35.2965 71.3378 35.2965 71.3289C35.2965 71.3289 35.2902 71.3333 35.284 71.3408Z" fill="#6B6E73"/>
<path d="M60.1014 88.8511C60.1111 87.7327 60.1207 86.6143 60.1304 85.4959C61.2224 85.4959 62.3161 85.4959 63.5173 85.4959C63.5173 80.7439 63.5173 76.0683 63.5173 71.3927C62.3867 71.3927 61.2577 71.3927 60.1272 71.3927C60.1272 73.6661 60.1272 75.9378 60.1272 78.2733C58.9082 78.2733 57.76 78.2733 56.5411 78.2733C56.5411 77.2042 56.5411 76.151 56.5411 74.996C52.9839 74.996 49.4957 74.996 45.8679 74.996C45.8679 73.7297 45.8679 72.5604 45.8679 71.3927C42.3444 71.3799 38.821 71.3688 35.2975 71.3577C35.2959 73.6692 35.2959 75.9808 35.2959 78.321C36.4779 78.321 37.5683 78.321 38.6572 78.321C38.6572 77.2424 38.6572 76.1622 38.6572 75.0167C39.8648 75.0167 41.0115 75.0167 42.2898 75.0167C42.2898 76.116 42.2898 77.2185 42.2898 78.321C45.7828 78.321 49.2757 78.321 52.8361 78.321C52.8361 79.5173 52.8361 80.6532 52.8361 81.9196C49.3207 81.9196 45.8053 81.9196 42.2914 81.9196C42.2914 83.0857 42.2914 84.2534 42.2914 85.507C45.8791 85.507 49.3608 85.507 52.9389 85.507C52.9389 87.86 52.9389 90.1222 52.9389 92.421C54.1883 92.421 55.343 92.421 56.4961 92.421C56.4961 91.2756 56.4961 90.1302 56.4961 88.8495C57.7423 88.8511 58.9227 88.8511 60.1014 88.8511ZM56.5764 81.9705C57.7086 81.9705 58.8536 81.9705 60.1031 81.9705C60.1031 83.1398 60.1031 84.3043 60.1031 85.4689C58.95 85.4689 57.7969 85.4689 56.5764 85.4689C56.5764 84.3027 56.5764 83.1684 56.5764 81.9705Z" fill="#6B6E73"/>
<path d="M60.1016 88.8511C60.1016 88.8606 60.1016 88.8685 60.1016 88.8764C60.1109 88.8764 60.1187 88.8764 60.1281 88.8764C60.1281 88.8669 60.1281 88.859 60.1281 88.8511C60.1187 88.8511 60.1094 88.8511 60.1016 88.8511Z" fill="#6B6E73"/>
<path d="M56.4941 92.4226C56.4941 92.4305 56.4941 92.44 56.4941 92.4479C56.5035 92.4479 56.5113 92.4479 56.5207 92.4479C56.5207 92.44 56.5207 92.4305 56.5207 92.4226C56.5129 92.4226 56.5035 92.4226 56.4941 92.4226Z" fill="#6B6E73"/>
<path d="M67.1191 39.7802C67.1191 39.7896 67.1191 39.7976 67.1191 39.807L67.1457 39.7802C67.1363 39.7802 67.1269 39.7802 67.1191 39.7802Z" fill="#6B6E73"/>
<path d="M60.0996 39.7817C60.0996 39.7912 60.0996 39.8007 60.0996 39.8086C60.1074 39.8086 60.1168 39.8086 60.1246 39.8086C60.1246 39.7991 60.1246 39.7896 60.1246 39.7817C60.1168 39.7817 60.109 39.7817 60.0996 39.7817Z" fill="#6B6E73"/>
<path d="M70.6879 32.6034C70.6879 31.4469 70.6879 30.3937 70.6879 29.3326C68.2822 29.3326 65.9327 29.3326 63.4788 29.3326C63.4788 30.4732 63.4788 31.5519 63.4788 32.5955C62.3113 32.5955 61.2481 32.5955 60.0822 32.5955C60.0822 30.2744 60.0822 28.0074 60.0822 25.7404C58.8521 25.7404 57.7263 25.7404 56.4961 25.7404C56.4961 26.9224 56.4961 28.0631 56.4961 29.3024C55.2435 29.3024 54.092 29.3024 52.9502 29.3024C52.9502 30.4589 52.9502 31.5121 52.9502 32.6671C54.1466 32.6671 55.2965 32.6671 56.4351 32.6671C56.4351 33.9096 56.4351 35.0471 56.4351 36.253C55.2371 36.253 54.1097 36.253 52.963 36.253C52.963 37.462 52.963 38.5995 52.963 39.7815C55.3832 39.7815 57.7407 39.7815 60.0983 39.7815C60.0983 38.6393 60.0983 37.497 60.0983 36.2895C61.2433 36.2895 62.3258 36.2895 63.5415 36.2895C63.5415 37.4525 63.5415 38.617 63.5415 39.7815C64.7331 39.7815 65.9263 39.7815 67.1179 39.7799C67.1179 37.4222 67.1179 35.063 67.1179 32.6034C68.4139 32.6034 69.5638 32.6034 70.6879 32.6034Z" fill="#6B6E73"/>
<path d="M81.3252 39.8183C81.3252 39.8272 81.3252 39.8361 81.3252 39.845C81.333 39.845 81.3424 39.8465 81.3502 39.8465C81.3502 39.8376 81.3502 39.8272 81.3502 39.8183C81.3424 39.8183 81.333 39.8183 81.3252 39.8183Z" fill="#6B6E73"/>
<path d="M84.7144 36.205C84.7144 32.6461 84.7144 29.1907 84.7144 25.7449C83.5789 25.7449 82.5174 25.7449 81.3515 25.7449C81.3515 26.9301 81.3515 28.0708 81.3515 29.283C80.094 29.283 78.9361 29.283 77.7815 29.283C77.7815 31.5723 77.7815 33.8632 77.7815 36.2463C75.3709 36.2463 73.0889 36.2463 70.7089 36.2463C70.7089 37.4761 70.7089 38.6136 70.7089 39.8067C69.4562 39.8067 68.3015 39.8067 67.1484 39.8067C67.1484 40.9124 67.1484 42.0181 67.1484 43.1062C69.5509 43.1062 71.8378 43.1062 74.1938 43.1062C74.1938 41.9799 74.1938 40.9267 74.1938 39.8195C76.6188 39.8195 78.9731 39.8195 81.329 39.8179C81.3306 38.647 81.3306 37.4761 81.3306 36.205C82.5528 36.205 83.64 36.205 84.7144 36.205Z" fill="#6B6E73"/>
<path d="M67.1191 39.807C67.1269 39.807 67.1363 39.807 67.1457 39.807C67.1457 39.7976 67.1457 39.7896 67.1457 39.7802L67.1191 39.807Z" fill="#6B6E73"/>
<path d="M77.7524 29.2833C77.7618 29.2833 77.7696 29.2833 77.779 29.2833C77.779 29.2738 77.779 29.2659 77.779 29.2564L77.7524 29.2833Z" fill="#6B6E73"/>
<path d="M106.239 60.8355C106.232 60.8355 106.222 60.8355 106.213 60.8355C106.213 60.845 106.213 60.8529 106.213 60.8624L106.239 60.8355Z" fill="#6B6E73"/>
<path d="M106.215 57.2687C106.215 57.2782 106.215 57.2862 106.215 57.2957C106.224 57.2957 106.232 57.2957 106.241 57.2957L106.215 57.2687Z" fill="#6B6E73"/>
<path d="M99.0334 60.8355C99.024 60.8355 99.0162 60.8355 99.0068 60.8355L99.0334 60.8624C99.0334 60.8529 99.0334 60.8434 99.0334 60.8355Z" fill="#6B6E73"/>
<path d="M106.214 57.2957C105.039 57.2957 103.863 57.2957 102.591 57.2957C102.591 56.0278 102.591 54.8919 102.591 53.7783C101.345 53.7783 100.2 53.7783 99.0342 53.7783C99.0342 56.1773 99.0342 58.5064 99.0342 60.8338C101.427 60.8338 103.82 60.8338 106.214 60.8338C106.214 59.6566 106.214 58.4762 106.214 57.2957Z" fill="#6B6E73"/>
<path d="M84.7985 53.7193C84.7985 53.7114 84.7985 53.7019 84.7985 53.694C84.7892 53.694 84.7798 53.694 84.772 53.694C84.772 53.7019 84.772 53.7114 84.772 53.7193C84.7798 53.7193 84.7892 53.7193 84.7985 53.7193Z" fill="#6B6E73"/>
<path d="M109.674 64.4643C109.674 65.6177 109.674 66.6709 109.674 67.7495C110.891 67.7495 112.038 67.7495 113.184 67.7495C113.184 65.4268 113.184 63.1646 113.184 60.8625C110.825 60.8625 108.532 60.8625 106.24 60.8625C106.24 62.0303 106.24 63.198 106.24 64.4643C107.437 64.4643 108.524 64.4643 109.674 64.4643Z" fill="#6B6E73"/>
<path d="M106.239 60.8355L106.213 60.8624C106.222 60.8624 106.23 60.8624 106.239 60.8624C106.239 60.8545 106.239 60.845 106.239 60.8355Z" fill="#6B6E73"/>
<path d="M63.5176 39.8086C63.5254 39.8086 63.5347 39.8086 63.5425 39.8086C63.5425 39.7991 63.5425 39.7896 63.5425 39.7817C63.5347 39.7817 63.5254 39.7817 63.5176 39.7817C63.5176 39.7896 63.5176 39.7991 63.5176 39.8086Z" fill="#6B6E73"/>
<path d="M60.127 50.2561C61.3154 50.2561 62.3994 50.2561 63.5171 50.2561C63.5171 46.7291 63.5171 43.2689 63.5171 39.8087C62.3865 39.8087 61.2559 39.8087 60.127 39.8087C60.127 43.2912 60.127 46.7736 60.127 50.2561Z" fill="#6B6E73"/>
<path d="M52.9531 43.2561C52.9531 45.6361 52.9531 47.9381 52.9531 50.2831C54.1271 50.2831 55.2528 50.2831 56.4412 50.2831C56.4412 47.8792 56.4412 45.5533 56.4412 43.2561C55.2239 43.2561 54.0773 43.2561 52.9531 43.2561Z" fill="#6B6E73"/>
<path d="M98.9561 106.602C96.6098 106.602 94.3294 106.602 92.0088 106.602C92.0088 107.811 92.0088 108.955 92.0088 110.097C94.3214 110.097 96.6339 110.097 98.9561 110.097C98.9561 108.863 98.9561 107.727 98.9561 106.602Z" fill="#6B6E73"/>
<path d="M91.981 110.097L92.0075 110.124C92.0075 110.115 92.0075 110.107 92.0075 110.097C91.9981 110.097 91.9903 110.097 91.981 110.097Z" fill="#6B6E73"/>
<path d="M95.3987 53.7752C94.2119 53.7752 93.1279 53.7752 92.0117 53.7752C92.0117 56.1743 92.0117 58.5065 92.0117 60.8388C93.1407 60.8388 94.2697 60.8388 95.3987 60.8388C95.3987 58.4842 95.3987 56.1281 95.3987 53.7752Z" fill="#6B6E73"/>
<path d="M92.0109 60.8386C92.0015 60.8386 91.9922 60.8386 91.9844 60.8386L92.0109 60.8639C92.0109 60.856 92.0109 60.8465 92.0109 60.8386Z" fill="#6B6E73"/>
<path d="M77.7524 29.2833L77.779 29.2564C77.7696 29.2564 77.7618 29.2564 77.7524 29.2564C77.7524 29.2659 77.7524 29.2738 77.7524 29.2833Z" fill="#6B6E73"/>
<path d="M74.2275 25.7577C74.2275 26.9556 74.2275 28.0899 74.2275 29.2561C75.4481 29.2561 76.6011 29.2561 77.7542 29.2561C77.7542 28.0915 77.7542 26.927 77.7542 25.7577C76.5048 25.7577 75.3597 25.7577 74.2275 25.7577Z" fill="#6B6E73"/>
<path d="M88.404 60.8639C88.404 60.856 88.404 60.8465 88.404 60.8386C88.3946 60.8386 88.3868 60.8386 88.3774 60.8386C88.3774 60.8465 88.3774 60.856 88.3774 60.8639C88.3852 60.8639 88.3946 60.8639 88.404 60.8639Z" fill="#6B6E73"/>
<path d="M91.9844 60.8386C91.9844 60.8465 91.9844 60.856 91.9844 60.8639C91.9937 60.8639 92.0015 60.8639 92.0109 60.8639L91.9844 60.8386Z" fill="#6B6E73"/>
<path d="M91.9845 64.4103C91.9845 63.2283 91.9845 62.0462 91.9845 60.8642C90.7912 60.8642 89.598 60.8642 88.4048 60.8642C88.4048 62.0096 88.4048 63.1551 88.4048 64.4103C89.6253 64.4103 90.8041 64.4103 91.9845 64.4103Z" fill="#6B6E73"/>
<path d="M91.9844 64.4102C91.9844 64.4181 91.9844 64.4276 91.9844 64.4355C91.9922 64.4355 92.0015 64.4355 92.0093 64.4355C92.0093 64.4276 92.0093 64.4181 92.0093 64.4102C92.0015 64.4102 91.9922 64.4102 91.9844 64.4102Z" fill="#6B6E73"/>
<path d="M38.6837 81.9178C38.6837 81.9099 38.6837 81.9004 38.6837 81.8909C38.6744 81.8909 38.6666 81.8909 38.6572 81.8909L38.6837 81.9178Z" fill="#6B6E73"/>
<path d="M42.2607 81.8957C42.2607 81.9036 42.2607 81.9131 42.2607 81.921C42.2701 81.921 42.2795 81.921 42.2873 81.921C42.2873 81.9131 42.2873 81.9036 42.2873 81.8957C42.2795 81.8957 42.2701 81.8957 42.2607 81.8957Z" fill="#6B6E73"/>
<path d="M38.6812 78.348C38.6828 79.5284 38.6828 80.7088 38.6844 81.8909C39.876 81.8925 41.0692 81.8925 42.2608 81.8941C42.2608 80.712 42.2608 79.53 42.2608 78.348C41.0676 78.348 39.8744 78.348 38.6812 78.348Z" fill="#6B6E73"/>
<path d="M42.2607 78.3478C42.2685 78.3478 42.2779 78.3478 42.2857 78.3478C42.2857 78.3399 42.2857 78.3304 42.2857 78.3225C42.2779 78.3225 42.2685 78.3225 42.2607 78.3225C42.2607 78.3304 42.2607 78.3399 42.2607 78.3478Z" fill="#6B6E73"/>
<path d="M99.0318 71.394C99.0318 71.3845 99.0318 71.375 99.0318 71.3671L99.0068 71.394C99.0146 71.394 99.0224 71.394 99.0318 71.394Z" fill="#6B6E73"/>
<path d="M102.613 74.9387C102.613 73.7582 102.611 72.5778 102.61 71.3957C101.418 71.3957 100.225 71.3942 99.0332 71.3942C99.0332 72.538 99.0332 73.6834 99.0332 74.9387C100.254 74.9387 101.433 74.9387 102.613 74.9387Z" fill="#6B6E73"/>
<path d="M102.609 71.3687C102.609 71.3782 102.609 71.3861 102.609 71.3956C102.619 71.3956 102.627 71.3956 102.636 71.3956L102.609 71.3687Z" fill="#6B6E73"/>
<path d="M102.637 74.9387C102.629 74.9387 102.62 74.9387 102.612 74.9387C102.612 74.9482 102.612 74.9577 102.612 74.9656L102.637 74.9387Z" fill="#6B6E73"/>
<path d="M99.0071 64.4086C99.0071 63.1534 99.0071 62.0064 99.0071 60.861C97.8139 60.861 96.619 60.8625 95.4258 60.8625C95.4258 62.0446 95.4258 63.2266 95.4258 64.4071C96.6062 64.4087 97.7849 64.4086 99.0071 64.4086Z" fill="#6B6E73"/>
<path d="M95.425 60.8639C95.425 60.856 95.425 60.8465 95.425 60.8386C95.4156 60.8386 95.4062 60.8386 95.3984 60.8386C95.3984 60.8465 95.3984 60.856 95.3984 60.8639C95.4078 60.8639 95.4172 60.8639 95.425 60.8639Z" fill="#6B6E73"/>
<path d="M99.0068 60.8355C99.0068 60.845 99.0068 60.8529 99.0068 60.8624C99.0162 60.8624 99.024 60.8624 99.0334 60.8624L99.0068 60.8355Z" fill="#6B6E73"/>
<path d="M95.4253 67.8225C95.4253 67.8131 95.4253 67.8036 95.4253 67.7957C95.4175 67.7957 95.4082 67.7957 95.4004 67.7957C95.4004 67.8051 95.4004 67.8146 95.4004 67.8225C95.4082 67.8225 95.4175 67.8225 95.4253 67.8225Z" fill="#6B6E73"/>
<path d="M99.0318 71.3671C99.024 71.3671 99.0146 71.3671 99.0068 71.3671C99.0068 71.3766 99.0068 71.3861 99.0068 71.394L99.0318 71.3671Z" fill="#6B6E73"/>
<path d="M102.609 71.3687L102.636 71.3956C102.636 71.3861 102.636 71.3782 102.636 71.3687C102.627 71.3687 102.617 71.3687 102.609 71.3687Z" fill="#6B6E73"/>
<path d="M106.168 67.8768C104.959 67.8768 103.814 67.8768 102.637 67.8768C102.637 69.0858 102.637 70.2281 102.637 71.3704C103.812 71.3704 104.988 71.3704 106.168 71.3704C106.168 70.1326 106.168 68.9983 106.168 67.8768Z" fill="#6B6E73"/>
<path d="M106.215 57.2687L106.241 57.2957C106.241 57.2862 106.241 57.2782 106.241 57.2687C106.232 57.2687 106.224 57.2687 106.215 57.2687Z" fill="#6B6E73"/>
<path d="M109.584 53.7767C108.438 53.7767 107.357 53.7767 106.242 53.7767C106.242 54.9858 106.242 56.1281 106.242 57.2703C107.355 57.2703 108.466 57.2703 109.584 57.2703C109.584 56.031 109.584 54.8983 109.584 53.7767Z" fill="#6B6E73"/>
<path d="M38.6837 81.9178L38.6572 81.8909C38.6572 81.9004 38.6572 81.9083 38.6572 81.9178C38.6666 81.9178 38.6744 81.9178 38.6837 81.9178Z" fill="#6B6E73"/>
<path d="M35.3154 85.4115C36.4621 85.4115 37.5429 85.4115 38.6574 85.4115C38.6574 84.2024 38.6574 83.0602 38.6574 81.9179C37.5445 81.9179 36.4332 81.9179 35.3154 81.9179C35.3154 83.1556 35.3154 84.2899 35.3154 85.4115Z" fill="#6B6E73"/>
<path d="M49.2852 64.4135C49.2852 64.4214 49.2852 64.4309 49.2852 64.4403C49.2852 64.4403 49.2914 64.434 49.2977 64.4277L49.2852 64.4403C49.2945 64.4403 49.3023 64.4403 49.3117 64.4403C49.3117 64.4324 49.3117 64.4229 49.3117 64.4135C49.3039 64.4135 49.2945 64.4135 49.2852 64.4135Z" fill="#6B6E73"/>
<path d="M45.9502 60.9134C45.9502 62.1113 45.9502 63.2441 45.9502 64.4118C47.1081 64.4118 48.1969 64.4118 49.2874 64.4118C49.2874 63.2472 49.2874 62.0827 49.2874 60.9134C48.1006 60.9134 47.0198 60.9134 45.9502 60.9134Z" fill="#6B6E73"/>
<path d="M95.4004 64.4371C95.4082 64.4371 95.4175 64.4371 95.4253 64.4371C95.4253 64.4276 95.4253 64.4181 95.4253 64.4102C95.4175 64.4102 95.4082 64.4102 95.4004 64.4102C95.4004 64.4181 95.4004 64.4276 95.4004 64.4371Z" fill="#6B6E73"/>
<path d="M81.3545 74.964C81.3639 74.964 81.3717 74.964 81.381 74.964C81.381 74.9561 81.381 74.9466 81.381 74.9387C81.3717 74.9387 81.3623 74.9387 81.3545 74.9387C81.3545 74.9482 81.3545 74.9561 81.3545 74.964Z" fill="#6B6E73"/>
<path d="M91.9394 88.9291C90.7333 88.9291 89.5883 88.9291 88.4336 88.9291C88.4336 90.1079 88.4336 91.2216 88.4336 92.3861C89.667 92.3861 90.7895 92.3861 91.9394 92.3861C91.9394 91.2009 91.9394 90.0666 91.9394 88.9291Z" fill="#6B6E73"/>
<path d="M74.1685 67.7941C74.1607 67.7941 74.1514 67.7941 74.1436 67.7941C74.1436 67.8036 74.1436 67.813 74.1436 67.821C74.1514 67.821 74.1607 67.821 74.1685 67.821C74.1685 67.813 74.1685 67.8036 74.1685 67.7941Z" fill="#6B6E73"/>
<path d="M77.751 67.7941C77.751 67.8036 77.751 67.813 77.751 67.821C77.7588 67.821 77.7681 67.821 77.776 67.821C77.776 67.8115 77.776 67.802 77.776 67.7941C77.7681 67.7941 77.7588 67.7941 77.751 67.7941Z" fill="#6B6E73"/>
<path d="M106.181 32.6942C102.604 32.6942 99.0762 32.6942 95.4805 32.6942C95.4805 36.2212 95.4805 39.675 95.4805 43.1066C99.0971 43.1066 102.648 43.1066 106.181 43.1066C106.181 39.5987 106.181 36.1671 106.181 32.6942Z" fill="#6B6E73"/>
<path d="M42.2082 32.7261C38.6543 32.7261 35.1677 32.7261 31.6973 32.7261C31.6973 36.2324 31.6973 39.6639 31.6973 43.1368C35.2111 43.1368 38.6751 43.1368 42.2082 43.1368C42.2082 39.6098 42.2082 36.156 42.2082 32.7261Z" fill="#6B6E73"/>
<path d="M31.6885 106.47C35.2505 106.47 38.737 106.47 42.1978 106.47C42.1978 102.95 42.1978 99.4957 42.1978 96.0578C38.6583 96.0578 35.1943 96.0578 31.6885 96.0578C31.6885 99.5387 31.6885 102.97 31.6885 106.47Z" fill="#6B6E73"/>
<path d="M139.193 67.8654H5.19336V71.8279H139.193V67.8654Z" fill="#EF4F5F"/>
<path d="M1.79386 28.4514C0.802984 28.4514 0 27.656 0 26.6744V9.05214C0 4.05993 4.10001 0 9.13949 0H26.9286C27.9195 0 28.7225 0.795427 28.7225 1.77701C28.7225 2.75858 27.9195 3.55404 26.9286 3.55404H9.13949C6.07855 3.55404 3.58931 6.0199 3.58931 9.05214V26.6744C3.5877 27.656 2.78473 28.4514 1.79386 28.4514Z" fill="#EF4F5F"/>
<path d="M136.085 28.4514C135.094 28.4514 134.291 27.656 134.291 26.6744V9.05214C134.291 6.0199 131.802 3.55404 128.741 3.55404H110.952C109.961 3.55404 109.158 2.75858 109.158 1.77701C109.158 0.795427 109.961 0 110.952 0H128.741C133.781 0 137.881 4.06152 137.881 9.05214V26.6744C137.881 27.656 137.076 28.4514 136.085 28.4514Z" fill="#EF4F5F"/>
<path d="M128.741 139.19H110.952C109.961 139.19 109.158 138.395 109.158 137.413C109.158 136.43 109.961 135.636 110.952 135.636H128.741C131.802 135.636 134.291 133.17 134.291 130.138V112.516C134.291 111.532 135.094 110.739 136.085 110.739C137.076 110.739 137.879 111.534 137.879 112.516V130.136C137.881 135.128 133.781 139.19 128.741 139.19Z" fill="#EF4F5F"/>
<path d="M26.9286 139.19H9.13949C4.10001 139.19 0 135.128 0 130.136V112.516C0 111.532 0.802984 110.739 1.79386 110.739C2.78473 110.739 3.58771 111.534 3.58771 112.516V130.136C3.58771 133.168 6.07693 135.634 9.13788 135.634H26.927C27.9179 135.634 28.7209 136.43 28.7209 137.411C28.7225 138.396 27.9195 139.19 26.9286 139.19Z" fill="#EF4F5F"/>
</svg>
