<?xml version="1.0" encoding="utf-8"?>
<!-- Generator: Adobe Illustrator 24.2.1, SVG Export Plug-In . SVG Version: 6.00 Build 0)  -->
<svg version="1.1" id="Layer_1" xmlns="http://www.w3.org/2000/svg" xmlns:xlink="http://www.w3.org/1999/xlink" x="0px" y="0px"
	 viewBox="0 0 573 435" style="enable-background:new 0 0 573 435;" xml:space="preserve">
<style type="text/css">
	.st0{fill:#EF4F5F;}
</style>
<g transform="translate(0.000000,435.000000) scale(0.100000,-0.100000)">
	<path class="st0" d="M0,2175V0l1928,2l1927,3l53,155c29,85,71,207,92,270c22,63,53,153,71,200c17,47,39,112,49,145
		c11,33,49,146,85,250c36,105,91,262,121,350c31,88,71,205,89,260s65,192,105,305c39,113,77,225,85,250c7,25,32,97,55,160
		s52,147,65,185c37,112,231,675,253,735c10,30,27,78,35,105c9,28,46,136,82,240c37,105,82,235,100,290s60,178,93,273l60,172H2674H0
		V2175z"/>
	<path class="st0" d="M5411,4303c-8-27-58-181-111-343c-54-162-141-428-194-590s-118-362-145-445c-27-82-116-352-197-600
		c-80-247-179-549-219-670s-128-389-195-595s-163-501-214-655C4030,84,4010,21,4010,9c0-6,52-8,121-7l121,3l27,85
		c25,76,64,196,160,500c17,52,39,122,50,155c31,96,115,357,171,535c29,91,67,210,85,265c19,55,61,188,95,295s84,263,110,345
		c27,83,70,215,95,295s68,213,95,295c27,83,72,224,101,315c28,91,73,233,100,315c26,83,91,285,144,450c52,165,109,341,125,390
		c17,50,30,93,30,98c0,4-49,7-108,7h-108L5411,4303z"/>
</g>
</svg>
